<svg width="60" height="60" viewBox="0 0 60 60" fill="none" xmlns="http://www.w3.org/2000/svg">
<path d="M10.5951 5C7.50458 5 5 7.50458 5 10.5944C5 13.6845 7.50458 16.1884 10.5944 16.1884C13.6845 16.1884 16.1884 13.6838 16.1884 10.5944C16.1892 7.50458 13.6846 5 10.5952 5H10.5951ZM10.5951 15.0487C8.13465 15.0487 6.14009 13.0548 6.14009 10.5941C6.14009 8.13366 8.13465 6.1391 10.5951 6.1391C13.0555 6.1391 15.0505 8.13296 15.0505 10.5941C15.0501 13.0549 13.0555 15.0487 10.5951 15.0487Z" fill="black"/>
<path d="M10.595 7.52936C8.90157 7.52936 7.53003 8.90119 7.53003 10.5944C7.53003 12.287 8.90187 13.6594 10.595 13.6594C12.2877 13.6594 13.6607 12.2871 13.6607 10.5944C13.66 8.90129 12.2877 7.52936 10.595 7.52936ZM10.595 12.4362C9.57776 12.4362 8.75355 11.6112 8.75355 10.5948C8.75355 9.57749 9.57782 8.75328 10.595 8.75328C11.6115 8.75328 12.4365 9.57755 12.4365 10.5948C12.4365 11.6112 11.6115 12.4362 10.595 12.4362Z" fill="black"/>
<path d="M11.3252 10.5944C11.3252 10.9978 10.9981 11.3245 10.5951 11.3245C10.1917 11.3245 9.86499 10.9978 9.86499 10.5944C9.86499 10.1914 10.1917 9.86469 10.5951 9.86469C10.9981 9.86469 11.3252 10.1914 11.3252 10.5944Z" fill="black"/>
<path d="M36.4694 5C33.3781 5 30.875 7.50458 30.875 10.5944C30.875 13.6845 33.3784 16.1884 36.4694 16.1884C39.5588 16.1884 42.0638 13.6838 42.0638 10.5944C42.0642 7.50458 39.5584 5 36.4694 5ZM36.4694 15.0487C34.0082 15.0487 32.014 13.0548 32.014 10.5941C32.014 8.13366 34.0086 6.1391 36.4694 6.1391C38.9294 6.1391 40.9248 8.13296 40.9248 10.5941C40.9244 13.0549 38.929 15.0487 36.4694 15.0487Z" fill="black"/>
<path d="M36.4693 7.52936C34.7754 7.52936 33.4036 8.90119 33.4036 10.5944C33.4036 12.287 34.7754 13.6594 36.4693 13.6594C38.1608 13.6594 39.5339 12.2871 39.5339 10.5944C39.5335 8.90129 38.1604 7.52936 36.4693 7.52936ZM36.4693 12.4362C35.4516 12.4362 34.627 11.6112 34.627 10.5948C34.627 9.57749 35.4513 8.75328 36.4693 8.75328C37.4849 8.75328 38.3104 9.57755 38.3104 10.5948C38.3104 11.6112 37.485 12.4362 36.4693 12.4362Z" fill="black"/>
<path d="M37.1996 10.5944C37.1996 10.9978 36.8729 11.3245 36.4695 11.3245C36.0664 11.3245 35.7397 10.9978 35.7397 10.5944C35.7397 10.1914 36.0664 9.86469 36.4695 9.86469C36.8729 9.86469 37.1996 10.1914 37.1996 10.5944Z" fill="black"/>
<path d="M49.4059 43.8109C46.3154 43.8109 43.8115 46.3154 43.8115 49.4052C43.8107 52.495 46.3153 55 49.4059 55C52.4965 55 55.0003 52.495 55.0003 49.406C55.0003 46.3155 52.4957 43.811 49.4059 43.811V43.8109ZM49.4059 53.8595C46.9447 53.8595 44.9513 51.865 44.9513 49.4049C44.9513 46.9437 46.9448 44.9496 49.4059 44.9496C51.867 44.9496 53.8613 46.9441 53.8613 49.4049C53.8609 51.8654 51.8663 53.8595 49.4059 53.8595Z" fill="black"/>
<path d="M49.4058 46.3406C47.7131 46.3406 46.3401 47.7128 46.3401 49.4063C46.3401 51.0989 47.7127 52.4709 49.4058 52.4709C51.0985 52.4709 52.4715 51.099 52.4715 49.4063C52.4707 47.7128 51.0985 46.3406 49.4058 46.3406ZM49.4058 51.2475C48.3893 51.2475 47.5646 50.4232 47.5646 49.4063C47.5646 48.389 48.3889 47.564 49.4058 47.564C50.4223 47.564 51.247 48.389 51.247 49.4063C51.247 50.4231 50.4223 51.2475 49.4058 51.2475Z" fill="black"/>
<path d="M50.1351 49.4061C50.1351 49.8092 49.8084 50.1358 49.4054 50.1358C49.002 50.1358 48.6753 49.8092 48.6753 49.4061C48.6753 49.0027 49.002 48.676 49.4054 48.676C49.8084 48.676 50.1351 49.0027 50.1351 49.4061Z" fill="black"/>
<path d="M23.5317 43.8109C20.4412 43.8109 17.9377 46.3154 17.9377 49.4052C17.9377 52.495 20.4407 55 23.5317 55C26.6222 55 29.1261 52.495 29.1261 49.406C29.1261 46.3155 26.6215 43.811 23.5317 43.811V43.8109ZM23.5317 53.8595C21.0713 53.8595 19.0771 51.865 19.0771 49.4049C19.0771 46.9437 21.071 44.9496 23.5317 44.9496C25.993 44.9496 27.9871 46.9441 27.9871 49.4049C27.9867 51.8654 25.9926 53.8595 23.5317 53.8595Z" fill="black"/>
<path d="M23.5318 46.3406C21.8391 46.3406 20.4668 47.7128 20.4668 49.4063C20.4668 51.0989 21.839 52.4709 23.5318 52.4709C25.2253 52.4709 26.5979 51.099 26.5979 49.4063C26.5971 47.7128 25.2249 46.3406 23.5318 46.3406ZM23.5318 51.2475C22.5153 51.2475 21.6906 50.4232 21.6906 49.4063C21.6906 48.389 22.5149 47.564 23.5318 47.564C24.5491 47.564 25.3733 48.389 25.3733 49.4063C25.3733 50.4231 24.549 51.2475 23.5318 51.2475Z" fill="black"/>
<path d="M24.2618 49.4061C24.2618 49.8092 23.9351 50.1358 23.5321 50.1358C23.1287 50.1358 22.802 49.8092 22.802 49.4061C22.802 49.0027 23.1287 48.676 23.5321 48.676C23.9351 48.676 24.2618 49.0027 24.2618 49.4061Z" fill="black"/>
<path d="M49.4059 29.1262C52.4964 29.1262 55.0003 26.6216 55.0003 23.5322C55.0003 20.4417 52.4957 17.9371 49.4059 17.9371C46.3158 17.9371 43.8115 20.4417 43.8115 23.5322C43.8107 26.6212 46.3153 29.1262 49.4059 29.1262ZM49.4059 19.0765C51.8671 19.0765 53.8613 21.0704 53.8613 23.5315C53.8613 25.9916 51.8667 27.9861 49.4059 27.9861C46.9447 27.9861 44.9513 25.9923 44.9513 23.5315C44.9513 21.0707 46.9448 19.0765 49.4059 19.0765Z" fill="black"/>
<path d="M49.4058 26.5974C51.0985 26.5974 52.4715 25.2252 52.4715 23.5328C52.4715 21.8393 51.0989 20.4671 49.4058 20.4671C47.7131 20.4671 46.3401 21.8393 46.3401 23.5328C46.3401 25.2252 47.7127 26.5974 49.4058 26.5974ZM49.4058 21.6905C50.4223 21.6905 51.247 22.5156 51.247 23.5328C51.247 24.5493 50.4227 25.374 49.4058 25.374C48.3893 25.374 47.5646 24.5489 47.5646 23.5328C47.5638 22.5151 48.3889 21.6905 49.4058 21.6905Z" fill="black"/>
<path d="M50.1351 23.5319C50.1351 23.9349 49.8084 24.2616 49.4054 24.2616C49.002 24.2616 48.6753 23.9349 48.6753 23.5319C48.6753 23.1284 49.002 22.8018 49.4054 22.8018C49.8084 22.8018 50.1351 23.1284 50.1351 23.5319Z" fill="black"/>
<path d="M23.5317 17.9376C20.4412 17.9376 17.9377 20.4422 17.9377 23.5327C17.9377 26.6221 20.4415 29.1267 23.5317 29.1267C26.6218 29.1267 29.1261 26.6221 29.1261 23.5327C29.1261 20.4422 26.6215 17.9376 23.5317 17.9376ZM23.5317 27.9863C21.0713 27.9863 19.0771 25.9924 19.0771 23.5317C19.0771 21.0705 21.071 19.0767 23.5317 19.0767C25.993 19.0767 27.9871 21.0706 27.9871 23.5317C27.9867 25.9925 25.9926 27.9863 23.5317 27.9863Z" fill="black"/>
<path d="M23.5318 20.4664C21.8391 20.4664 20.4668 21.8386 20.4668 23.5321C20.4668 25.2244 21.839 26.5967 23.5318 26.5967C25.2253 26.5967 26.5979 25.2244 26.5979 23.5321C26.5971 21.8386 25.2249 20.4664 23.5318 20.4664ZM23.5318 25.3733C22.5153 25.3733 21.6906 24.5482 21.6906 23.5321C21.6906 22.5148 22.5149 21.6898 23.5318 21.6898C24.5491 21.6898 25.3733 22.5148 25.3733 23.5321C25.3733 24.5481 24.549 25.3733 23.5318 25.3733Z" fill="black"/>
<path d="M24.2618 23.5319C24.2618 23.9349 23.9351 24.2616 23.5321 24.2616C23.1287 24.2616 22.802 23.9349 22.802 23.5319C22.802 23.1284 23.1287 22.8018 23.5321 22.8018C23.9351 22.8018 24.2618 23.1284 24.2618 23.5319Z" fill="black"/>
<path d="M10.5951 30.8742C7.50458 30.8742 5 33.3788 5 36.4693C5 39.5594 7.50458 42.0637 10.5944 42.0637C13.6845 42.0637 16.1884 39.5587 16.1884 36.4693C16.1892 33.3788 13.6846 30.8742 10.5952 30.8742H10.5951ZM10.5951 40.9229C8.13465 40.9229 6.14009 38.929 6.14009 36.4683C6.14009 34.0071 8.13465 32.0133 10.5951 32.0133C13.0555 32.0133 15.0505 34.0072 15.0505 36.4683C15.0501 38.9291 13.0555 40.9229 10.5951 40.9229Z" fill="black"/>
<path d="M10.595 33.403C8.90157 33.403 7.53003 34.7756 7.53003 36.4687C7.53003 38.1614 8.90187 39.5337 10.595 39.5337C12.2877 39.5337 13.6607 38.1615 13.6607 36.4687C13.6603 34.776 12.2877 33.403 10.595 33.403ZM10.595 38.3099C9.57776 38.3099 8.75355 37.4856 8.75355 36.4687C8.75355 35.4522 9.57782 34.6272 10.595 34.6272C11.6115 34.6272 12.4365 35.4523 12.4365 36.4687C12.4365 37.4852 11.6115 38.3099 10.595 38.3099Z" fill="black"/>
<path d="M11.3252 36.4695C11.3252 36.8725 10.9981 37.1996 10.5951 37.1996C10.1917 37.1996 9.86499 36.8725 9.86499 36.4695C9.86499 36.0661 10.1917 35.7394 10.5951 35.7394C10.9981 35.7394 11.3252 36.0661 11.3252 36.4695Z" fill="black"/>
<path d="M36.4694 30.8742C33.3781 30.8742 30.875 33.3788 30.875 36.4686C30.875 39.5587 33.3784 42.063 36.4694 42.063C39.5588 42.063 42.0638 39.558 42.0638 36.4686C42.0642 33.3788 39.5584 30.8742 36.4694 30.8742ZM36.4694 40.9229C34.0082 40.9229 32.014 38.929 32.014 36.4683C32.014 34.0071 34.0086 32.0133 36.4694 32.0133C38.9294 32.0133 40.9248 34.0072 40.9248 36.4683C40.9244 38.9291 38.929 40.9229 36.4694 40.9229Z" fill="black"/>
<path d="M36.4693 33.403C34.7754 33.403 33.4036 34.7756 33.4036 36.4687C33.4036 38.1614 34.7754 39.5337 36.4693 39.5337C38.1608 39.5337 39.5339 38.1615 39.5339 36.4687C39.5339 34.7759 38.1604 33.403 36.4693 33.403ZM36.4693 38.3099C35.4516 38.3099 34.627 37.4856 34.627 36.4687C34.627 35.4522 35.4513 34.6272 36.4693 34.6272C37.4849 34.6272 38.3104 35.4523 38.3104 36.4687C38.3104 37.4852 37.485 38.3099 36.4693 38.3099Z" fill="black"/>
<path d="M37.1996 36.4695C37.1996 36.8725 36.8729 37.1996 36.4695 37.1996C36.0664 37.1996 35.7397 36.8725 35.7397 36.4695C35.7397 36.0661 36.0664 35.7394 36.4695 35.7394C36.8729 35.7394 37.1996 36.0661 37.1996 36.4695Z" fill="black"/>
</svg>
