<svg width="60" height="60" viewBox="0 0 60 60" fill="none" xmlns="http://www.w3.org/2000/svg">
<path d="M30 5C16.2151 5 5 16.2151 5 30C5 43.7849 16.2141 55 30 55C43.7849 55 55 43.7849 55 30C54.9996 16.2151 43.7849 5 30 5ZM30 53.3696C17.1137 53.3696 6.63043 42.8863 6.63043 30C6.63043 23.8495 9.02252 18.2502 12.9201 14.0732L17.4079 18.5609C16.4632 20.3359 17.3074 23.2144 19.5563 25.674C15.7702 25.8442 12.8803 27.681 12.8803 30.0003C12.8803 32.3193 15.7695 34.156 19.5547 34.3262C18.4478 35.5374 17.638 36.8976 17.2562 38.2056C16.7812 39.8345 17.0079 41.219 17.8942 42.1054C18.4773 42.6888 19.2764 42.9864 20.2189 42.9864C20.7087 42.9864 21.2375 42.9057 21.7944 42.7434C23.1026 42.3617 24.4621 41.5519 25.6737 40.4449C25.844 44.2302 27.6803 47.1197 29.9996 47.1197C32.3205 47.1197 34.158 44.2257 34.3255 40.4365C36.1168 42.0743 38.1294 42.9773 39.7778 42.9773C40.3927 42.9773 40.9488 42.8405 41.431 42.5846L45.9264 47.0799C41.7491 50.9778 36.1496 53.3699 29.9995 53.3699L30 53.3696ZM30 19.87C29.55 19.87 29.1849 20.2346 29.1849 20.685V23.4104C28.962 23.4377 28.7425 23.4763 28.5268 23.5252C28.2463 22.8288 27.857 22.1282 27.3706 21.4527C27.3186 21.0319 27.2883 20.5907 27.2883 20.127C27.2883 16.8174 28.7176 14.5107 30 14.5107C31.2829 14.5107 32.712 16.8172 32.712 20.127C32.712 20.5926 32.6809 21.0357 32.629 21.4581C32.1366 22.1435 31.7502 22.8418 31.4765 23.5264C31.2597 23.4771 31.0394 23.4384 30.8154 23.4108V20.6854C30.815 20.2347 30.45 19.87 30 19.87ZM30 24.9859C32.7651 24.9859 35.0144 27.2352 35.0144 29.9999C35.0144 31.0887 34.6618 32.0944 34.0704 32.9174L27.0828 25.9298C27.9059 25.3381 28.9112 24.9859 30 24.9859ZM35.2331 34.0806C35.4943 33.7462 35.7237 33.3872 35.9181 33.0062C36.9312 33.4228 37.9695 34.134 38.8986 35.0632C40.7464 36.9109 41.5178 38.9422 41.3165 40.1636L35.2331 34.0806ZM40.1633 41.3161C38.9423 41.5166 36.9102 40.7459 35.0629 38.899C34.0719 37.9076 33.3926 36.8639 33.004 35.9193C33.3857 35.7248 33.7455 35.495 34.0803 35.2335L36.0099 37.1631H36.0103L40.1633 41.3161ZM38.5473 32.6298C37.8713 32.1434 37.1711 31.754 36.4748 31.4735C36.5237 31.2578 36.5623 31.0383 36.5896 30.8154H39.315C39.765 30.8154 40.13 30.4503 40.13 30.0003C40.13 29.55 39.765 29.1853 39.315 29.1853H36.5896C36.5623 28.9624 36.5237 28.7429 36.4748 28.5272C37.1716 28.2462 37.8721 27.8569 38.548 27.3705C38.9685 27.319 39.4097 27.2883 39.873 27.2883C43.1826 27.2883 45.4893 28.7175 45.4893 30.0003C45.4893 31.2831 43.1828 32.7124 39.873 32.7124C39.4093 32.712 38.9677 32.6813 38.5473 32.6298ZM38.8987 24.9366C37.9695 25.8662 36.9308 26.5774 35.9178 26.9936C35.7237 26.6126 35.494 26.2536 35.2328 25.9193L37.1624 23.9896C37.4809 23.6716 37.4809 23.1552 37.1624 22.8368C36.844 22.5183 36.328 22.5183 36.0096 22.8368L34.0799 24.7664C33.7452 24.5048 33.3854 24.2751 33.0036 24.0806C33.3922 23.1359 34.0716 22.0919 35.0625 21.1009C37.4031 18.7607 40.0451 18.1397 40.9523 19.0469C41.8599 19.9545 41.2392 22.5964 38.8987 24.9366ZM32.9176 34.0703C32.0946 34.662 31.0888 35.0146 30.0001 35.0146C27.2354 35.0146 24.9861 32.7654 24.9861 30.0002C24.9861 28.9114 25.3387 27.9061 25.9301 27.083L32.9176 34.0703ZM30.0001 40.1295C30.4501 40.1295 30.8152 39.7644 30.8152 39.3144V36.5894C31.0392 36.5618 31.2599 36.5231 31.4767 36.4738C31.7508 37.1581 32.1367 37.8564 32.6292 38.5418C32.6815 38.9642 32.7122 39.4073 32.7122 39.8729C32.7122 43.1825 31.2829 45.4892 30.0001 45.4892C28.7176 45.4892 27.2885 43.1828 27.2885 39.8729C27.2885 39.4092 27.3192 38.968 27.3707 38.5472C27.8567 37.8716 28.2461 37.171 28.527 36.4747C28.7427 36.5236 28.9622 36.5623 29.1851 36.5896V39.3145C29.1847 39.7645 29.5498 40.1296 30.0002 40.1296L30.0001 40.1295ZM20.6856 30.8149H23.4109C23.4382 31.0378 23.4769 31.2573 23.5258 31.473C22.8294 31.7536 22.1288 32.1433 21.4529 32.6293C21.0321 32.6808 20.5908 32.7116 20.1272 32.7116C16.8176 32.7116 14.5108 31.2823 14.5108 29.9995C14.5108 28.7167 16.8173 27.2874 20.1272 27.2874C20.5908 27.2874 21.0317 27.3182 21.4525 27.3697C22.1284 27.8561 22.8291 28.2454 23.5258 28.5264C23.4769 28.7421 23.4382 28.9612 23.4109 29.1845L20.6856 29.1848C20.2352 29.1848 19.8705 29.5495 19.8705 29.9999C19.8701 30.4499 20.2352 30.8149 20.6856 30.8149ZM21.1014 35.0631C22.031 34.1339 23.0693 33.4227 24.0823 33.0061C24.2764 33.3871 24.5058 33.7461 24.767 34.0801L22.8373 36.0097C22.5189 36.3281 22.5189 36.8441 22.8373 37.1626C22.9966 37.3218 23.2051 37.4014 23.4136 37.4014C23.6221 37.4014 23.8306 37.3218 23.9898 37.1626L25.9195 35.2329C26.2538 35.4941 26.6128 35.7235 26.9934 35.918C26.5768 36.931 25.866 37.9689 24.9364 38.8988C23.817 40.0183 22.539 40.8277 21.3384 41.1779C20.3216 41.4748 19.4873 41.3918 19.0476 40.9524C18.6078 40.513 18.5259 39.6782 18.8224 38.6618C19.1723 37.4604 19.9816 36.1829 21.1014 35.0631ZM25.9198 24.7671L23.9901 22.8374H23.9898L19.8349 18.6826C19.96 18.6621 20.0915 18.6492 20.2329 18.6492C21.4695 18.6492 23.279 19.4438 24.9368 21.1019C25.8664 22.0315 26.5775 23.0698 26.9938 24.0828C26.6132 24.2765 26.2541 24.5059 25.9198 24.7671ZM24.7669 25.9199C24.5057 26.2543 24.2764 26.6133 24.0819 26.9943C23.0689 26.5776 22.0305 25.8668 21.101 24.9373C19.254 23.09 18.4826 21.0583 18.6835 19.8369L24.7669 25.9199ZM47.0796 45.9267L42.5918 41.439C43.5366 39.664 42.6923 36.7855 40.4435 34.3255C44.2292 34.156 47.1194 32.3193 47.1194 30C47.1194 27.6807 44.2292 25.8439 40.4431 25.6741C43.0005 22.8771 43.7454 19.5345 42.1054 17.8942C40.4639 16.2539 37.1217 16.9995 34.3255 19.5566C34.1561 15.7705 32.3193 12.8806 30 12.8806C27.6803 12.8806 25.844 15.7709 25.6745 19.5574C23.2149 17.3085 20.336 16.4643 18.5615 17.4086L14.0737 12.9204C18.2502 9.02252 23.8495 6.63043 30.0005 6.63043C42.8868 6.63043 53.3701 17.1137 53.3701 30C53.3697 36.1501 50.978 41.7498 47.0801 45.9268L47.0796 45.9267Z" fill="black"/>
</svg>
