<svg width="60" height="60" viewBox="0 0 60 60" fill="none" xmlns="http://www.w3.org/2000/svg">
<path d="M52.1964 22.5744V19.1461C52.1964 18.5747 51.7393 18.1176 51.1679 18.1176H47.6253V12.918L47.6825 12.5181C47.9682 10.4611 48.5396 8.57552 49.3966 6.91851C49.7395 6.23285 49.9109 5.49005 49.9109 4.74725C49.9109 3.43307 49.3966 2.23317 48.4253 1.31895C47.5111 0.404739 46.254 -0.0523669 44.9398 0.00477137C43.5114 0.0619097 42.1972 0.804708 41.3401 1.8332C41.2259 1.66178 41.0544 1.49037 40.883 1.31895C39.9688 0.404739 38.7118 -0.0523669 37.3976 0.00477137C35.9691 0.0619097 34.6549 0.804708 33.7979 1.8332C33.6836 1.66178 33.5122 1.49037 33.3408 1.31895C32.4265 0.404739 31.1695 -0.0523669 29.8553 0.00477137C28.4269 0.0619097 27.1127 0.804708 26.2556 1.8332C26.1413 1.66178 25.9699 1.49037 25.7985 1.31895C24.8843 0.404739 23.6273 -0.0523669 22.3131 0.00477137C20.8846 0.0619097 19.5704 0.804708 18.7134 1.8332C18.5991 1.66178 18.4277 1.49037 18.2562 1.31895C17.342 0.404739 16.085 -0.0523669 14.7708 0.00477137C12.1996 0.119048 10.1426 2.2903 10.1997 4.86153C10.1997 5.54719 10.3712 6.17571 10.6569 6.80423C11.6282 8.91835 12.1996 10.8039 12.4281 12.5752L12.4853 12.9752V18.1748H8.9427C8.37132 18.1748 7.91421 18.6319 7.91421 19.2032V22.6315C7.39997 22.6887 7 23.0887 7 23.6029V54.629C7 57.6002 9.39981 60 12.371 60H47.5682C50.5394 60 52.9392 57.6002 52.9392 54.629V23.5458C53.1678 23.0315 52.7107 22.6315 52.1964 22.5744ZM51.1679 24.5742V34.402H39.2831C37.7976 34.402 36.312 33.9449 34.9978 33.0307C33.5693 32.0022 31.8552 31.488 30.0839 31.488C28.3126 31.488 26.5984 32.0022 25.17 33.0307C23.8558 33.9449 22.3702 34.402 20.8846 34.402H9.17126V24.5742H51.1679ZM9.17126 36.4019H20.9989C22.8845 36.4019 24.77 35.7734 26.427 34.6306C27.5127 33.8307 28.8268 33.4307 30.1982 33.4307C31.5695 33.4307 32.8265 33.8307 33.9693 34.6306C35.6263 35.7734 37.4547 36.4019 39.3974 36.4019H51.2251V43.5442H39.2831C37.3976 43.5442 35.512 44.1727 33.855 45.3155C32.7694 46.1154 31.4552 46.5154 30.0839 46.5154C28.7126 46.5154 27.4555 46.1154 26.3128 45.3155C24.6557 44.1727 22.8273 43.5442 20.8846 43.5442H9.17126V36.4019ZM40.1402 18.1176V12.918L40.1974 12.5181C40.4259 10.8611 40.8259 9.37546 41.3973 8.00414C42.0258 9.60401 42.4258 11.0896 42.6543 12.5181L42.7114 12.918V18.1176H40.1402ZM32.6551 18.1176V12.8609L32.7122 12.4609C32.9408 10.8039 33.3408 9.31832 33.9121 7.947C34.5407 9.54687 34.9406 11.0325 35.1692 12.4609L35.2263 12.8609V18.0605H32.6551V18.1176ZM25.1128 18.1176V12.918L25.17 12.5181C25.3985 10.8611 25.7985 9.37546 26.3699 8.00414C26.9984 9.60401 27.3984 11.0896 27.6269 12.5181L27.6841 12.918V18.1176H25.1128ZM17.5706 18.1176V12.918L17.6277 12.5181C17.8563 10.8611 18.2562 9.37546 18.8276 8.00414C19.4562 9.60401 19.8561 11.0896 20.0847 12.5181L20.1418 12.918V18.1176H17.5706ZM22.1417 13.8322H23.113V18.1176H22.1417V13.8322ZM29.6268 13.8322H30.5981V18.1176H29.6268V13.8322ZM37.169 13.8322H38.1404V18.1176H37.169V13.8322ZM44.7113 13.8322H45.6826V18.1176H44.7113V13.8322ZM45.0541 1.94747C45.7969 1.94747 46.5397 2.17603 47.054 2.69027C47.6253 3.20452 47.911 3.94731 47.911 4.69011C47.911 5.14722 47.7968 5.54719 47.6253 5.94716C46.7111 7.71844 46.0826 9.66115 45.7969 11.8324H44.5399C44.2542 9.94684 43.6257 8.00414 42.6543 5.83288C42.4829 5.49005 42.4258 5.09008 42.4258 4.74725C42.4258 3.26166 43.6257 2.00461 45.0541 1.94747ZM37.569 1.94747C38.3118 1.94747 39.0546 2.17603 39.5688 2.69027C40.1402 3.20452 40.4259 3.94731 40.4259 4.69011C40.4259 5.14722 40.3116 5.54719 40.1402 5.94716C39.226 7.71844 38.5975 9.66115 38.3118 11.8324H37.0548C36.7691 9.94684 36.1405 8.00414 35.1692 5.83288C34.9978 5.49005 34.9406 5.09008 34.9406 4.74725C34.8835 3.26166 36.0834 2.00461 37.569 1.94747ZM30.0267 1.94747C30.7695 1.94747 31.5123 2.17603 32.0266 2.69027C32.598 3.20452 32.8837 3.94731 32.8837 4.69011C32.8837 5.14722 32.7694 5.54719 32.598 5.94716C31.6838 7.71844 31.0552 9.66115 30.7695 11.8324H29.5125C29.2268 9.94684 28.5983 8.00414 27.6269 5.83288C27.4555 5.49005 27.3984 5.09008 27.3984 4.74725C27.3412 3.26166 28.5983 2.00461 30.0267 1.94747ZM22.4845 1.94747C23.2273 1.94747 23.9701 2.17603 24.4843 2.69027C25.0557 3.20452 25.3414 3.94731 25.3414 4.69011C25.3414 5.14722 25.2271 5.54719 25.0557 5.94716C24.1415 7.71844 23.513 9.66115 23.2273 11.8324H21.9702C21.6845 9.94684 21.056 8.00414 20.0847 5.83288C19.9133 5.49005 19.8561 5.09008 19.8561 4.74725C19.8561 3.26166 21.056 2.00461 22.4845 1.94747ZM12.3139 4.74725C12.3139 3.26166 13.5138 2.00461 14.9422 1.94747C15.685 1.94747 16.4278 2.17603 16.9421 2.69027C17.5135 3.20452 17.7991 3.94731 17.7991 4.69011C17.7991 5.14722 17.6849 5.54719 17.5135 5.94716C16.5992 7.71844 15.9707 9.66115 15.685 11.8324H14.428C14.1423 9.94684 13.5138 8.00414 12.5424 5.83288C12.4281 5.49005 12.3139 5.14722 12.3139 4.74725ZM14.5994 13.8322H15.5707V18.1176H14.5994V13.8322ZM50.1966 20.1175V22.5744H10.0855V20.1175H50.1966ZM47.7396 57.943H12.5424C10.6569 57.943 9.17126 56.4003 9.17126 54.5719V45.544H20.9989C22.4845 45.544 23.9701 46.0011 25.2843 46.9153C26.7127 47.9438 28.4269 48.4581 30.1982 48.4581C31.9694 48.4581 33.6836 47.9438 35.1121 46.9153C36.4262 46.0011 37.9118 45.544 39.3974 45.544H51.2251V54.5719C51.1679 56.4574 49.6252 57.943 47.7396 57.943Z" fill="black"/>
</svg>
