<svg width="60" height="60" viewBox="0 0 60 60" fill="none" xmlns="http://www.w3.org/2000/svg">
<g id="5-4">
<g id="Group">
<path id="Vector" d="M13.98 34.1851C15.6644 32.4371 17.254 30.609 18.8881 28.8185L23.6486 23.3272C26.7814 19.6319 29.8099 15.8484 32.734 11.9769C35.6652 8.1115 38.5025 4.16667 41.0769 0C37.4013 3.23717 33.9886 6.69617 30.6699 10.2345C27.3533 13.7747 24.1317 17.3951 21.0052 21.0957L16.3907 26.7103C14.8999 28.6218 13.3645 30.4956 11.9238 32.4494C8.9933 36.3155 6.15467 40.2591 3.5769 44.4231C7.24922 41.1831 10.6605 37.7229 13.98 34.1851Z" fill="black"/>
<path id="Vector_2" d="M57.8077 16.7307C53.3711 19.0456 49.1356 21.6394 44.9723 24.3329C43.935 25.0048 42.9151 25.7008 41.8863 26.3844C42.0265 26.1705 42.1733 25.9613 42.3129 25.747C44.9445 21.7035 47.4767 17.5875 49.7308 13.2691C46.3119 16.7391 43.171 20.4117 40.1295 24.1567C38.1511 26.5956 36.2287 29.0754 34.3353 31.5762C33.7946 31.9619 33.2431 32.3328 32.7055 32.7227L26.7391 37.1488C25.0113 38.4988 23.2633 39.8211 21.556 41.1995C22.6943 39.4795 23.7862 37.7324 24.902 35.9992L28.72 29.726C29.0417 29.1844 29.3437 28.631 29.6612 28.0869C31.6269 26.252 33.5681 24.3893 35.4847 22.499C38.8257 19.1846 42.0849 15.7784 45.1154 12.1153C41.2758 14.6055 37.6504 17.3363 34.1035 20.1554C34.6906 19.0668 35.2906 17.9857 35.8648 16.8895C38.1369 12.546 40.3031 8.13992 42.1733 3.55884C39.0626 7.4068 36.248 11.4298 33.5393 15.5154C31.2211 19.0162 28.9866 22.5665 26.8358 26.1662C25.5181 27.2927 24.1994 28.418 22.9074 29.5734L17.7066 34.3323C16.0142 35.9649 14.2829 37.5539 12.6342 39.2355C9.29383 42.5505 6.03335 45.9555 3 49.6153C6.98593 47.0252 10.7447 44.18 14.4236 41.2451C16.2844 39.8017 18.0628 38.2656 19.88 36.7733L21.5426 35.3328C20.5482 37.1487 19.5379 38.9551 18.6012 40.8052C17.7636 42.4073 16.9459 44.0212 16.1482 45.6468C13.9252 47.5354 11.7398 49.4761 9.6285 51.5194C11.3427 50.6231 13.02 49.6758 14.682 48.7071C13.8483 50.4946 13.0398 52.2971 12.2883 54.1332C14.1825 51.786 15.9593 49.3694 17.6781 46.9185C19.2853 45.9347 20.8796 44.9328 22.4609 43.913C24.365 42.7164 26.2109 41.4392 28.0752 40.1875L27.1358 41.5137C25.7934 43.516 24.4039 45.4841 23.1145 47.5251C20.4837 51.5692 17.95 55.684 15.6924 59.9999C19.1078 56.5273 22.2472 52.8537 25.2895 49.1094C26.8366 47.2561 28.2836 45.3299 29.7777 43.4379L34.1097 37.6529C34.9565 36.4956 35.7724 35.3156 36.5986 34.1433C39.9678 31.6736 43.2862 29.1335 46.5536 26.5229C50.4201 23.4182 54.2146 20.2139 57.8077 16.7307Z" fill="black"/>
</g>
</g>
</svg>
