<svg width="34" height="60" viewBox="0 0 34 60" fill="none" xmlns="http://www.w3.org/2000/svg">
<g id="Frame 42">
<path id="Vector" d="M26.6667 16.8352V11.6667C26.6667 11.2246 26.4911 10.8007 26.1785 10.4882C25.866 10.1756 25.442 10 25 10H23.3333V1.66667C23.3333 1.22464 23.1577 0.800716 22.8452 0.488156C22.5326 0.175595 22.1087 0 21.6667 0H11.6667C11.2246 0 10.8007 0.175595 10.4882 0.488156C10.1756 0.800716 10 1.22464 10 1.66667V10H8.33333C7.89131 10 7.46738 10.1756 7.15482 10.4882C6.84226 10.8007 6.66667 11.2246 6.66667 11.6667V16.8352C4.78589 17.2217 3.09589 18.2449 1.88151 19.7322C0.667132 21.2194 0.00262719 23.0799 0 25V58.3333C0 58.7754 0.175595 59.1993 0.488156 59.5118C0.800716 59.8244 1.22464 60 1.66667 60H25C25.442 60 25.866 59.8244 26.1785 59.5118C26.4911 59.1993 26.6667 58.7754 26.6667 58.3333C26.6667 57.8913 26.4911 57.4674 26.1785 57.1548C25.866 56.8423 25.442 56.6667 25 56.6667H3.33333V25C3.33479 23.6744 3.86204 22.4034 4.79941 21.4661C5.73677 20.5287 7.0077 20.0015 8.33333 20H25C26.3256 20.0015 27.5966 20.5287 28.5339 21.4661C29.4713 22.4034 29.9985 23.6744 30 25V58.3333C30 58.7754 30.1756 59.1993 30.4882 59.5118C30.8007 59.8244 31.2246 60 31.6667 60C32.1087 60 32.5326 59.8244 32.8452 59.5118C33.1577 59.1993 33.3333 58.7754 33.3333 58.3333V25C33.3307 23.0799 32.6662 21.2194 31.4518 19.7322C30.2374 18.2449 28.5474 17.2217 26.6667 16.8352ZM13.3333 3.33333H20V5H18.3333C17.8913 5 17.4674 5.17559 17.1548 5.48816C16.8423 5.80072 16.6667 6.22464 16.6667 6.66667C16.6667 7.10869 16.8423 7.53262 17.1548 7.84518C17.4674 8.15774 17.8913 8.33333 18.3333 8.33333H20V10H13.3333V3.33333ZM10 16.6667V13.3333H23.3333V16.6667H10Z" fill="black"/>
<path id="Vector_2" d="M16.6666 48.3333C17.1086 48.3333 17.5325 48.1577 17.8451 47.8451C18.1577 47.5326 18.3333 47.1087 18.3333 46.6666V41.6666H23.3333C23.7753 41.6666 24.1992 41.491 24.5118 41.1785C24.8243 40.8659 24.9999 40.442 24.9999 40C24.9999 39.5579 24.8243 39.134 24.5118 38.8214C24.1992 38.5089 23.7753 38.3333 23.3333 38.3333H18.3333V33.3333C18.3333 32.8913 18.1577 32.4673 17.8451 32.1548C17.5325 31.8422 17.1086 31.6666 16.6666 31.6666C16.2246 31.6666 15.8006 31.8422 15.4881 32.1548C15.1755 32.4673 14.9999 32.8913 14.9999 33.3333V38.3333H9.99992C9.55789 38.3333 9.13397 38.5089 8.82141 38.8214C8.50885 39.134 8.33325 39.5579 8.33325 40C8.33325 40.442 8.50885 40.8659 8.82141 41.1785C9.13397 41.491 9.55789 41.6666 9.99992 41.6666H14.9999V46.6666C14.9999 47.1087 15.1755 47.5326 15.4881 47.8451C15.8006 48.1577 16.2246 48.3333 16.6666 48.3333Z" fill="black"/>
</g>
</svg>
