<svg width="60" height="60" viewBox="0 0 60 60" fill="none" xmlns="http://www.w3.org/2000/svg">
<g id="5-3" clip-path="url(#clip0_102_4149)">
<path id="Vector" d="M56.2696 3.73043C53.8672 1.34117 50.6167 0 47.2284 0C43.8402 0 40.5897 1.34117 38.1873 3.73043L27.1563 14.7614C24.846 17.0759 23.5123 20.189 23.4304 23.4582C20.1614 23.5403 17.0486 24.874 14.7342 27.1842L3.7026 38.2151C1.32334 40.6168 -0.007912 43.8631 3.53799e-05 47.2438C0.00798276 50.6245 1.35449 53.8645 3.74501 56.255C6.13554 58.6455 9.3755 59.992 12.7562 60C16.1369 60.0079 19.3832 58.6767 21.7849 56.2974L32.8158 45.2658C35.126 42.9514 36.4597 39.8386 36.5418 36.5696C39.8107 36.4872 42.9235 35.1536 45.238 32.8437L56.2696 21.8127C58.6638 19.413 60.0084 16.1615 60.0084 12.7716C60.0084 9.38169 58.6638 6.13021 56.2696 3.73043ZM54.6088 20.1545L43.5804 31.1854C42.5181 32.2444 41.2401 33.062 39.8333 33.5825C38.4266 34.103 36.9241 34.3142 35.4284 34.2017C35.2605 34.1895 35.092 34.2136 34.9343 34.2724C34.7766 34.3311 34.6333 34.4231 34.5143 34.5421C34.3953 34.6611 34.3033 34.8044 34.2445 34.9621C34.1858 35.1198 34.1617 35.2884 34.1739 35.4562C34.2861 36.952 34.0748 38.4543 33.5543 39.861C33.0338 41.2677 32.2164 42.5458 31.1576 43.6082L20.1267 54.6392C18.1686 56.5972 15.5129 57.6973 12.7438 57.6973C9.97463 57.6973 7.31892 56.5972 5.36085 54.6392C3.40278 52.6811 2.30275 50.0254 2.30275 47.2562C2.30275 44.4871 3.40278 41.8314 5.36085 39.8733L16.3918 28.8424C17.3618 27.8748 18.513 27.1078 19.7796 26.5855C21.0462 26.0631 22.4033 25.7955 23.7734 25.798C24.0289 25.798 24.2857 25.8074 24.5438 25.8261C24.7116 25.8383 24.8802 25.8142 25.0379 25.7555C25.1956 25.6967 25.3389 25.6047 25.4579 25.4857C25.5769 25.3667 25.6689 25.2234 25.7276 25.0657C25.7864 24.908 25.8105 24.7395 25.7983 24.5716C25.6858 23.0759 25.897 21.5734 26.4175 20.1667C26.938 18.7599 27.7556 17.4819 28.8146 16.4196L39.8455 5.38868C41.8036 3.43061 44.4593 2.33057 47.2284 2.33057C49.9975 2.33057 52.6533 3.43061 54.6113 5.38868C56.5694 7.34674 57.6694 10.0025 57.6694 12.7716C57.6694 15.5407 56.5694 18.1964 54.6113 20.1545H54.6088ZM47.2284 5.6576C46.2926 5.65267 45.365 5.83352 44.4996 6.18966C43.6341 6.5458 42.8479 7.07015 42.1866 7.73232L31.1576 18.7633C30.3735 19.5507 29.7843 20.5105 29.4372 21.5661C29.09 22.6218 28.9945 23.7439 29.1582 24.8431L24.8146 29.1867C23.7155 29.023 22.5933 29.1185 21.5377 29.4657C20.4821 29.8128 19.5222 30.4019 18.7348 31.1861L7.7045 42.2144C6.36767 43.5513 5.61664 45.3644 5.61664 47.255C5.61664 49.1455 6.36767 50.9587 7.7045 52.2955C9.04133 53.6323 10.8545 54.3834 12.745 54.3834C14.6356 54.3834 16.4487 53.6323 17.7856 52.2955L28.8171 41.2646C29.6013 40.477 30.1904 39.5171 30.5375 38.4613C30.8847 37.4056 30.9802 36.2833 30.8165 35.1841L35.1601 30.8405C35.5066 30.8914 35.8563 30.917 36.2064 30.9171C37.1407 30.9187 38.0661 30.7362 38.9298 30.38C39.7934 30.0238 40.5784 29.5009 41.2399 28.8411L52.2677 17.8134C53.2668 16.8184 53.9477 15.5491 54.224 14.1664C54.5003 12.7837 54.3595 11.3501 53.8196 10.0476C53.2796 8.74511 52.3648 7.63241 51.1913 6.85079C50.0177 6.06916 48.6384 5.65386 47.2284 5.6576ZM34.5648 28.1174L28.0896 34.5926C27.9134 34.7688 27.7043 34.9085 27.4741 35.0038C27.244 35.0992 26.9973 35.1483 26.7482 35.1483C26.499 35.1483 26.2524 35.0992 26.0222 35.0038C25.792 34.9085 25.5829 34.7688 25.4067 34.5926C25.2306 34.4165 25.0909 34.2073 24.9955 33.9772C24.9002 33.747 24.8511 33.5003 24.8511 33.2512C24.8511 33.0021 24.9002 32.7554 24.9955 32.5252C25.0909 32.2951 25.2306 32.0859 25.4067 31.9098L31.8826 25.4352C32.2394 25.0815 32.7216 24.883 33.224 24.883C33.7265 24.883 34.2086 25.0815 34.5654 25.4352C34.9203 25.7914 35.1195 26.2737 35.1193 26.7764C35.1192 27.2792 34.9198 27.7614 34.5648 28.1174ZM16.1248 50.6373C15.6828 51.0903 15.1552 51.451 14.5728 51.6986C13.9903 51.9462 13.3645 52.0757 12.7316 52.0796C12.0987 52.0835 11.4713 51.9617 10.8858 51.7213C10.3003 51.4809 9.76839 51.1267 9.32085 50.6791C8.87331 50.2316 8.51907 49.6997 8.27867 49.1142C8.03826 48.5287 7.91648 47.9013 7.92038 47.2684C7.92427 46.6355 8.05377 46.0097 8.30137 45.4272C8.54897 44.8448 8.90973 44.3172 9.36275 43.8752L20.3937 32.8437C21.0688 32.1703 21.9311 31.716 22.8683 31.5399C22.5249 32.3224 22.4256 33.1903 22.5836 34.03C22.7415 34.8698 23.1493 35.6423 23.7535 36.2465C24.3577 36.8507 25.1302 37.2585 25.97 37.4164C26.8097 37.5744 27.6776 37.4751 28.4601 37.1317C28.284 38.0689 27.8297 38.9312 27.1563 39.6063L16.1248 50.6373ZM50.6101 16.1526L39.5785 27.1842C38.9035 27.858 38.0408 28.3124 37.1033 28.4879C37.4466 27.7055 37.5457 26.8377 37.3878 25.9981C37.2299 25.1584 36.8222 24.386 36.2181 23.7818C35.614 23.1777 34.8416 22.7699 34.0019 22.6118C33.1623 22.4538 32.2945 22.5529 31.5121 22.8961C31.6882 21.959 32.1425 21.0966 32.8158 20.4215L43.8474 9.38993C44.7488 8.51549 45.9579 8.03068 47.2137 8.0402C48.4695 8.04972 49.6712 8.55281 50.5592 9.44081C51.4472 10.3288 51.9503 11.5305 51.9598 12.7863C51.9693 14.0421 51.4845 15.2512 50.6101 16.1526ZM11.6764 14.8802C11.4561 14.6599 11.3324 14.3612 11.3324 14.0498C11.3324 13.7383 11.4561 13.4396 11.6764 13.2194C11.8966 12.9991 12.1953 12.8754 12.5068 12.8754C12.8182 12.8754 13.1169 12.9991 13.3372 13.2194L16.7284 16.6112C16.8375 16.7201 16.924 16.8493 16.9831 16.9916C17.0422 17.1339 17.0727 17.2864 17.0728 17.4405C17.073 17.5946 17.0428 17.7472 16.984 17.8896C16.9251 18.032 16.8388 18.1614 16.73 18.2704C16.6212 18.3795 16.4919 18.466 16.3496 18.5251C16.2073 18.5842 16.0548 18.6147 15.9007 18.6149C15.7467 18.615 15.5941 18.5848 15.4517 18.526C15.3093 18.4672 15.1798 18.3809 15.0708 18.272L11.6764 14.8802ZM21.2183 9.04883C21.1651 8.90013 21.1426 8.74222 21.1519 8.58457C21.1613 8.42693 21.2024 8.27281 21.2729 8.13145C21.3433 7.9901 21.4415 7.86444 21.5617 7.76201C21.6819 7.65958 21.8216 7.58249 21.9723 7.53538C22.1231 7.48826 22.2818 7.47209 22.4389 7.48784C22.596 7.50358 22.7484 7.55092 22.8867 7.627C23.0251 7.70309 23.1467 7.80635 23.2442 7.9306C23.3417 8.05484 23.413 8.1975 23.454 8.35001L24.8172 12.7173C24.9102 13.0138 24.8818 13.3351 24.738 13.6106C24.5943 13.886 24.347 14.0932 24.0506 14.1865C23.9375 14.2215 23.8197 14.2393 23.7012 14.2395C23.4513 14.2394 23.2079 14.1595 23.0066 14.0114C22.8053 13.8632 22.6566 13.6547 22.5821 13.4161L21.2183 9.04883ZM6.0322 23.5336C6.12561 23.2373 6.33278 22.9901 6.60823 22.8464C6.88368 22.7027 7.2049 22.6742 7.50137 22.7671L11.868 24.1302C12.0208 24.1709 12.1638 24.2421 12.2883 24.3394C12.4129 24.4368 12.5165 24.5584 12.5928 24.6969C12.6692 24.8353 12.7167 24.9878 12.7326 25.1451C12.7485 25.3024 12.7324 25.4613 12.6852 25.6123C12.6381 25.7632 12.5609 25.903 12.4584 26.0234C12.3558 26.1437 12.2299 26.242 12.0883 26.3124C11.9467 26.3828 11.7924 26.4238 11.6345 26.433C11.4767 26.4422 11.3186 26.4194 11.1698 26.3659L6.80256 25.0028C6.65549 24.9569 6.5189 24.8825 6.40058 24.7839C6.28227 24.6852 6.18456 24.5642 6.11302 24.4278C6.04148 24.2913 5.99752 24.1421 5.98365 23.9887C5.96979 23.8353 5.98628 23.6806 6.0322 23.5336ZM37.2361 52.4986C37.2893 52.6473 37.3119 52.8052 37.3025 52.9629C37.2931 53.1205 37.252 53.2747 37.1816 53.416C37.1112 53.5574 37.0129 53.683 36.8927 53.7855C36.7725 53.8879 36.6329 53.965 36.4821 54.0121C36.3314 54.0592 36.1727 54.0754 36.0156 54.0596C35.8584 54.0439 35.7061 53.9965 35.5677 53.9205C35.4293 53.8444 35.3078 53.7411 35.2103 53.6169C35.1128 53.4926 35.0414 53.35 35.0004 53.1974L33.6373 48.8302C33.5588 48.5379 33.5963 48.2265 33.7422 47.9613C33.888 47.6961 34.1307 47.4976 34.4196 47.4073C34.7085 47.317 35.0211 47.3419 35.292 47.4769C35.5629 47.6119 35.7711 47.8464 35.873 48.1314L37.2361 52.4986ZM52.4197 38.012C52.3737 38.1588 52.2991 38.2952 52.2004 38.4132C52.1016 38.5312 51.9805 38.6286 51.844 38.6998C51.7076 38.771 51.5584 38.8146 51.4051 38.8281C51.2518 38.8416 51.0973 38.8247 50.9505 38.7785L46.5833 37.4153C46.2983 37.3134 46.0638 37.1052 45.9288 36.8343C45.7938 36.5634 45.7689 36.2508 45.8592 35.962C45.9495 35.6731 46.148 35.4303 46.4132 35.2845C46.6784 35.1387 46.9898 35.1011 47.2821 35.1796L51.6493 36.5428C51.7964 36.5886 51.933 36.663 52.0513 36.7617C52.1696 36.8603 52.2673 36.9813 52.3389 37.1178C52.4104 37.2542 52.4544 37.4034 52.4683 37.5568C52.4821 37.7103 52.4656 37.8649 52.4197 38.012ZM46.7781 46.6654C46.9983 46.8856 47.122 47.1843 47.122 47.4958C47.122 47.8072 46.9983 48.1059 46.7781 48.3262C46.5578 48.5464 46.2591 48.6701 45.9477 48.6701C45.6362 48.6701 45.3375 48.5464 45.1173 48.3262L41.726 44.9343C41.5058 44.7145 41.3819 44.4162 41.3816 44.105C41.3813 43.7939 41.5046 43.4953 41.7245 43.2751C41.9443 43.0549 42.2426 42.931 42.5537 42.9307C42.8649 42.9304 43.1634 43.0537 43.3837 43.2735L46.7781 46.6654Z" fill="black"/>
</g>
<defs>
<clipPath id="clip0_102_4149">
<rect width="60" height="60" fill="white"/>
</clipPath>
</defs>
</svg>
