<svg width="60" height="60" viewBox="0 0 60 60" fill="none" xmlns="http://www.w3.org/2000/svg">
<g id="4_4">
<g id="Group">
<g id="Group_2">
<g id="Group_3">
<path id="Vector" d="M50.1812 57.3914C45.564 57.3914 40.9598 57.3914 36.3425 57.3914C28.9993 57.3914 21.6561 57.3914 14.3128 57.3914C12.6433 57.3914 10.9738 57.3914 9.3043 57.3914C9.73472 57.8218 10.1782 58.2653 10.6086 58.6957C10.6086 54.9132 10.6086 51.1177 10.6086 47.3352C10.6086 41.3485 10.6086 35.3617 10.6086 29.3749C10.6086 27.9924 10.6086 26.6098 10.6086 25.2142C10.1782 25.6446 9.73472 26.0881 9.3043 26.5185C13.9215 26.5185 18.5257 26.5185 23.143 26.5185C30.4862 26.5185 37.8294 26.5185 45.1727 26.5185C46.8422 26.5185 48.5117 26.5185 50.1812 26.5185C49.7508 26.0881 49.3073 25.6446 48.8769 25.2142C48.8769 28.9967 48.8769 32.7922 48.8769 36.5747C48.8769 42.5615 48.8769 48.5482 48.8769 54.535C48.8769 55.9175 48.8769 57.3001 48.8769 58.6957C48.8769 60.3783 51.4855 60.3783 51.4855 58.6957C51.4855 54.9132 51.4855 51.1177 51.4855 47.3352C51.4855 41.3485 51.4855 35.3617 51.4855 29.3749C51.4855 27.9924 51.4855 26.6098 51.4855 25.2142C51.4855 24.5099 50.8855 23.9099 50.1812 23.9099C45.564 23.9099 40.9598 23.9099 36.3425 23.9099C28.9993 23.9099 21.6561 23.9099 14.3128 23.9099C12.6433 23.9099 10.9738 23.9099 9.3043 23.9099C8.59998 23.9099 8 24.5099 8 25.2142C8 28.9967 8 32.7922 8 36.5747C8 42.5615 8 48.5482 8 54.535C8 55.9175 8 57.3001 8 58.6957C8 59.4 8.59998 60 9.3043 60C13.9215 60 18.5257 60 23.143 60C30.4862 60 37.8294 60 45.1727 60C46.8422 60 48.5117 60 50.1812 60C51.8638 60 51.8638 57.3914 50.1812 57.3914Z" fill="black"/>
</g>
</g>
<g id="Group_4">
<g id="Group_5">
<path id="Vector_2" d="M18.617 25.0707C18.617 22.0578 18.617 19.0579 18.617 16.0449C18.617 14.7798 18.5388 13.4624 18.6953 12.1972C19.0083 9.7321 20.1952 7.42349 21.9691 5.7018C25.7124 2.04975 31.6079 1.60629 35.9251 4.51489C37.999 5.92354 39.5641 8.07564 40.2685 10.4756C40.6989 11.9364 40.725 13.3842 40.725 14.8841C40.725 18.2753 40.725 21.6795 40.725 25.0707C40.725 26.7533 43.3336 26.7533 43.3336 25.0707C43.3336 21.8882 43.3336 18.7057 43.3336 15.5232C43.3336 13.932 43.3597 12.3668 43.0336 10.8016C42.4597 7.97129 40.8945 5.29747 38.7033 3.39318C34.1904 -0.532772 27.4472 -1.15884 22.3734 2.07584C19.8561 3.68013 17.9649 6.02788 16.8823 8.80605C16.1649 10.6321 15.9954 12.5494 15.9954 14.4928C15.9954 18.0144 15.9954 21.5491 15.9954 25.0707C16.0084 26.7533 18.617 26.7533 18.617 25.0707Z" fill="black"/>
</g>
</g>
<g id="Group_6">
<g id="Group_7">
<path id="Vector_3" d="M28.2559 40.4355C28.2559 43.305 28.2559 46.1875 28.2559 49.0569C28.2559 50.7395 30.8645 50.7395 30.8645 49.0569C30.8645 46.1875 30.8645 43.305 30.8645 40.4355C30.8645 38.766 28.2559 38.7529 28.2559 40.4355Z" fill="black"/>
</g>
</g>
</g>
</g>
</svg>
