<svg width="60" height="60" viewBox="0 0 60 60" fill="none" xmlns="http://www.w3.org/2000/svg">
<g id="2_4">
<path id="Vector" d="M4.69951 38.0949C7.45802 42.6577 11.2973 46.4714 15.8784 49.1994C20.4596 51.9274 25.6418 53.4858 30.9677 53.7371H31.0228H31.0999H31.1623H31.21C36.3364 53.4924 40.9881 51.9973 45.0354 49.3032C48.9053 46.7266 52.3579 42.9558 55.2992 38.0961C58.0612 33.5372 59.6588 28.3686 59.9511 23.0463C60.2434 17.7239 59.2215 12.4115 56.9754 7.57749C56.903 7.41484 56.7874 7.27518 56.6411 7.17378C56.4949 7.07237 56.3235 7.0131 56.1458 7.00245H56.0993C56.0798 7.00245 56.059 7.00245 56.0394 7.00245C50.7878 7.2497 45.6747 8.76786 41.1392 11.4266C36.6036 14.0853 32.7811 17.8051 30 22.2666C27.2192 17.8048 23.397 14.0846 18.8617 11.4255C14.3263 8.76634 9.21333 7.24771 3.96175 7C3.94095 7 3.92015 7 3.89935 7H3.8602H3.8394C3.68369 7.01256 3.53324 7.0622 3.40063 7.14479C3.26803 7.22737 3.15712 7.3405 3.07717 7.47471C3.0604 7.50276 3.04528 7.53177 3.0319 7.56158C0.782184 12.3969 -0.242488 17.7116 0.0483468 23.0367C0.339182 28.3618 1.93658 33.5334 4.69951 38.0949ZM31.4437 23.6577C33.9782 19.4656 37.4843 15.9449 41.666 13.3932C45.8477 10.8414 50.5821 9.33346 55.4692 8.99673C57.4378 13.4823 58.298 18.3757 57.9773 23.2637C57.6566 28.1517 56.1644 32.8907 53.6267 37.0806C48.2091 46.0292 41.3037 50.8191 32.5509 51.6756C33.5658 49.1693 34.2644 46.5463 34.6309 43.8673C34.6476 43.8198 34.6607 43.7712 34.67 43.7217C36.0061 36.5814 39.0905 31.5957 41.442 28.6728C43.9991 25.4918 46.2711 23.9856 46.2919 23.9722C46.5095 23.8305 46.6618 23.6083 46.7155 23.3543C46.7692 23.1003 46.7198 22.8354 46.5782 22.6178C46.4365 22.4002 46.2143 22.2478 45.9603 22.1941C45.7063 22.1404 45.4414 22.1899 45.2238 22.3315C45.1235 22.3976 42.7181 23.9808 39.9738 27.3747C37.804 30.0805 36.0525 33.0965 34.7777 36.322C34.3576 32.0172 33.0818 27.8397 31.0252 24.0346C31.1988 23.9523 31.3443 23.8209 31.4437 23.6565V23.6577ZM4.53067 8.99673C9.29893 9.32709 13.9232 10.7716 18.0316 13.2143C22.14 15.6569 25.618 19.0294 28.1859 23.0607C30.7538 27.0919 32.34 31.6695 32.817 36.4253C33.294 41.1812 32.6484 45.9826 30.9323 50.4435L17.4972 27.6769C17.3646 27.4528 17.1485 27.2906 16.8963 27.2259C16.6442 27.1612 16.3766 27.1993 16.1526 27.3319C15.9285 27.4644 15.7663 27.6806 15.7016 27.9327C15.6369 28.1849 15.675 28.4524 15.8075 28.6765L29.3723 51.6572C24.587 51.1625 19.9863 49.5447 15.9446 46.9355C11.9028 44.3262 8.5345 40.7994 6.11377 36.642C3.69303 32.4847 2.28835 27.8144 2.0141 23.0115C1.73985 18.2085 2.60379 13.4087 4.53556 9.00285L4.53067 8.99673Z" fill="black"/>
</g>
</svg>
