<svg width="60" height="60" viewBox="0 0 60 60" fill="none" xmlns="http://www.w3.org/2000/svg">
<path d="M58.3709 43.3726C58.2741 43.4831 49.7325 52.6882 38.62 47.3808C42.2412 54.9549 47.8251 57.2216 48.1015 57.3184C48.4094 57.4299 48.6676 57.6471 48.8302 57.9313C48.9929 58.2154 49.0494 58.5481 48.9896 58.87C48.9299 59.192 48.7578 59.4822 48.504 59.6891C48.2503 59.896 47.9313 60.0061 47.604 59.9997C47.434 59.9943 47.266 59.9617 47.1064 59.903C46.7885 59.7786 39.6981 56.9867 35.6346 47.4637C34.0175 50.228 31.0597 54.098 26.775 55.8671C26.4376 56.0047 26.0596 56.0034 25.7231 55.8637C25.3866 55.7239 25.1189 55.4569 24.9783 55.1208C24.908 54.9529 24.8716 54.7729 24.8711 54.5909C24.8706 54.409 24.9061 54.2287 24.9754 54.0605C25.0448 53.8923 25.1466 53.7394 25.2752 53.6106C25.4038 53.4819 25.5565 53.3798 25.7246 53.3102C31.4191 50.9605 34.5427 43.6352 34.5842 43.5246C34.612 43.4482 34.6542 43.3778 34.7086 43.3173C34.7086 43.3173 34.7086 43.3173 34.7086 43.2205C34.8089 43.0944 34.9305 42.9868 35.0679 42.9026H35.2061C35.3018 42.8516 35.4041 42.8144 35.5102 42.7921H35.7037H35.8696H36.0216H36.1874C36.325 42.8316 36.4555 42.8922 36.5744 42.9717C39.2166 45.2018 42.5867 46.3821 46.0428 46.2878C49.499 46.1935 52.7997 44.8312 55.3163 42.4603C47.1478 35.5496 39.9192 40.8156 39.6013 41.0782C39.3894 41.2382 39.1359 41.3338 38.8712 41.3535C38.6064 41.3732 38.3415 41.3163 38.1082 41.1894C37.875 41.0626 37.6832 40.8712 37.5558 40.6383C37.4284 40.4053 37.3708 40.1406 37.3899 39.8757C37.4877 37.4774 37.0737 35.0857 36.1752 32.8598C35.2767 30.6339 33.9145 28.6249 32.1792 26.9665C27.5491 35.7984 32.6768 40.6359 32.9118 40.7879C33.1267 40.9814 33.2755 41.2373 33.3373 41.5197C33.3991 41.8022 33.3708 42.0969 33.2564 42.3624C33.142 42.6279 32.9471 42.8508 32.6994 42.9998C32.4516 43.1488 32.1633 43.2163 31.8752 43.1929C19.9334 42.253 18.3302 53.8354 18.2749 54.333C18.2341 54.6701 18.0707 54.9804 17.8158 55.2047C17.5609 55.4291 17.2323 55.5517 16.8927 55.5492H16.713C16.3506 55.5043 16.0206 55.3177 15.7953 55.0302C15.57 54.7427 15.4676 54.3778 15.5106 54.0151C16.0247 51.053 17.222 48.2515 19.0074 45.8328C16.6957 45.8327 14.4068 45.376 12.2722 44.4889C10.1375 43.6018 8.19902 42.3018 6.56811 40.6636C4.77464 38.8878 3.44473 36.6988 2.69524 34.2889C1.94574 31.8789 1.79959 29.3218 2.26964 26.8421C2.91925 23.9949 4.92336 20.2078 10.5625 18.2037C9.94054 13.9882 11.7926 9.2336 15.8976 4.71399C17.8035 2.71439 20.2181 1.27184 22.8822 0.541298C25.5462 -0.189244 28.359 -0.180165 31.0182 0.567562C33.5736 1.15024 35.9331 2.3883 37.8646 4.15988C39.7962 5.93145 41.2331 8.17546 42.0339 10.671C43.6948 10.3932 45.3902 10.3932 47.0511 10.671C49.026 10.9935 50.8823 11.8262 52.4363 13.0869C53.9902 14.3475 55.1879 15.9923 55.9106 17.8582C56.9959 20.4237 57.4373 23.2157 57.1964 25.9909C56.9555 28.7661 56.0396 31.4403 54.5285 33.7805C54.4015 33.9636 54.2321 34.1132 54.0347 34.2167C53.8374 34.3202 53.618 34.3744 53.3951 34.3748C53.1148 34.3782 52.84 34.2962 52.6073 34.1398C52.4557 34.0372 52.3259 33.9055 52.2256 33.7523C52.1253 33.5991 52.0564 33.4275 52.023 33.2475C51.9895 33.0675 51.9922 32.8826 52.0308 32.7036C52.0695 32.5246 52.1433 32.3551 52.248 32.2048C53.5041 30.258 54.2631 28.0326 54.4583 25.7239C54.6535 23.4153 54.2789 21.094 53.3675 18.9639C52.823 17.5258 51.9179 16.2519 50.7392 15.2644C49.5605 14.2769 48.1477 13.6089 46.6365 13.3247C40.4583 12.3849 37.3761 15.5085 35.8834 18.3005C35.7111 18.6249 35.417 18.8676 35.0658 18.9751C34.7146 19.0827 34.335 19.0463 34.0106 18.8741C33.6862 18.7018 33.4435 18.4077 33.3359 18.0564C33.2283 17.7052 33.2647 17.3257 33.437 17.0013C34.7304 14.5072 36.8301 12.5245 39.394 11.3759C38.7183 9.3665 37.537 7.56471 35.9636 6.14383C34.3903 4.72296 32.4778 3.73079 30.4101 3.26274C28.2313 2.62845 25.9205 2.60224 23.7279 3.18693C21.5353 3.77163 19.5444 4.94495 17.9708 6.57989C14.2528 10.7263 12.6219 14.8727 13.3821 18.3558C14.0455 21.4241 16.5472 23.8843 20.8042 25.7364C21.0971 25.8612 21.3379 26.0832 21.486 26.365C21.6341 26.6468 21.6804 26.9711 21.617 27.2831C21.5536 27.5951 21.3845 27.8756 21.1382 28.0773C20.8919 28.279 20.5835 28.3895 20.2652 28.3901C20.0756 28.388 19.8881 28.3505 19.7123 28.2795C14.7366 26.1372 12.4008 23.3315 11.3227 20.8989C9.77756 21.3473 8.37542 22.1895 7.25362 23.3427C6.13183 24.496 5.32885 25.921 4.92336 27.4779C4.56296 29.4909 4.69394 31.5611 5.30514 33.5127C5.91635 35.4642 6.98972 37.2393 8.434 38.6871C10.2017 40.4841 12.3994 41.7994 14.8184 42.5081C17.2374 43.2169 19.7975 43.2956 22.2554 42.7368C24.3181 41.3794 26.7013 40.5882 29.1662 40.4424C27.4523 37.4432 25.8076 31.7764 30.5483 24.0364C30.6496 23.8715 30.7843 23.7297 30.9438 23.6202C31.1033 23.5106 31.2841 23.4358 31.4743 23.4006C31.6646 23.3655 31.8601 23.3707 32.0482 23.416C32.2362 23.4612 32.4127 23.5454 32.5662 23.6632C34.6688 25.3765 36.4128 27.4877 37.6983 29.876C38.9837 32.2644 39.7854 34.8828 40.0574 37.5814C43.5681 35.9781 50.7829 34.1951 58.205 41.4652C58.4735 41.7002 58.6407 42.03 58.6717 42.3855C58.7026 42.741 58.5948 43.0947 58.3709 43.3726ZM24.0937 54.8996L23.9693 54.6647C23.917 54.5894 23.8567 54.5198 23.7896 54.4573C23.5307 54.1999 23.1803 54.0554 22.8152 54.0554C22.4501 54.0554 22.0998 54.1999 21.8408 54.4573C21.7737 54.5198 21.7134 54.5894 21.6611 54.6647L21.5367 54.8996C21.5072 54.9853 21.4841 55.0731 21.4676 55.1622C21.4534 55.2538 21.4534 55.3471 21.4676 55.4387C21.4691 55.8013 21.6131 56.1487 21.8684 56.4062C21.9911 56.5396 22.1423 56.6435 22.3107 56.7102C22.4812 56.7829 22.6645 56.8205 22.8498 56.8208C23.2143 56.8156 23.5621 56.6666 23.8173 56.4062C24.0777 56.151 24.2267 55.8032 24.2319 55.4387C24.2394 55.3467 24.2394 55.2542 24.2319 55.1622L24.0937 54.8996Z" fill="black"/>
</svg>
