<svg width="60" height="60" viewBox="0 0 60 60" fill="none" xmlns="http://www.w3.org/2000/svg">
<g id="3_3">
<g id="Layer 9 copy">
<path id="Vector" d="M57.7737 17.3033C57.6208 17.2499 57.457 17.2355 57.2972 17.2614C57.1373 17.2873 56.9864 17.3527 56.8582 17.4516C56.8066 17.4967 51.4489 21.6101 45.2208 22.8609C40.1081 23.8924 36.6072 25.9556 34.5248 29.1663C32.0297 33.0347 31.5848 38.4891 33.1644 45.8584C30.6499 48.1923 28.4385 50.5327 26.7816 52.3379C27.3489 48.6234 26.9355 44.825 25.5824 41.3195C29.4507 33.6536 30.5726 27.5158 28.935 22.5772C27.581 18.496 24.3574 15.2595 19.0835 12.6806C12.5975 9.5085 7.88453 3.44159 7.83295 3.37712C7.73453 3.24929 7.60569 3.14811 7.45818 3.0828C7.31066 3.01748 7.14915 2.99011 6.98835 3.00318C6.82786 3.01647 6.67317 3.06937 6.53815 3.15714C6.40312 3.2449 6.29198 3.36479 6.21467 3.50607C-2.41826 19.3987 -0.484069 28.6828 2.66221 33.673C6.20178 39.2821 13.1262 42.3124 22.3007 42.3124C22.8165 42.3124 23.3451 42.3124 23.8738 42.2737C25.1939 45.8498 25.436 49.7345 24.5701 53.4468C24.3503 54.2931 24.0591 55.1191 23.6998 55.9162C23.6092 56.1296 23.5978 56.3683 23.6676 56.5893C23.7373 56.8104 23.8837 56.9993 24.0803 57.1221C24.2769 57.2449 24.5109 57.2935 24.7402 57.2592C24.9694 57.2248 25.1789 57.1098 25.3309 56.9348C28.2021 53.5469 31.2562 50.3185 34.4796 47.2639C37.3283 48.1631 40.2932 48.641 43.2802 48.6823C47.8965 48.6823 51.7971 47.3219 54.6661 44.6334C58.4829 41.0487 62.2417 33.5182 58.3733 17.948C58.332 17.8005 58.256 17.6651 58.1517 17.5529C58.0474 17.4408 57.9178 17.3552 57.7737 17.3033ZM4.29983 32.6414C0.392764 26.4391 1.44367 16.91 7.24624 5.69815C8.99346 7.70326 13.0488 11.8747 18.2389 14.4213C23.0292 16.7553 25.9241 19.6243 27.1039 23.1832C28.5223 27.4513 27.581 32.8542 24.2478 39.6754C23.4548 38.8824 22.2233 37.5929 20.792 35.8973C18.223 32.8602 15.9557 29.5803 14.0224 26.1038C13.0948 24.4176 12.2722 22.6757 11.5595 20.888C11.5139 20.7695 11.4452 20.6612 11.3575 20.5693C11.2698 20.4775 11.1647 20.404 11.0484 20.353C10.9321 20.3021 10.8068 20.2747 10.6799 20.2724C10.5529 20.2702 10.4268 20.2931 10.3087 20.34C10.07 20.4348 9.87839 20.6202 9.77574 20.8557C9.67309 21.0912 9.66768 21.3577 9.76069 21.5972C13.2422 30.4622 19.2962 37.3737 22.2169 40.3782C13.7709 40.3653 7.43966 37.651 4.29983 32.6414ZM53.3444 43.2214C49.605 46.7223 43.7444 47.6056 36.6782 45.8648C37.2391 45.5167 37.8774 45.1105 38.6124 44.6205C38.7178 44.5494 38.8081 44.4582 38.8783 44.3521C38.9485 44.2461 38.9971 44.1273 39.0213 44.0024C39.0456 43.8776 39.045 43.7492 39.0196 43.6246C38.9943 43.5 38.9446 43.3816 38.8735 43.2762C38.8023 43.1708 38.7112 43.0804 38.6051 43.0103C38.4991 42.9401 38.3802 42.8915 38.2554 42.8673C38.1306 42.843 38.0022 42.8436 37.8776 42.869C37.753 42.8943 37.6346 42.944 37.5292 43.0151C36.4654 43.7372 35.595 44.3046 34.9052 44.6785C33.6157 38.2312 34.0283 33.4731 36.1559 30.1979C37.9418 27.4449 41.0301 25.6848 45.6077 24.7435C49.6277 23.8219 53.4379 22.1508 56.8389 19.8177C59.2373 30.5718 58.0123 38.8437 53.3444 43.2214ZM54.9305 26.5294C54.397 27.7231 53.792 28.8836 53.1188 30.0045C53.0323 30.1478 52.9103 30.2664 52.7646 30.3489C52.619 30.4313 52.4545 30.4748 52.2871 30.4751C52.1115 30.4761 51.9392 30.4269 51.7906 30.3333C51.5715 30.2019 51.4133 29.9892 51.3504 29.7416C51.2876 29.4939 51.3253 29.2315 51.4554 29.0116C52.0921 27.9595 52.6606 26.8677 53.1575 25.7428C53.2618 25.5077 53.4552 25.3236 53.6952 25.2311C53.9352 25.1386 54.2021 25.1453 54.4372 25.2496C54.6724 25.3539 54.8564 25.5473 54.9489 25.7873C55.0414 26.0273 55.0348 26.2943 54.9305 26.5294ZM50.9847 33.1507C48.1397 36.8528 44.7863 40.1347 41.0236 42.8991C40.8185 43.053 40.5605 43.119 40.3066 43.0828C40.0527 43.0465 39.8236 42.9108 39.6697 42.7056C39.5158 42.5005 39.4497 42.2425 39.486 41.9886C39.5223 41.7347 39.6579 41.5056 39.8631 41.3517C43.4786 38.6944 46.7036 35.5432 49.4438 31.9902C49.5158 31.8785 49.6101 31.7828 49.7208 31.7091C49.8315 31.6354 49.9561 31.5854 50.087 31.562C50.2179 31.5387 50.3522 31.5426 50.4815 31.5735C50.6108 31.6044 50.7323 31.6616 50.8385 31.7416C50.9447 31.8216 51.0333 31.9226 51.0987 32.0384C51.1641 32.1541 51.2049 32.2821 51.2186 32.4143C51.2324 32.5466 51.2187 32.6802 51.1784 32.8069C51.1382 32.9336 51.0722 33.0507 50.9847 33.1507ZM9.37385 17.5483C9.2946 17.5574 9.21455 17.5574 9.1353 17.5483C8.92767 17.5449 8.7265 17.4756 8.56079 17.3504C8.39509 17.2253 8.27342 17.0507 8.21334 16.852C7.95545 15.8333 7.74268 14.8082 7.56861 13.8024C7.52757 13.5459 7.5901 13.2836 7.74245 13.0732C7.8948 12.8629 8.12448 12.7216 8.38097 12.6806C8.63746 12.6395 8.89974 12.7021 9.11013 12.8544C9.32051 13.0068 9.46176 13.2364 9.5028 13.4929C9.65753 14.4407 9.86385 15.4271 10.1088 16.3684C10.1394 16.4942 10.1445 16.6248 10.1239 16.7526C10.1033 16.8804 10.0575 17.0028 9.98906 17.1127C9.92062 17.2225 9.83096 17.3176 9.72533 17.3924C9.61969 17.4672 9.50021 17.5202 9.37385 17.5483Z" fill="black"/>
</g>
</g>
</svg>
