<svg width="60" height="60" viewBox="0 0 60 60" fill="none" xmlns="http://www.w3.org/2000/svg">
<path d="M27.4649 47.3694L27.3901 52.2421C27.3868 52.5047 27.531 52.7466 27.7637 52.8688C27.7866 52.8804 28.0044 52.9823 28.3219 53.0903C28.3801 53.1294 28.4387 53.1676 28.5093 53.188C29.0056 53.3305 29.481 53.385 29.9178 53.385C29.9473 53.385 29.9706 53.3783 30.0001 53.3779C30.0296 53.3783 30.0529 53.385 30.0824 53.385C30.5192 53.385 30.9946 53.3305 31.4909 53.188C31.5615 53.1676 31.6201 53.1294 31.6783 53.0903C31.9962 52.9823 32.2136 52.8804 32.2365 52.8688C32.4692 52.7466 32.6134 52.5043 32.6101 52.2421L32.5353 47.3694C39.8849 49.2996 45.6199 48.7667 49.5821 45.7739C54.9368 41.7304 55 34.7513 55 34.4566C55 34.427 54.9867 34.4017 54.983 34.373C54.9776 34.3281 54.9705 34.2861 54.9568 34.2438C54.9422 34.1989 54.9227 34.1594 54.8998 34.1191C54.8786 34.0821 54.857 34.0476 54.8296 34.0152C54.7997 33.9794 54.7668 33.9499 54.7303 33.9208C54.697 33.8946 54.6646 33.871 54.6268 33.851C54.5836 33.8282 54.5391 33.8128 54.4917 33.7991C54.4664 33.7916 54.446 33.7758 54.4194 33.7712C54.3994 33.7679 54.3816 33.7745 54.362 33.7729C54.3421 33.7712 54.3246 33.7612 54.3039 33.7612C54.2773 33.7612 54.2544 33.7737 54.2282 33.7766C54.1754 33.782 54.126 33.7903 54.0773 33.807C54.0437 33.8186 54.0138 33.8336 53.9822 33.8502C53.934 33.8755 53.8903 33.9038 53.8496 33.9395C53.8222 33.9636 53.7993 33.9902 53.776 34.0181C53.7449 34.0563 53.717 34.0946 53.6941 34.139C53.6734 34.1789 53.6596 34.2201 53.6468 34.2641C53.6389 34.2907 53.6227 34.3123 53.6181 34.3402C53.6164 34.3514 53.5445 34.6964 53.3779 35.2096C53.2765 32.3735 52.2716 29.7494 50.57 27.8799C52.2137 21.7255 49.553 14.3314 44.2585 10.5246C40.336 7.70463 35.7052 7.33022 32.023 9.45644C31.9195 9.37748 31.8189 9.29477 31.7133 9.21829C28.8897 7.18804 25.6143 6.52136 22.4901 7.34264C19.1228 8.22622 16.3569 10.6829 14.6682 14.3253C13.7518 16.3248 13.3441 18.6003 13.4538 20.9064C11.4203 21.827 9.71252 23.3257 8.52142 25.3198C8.26332 25.7528 8.02185 26.2108 7.79784 26.6909C6.74883 28.9543 6.24594 31.5153 6.29712 34.1054C6.16828 33.8789 5.92266 33.7347 5.63713 33.7642C5.2768 33.795 5 34.0955 5 34.4566C5 34.7513 5.06276 41.7306 10.4179 45.774C14.3829 48.766 20.1116 49.3008 27.4647 47.3695L27.4649 47.3694ZM9.06049 27.2765C9.26247 26.8418 9.48359 26.4262 9.71799 26.033C10.6756 24.4287 12.0155 23.1993 13.5986 22.3826C13.7258 23.2712 13.9261 24.1564 14.2079 25.0246C14.3047 25.3185 14.5765 25.5055 14.8704 25.5055C14.9418 25.5055 15.0146 25.4943 15.086 25.4714C15.4514 25.3525 15.65 24.9602 15.5328 24.5949C14.483 21.366 14.6322 17.7439 15.9609 14.8463C17.4404 11.6516 19.8855 9.46503 22.843 8.68951C25.5187 7.98422 28.3287 8.54696 30.777 10.261C29.9736 10.9073 28.7313 12.1109 27.7327 13.9798C27.5511 14.319 27.6782 14.74 28.0182 14.922C28.3511 15.1012 28.7792 14.9773 28.9596 14.6357C30.3456 12.0436 32.279 10.8915 32.2999 10.8794C32.3078 10.8744 32.3173 10.8744 32.3252 10.869C35.5803 8.76137 39.8395 9.06311 43.4458 11.6549C48.111 15.0109 50.554 21.4056 49.3885 26.893C48.0839 26.0069 45.4419 24.5223 42.666 24.5755C42.282 24.5822 41.9761 24.8993 41.9815 25.2833C41.9898 25.6673 42.272 25.9824 42.6901 25.967C45.9493 25.9225 49.095 28.3879 49.322 28.57C51.0268 30.2935 52.0056 32.8832 52.0056 35.6815C52.0056 36.531 51.9138 37.3743 51.7321 38.1877C51.7205 38.2404 51.7288 38.2916 51.7292 38.3435C51.1204 39.154 50.3457 39.9689 49.3079 40.6647C46.8359 42.3212 43.6028 42.9367 39.6716 42.5133C42.3219 41.4236 45.6348 38.9636 45.6348 33.4759C45.6348 33.1226 45.3679 32.8296 45.018 32.7889C44.6614 32.7432 44.3401 32.9817 44.2587 33.3242C44.2246 33.4738 43.314 36.9894 36.3588 37.1512C33.0018 37.2293 31.0871 38.7583 29.9999 40.3526C28.9159 38.7571 27.0029 37.2294 23.6427 37.1512C16.6875 36.9899 15.7768 33.4739 15.7445 33.3321C15.6697 32.9838 15.3638 32.7452 14.9902 32.7843C14.6369 32.8217 14.3667 33.1205 14.3667 33.4767C14.3667 38.964 17.6796 41.424 20.3299 42.5141C16.4003 42.9372 13.1656 42.3221 10.6936 40.6655C9.71195 40.0071 8.96139 39.242 8.36578 38.4748C7.25277 34.7114 7.50463 30.6326 9.06026 27.2766L9.06049 27.2765ZM7.54307 39.6993C8.16814 40.4366 8.94122 41.1623 9.89623 41.8052C13.3262 44.1156 18.0002 44.6339 23.7767 43.3417C24.1129 43.2669 24.344 42.9568 24.3186 42.6127C24.295 42.2686 24.0215 41.9951 23.6765 41.9689C23.3981 41.9477 17.654 41.4424 16.1282 36.2294C17.4416 37.3607 19.7145 38.4508 23.6084 38.5414C26.3639 38.605 28.3023 39.7857 29.3675 42.0496C29.4831 42.2935 29.7279 42.449 29.9964 42.449H29.998C30.2665 42.449 30.5113 42.2944 30.6269 42.0517C31.7008 39.7862 33.6409 38.6054 36.393 38.5419C40.2869 38.4508 42.5603 37.3611 43.8732 36.2299C42.3475 41.4429 36.6038 41.9482 36.3249 41.9694C35.9799 41.9956 35.7065 42.2695 35.6828 42.6132C35.6574 42.9573 35.8881 43.2674 36.2247 43.3422C42.0009 44.6344 46.6749 44.116 50.1052 41.8057C51.0727 41.1536 51.8407 40.4151 52.4704 39.6669C51.7618 41.4029 50.6163 43.2508 48.7444 44.6643C44.9915 47.4995 39.3632 47.8777 32.0168 45.7847C31.8061 45.7236 31.5766 45.7668 31.4033 45.9019C31.2284 46.0362 31.1265 46.2444 31.1299 46.4642L31.2113 51.7845C30.9723 51.8626 30.6332 51.9478 30.2355 51.9794C30.1553 51.9823 30.078 51.9815 30.0011 51.9798C29.9242 51.9815 29.8469 51.9823 29.7667 51.9794C29.3685 51.9474 29.0294 51.8626 28.7908 51.7845L28.8723 46.4642C28.8756 46.2444 28.7738 46.0362 28.5988 45.9019C28.4238 45.7668 28.1928 45.7236 27.9854 45.7847C20.6495 47.8752 15.0231 47.5008 11.2684 44.6721C9.4056 43.2698 8.25567 41.4299 7.54367 39.6994L7.54307 39.6993Z" fill="black"/>
<path d="M18.4405 20.5108C18.8245 20.5108 19.137 20.1991 19.137 19.815C19.137 17.2487 21.2234 15.1611 23.7902 15.1611C24.1742 15.1611 24.4867 14.8494 24.4867 14.4653C24.4867 14.0813 24.1742 13.7696 23.7902 13.7696C20.457 13.7696 17.7439 16.4818 17.7439 19.815C17.7439 20.1991 18.0565 20.5108 18.4405 20.5108Z" fill="black"/>
</svg>
