<svg width="60" height="60" viewBox="0 0 60 60" fill="none" xmlns="http://www.w3.org/2000/svg">
<path d="M29.415 56.1322C29.5504 56.3126 29.7622 56.4189 29.988 56.4189C30.2133 56.4189 30.4256 56.3126 30.5609 56.1322L52.5733 34.0763C52.7951 33.8555 52.8471 33.5164 52.7022 33.2387L45.4268 19.5253C45.3029 19.2921 45.0606 19.1462 44.7969 19.1457H15.1925C14.9288 19.1462 14.6865 19.292 14.5626 19.5253L7.28717 33.2387C7.14232 33.5164 7.19427 33.8555 7.41605 34.0763L29.415 56.1322ZM38.1155 34.2912L29.9949 53.8407L21.9244 34.2912H38.1155ZM22.1171 32.8586L29.9944 21.4007L37.8718 32.8586H22.1171ZM39.6398 34.2907L50.3388 34.2912L32.0207 52.6591L39.6398 34.2907ZM40.2342 32.8586L44.9321 21.6161L50.8757 32.8586H40.2342ZM39.0169 32.0639L31.1395 20.606H43.8222L39.0169 32.0639ZM20.9571 32.0139L16.2383 20.556H28.813L20.9571 32.0139ZM19.7828 32.8586H9.11273L15.1139 21.5442L19.7828 32.8586ZM20.3772 34.2907L27.9462 52.6305L9.64986 34.2919L20.3772 34.2907Z" fill="black"/>
<path d="M29.2795 4H30.7116V14.5052H29.2795V4Z" fill="black"/>
<path d="M51.5593 18.9001L58.9876 11.4719L60.0001 12.4844L52.5718 19.9126L51.5593 18.9001Z" fill="black"/>
<path d="M0 12.491L1.01251 11.4785L8.44078 18.9068L7.42826 19.9193L0 12.491Z" fill="black"/>
</svg>
