<svg width="60" height="60" viewBox="0 0 60 60" fill="none" xmlns="http://www.w3.org/2000/svg">
<g id="5-1">
<g id="Group">
<g id="Group_2">
<path id="Vector" d="M17.8904 21.3301H10.5716C9.25014 21.3301 8.132 22.4482 8.132 23.7697V23.973C8.132 24.7862 8.5386 25.4977 9.1485 25.9043V34.9512C8.5386 35.3578 8.132 36.171 8.132 36.8825V37.0858C8.132 37.3908 8.23365 37.5941 8.23365 37.899L5.6924 39.6271C2.2363 40.1353 0 46.5393 0 50.8086V59.9571H1.0165C4.6759 59.9571 7.1155 53.2482 7.1155 48.7756V41.1518L8.132 40.4403C8.23365 41.1518 8.5386 41.7617 9.1485 42.1683V55.2812C8.5386 55.6878 8.132 56.501 8.132 57.2125V57.4158C8.132 58.7373 9.25014 59.8554 10.5716 59.8554H17.8904C19.2118 59.8554 20.33 58.7373 20.33 57.4158V57.2125C20.33 56.3993 19.9234 55.6878 19.3135 55.2812V42.1683C19.9234 41.7617 20.33 40.9485 20.33 40.237V40.0337C20.33 39.5254 20.1267 39.0172 19.8217 38.6106C20.1267 38.204 20.33 37.6957 20.33 37.1875V36.9842C20.33 36.171 19.9234 35.4594 19.3135 35.0528V26.006C19.9234 25.5994 20.33 24.7862 20.33 24.0746V23.8713C20.33 22.4482 19.2118 21.3301 17.8904 21.3301ZM10.165 36.9842C10.165 36.7809 10.2666 36.6792 10.4699 36.5776L11.1815 36.3743V24.5829L10.4699 24.3796C10.3683 24.3796 10.165 24.1763 10.165 23.973V23.7697C10.165 23.5664 10.3683 23.3631 10.5716 23.3631H17.8904C18.0937 23.3631 18.297 23.5664 18.297 23.7697V23.973C18.297 24.1763 18.1953 24.2779 17.992 24.3796L17.2805 24.5829V36.3743L17.992 36.5776C18.0937 36.5776 18.297 36.7809 18.297 36.9842V37.1875C18.297 37.3908 18.0937 37.5941 17.8904 37.5941H10.5716C10.3683 37.5941 10.165 37.3908 10.165 37.1875V36.9842ZM5.0825 48.7756C5.0825 52.0284 3.55775 56.0944 2.033 57.4158V50.8086C2.033 47.5558 3.55775 43.4898 5.0825 42.1683V48.7756ZM18.297 40.237C18.297 40.4403 18.1953 40.5419 17.992 40.6436L17.2805 40.8469V56.7043L17.992 56.9076C18.0937 56.9076 18.297 57.1109 18.297 57.3142V57.5175C18.297 57.7208 18.0937 57.9241 17.8904 57.9241H10.5716C10.3683 57.9241 10.165 57.7208 10.165 57.5175V57.3142C10.165 57.1109 10.2666 57.0092 10.4699 56.9076L11.1815 56.7043V40.8469L10.4699 40.6436C10.3683 40.6436 10.165 40.4403 10.165 40.237V40.0337C10.165 39.8304 10.3683 39.6271 10.5716 39.6271H17.8904C18.0937 39.6271 18.297 39.8304 18.297 40.0337V40.237Z" fill="black"/>
<path id="Vector_2" d="M34.5611 21.8382V5.16765L24.3961 11.5716V21.8382C24.0911 22.0415 23.7862 22.3465 23.6845 22.6514L22.3631 20.1102V12.1815C22.3631 7.7089 19.9235 1 16.2641 1H15.2476V10.1485C15.2476 14.3161 17.3822 20.5168 20.635 21.2283L23.3796 26.6158V26.7174V26.9207C23.3796 27.7339 23.7862 28.4455 24.3961 28.8521V38.9154C23.7862 39.322 23.3796 40.1352 23.3796 40.8468V41.0501C23.3796 41.5583 23.5829 42.0666 23.8878 42.4732C23.5829 42.8798 23.3796 43.388 23.3796 43.8963V44.0996C23.3796 44.9128 23.7862 45.6243 24.3961 46.0309V55.0778C23.7862 55.4844 23.3796 56.2976 23.3796 57.0091V57.2124C23.3796 58.5339 24.4977 59.652 25.8192 59.652H33.1379C34.4594 59.652 35.5775 58.5339 35.5775 57.2124V57.0091C35.5775 56.1959 35.1709 55.4844 34.5611 55.0778V46.0309C35.1709 45.6243 35.5775 44.8111 35.5775 44.0996V43.8963C35.5775 43.388 35.3742 42.8798 35.0693 42.4732C35.3742 42.0666 35.5775 41.5583 35.5775 41.0501V40.8468C35.5775 40.0336 35.1709 39.322 34.5611 38.9154V28.8521C35.1709 28.4455 35.5775 27.6323 35.5775 26.9207V26.7174C35.5775 26.2092 35.3742 25.7009 35.0693 25.2943C35.3742 24.8877 35.5775 24.3795 35.5775 23.8712V23.6679C35.5775 22.9564 35.1709 22.2448 34.5611 21.8382ZM25.4126 23.7696C25.4126 23.5663 25.5142 23.4646 25.7175 23.363L26.4291 23.1597V12.6897L32.528 8.82704V23.1597L33.2396 23.363C33.3413 23.363 33.5445 23.5663 33.5445 23.7696V23.9729C33.5445 24.1762 33.3412 24.3795 33.1379 24.3795H25.8192C25.6159 24.3795 25.4126 24.1762 25.4126 23.9729V23.7696ZM33.5445 26.8191V27.0224C33.5445 27.2257 33.4429 27.3273 33.2396 27.429L32.528 27.6323V40.4402L33.2396 40.6435C33.3413 40.6435 33.5445 40.8468 33.5445 41.0501V41.2534C33.5445 41.4567 33.3412 41.66 33.1379 41.66H25.8192C25.6159 41.66 25.4126 41.4567 25.4126 41.2534V41.0501C25.4126 40.8468 25.5142 40.7451 25.7175 40.6435L26.4291 40.4402V27.6323L25.7175 27.429C25.6159 27.429 25.4126 27.2257 25.4126 27.0224V26.8191C25.4126 26.6158 25.6159 26.4125 25.8192 26.4125H33.1379C33.3412 26.4125 33.5445 26.6158 33.5445 26.8191ZM20.3301 18.7887C18.8053 17.4673 17.2806 13.4013 17.2806 10.1485V3.54125C18.8053 4.8627 20.3301 8.9287 20.3301 12.1815V18.7887ZM33.5445 44.3029C33.5445 44.5062 33.4429 44.6078 33.2396 44.7095L32.528 44.9128V56.7042L33.2396 56.9075C33.3413 56.9075 33.5445 57.1108 33.5445 57.3141V57.5174C33.5445 57.7207 33.3412 57.924 33.1379 57.924H25.8192C25.6159 57.924 25.4126 57.7207 25.4126 57.5174V57.3141C25.4126 57.1108 25.5142 57.0091 25.7175 56.9075L26.4291 56.7042V44.9128L25.7175 44.7095C25.6159 44.7095 25.4126 44.5062 25.4126 44.3029V44.0996C25.4126 43.8963 25.6159 43.693 25.8192 43.693H33.1379C33.3412 43.693 33.5445 43.8963 33.5445 44.0996V44.3029Z" fill="black"/>
<path id="Vector_3" d="M56.8224 30.9867L52.2482 26.4125C55.8059 26.1075 58.1439 19.6019 58.1439 15.231V6.0825H57.1274C53.468 6.0825 51.0284 12.7914 51.0284 17.264V23.9729L49.7069 23.5663C49.8086 23.363 49.8086 23.1597 49.8086 22.9564V22.7531C49.8086 21.9399 49.402 21.2283 48.7921 20.8217V5.57425C49.402 5.16765 49.8086 4.35445 49.8086 3.6429V3.4396C49.8086 2.11815 48.6904 1 47.369 1H40.0502C38.7287 1 37.6106 2.11815 37.6106 3.4396V3.6429C37.6106 4.4561 38.0172 5.16765 38.6271 5.57425V20.7201C38.0172 21.1267 37.6106 21.9399 37.6106 22.6514V22.8547C37.6106 23.363 37.8139 23.8712 38.1188 24.2778C37.8139 24.6844 37.6106 25.1927 37.6106 25.7009V25.9042C37.6106 26.7174 38.0172 27.429 38.6271 27.8356V42.9814C38.0172 43.388 37.6106 44.2012 37.6106 44.9128V45.1161C37.6106 45.6243 37.8139 46.1326 38.1188 46.5392C37.8139 46.9458 37.6106 47.454 37.6106 47.9623V48.1656C37.6106 48.9788 38.0172 49.6903 38.6271 50.0969V59.7537H48.7921V50.0969C49.402 49.6903 49.8086 48.8771 49.8086 48.1656V47.9623C49.8086 47.454 49.6053 46.9458 49.3003 46.5392C49.6053 46.1326 49.8086 45.6243 49.8086 45.1161V44.9128C49.8086 44.0996 49.402 43.388 48.7921 42.9814V27.9372C49.402 27.5306 49.8086 26.7174 49.8086 26.0059V25.8026L50.8251 26.1075L50.6218 26.7174C50.5201 26.9207 48.8937 30.7834 52.5531 35.3577L59.1604 41.9649L59.6686 40.4402C59.7703 40.1352 61.295 35.256 56.8224 30.9867ZM53.0614 17.264C53.0614 14.0112 54.5861 9.9452 56.1109 8.62375V15.231C56.1109 18.4838 54.5861 22.5498 53.0614 23.8712V17.264ZM47.7756 25.8026V26.0059C47.7756 26.2092 47.6739 26.3108 47.4706 26.4125L46.7591 26.6158V44.5062L47.4706 44.7095C47.5723 44.7095 47.7756 44.9128 47.7756 45.1161V45.3194C47.7756 45.5227 47.5723 45.726 47.369 45.726H40.0502C39.8469 45.726 39.6436 45.5227 39.6436 45.3194V45.1161C39.6436 44.9128 39.7452 44.8111 39.9485 44.7095L40.6601 44.5062V26.6158L39.9485 26.4125C39.8469 26.4125 39.6436 26.2092 39.6436 26.0059V25.8026C39.6436 25.5993 39.8469 25.396 40.0502 25.396H47.369C47.5723 25.396 47.7756 25.5993 47.7756 25.8026ZM39.6436 22.7531C39.6436 22.5498 39.7452 22.4481 39.9485 22.3465L40.6601 22.1432V4.2528L39.9485 4.0495C39.8469 4.0495 39.6436 3.8462 39.6436 3.6429V3.4396C39.6436 3.2363 39.8469 3.033 40.0502 3.033H47.369C47.5723 3.033 47.7756 3.2363 47.7756 3.4396V3.6429C47.7756 3.8462 47.6739 3.94785 47.4706 4.0495L46.7591 4.2528V22.1432L47.4706 22.3465C47.5723 22.3465 47.7756 22.5498 47.7756 22.7531V22.9564C47.7756 23.1597 47.5723 23.363 47.369 23.363H40.0502C39.8469 23.363 39.6436 23.1597 39.6436 22.9564V22.7531ZM47.7756 48.3689C47.7756 48.5722 47.6739 48.6738 47.4706 48.7755L46.7591 48.9788V58.0256H40.6601V48.9788L39.9485 48.7755C39.8469 48.7755 39.6436 48.5722 39.6436 48.3689V48.1656C39.6436 47.9623 39.8469 47.759 40.0502 47.759H47.369C47.5723 47.759 47.7756 47.9623 47.7756 48.1656V48.3689ZM54.0779 33.9346C52.5531 32.0032 52.2482 30.3768 52.1465 29.157L55.3993 32.4098C57.4323 34.3412 57.8389 36.3742 57.9406 37.7973L54.0779 33.9346Z" fill="black"/>
</g>
</g>
</g>
</svg>
