<svg width="50" height="50" viewBox="0 0 50 50" fill="none" xmlns="http://www.w3.org/2000/svg">
<g id="no-fragrance">
<path id="Vector" d="M25 0C11.2151 0 0 11.2151 0 25C0 38.7849 11.2141 50 25 50C38.7849 50 50 38.7849 50 25C49.9996 11.2151 38.7849 0 25 0ZM25 48.3696C12.1137 48.3696 1.63043 37.8863 1.63043 25C1.63043 18.8495 4.02252 13.2502 7.92013 9.07318L12.4079 13.5609C11.4632 15.3359 12.3074 18.2144 14.5563 20.674C10.7702 20.8442 7.88034 22.681 7.88034 25.0003C7.88034 27.3193 10.7695 29.156 14.5547 29.3262C13.4478 30.5374 12.638 31.8976 12.2562 33.2056C11.7812 34.8345 12.0079 36.219 12.8942 37.1054C13.4773 37.6888 14.2764 37.9864 15.2189 37.9864C15.7087 37.9864 16.2375 37.9057 16.7944 37.7434C18.1026 37.3617 19.4621 36.5519 20.6737 35.4449C20.844 39.2302 22.6803 42.1197 24.9996 42.1197C27.3205 42.1197 29.158 39.2257 29.3255 35.4365C31.1168 37.0743 33.1294 37.9773 34.7778 37.9773C35.3927 37.9773 35.9488 37.8405 36.431 37.5846L40.9264 42.0799C36.7491 45.9778 31.1496 48.3699 24.9995 48.3699L25 48.3696ZM25 14.87C24.55 14.87 24.1849 15.2346 24.1849 15.685V18.4104C23.962 18.4377 23.7425 18.4763 23.5268 18.5252C23.2463 17.8288 22.857 17.1282 22.3706 16.4527C22.3186 16.0319 22.2883 15.5907 22.2883 15.127C22.2883 11.8174 23.7176 9.51068 25 9.51068C26.2829 9.51068 27.712 11.8172 27.712 15.127C27.712 15.5926 27.6809 16.0357 27.629 16.4581C27.1366 17.1435 26.7502 17.8418 26.4765 18.5264C26.2597 18.4771 26.0394 18.4384 25.8154 18.4108V15.6854C25.815 15.2347 25.45 14.87 25 14.87ZM25 19.9859C27.7651 19.9859 30.0144 22.2352 30.0144 24.9999C30.0144 26.0887 29.6618 27.0944 29.0704 27.9174L22.0828 20.9298C22.9059 20.3381 23.9112 19.9859 25 19.9859ZM30.2331 29.0806C30.4943 28.7462 30.7237 28.3872 30.9181 28.0062C31.9312 28.4228 32.9695 29.134 33.8986 30.0632C35.7464 31.9109 36.5178 33.9422 36.3165 35.1636L30.2331 29.0806ZM35.1633 36.3161C33.9423 36.5166 31.9102 35.7459 30.0629 33.899C29.0719 32.9076 28.3926 31.8639 28.004 30.9193C28.3857 30.7248 28.7455 30.495 29.0803 30.2335L31.0099 32.1631H31.0103L35.1633 36.3161ZM33.5473 27.6298C32.8713 27.1434 32.1711 26.754 31.4748 26.4735C31.5237 26.2578 31.5623 26.0383 31.5896 25.8154H34.315C34.765 25.8154 35.13 25.4503 35.13 25.0003C35.13 24.55 34.765 24.1853 34.315 24.1853H31.5896C31.5623 23.9624 31.5237 23.7429 31.4748 23.5272C32.1716 23.2462 32.8721 22.8569 33.548 22.3705C33.9685 22.319 34.4097 22.2883 34.873 22.2883C38.1826 22.2883 40.4893 23.7175 40.4893 25.0003C40.4893 26.2831 38.1828 27.7124 34.873 27.7124C34.4093 27.712 33.9677 27.6813 33.5473 27.6298ZM33.8987 19.9366C32.9695 20.8662 31.9308 21.5774 30.9178 21.9936C30.7237 21.6126 30.494 21.2536 30.2328 20.9193L32.1624 18.9896C32.4809 18.6716 32.4809 18.1552 32.1624 17.8368C31.844 17.5183 31.328 17.5183 31.0096 17.8368L29.0799 19.7664C28.7452 19.5048 28.3854 19.2751 28.0036 19.0806C28.3922 18.1359 29.0716 17.0919 30.0625 16.1009C32.4031 13.7607 35.0451 13.1397 35.9523 14.0469C36.8599 14.9545 36.2392 17.5964 33.8987 19.9366ZM27.9176 29.0703C27.0946 29.662 26.0888 30.0146 25.0001 30.0146C22.2354 30.0146 19.9861 27.7654 19.9861 25.0002C19.9861 23.9114 20.3387 22.9061 20.9301 22.083L27.9176 29.0703ZM25.0001 35.1295C25.4501 35.1295 25.8152 34.7644 25.8152 34.3144V31.5894C26.0392 31.5618 26.2599 31.5231 26.4767 31.4738C26.7508 32.1581 27.1367 32.8564 27.6292 33.5418C27.6815 33.9642 27.7122 34.4073 27.7122 34.8729C27.7122 38.1825 26.2829 40.4892 25.0001 40.4892C23.7176 40.4892 22.2885 38.1828 22.2885 34.8729C22.2885 34.4092 22.3192 33.968 22.3707 33.5472C22.8567 32.8716 23.2461 32.171 23.527 31.4747C23.7427 31.5236 23.9622 31.5623 24.1851 31.5896V34.3145C24.1847 34.7645 24.5498 35.1296 25.0002 35.1296L25.0001 35.1295ZM15.6856 25.8149H18.4109C18.4382 26.0378 18.4769 26.2573 18.5258 26.473C17.8294 26.7536 17.1288 27.1433 16.4529 27.6293C16.0321 27.6808 15.5908 27.7116 15.1272 27.7116C11.8176 27.7116 9.51084 26.2823 9.51084 24.9995C9.51084 23.7167 11.8173 22.2874 15.1272 22.2874C15.5908 22.2874 16.0317 22.3182 16.4525 22.3697C17.1284 22.8561 17.8291 23.2454 18.5258 23.5264C18.4769 23.7421 18.4382 23.9612 18.4109 24.1845L15.6856 24.1848C15.2352 24.1848 14.8705 24.5495 14.8705 24.9999C14.8701 25.4499 15.2352 25.8149 15.6856 25.8149ZM16.1014 30.0631C17.031 29.1339 18.0693 28.4227 19.0823 28.0061C19.2764 28.3871 19.5058 28.7461 19.767 29.0801L17.8373 31.0097C17.5189 31.3281 17.5189 31.8441 17.8373 32.1626C17.9966 32.3218 18.2051 32.4014 18.4136 32.4014C18.6221 32.4014 18.8306 32.3218 18.9898 32.1626L20.9195 30.2329C21.2538 30.4941 21.6128 30.7235 21.9934 30.918C21.5768 31.931 20.866 32.9689 19.9364 33.8988C18.817 35.0183 17.539 35.8277 16.3384 36.1779C15.3216 36.4748 14.4873 36.3918 14.0476 35.9524C13.6078 35.513 13.5259 34.6782 13.8224 33.6618C14.1723 32.4604 14.9816 31.1829 16.1014 30.0631ZM20.9198 19.7671L18.9901 17.8374H18.9898L14.8349 13.6826C14.96 13.6621 15.0915 13.6492 15.2329 13.6492C16.4695 13.6492 18.279 14.4438 19.9368 16.1019C20.8664 17.0315 21.5775 18.0698 21.9938 19.0828C21.6132 19.2765 21.2541 19.5059 20.9198 19.7671ZM19.7669 20.9199C19.5057 21.2543 19.2764 21.6133 19.0819 21.9943C18.0689 21.5776 17.0305 20.8668 16.101 19.9373C14.254 18.09 13.4826 16.0583 13.6835 14.8369L19.7669 20.9199ZM42.0796 40.9267L37.5918 36.439C38.5366 34.664 37.6923 31.7855 35.4435 29.3255C39.2292 29.156 42.1194 27.3193 42.1194 25C42.1194 22.6807 39.2292 20.8439 35.4431 20.6741C38.0005 17.8771 38.7454 14.5345 37.1054 12.8942C35.4639 11.2539 32.1217 11.9995 29.3255 14.5566C29.1561 10.7705 27.3193 7.88063 25 7.88063C22.6803 7.88063 20.844 10.7709 20.6745 14.5574C18.2149 12.3085 15.336 11.4643 13.5615 12.4086L9.07369 7.92042C13.2502 4.02252 18.8495 1.63043 25.0005 1.63043C37.8868 1.63043 48.3701 12.1137 48.3701 25C48.3697 31.1501 45.978 36.7498 42.0801 40.9268L42.0796 40.9267Z" fill="black"/>
</g>
</svg>
