<svg width="60" height="60" viewBox="0 0 60 60" fill="none" xmlns="http://www.w3.org/2000/svg">
<path d="M55.8479 17.8576C53.558 17.8576 51.6955 19.7201 51.6955 22.0094C51.6955 23.2431 52.2447 24.3806 53.1541 25.1534C51.9562 26.8344 50.5223 28.269 48.8509 29.4007C48.7826 29.4485 48.6859 29.4998 48.5806 29.5578C45.4321 31.2883 41.4021 30.54 39.0006 27.7766C37.5819 26.1411 36.527 24.7993 35.951 23.8946C34.3759 21.433 33.0921 18.7714 32.0996 15.9871C32.173 15.9513 32.2464 15.9165 32.3198 15.8767C32.5742 15.7373 32.8177 15.57 33.0408 15.3799C33.1529 15.2855 33.2718 15.1808 33.3555 15.0897C33.4528 14.9913 33.5427 14.8934 33.5865 14.8376C33.6297 14.7944 33.6719 14.7488 33.7054 14.7027C33.7885 14.5963 33.8687 14.4894 33.9131 14.4165C34.0104 14.2839 34.0986 14.1422 34.1686 14.0102C34.2449 13.8736 34.3143 13.728 34.3684 13.5948C34.4446 13.4172 34.5044 13.2403 34.534 13.1213C34.5818 12.9882 34.6199 12.8454 34.6495 12.6934C34.6529 12.6763 34.6552 12.6576 34.6575 12.6382C34.6779 12.5312 34.6967 12.4237 34.7058 12.311C34.7218 12.2109 34.7314 12.1101 34.7371 12.0083C34.8589 9.87659 33.5757 7.92758 31.6158 7.26926C30.0919 6.75655 28.4934 6.98303 27.2318 7.88896C25.9936 8.77952 25.2538 10.2204 25.2538 11.7443C25.2538 11.9395 25.2635 12.1267 25.2931 12.3139C25.3022 12.4209 25.3193 12.5239 25.3403 12.6309C25.3426 12.6508 25.3454 12.6702 25.3489 12.6901C25.3773 12.8409 25.416 12.9826 25.445 13.0588C25.4957 13.2437 25.5549 13.4202 25.6254 13.5829C25.6846 13.7286 25.7535 13.8737 25.8212 13.9932C25.9003 14.1429 25.989 14.284 26.0585 14.3773C26.1319 14.4905 26.2121 14.5964 26.265 14.6635C26.3003 14.7153 26.3481 14.7722 26.3749 14.7956C26.4574 14.894 26.5473 14.9925 26.6235 15.0676C26.7271 15.1797 26.8472 15.2849 26.9564 15.3777C27.1801 15.5689 27.4242 15.7368 27.6843 15.879C27.7594 15.92 27.8311 15.9541 27.8999 15.9877C26.9086 18.7699 25.6249 21.4306 24.0481 23.8964C23.4733 24.7978 22.4188 26.1395 20.9996 27.7762C18.5971 30.5396 14.5693 31.2889 11.4202 29.5584C11.3149 29.4998 11.2176 29.4492 11.1408 29.3951C9.47746 28.2684 8.04342 26.8338 6.84566 25.1523C7.75841 24.3761 8.30476 23.2402 8.30476 22.0094C8.30476 19.7201 6.44228 17.8576 4.15238 17.8576C1.86248 17.8576 0 19.7201 0 22.0094C0 24.2692 1.82271 26.106 4.07721 26.1475C4.60813 28.7429 5.24833 31.3293 5.98296 33.8138C5.9915 33.8468 6.00458 33.8997 6.02848 33.9629C6.0319 33.9754 6.03588 33.9885 6.0393 34.0004H6.03873C6.22196 34.6264 6.41942 35.2666 6.62371 35.905C7.17057 37.6287 7.77205 39.3329 8.45778 41.11C8.45437 41.1448 8.44526 41.1789 8.44526 41.2142V49.247C8.44526 49.7119 8.75823 50.1193 9.2021 50.2365C15.0513 51.8139 22.4376 52.6835 30.0004 52.6835C37.5633 52.6835 44.9483 51.8146 50.7973 50.2371C51.2434 50.1182 51.5547 49.7108 51.5547 49.247V41.2142C51.5547 41.1783 51.5462 41.1442 51.5422 41.1089C52.2296 39.3267 52.8311 37.6223 53.3757 35.9061C53.5805 35.267 53.7774 34.6268 53.9612 34.0015H53.9606C53.9652 33.9878 53.9692 33.9742 53.9732 33.9599C53.9931 33.9059 54.0045 33.8638 54.0084 33.8473C54.7539 31.3241 55.3941 28.736 55.9228 26.1479C58.1769 26.107 60 24.27 60 22.0098C60.0006 19.7199 58.1381 17.8575 55.8482 17.8575L55.8479 17.8576ZM27.7993 13.938C27.7361 13.8748 27.678 13.8117 27.5859 13.7075C27.5318 13.6375 27.4777 13.5681 27.4015 13.4532C27.3503 13.3837 27.3042 13.3092 27.253 13.2125C27.2086 13.1334 27.1693 13.0491 27.1289 12.9513C27.0834 12.8454 27.0487 12.739 26.9998 12.5706C26.9838 12.525 26.9702 12.4761 26.9593 12.4249C26.9565 12.4016 26.9531 12.3794 26.9491 12.3589C26.9366 12.2957 26.9218 12.2326 26.9178 12.1648C26.9161 12.1347 26.9121 12.1051 26.907 12.0749C26.8882 11.9662 26.8854 11.8576 26.8854 11.7437C26.8854 10.7439 27.3708 9.79823 28.1845 9.21319C29.0142 8.61625 30.076 8.47172 31.0963 8.81485C32.3408 9.2331 33.1871 10.5368 33.1084 11.915V11.9156C33.105 11.9708 33.0999 12.0248 33.0902 12.0789C33.0856 12.1085 33.0822 12.1381 33.0805 12.1671C33.0765 12.2314 33.0623 12.2911 33.0469 12.3674C33.0435 12.385 33.0407 12.4038 33.039 12.4226C33.027 12.4744 33.0111 12.5324 32.9787 12.6303C32.9491 12.7413 32.9132 12.8465 32.8631 12.9643C32.829 13.0486 32.7897 13.1322 32.7357 13.229C32.6941 13.3081 32.6475 13.3826 32.5678 13.4936C32.52 13.5681 32.4665 13.6364 32.4324 13.6842C32.4199 13.6967 32.3846 13.7343 32.3732 13.7474C32.3197 13.8111 32.2617 13.8748 32.178 13.959C32.1188 14.0228 32.05 14.0797 31.9851 14.1349C31.844 14.2549 31.6926 14.3591 31.539 14.4439C31.4656 14.4831 31.387 14.5224 31.292 14.5668C31.2323 14.5969 31.1685 14.622 31.0564 14.6607C30.9864 14.6886 30.9164 14.7119 30.8169 14.7392C30.7531 14.7586 30.69 14.7728 30.6262 14.7876C30.5249 14.8092 30.4191 14.8251 30.3241 14.8348C30.1072 14.8553 29.8842 14.8553 29.6805 14.8354C29.5792 14.8251 29.4733 14.8092 29.3737 14.7881C29.31 14.7734 29.2457 14.7591 29.1524 14.7307C29.0824 14.7119 29.0118 14.6886 28.8935 14.643C28.8292 14.6214 28.7654 14.5964 28.6841 14.556C28.6112 14.5224 28.5327 14.4831 28.4627 14.445C28.3039 14.3579 28.1537 14.2544 28.012 14.1337C27.9488 14.0808 27.8801 14.0239 27.7993 13.938ZM5.10567 24.3283C5.01917 24.3647 4.93041 24.3949 4.84106 24.4199C4.75798 24.4427 4.67604 24.4677 4.58897 24.4819C4.44614 24.5075 4.29875 24.5235 4.15137 24.5235C2.76174 24.5235 1.63043 23.3956 1.63043 22.0094C1.63043 20.6197 2.76113 19.489 4.15137 19.489C5.541 19.489 6.67231 20.6197 6.67231 22.0094C6.67231 22.946 6.15561 23.7973 5.31172 24.2389C5.24627 24.2742 5.1751 24.2993 5.10567 24.3283ZM49.9218 44.5133C47.8191 45.088 45.4706 45.5695 42.9048 45.9371C42.4587 46.0008 42.1485 46.4145 42.2123 46.8601C42.2703 47.2669 42.6191 47.5606 43.0192 47.5606C43.0573 47.5606 43.0966 47.5577 43.1353 47.552C45.5953 47.1998 47.8635 46.7428 49.9212 46.2017V48.78C44.2791 50.2464 37.2279 51.0517 29.9984 51.0517C22.7703 51.0517 15.7203 50.2465 10.0756 48.7806V46.2022C12.1333 46.7434 14.4009 47.2004 16.8615 47.5526C16.9008 47.5583 16.9395 47.5611 16.9782 47.5611C17.3771 47.5611 17.7265 47.2675 17.7845 46.8606C17.8488 46.4151 17.5387 46.0014 17.0926 45.9376C14.5268 45.57 12.1783 45.0886 10.0756 44.5139V42.0221C10.3465 42.096 10.6264 42.1678 10.9087 42.2383C11.0982 42.2855 11.2922 42.3311 11.4863 42.3772C11.69 42.425 11.8909 42.4739 12.0997 42.52C12.329 42.5706 12.5658 42.619 12.8014 42.6679C12.9328 42.6953 13.0608 42.7231 13.194 42.7499C13.4523 42.8011 13.7175 42.85 13.9827 42.899C14.0977 42.92 14.2103 42.9422 14.3264 42.9627C14.603 43.0122 14.8858 43.0589 15.1692 43.1055C15.2807 43.1237 15.3905 43.1425 15.5027 43.1607C15.7929 43.2068 16.0882 43.2506 16.3853 43.2939C16.4951 43.3098 16.6038 43.3263 16.7147 43.3417C17.0152 43.3838 17.3191 43.4242 17.6258 43.4635C17.7402 43.4783 17.8545 43.4931 17.9695 43.5073C18.2751 43.5454 18.5835 43.5813 18.8942 43.6166C19.016 43.6302 19.1378 43.6439 19.2607 43.657C19.568 43.69 19.8775 43.7218 20.1899 43.752C20.3242 43.7651 20.4585 43.7776 20.594 43.7901C20.8995 43.8186 21.2068 43.8453 21.517 43.8709C21.6632 43.8829 21.81 43.8942 21.9574 43.9056C22.2601 43.929 22.564 43.9517 22.8701 43.9728C23.0352 43.9842 23.2019 43.9938 23.3686 44.0046C23.6594 44.0229 23.9502 44.0411 24.2438 44.057C24.4367 44.0672 24.6314 44.0763 24.8254 44.0854C25.0997 44.0985 25.3728 44.1122 25.6494 44.123C25.8742 44.1321 26.1006 44.1389 26.3271 44.1469C26.5764 44.1554 26.8245 44.1645 27.0749 44.1714C27.3611 44.1793 27.6502 44.1839 27.9381 44.1896C28.1339 44.193 28.3279 44.1987 28.5242 44.201C29.0142 44.2072 29.5053 44.2112 29.9986 44.2112C30.492 44.2112 30.9836 44.2078 31.473 44.201C31.6682 44.1981 31.8611 44.193 32.0557 44.1896C32.3454 44.1839 32.6356 44.1793 32.9235 44.1714C33.1716 44.1645 33.418 44.1554 33.6644 44.1469C33.8932 44.1389 34.1225 44.1321 34.3501 44.123C34.6233 44.1122 34.8936 44.0985 35.1639 44.0854C35.3619 44.0758 35.5605 44.0667 35.7568 44.0564C36.0459 44.0411 36.3327 44.0229 36.6189 44.0052C36.7902 43.9944 36.9615 43.9842 37.1316 43.9728C37.4332 43.9523 37.7314 43.9301 38.0296 43.9068C38.1821 43.8948 38.3346 43.8834 38.4866 43.8709C38.7933 43.8459 39.0966 43.8191 39.3993 43.7907C39.537 43.7782 39.6742 43.7651 39.8107 43.752C40.1209 43.7218 40.4276 43.6905 40.7326 43.6575C40.8583 43.6439 40.9836 43.6302 41.1082 43.616C41.416 43.5813 41.7216 43.5454 42.0238 43.5079C42.1427 43.4931 42.2605 43.4777 42.3789 43.4623C42.6816 43.4231 42.9821 43.3838 43.2785 43.3417C43.3929 43.3258 43.505 43.3087 43.6182 43.2922C43.9142 43.2489 44.2084 43.2051 44.4974 43.159C44.605 43.142 44.7103 43.1237 44.8172 43.1061C45.1058 43.0589 45.3931 43.0111 45.6748 42.961C45.7824 42.9417 45.8865 42.9217 45.9929 42.9018C46.2678 42.8512 46.542 42.8005 46.8095 42.747C46.9193 42.7254 47.0252 42.7015 47.1339 42.6793C47.3933 42.6258 47.6534 42.5729 47.9055 42.5171C47.9977 42.4967 48.0848 42.475 48.1758 42.454C48.5975 42.3578 49.0066 42.2576 49.4055 42.1547C49.5779 42.1103 49.7538 42.0665 49.9217 42.0209L49.9218 44.5133ZM52.4416 33.3895C52.4239 33.4328 52.4103 33.4777 52.4 33.5227C52.3983 33.5284 52.3966 33.5341 52.3955 33.5403C52.2145 34.1543 52.021 34.782 51.8202 35.4108C51.3103 37.0156 50.7521 38.6083 50.1175 40.2689C49.9701 40.3121 49.8176 40.3542 49.6662 40.3963C49.5188 40.4373 49.3743 40.4794 49.2235 40.5198C49.0078 40.5773 48.7842 40.6319 48.5611 40.6871C48.449 40.715 48.3398 40.7435 48.2259 40.7708C47.9403 40.8391 47.6466 40.9045 47.3502 40.9688C47.2927 40.9813 47.2375 40.9944 47.18 41.0069C42.8353 41.9351 37.3582 42.4858 31.5328 42.5684C31.5112 42.569 31.4902 42.5696 31.4685 42.5696C30.9803 42.5758 30.4898 42.5793 29.9981 42.5793C29.5064 42.5793 29.0159 42.5758 28.5288 42.5696C28.5083 42.5696 28.4884 42.5684 28.4679 42.5684C22.6431 42.4859 17.1654 41.9356 12.8207 41.0075C12.7524 40.9927 12.687 40.9774 12.6187 40.9626C12.333 40.9005 12.0502 40.8374 11.7748 40.7714C11.649 40.7412 11.5295 40.7099 11.406 40.6792C11.1944 40.6268 10.9821 40.5745 10.7772 40.5204C10.6151 40.4772 10.4597 40.4322 10.3021 40.3878C10.161 40.348 10.0176 40.3093 9.87986 40.2683C9.2465 38.6136 8.6877 37.0202 8.17675 35.4093C7.97644 34.7822 7.78297 34.1545 7.60258 33.5411C7.60087 33.5337 7.59803 33.5263 7.59575 33.5189C7.58664 33.4768 7.57356 33.4353 7.55762 33.3948C7.55705 33.3931 7.55648 33.3897 7.55478 33.3846C6.8941 31.1477 6.31254 28.8533 5.82151 26.5486C7.06773 28.2 8.54334 29.6078 10.2163 30.7401C10.3227 30.8141 10.469 30.8978 10.6328 30.9877C14.4494 33.0857 19.328 32.185 22.2306 28.8458C23.7232 27.125 24.797 25.7547 25.4218 24.7742C27.0812 22.1799 28.4446 19.3842 29.4808 16.4553C29.4922 16.4565 29.5036 16.4576 29.515 16.4588C29.8371 16.4906 30.154 16.4912 30.4886 16.4582C30.4977 16.4571 30.5068 16.4565 30.5159 16.4548C31.5539 19.3871 32.9173 22.1822 34.5744 24.7727C35.2015 25.756 36.2753 27.1262 37.7673 28.8459C40.6695 32.1857 45.5452 33.0859 49.3651 30.9867C49.5284 30.8967 49.6741 30.8137 49.772 30.7454C51.4512 29.6079 52.9285 28.2 54.1754 26.5481C53.6877 28.8375 53.1078 31.1244 52.4409 33.3899L52.4416 33.3895ZM55.8468 24.5226C55.6994 24.5226 55.552 24.5067 55.3944 24.4788C55.3164 24.4663 55.239 24.4418 55.1616 24.4207C55.07 24.3957 54.9801 24.3644 54.8913 24.3269C54.8185 24.2967 54.7451 24.2699 54.6745 24.2313C53.8425 23.7965 53.3264 22.9452 53.3264 22.0085C53.3264 20.6189 54.4571 19.4881 55.8474 19.4881C57.2376 19.4881 58.3683 20.6189 58.3683 22.0085C58.3677 23.3953 57.237 24.5226 55.8468 24.5226Z" fill="black"/>
<path d="M30.0004 29.3239C27.1704 29.3239 24.8682 31.6263 24.8682 34.4561C24.8682 37.286 27.1706 39.5883 30.0004 39.5883C32.8301 39.5883 35.1326 37.2858 35.1326 34.4561C35.1326 31.6261 32.8301 29.3239 30.0004 29.3239ZM30.0004 37.957C28.0701 37.957 26.4996 36.387 26.4996 34.4562C26.4996 32.526 28.0701 30.956 30.0004 30.956C31.9306 30.956 33.5011 32.526 33.5011 34.4568C33.5011 36.3864 31.9306 37.957 30.0004 37.957Z" fill="black"/>
<path d="M41.4491 32.7371C39.7249 32.7371 38.3228 34.1392 38.3228 35.8629C38.3228 37.5865 39.7249 38.9886 41.4491 38.9886C43.1734 38.9886 44.5755 37.5865 44.5755 35.8629C44.5755 34.1392 43.1734 32.7371 41.4491 32.7371ZM41.4491 37.3566C40.6252 37.3566 39.9548 36.6863 39.9548 35.8623C39.9548 35.0383 40.6257 34.3679 41.4491 34.3679C42.2731 34.3679 42.9435 35.0383 42.9435 35.8623C42.9441 36.6863 42.2731 37.3566 41.4491 37.3566Z" fill="black"/>
<path d="M18.5516 32.7371C16.8279 32.7371 15.4258 34.1392 15.4258 35.8629C15.4258 37.5865 16.8279 38.9886 18.5516 38.9886C20.2752 38.9886 21.6774 37.5865 21.6774 35.8629C21.6774 34.1392 20.2752 32.7371 18.5516 32.7371ZM18.5516 37.3566C17.7276 37.3566 17.0572 36.6863 17.0572 35.8623C17.0572 35.0383 17.7276 34.3679 18.5516 34.3679C19.3756 34.3679 20.0459 35.0383 20.0459 35.8623C20.0454 36.6863 19.375 37.3566 18.5516 37.3566Z" fill="black"/>
</svg>
