<svg width="60" height="60" viewBox="0 0 60 60" fill="none" xmlns="http://www.w3.org/2000/svg">
<g id="2_5">
<g id="Group">
<path id="Vector" d="M12.2857 49.8159C11.3279 51.2527 10.9687 53.1685 11.3279 54.9645C11.6871 56.7605 13.0041 58.317 14.5607 59.1551C16.237 60.113 18.1527 60.2327 19.9487 59.6341C21.7447 59.0354 23.1815 57.5986 23.8999 55.9223C24.6183 54.3658 24.8578 52.8092 24.9775 51.133C25.0972 49.9356 25.0972 48.6186 24.8578 47.4212C24.9775 47.3015 25.0972 47.1818 25.217 47.062C26.8932 43.8292 28.33 40.8359 29.8866 37.3636C31.4431 40.5964 33.1194 43.8292 34.7957 47.062C34.9154 47.1818 35.0351 47.3015 35.1549 47.4212C34.9154 48.7383 34.9154 49.9356 35.0351 51.133C35.1549 52.6895 35.5141 54.2461 36.1127 55.9223C36.8311 57.5986 38.2679 59.0354 40.0639 59.6341C41.8599 60.2327 43.7757 60.113 45.452 59.1551C47.1282 58.317 48.3256 56.6407 48.6848 54.9645C49.1637 53.1685 48.8045 51.2527 47.7269 49.8159C46.769 48.3791 45.5717 47.4212 44.3744 46.3436C43.4165 45.6252 42.4586 45.0266 41.381 44.5476C41.5007 44.1884 41.5007 43.8292 41.381 43.5898L37.3101 35.9268L34.0773 30.0599C35.2746 27.6652 36.3522 25.3903 37.4298 22.9956C38.5074 20.4812 39.4653 18.0865 40.3034 15.8116C38.6271 18.2062 37.1903 20.4812 35.7535 22.7561C34.7957 24.3127 33.8378 25.8692 32.8799 27.5455C32.401 26.5876 31.8023 25.51 31.3234 24.5521C31.6826 23.8337 32.0418 23.1153 32.401 22.2772L33.7181 19.5233C34.5562 17.847 35.2746 16.051 36.1127 14.255C37.4298 14.8537 38.8666 15.3326 40.1837 15.8116C41.7402 15.4524 43.0573 14.4945 44.2546 13.6564C45.452 12.6985 46.6493 11.6209 47.6072 10.1841C48.565 8.74728 48.9242 6.83154 48.565 5.03554C48.2058 3.23953 46.8888 1.683 45.3322 0.844863C43.656 -0.113006 41.7402 -0.23274 39.9442 0.365928C38.1482 0.964597 36.7114 2.4014 35.993 4.07767C35.2746 5.63421 35.0351 7.19074 34.9154 8.86701C34.7957 10.3038 34.7957 11.8604 35.1549 13.4169C34.0773 15.0932 32.9997 16.8892 31.9221 18.6852C30.0063 22.0377 30.2458 21.5588 29.6471 22.6364C27.9708 19.643 27.4919 18.8049 24.4986 13.8958V13.7761C24.8578 12.2196 24.9775 10.5433 24.8578 8.98675C24.738 7.43021 24.3788 5.87367 23.7802 4.1974C23.0618 2.52113 21.625 1.08433 19.829 0.485662C18.033 -0.113006 16.1172 0.00672753 14.4409 0.964597C12.7647 1.80273 11.5673 3.479 11.2081 5.15527C10.7292 6.95128 11.0884 8.86701 12.166 10.3038C13.1239 11.7406 14.3212 12.6985 15.5185 13.7761C16.7159 14.734 18.1527 15.5721 19.5895 15.9313H19.7092C21.0263 15.4524 22.5828 14.8537 24.0196 14.255C25.8156 18.2062 26.7735 20.2417 28.809 24.3127C28.6892 24.5521 28.6893 24.9113 28.9287 25.1508C29.8866 26.9468 30.8445 28.7428 31.8023 30.5388C31.9221 30.6585 32.0418 30.7783 32.1615 30.898L35.2746 37.0044L38.7469 43.5898L36.3522 44.9068C33.8378 40.357 31.3234 35.8071 28.6892 31.1375L24.2591 23.5943L19.7092 15.9313C22.942 22.7561 23.5407 24.1929 26.6538 30.7783L22.942 36.4057C21.5052 38.6807 19.9487 41.1951 18.6316 43.5898C18.5119 43.8292 18.5119 44.1884 18.6316 44.5476C17.554 45.0266 16.5962 45.6252 15.6383 46.3436C14.3212 47.3015 13.2436 48.3791 12.2857 49.8159ZM36.8311 9.22622C37.1903 7.78941 37.5495 6.35261 38.1482 5.15527C38.7469 4.07767 39.7047 3.23954 40.9021 2.7606C42.0994 2.4014 43.2968 2.52113 44.3744 3.00007C45.452 3.59874 46.2901 4.5566 46.6493 5.75394C47.0085 6.95128 46.8888 8.26835 46.2901 9.46568C45.6914 10.663 44.7336 11.8604 43.656 12.938C42.6981 14.0156 41.5007 15.0932 40.3034 15.9313C39.1061 14.9734 37.789 14.1353 36.4719 13.2972C36.3522 11.9801 36.4719 10.5433 36.8311 9.22622ZM16.3567 12.938C15.3988 11.8604 14.4409 10.663 13.7225 9.46568C13.1239 8.26835 13.0041 6.95128 13.3633 5.75394C13.7225 4.5566 14.5607 3.59874 15.6383 3.00007C16.8356 2.4014 18.033 2.4014 19.2303 2.7606C20.4276 3.1198 21.3855 3.95794 21.9842 5.15527C22.5828 6.35261 22.942 7.78941 23.3012 9.22622C23.5407 10.5433 23.7802 11.9801 23.6604 13.4169C22.4631 14.255 21.146 15.0932 19.829 16.051C18.3922 15.0932 17.3146 14.1353 16.3567 12.938ZM43.656 47.1818C44.6138 48.2594 45.5717 49.4567 46.2901 50.654C46.8888 51.8514 47.0085 53.1685 46.6493 54.3658C46.2901 55.5631 45.452 56.521 44.3744 57.1197C43.2968 57.7183 41.9797 57.7183 40.9021 57.3591C39.7047 56.9999 38.7469 56.1618 38.1482 54.9645C37.5495 53.7671 37.1903 52.3303 36.8311 50.8935C36.5917 49.8159 36.4719 48.6186 36.4719 47.541C36.7114 47.4212 41.2613 45.0266 40.9021 45.1463C41.0218 45.0266 41.1415 44.9068 41.2613 44.7871C42.0994 45.5055 42.9376 46.3436 43.656 47.1818ZM23.8999 37.8426C24.738 35.6873 25.6959 33.4124 26.7735 31.0177C27.6116 32.8137 28.2103 33.7716 29.0485 35.6873C28.0906 37.2439 27.1327 38.9202 26.1748 40.4767C25.3367 41.9135 24.4986 43.47 23.6604 44.9068C22.8223 44.4279 21.9842 44.0687 21.146 43.5898C22.1039 41.7938 22.942 39.878 23.8999 37.8426ZM18.7514 44.7871C18.8711 44.9068 18.8711 45.0266 18.9908 45.0266H19.1106C20.5474 45.8647 21.9842 46.5831 23.5407 47.4212C23.5407 48.4988 23.421 49.6962 23.1815 50.7738C22.8223 52.2106 22.4631 53.6474 21.8644 54.8447C21.2658 55.9223 20.3079 56.7605 19.1106 57.2394C17.9132 57.5986 16.7159 57.4789 15.6383 56.9999C14.5607 56.4013 13.7225 55.4434 13.3633 54.2461C13.0041 53.0487 13.1239 51.7316 13.7225 50.5343C14.3212 49.337 15.2791 48.1396 16.3567 47.062C17.0751 46.3436 17.9132 45.5055 18.7514 44.7871Z" fill="black"/>
</g>
</g>
</svg>
