<svg width="60" height="60" viewBox="0 0 60 60" fill="none" xmlns="http://www.w3.org/2000/svg">
<g id="4_1">
<g id="Group">
<path id="Vector" d="M11.5517 16.0415C11.5548 16.0289 11.5376 16.0117 11.5085 15.9921C11.5376 16.0274 11.5501 16.047 11.5517 16.0415Z" fill="black"/>
<path id="Vector_2" d="M3.22769 23.7888C5.74576 32.236 14.5861 35.3198 24.5752 34.8278C20.8079 33.3761 16.4521 30.8471 13.096 25.5033L12.8966 25.4217C9.82066 24.3451 7.1739 20.4264 7.26885 20.4287C7.27355 20.4225 7.78517 20.9184 7.8095 20.9443C8.58634 21.7274 9.393 22.5082 10.2773 23.1807C10.6893 23.4914 11.1295 23.839 11.6027 24.0532C12.2477 24.342 12.447 24.0728 12.746 23.5432C12.8684 23.3258 13.092 23.336 13.3219 23.4051C13.7323 23.5196 14.1984 23.7174 14.3993 23.4357C14.5312 23.1901 14.4833 23.0331 14.4974 23.0371C14.4864 23.0292 14.5068 23.2011 14.3624 23.4051C14.1843 23.6232 13.792 23.4208 13.362 23.2583C13.1736 23.161 12.764 23.1218 12.5757 23.4263C12.4376 23.6617 12.323 23.8351 12.1065 23.7927C10.2813 22.7522 11.627 22.8527 11.4002 22.3536C12.764 22.6392 14.0133 22.013 14.8592 21.8726C15.9224 21.6246 16.6051 21.8482 16.6035 21.8302C16.6082 21.8498 15.9444 21.5454 14.8317 21.7243C13.8846 21.8255 12.5679 22.4085 11.2457 22.0146C10.9946 21.9212 9.56563 21.2668 9.00223 20.4586C8.43646 19.6495 7.46188 19.2376 7.33005 19.2195C7.33005 19.2195 8.42469 19.3686 8.84764 20.0129C9.27059 20.6524 10.2852 20.9466 10.6901 21.0714C10.7654 21.0949 10.8219 21.1122 10.8682 21.1224C10.8682 21.1224 10.8682 21.1185 10.8619 21.1146L10.8298 21.1075C10.5677 20.9333 10.2444 20.7387 9.89677 20.5818C9.54915 20.4217 9.29884 20.1478 9.25333 19.9744C9.25333 19.9744 9.5672 20.2899 9.88814 20.377C10.1628 20.4507 10.4814 20.5315 10.6822 20.6571C10.6775 20.65 10.676 20.6406 10.6728 20.6359C11.4301 20.9616 12.1457 21.1726 12.7264 21.2158C13.4899 21.295 13.9018 20.989 13.8956 21.0094C13.894 20.9929 13.4585 21.2174 12.7444 21.0636C12.1331 20.9568 11.3555 20.6461 10.5206 20.2412C10.5065 20.2028 10.4916 20.1651 10.479 20.1266C11.2606 20.7097 12.2202 20.8297 12.8394 20.6618C13.566 20.4821 13.8704 20.1062 13.8799 20.1306C13.872 20.1086 13.5087 20.4201 12.8119 20.5135C12.2642 20.5975 11.6921 20.4617 11.1994 20.2208C10.9208 20.0858 10.6218 19.9132 10.4131 19.6817C10.2365 19.4926 10.235 19.2266 10.0929 19.0367C10.2413 19.236 10.3794 19.4212 10.5332 19.5577C10.9012 19.9116 11.2229 19.9768 11.2119 19.9885C11.2182 19.9783 10.9333 19.8387 10.6446 19.4565C10.5591 19.3561 10.4853 19.2439 10.4178 19.1269C10.275 18.8798 10.1298 18.624 9.95327 18.3972C9.77122 18.1579 9.51934 18.183 9.25097 18.1555C8.99046 18.1327 8.76211 18.0464 8.56594 17.8738C8.07394 17.4406 7.90209 16.8011 7.62039 16.7391C7.62039 16.7391 7.82441 16.7313 8.13514 17.0279C8.4451 17.3222 8.71424 17.7286 9.20468 17.7804C9.48246 17.8118 9.61271 17.9154 9.81438 18.1728C9.80653 18.1445 9.80025 18.1218 9.79319 18.0935C9.73199 17.9507 9.58054 17.7169 9.17878 17.5215C8.5628 17.2194 8.64676 16.6599 8.28973 16.4064C7.93583 16.1522 7.68552 16.0957 7.68552 16.0957C7.68552 16.0957 8.13122 15.9921 8.47491 16.2934C8.81861 16.5932 9.05402 16.9078 9.51855 17.1754C9.73905 17.2712 9.98152 17.3677 10.2648 17.4548C11.2582 17.6368 12.0319 18.0111 12.458 18.489C12.8551 18.9716 12.4517 19.3404 12.4211 19.378C12.4729 19.338 12.9516 19.0218 12.5836 18.4011C12.2108 17.8306 11.299 17.3355 10.3456 17.1629C10.0419 17.0726 9.7877 16.9745 9.56406 16.8757C10.082 16.8294 10.6877 16.7383 11.383 16.6481C12.8943 16.5751 14.3703 16.769 15.2005 17.2908C15.6007 17.5866 15.9303 17.8824 15.9899 18.1469C15.935 18.3462 15.7451 18.3305 15.6846 18.3273C15.7411 18.3399 15.9295 18.3948 16.037 18.1445C15.9907 17.8283 15.6799 17.5105 15.2939 17.1723C14.4142 16.539 12.9476 16.2762 11.3579 16.3476C10.5551 16.4559 9.89599 16.561 9.36711 16.6136C9.19055 16.572 8.86255 16.4088 8.58085 16.131C8.58085 16.131 8.94416 16.1875 9.25333 16.1694C9.393 16.1483 9.54915 16.1169 9.72806 16.0667C10.6218 15.7143 11.3328 15.8783 11.5062 15.9898C11.4497 15.9199 11.3194 15.7873 11.0675 15.6971C10.7011 15.5707 10.1722 15.6445 9.6543 15.774C9.47775 15.8226 9.32159 15.8579 9.18349 15.887C9.18035 15.8783 9.17721 15.8697 9.17407 15.8587C8.98418 15.9019 8.67266 15.8587 8.31876 15.7583C7.9374 15.6531 7.81421 15.7324 7.81421 15.7324C7.81421 15.7324 8.01195 15.4876 8.28031 15.5699C8.47648 15.6366 8.81704 15.5629 8.93474 15.3785C9.02341 15.2357 8.86412 14.8049 8.91826 14.7499C9.07756 14.5922 9.27373 14.4329 9.52091 14.3019C10.3472 13.948 11.383 13.9111 11.8318 13.3273C12.261 12.7749 12.1245 12.3135 12.1661 12.33C12.1324 12.3088 12.1614 12.7867 11.7259 13.2237C11.2802 13.693 10.3527 13.6333 9.38751 14.0296C9.17172 14.152 8.99359 14.2807 8.84686 14.4157C8.68913 13.6616 8.54789 12.869 8.41763 12.06C9.04303 10.3447 9.88265 8.58935 10.9789 6.81124C11.485 5.99045 12.3293 4.64392 11.9111 3.64658C11.8051 3.39234 11.6011 3.10986 11.5344 3C10.9443 4.03893 10.3417 5.09826 9.73199 6.17093C8.58713 8.28018 7.73495 10.4553 7.14173 12.6109C6.84276 13.088 6.50299 13.649 6.15459 14.2713C6.14674 13.9692 6.12241 13.6169 6.07063 13.2072C6.10437 12.7874 6.26837 12.3974 6.44335 12.0357C6.63953 11.9871 6.75017 11.9431 6.74075 11.9321C6.73918 11.9447 6.64423 11.9627 6.46768 11.9823C6.63953 11.6206 6.80666 11.2824 6.84197 10.9685C6.97694 10.3408 6.63168 10.0387 6.61206 10.0057C6.61991 10.0379 6.8969 10.3737 6.69602 10.9316C6.6254 11.2604 6.38372 11.5947 6.16243 12.0075C6.02119 12.0177 5.86033 12.0255 5.672 12.0333C5.31183 12.071 4.93753 12.3716 4.74136 12.8055C4.50988 13.2881 4.77196 13.8397 4.98069 14.2713C5.00659 14.3137 5.02856 14.3529 5.05131 14.3921C4.94852 14.4565 4.83395 14.5404 4.71703 14.6628C4.29409 15.0787 4.43533 15.8979 4.72645 16.5759C4.67309 16.583 4.62366 16.5924 4.56873 16.605C4.08301 16.6795 3.76285 17.1817 3.58787 17.7647C2.94756 17.9107 2.17464 18.274 1.78073 19.116C1.24086 21.3578 0.00261834 20.9113 0.127384 21.124C0.130523 21.1522 0.318848 21.2056 0.772399 21.0753C1.32717 21.0157 1.73678 20.1839 2.0538 19.247C2.3512 18.5769 2.97188 18.1963 3.53294 17.9954C3.49449 18.1641 3.47173 18.3328 3.45761 18.4976C3.26457 20.2279 2.60386 20.4947 2.7098 20.5967C2.67919 20.661 3.25359 20.4609 3.58002 19.4204C3.57845 19.4848 3.57845 19.5452 3.57688 19.6064C3.57217 19.7939 3.58473 19.9878 3.59807 20.1824C3.43407 20.7905 3.31166 21.3923 3.2426 21.9816C2.41789 23.1187 1.29186 23.2152 0.747289 23.522C0.115614 23.8139 -0.0217074 24.1003 0.00261803 24.1097C0.0473453 24.149 0.209777 23.9465 0.827328 23.7174C1.27931 23.4977 2.31981 23.4239 3.19709 22.4988C3.1712 22.9429 3.17904 23.3753 3.22769 23.7888ZM9.65744 7.62339C9.65744 7.62182 11.5376 4.49405 11.5376 4.49405L11.7612 4.81813C11.7612 4.81813 11.6678 4.93191 9.88971 7.83604C9.30747 8.78709 8.76054 9.91233 8.27403 11.1341C8.26462 11.0729 8.25442 11.0164 8.245 10.9544C8.245 10.9544 8.13122 11.1137 7.93819 11.3954C8.42783 10.1022 8.99673 8.83731 9.65744 7.62339ZM4.46044 17.7067C4.37805 17.6925 4.28545 17.687 4.18423 17.6863C4.33175 17.4893 4.49104 17.3575 4.64877 17.2657C4.58599 17.4132 4.52165 17.5591 4.46044 17.7067ZM5.01051 16.4731C5.0058 16.4614 5.00109 16.4543 4.99482 16.4417C5.01051 16.4292 5.02699 16.419 5.04111 16.4064C5.0317 16.4292 5.02149 16.4527 5.01051 16.4731ZM5.70496 12.1801C5.85327 12.1589 5.98823 12.1346 6.11143 12.111C5.95528 12.421 5.81717 12.7686 5.77244 13.1884C5.85091 13.868 5.88465 14.3678 5.89642 14.7397C5.79991 14.9132 5.70653 15.0905 5.61001 15.2733C5.60373 14.9681 5.52605 14.6252 5.34008 14.2854C5.4107 14.243 5.45386 14.2211 5.44601 14.214C5.45386 14.2242 5.40599 14.2336 5.32674 14.2619C5.30555 14.2211 5.28044 14.1803 5.25455 14.1402C4.62601 13.2841 5.0364 12.3205 5.70496 12.1801ZM4.83866 14.7547C4.92262 14.6377 5.00894 14.5467 5.09133 14.4714C5.48054 15.2608 5.35342 15.8116 5.08035 16.0941C5.02385 16.1655 4.97127 16.2236 4.93047 16.2754C4.69035 15.6782 4.56873 15.1085 4.83866 14.7547ZM4.61816 16.7462C4.67309 16.7266 4.72724 16.7109 4.77746 16.6936C4.80335 16.7415 4.82375 16.7831 4.84494 16.8302C4.79629 16.9369 4.74685 17.0452 4.69899 17.1527C4.47692 17.2406 4.23288 17.4061 4.00768 17.698C3.97236 17.7027 3.93705 17.7059 3.90017 17.7114C4.03122 17.2288 4.24387 16.8615 4.61816 16.7462ZM3.85466 17.8966C3.86565 17.895 3.87585 17.8918 3.88526 17.8887C3.86879 17.9248 3.85152 17.9617 3.83504 18.0001C3.83975 17.9648 3.84995 17.9295 3.85466 17.8966ZM4.08144 17.844C4.09399 17.8432 4.10733 17.8385 4.11832 17.8353C4.22896 17.8189 4.32391 17.8126 4.41414 17.8165C4.19836 18.3446 4.00218 18.8806 3.8272 19.4181C3.80915 18.8107 3.87349 18.2575 4.08144 17.844Z" fill="black"/>
<path id="Vector_3" d="M58.9837 38.6218C59.8822 35.5858 60.2126 32.3435 59.8634 29.0101C59.7119 27.5859 59.6225 24.9478 58.1543 24.149C56.6218 23.3149 53.99 24.9745 52.842 25.9067C51.0278 27.3858 48.9986 28.7324 46.8265 29.9306C45.564 32.8857 42.1027 38.3982 38.6148 41.6523C38.6148 41.6523 43.6705 34.4182 45.0594 30.8573C43.6007 31.704 41.1807 33.497 39.718 36.1406C38.2554 38.7842 37.8418 40.8221 35.3763 42.7979C35.3763 42.7979 37.2243 41.2066 38.1385 37.9815C38.6148 36.2842 40.3607 33.6288 42.1153 32.524C43.6234 31.5761 44.7346 31.0166 44.9998 30.8863C43.8149 31.4741 42.5924 32.0218 41.3416 32.5271C39.5564 33.406 36.9771 34.7384 35.9131 37.5177C34.4371 41.3808 32.5923 44.4481 30.6211 45.7115C30.5827 45.7374 30.5458 45.7609 30.5066 45.7837C30.5066 45.7837 32.79 43.9734 33.8187 40.8966C34.7753 38.0364 35.2994 35.4524 36.9096 34.0918C22.673 38.4562 6.54606 37.1317 3.15698 25.0467L3.39474 27.9375C4.04918 32.2964 6.36636 36.7872 8.62706 40.516C8.6349 40.5286 8.64275 40.5412 8.64981 40.5529C9.69659 41.5448 10.7881 42.5154 12.0012 43.359C22.6895 51.3157 36.1045 49.2544 43.2554 45.1653C50.9187 41.1234 52.9534 35.6306 53.0013 35.7938C53.1394 35.6824 51.2279 41.369 43.4948 45.5993C36.307 49.8672 22.5577 52.0832 11.5908 43.9255C11.1404 43.6124 10.7081 43.2789 10.2835 42.9352C12.7161 46.1274 15.9294 49.0762 19.0932 51.2483C26.5658 56.3778 36.8257 59.2027 45.2917 54.8233C51.3299 51.6979 55.9878 46.6099 58.3293 40.5514C55.597 42.8073 51.6657 43.1189 51.6657 43.1189C54.6876 42.7281 57.9244 40.4352 58.9837 38.6218Z" fill="black"/>
</g>
</g>
</svg>
