<svg width="60" height="60" viewBox="0 0 60 60" fill="none" xmlns="http://www.w3.org/2000/svg">
<g id="5-2">
<path id="Vector" d="M49.435 39.1041C55.2769 33.2622 55.0881 23.8254 55.0702 23.4299C55.0611 23.0848 54.9199 22.7563 54.6758 22.5122C54.4316 22.268 54.1031 22.1269 53.758 22.1178C53.4075 22.1178 43.9437 21.9021 38.1288 27.7619C32.3139 33.6217 32.4846 43.0406 32.4936 43.4361C32.4985 43.5869 32.5289 43.7358 32.5835 43.8765L31.5859 44.9909V27.7709C33.0418 26.261 37.7153 20.8685 37.7153 14.2897C37.7153 6.65032 31.4241 0.619725 31.1635 0.368075C30.9132 0.131692 30.582 0 30.2377 0C29.8935 0 29.5623 0.131692 29.312 0.368075C29.0424 0.619725 22.7602 6.65931 22.7602 14.2897C22.7602 20.8865 27.4426 26.27 28.8896 27.7709V45.0358L27.6224 43.6698C27.6292 43.592 27.6292 43.5138 27.6224 43.4361C27.6224 43.0406 27.8291 33.6128 21.9872 27.7619C16.1454 21.9111 6.67258 22.1178 6.31308 22.1268C5.96793 22.1359 5.63943 22.277 5.39529 22.5212C5.15115 22.7653 5.00999 23.0938 5.0009 23.4389C5.0009 23.8344 4.79419 33.2623 10.6361 39.1131C15.2107 43.6787 21.9513 44.5505 24.8812 44.7123L28.8537 49.0083V58.6519C28.8537 59.0094 28.9957 59.3523 29.2485 59.6052C29.5014 59.858 29.8443 60 30.2018 60C30.5593 60 30.9022 59.858 31.1551 59.6052C31.4079 59.3523 31.5499 59.0094 31.5499 58.6519V49.0083L35.4325 44.6943C38.4793 44.4966 44.9862 43.5529 49.435 39.1041ZM12.5504 37.1808C8.73071 33.3611 7.91285 27.4743 7.74209 24.841C10.3754 25.0117 16.2532 25.8206 20.0819 29.6493C23.3174 32.8848 24.3959 37.5942 24.7554 40.5601L17.3138 32.4714C17.0652 32.2527 16.7449 32.1331 16.4138 32.1354C16.0828 32.1378 15.7642 32.2618 15.5187 32.484C15.2732 32.7061 15.1181 33.0108 15.0828 33.34C15.0476 33.6691 15.1347 33.9998 15.3275 34.2688L22.0771 41.6745C19.1652 41.1622 15.3185 39.9759 12.5504 37.1808ZM25.4205 14.2717C25.4205 9.43644 28.5841 5.16739 30.2018 3.29799C31.8195 5.1584 34.9831 9.40948 34.9831 14.2717C34.9831 17.9656 33.1407 21.3179 31.5499 23.5288V14.2717C31.5499 13.9142 31.4079 13.5713 31.1551 13.3184C30.9022 13.0656 30.5593 12.9236 30.2018 12.9236C29.8443 12.9236 29.5014 13.0656 29.2485 13.3184C28.9957 13.5713 28.8537 13.9142 28.8537 14.2717V23.5288C27.2629 21.3179 25.4205 17.9656 25.4205 14.2717ZM39.9981 29.6673C43.8088 25.8566 49.6956 25.0387 52.338 24.859C52.1672 27.4923 51.3493 33.3791 47.5297 37.1898C44.8334 39.886 41.0856 41.0903 38.2007 41.6206L44.7705 34.3318C44.9002 34.2022 45.0021 34.0477 45.07 33.8774C45.1379 33.7072 45.1703 33.5249 45.1654 33.3417C45.1605 33.1585 45.1183 32.9782 45.0413 32.8119C44.9644 32.6456 44.8543 32.4967 44.7179 32.3743C44.5815 32.252 44.4215 32.1587 44.2478 32.1002C44.0741 32.0418 43.8903 32.0194 43.7077 32.0343C43.525 32.0493 43.3473 32.1013 43.1855 32.1873C43.0236 32.2733 42.881 32.3913 42.7663 32.5343L35.2977 40.7758C35.6302 37.8728 36.6728 33.0016 39.9981 29.6673Z" fill="black"/>
</g>
</svg>
