<svg width="60" height="60" viewBox="0 0 60 60" fill="none" xmlns="http://www.w3.org/2000/svg">
<g id="3_2">
<g id="Group">
<g id="Group_2">
<path id="Vector" d="M31.6268 50.4642C27.5768 50.4642 23.2665 50.1445 19.416 48.0587L7.40423 42.7992L0.911599 42.9157C0.545389 42.8872 0.272125 42.643 0.265929 42.2923L0.000101305 27.6067C-0.00609513 27.2573 0.272745 26.9673 0.622844 26.9611L8.75692 26.8136C11.8923 26.7665 14.9732 27.2449 17.9339 28.2611L40.0893 35.8691C42.2531 36.6126 43.4527 38.9091 42.8708 41.0877L54.03 40.8857C54.066 40.8857 54.1019 40.8845 54.1378 40.8845C57.3216 40.8845 59.9408 43.4449 59.9991 46.6422C60.0176 47.677 59.7642 48.4516 59.2245 49.008C58.2492 50.0156 56.6115 50.0379 54.7147 50.0651L54.1961 50.0726L34.3365 50.432C33.4522 50.4481 32.5457 50.4642 31.6268 50.4642ZM7.53188 41.5277C7.61925 41.5277 7.706 41.5463 7.78656 41.581L19.9731 46.9198C24.4513 49.3414 29.4617 49.2546 34.3129 49.1629L54.6974 48.7961C56.3109 48.7738 57.7045 48.754 58.313 48.1256C58.6061 47.8233 58.7424 47.3461 58.73 46.6645C58.6842 44.1599 56.6319 42.1535 54.1372 42.1535C54.1093 42.1535 54.0814 42.1548 54.0529 42.1548L42.4433 42.3642L42.3541 42.6244C41.8893 43.979 40.5509 45.3261 36.82 44.0471L23.3496 39.5981C23.0168 39.4878 22.8359 39.1296 22.9462 38.7963C23.0558 38.4642 23.4152 38.2807 23.7474 38.3935L37.2253 42.845C40.5441 43.9839 41.0032 42.6492 41.1544 42.2118L41.388 41.5314L41.3886 41.5302L41.5814 40.9675C42.1304 39.3676 41.2759 37.619 39.6766 37.0687L17.5218 29.4607C14.7018 28.4928 11.7653 28.0417 8.77985 28.0826L1.28029 28.2189L1.52319 41.6355L7.52073 41.5277C7.52445 41.5277 7.52816 41.5277 7.53188 41.5277Z" fill="black"/>
</g>
<g id="Group_3">
<g id="Group_4">
<path id="Vector_2" d="M38.6026 27.9945C36.9978 27.9945 35.2318 27.4381 33.6337 26.3165C33.3685 26.1306 33.0859 25.9261 32.7836 25.6981C25.3044 20.0965 23.386 10.2466 23.3079 9.83023C23.2757 9.65549 23.3179 9.4758 23.4238 9.33328C23.5304 9.19076 23.6921 9.10029 23.8687 9.08294C24.2907 9.03957 34.2825 8.11134 41.7616 13.7142C42.0652 13.9422 42.341 14.1541 42.5938 14.3561C45.7502 16.8793 46.7875 20.7719 44.9559 23.217L42.802 26.0922C41.8545 27.3563 40.3203 27.9945 38.6026 27.9945ZM24.7164 10.3012C25.2989 12.6347 27.5823 20.2167 33.5451 24.6831C33.8369 24.9025 34.1084 25.0995 34.3624 25.278C37.1074 27.2038 40.3686 27.2274 41.7857 25.3313L43.9396 22.4561C45.3586 20.5625 44.4192 17.4395 41.8012 15.3475C41.5577 15.153 41.2919 14.9485 41.0007 14.7304C35.0291 10.2565 27.1194 10.1971 24.7164 10.3012Z" fill="black"/>
</g>
<g id="Group_5">
<path id="Vector_3" d="M50.6887 31.4841C50.4173 31.4841 50.1664 31.3094 50.0821 31.0355C48.994 27.4948 47.2825 25.4637 44.9961 24.9989C42.9246 24.5776 41.0762 23.8662 39.5029 22.8872C37.0169 21.3405 33.809 18.8954 32.6459 16.0314C32.5139 15.7067 32.6707 15.3362 32.9954 15.2048C33.3189 15.0722 33.6894 15.2271 33.822 15.5531C34.8568 18.1023 37.8466 20.3627 40.1734 21.809C41.6184 22.71 43.3261 23.3643 45.2489 23.7547C48.0261 24.3198 50.0604 26.6447 51.2954 30.6637C51.3982 30.9983 51.2099 31.3528 50.8752 31.4556C50.8133 31.4754 50.7501 31.4841 50.6887 31.4841Z" fill="black"/>
</g>
</g>
</g>
</g>
</svg>
