<svg width="60" height="60" viewBox="0 0 60 60" fill="none" xmlns="http://www.w3.org/2000/svg">
<g id="3_4">
<g id="Group">
<path id="Vector" d="M13.9827 38.2092V40.3724H30.0001H46.0174V38.2092H30.0001H13.9827Z" fill="black"/>
<path id="Vector_2" d="M53.7191 20.3177L48.4013 15H11.5987L6.28094 20.3177H0V40.3645H6.26087L11.5987 45.7023H48.4013L53.7391 40.3645H60V20.3177H53.7191ZM5.6388 38.2174H3.77258V22.4849H5.6388V38.2174ZM47.5184 43.5351H12.4816L8.24749 39.301L12.4816 35.0468H47.5184L51.7525 39.301L47.5184 43.5351ZM52.194 36.6722L48.4013 32.8796H11.5987L7.80602 36.6722V21.8428L12.4816 17.1672H47.5184L52.194 21.8428V36.6722ZM56.107 38.2174H54.3612V22.4849H56.107V38.2174Z" fill="black"/>
<path id="Vector_3" d="M44.2273 21.5815H15.7725C15.501 21.5813 15.2321 21.6346 14.9812 21.7383C14.7303 21.8421 14.5023 21.9944 14.3104 22.1863C14.1184 22.3783 13.9661 22.6063 13.8624 22.8572C13.7586 23.108 13.7053 23.3769 13.7056 23.6484V26.4177C13.7088 26.963 13.9282 27.4848 14.3157 27.8686C14.7032 28.2523 15.2271 28.4666 15.7725 28.4645H44.2273C44.7727 28.4666 45.2966 28.2523 45.6841 27.8686C46.0716 27.4848 46.291 26.963 46.2942 26.4177V23.6484C46.2945 23.3769 46.2412 23.108 46.1374 22.8572C46.0336 22.6063 45.8814 22.3783 45.6894 22.1863C45.4974 21.9944 45.2695 21.8421 45.0186 21.7383C44.7677 21.6346 44.4988 21.5813 44.2273 21.5815ZM41.8995 26.0364H18.1002V24.0297H41.8995V26.0364Z" fill="black"/>
</g>
</g>
</svg>
