<svg width="60" height="60" viewBox="0 0 60 60" fill="none" xmlns="http://www.w3.org/2000/svg">
<g id="3_1">
<g id="Group">
<g id="Group_2">
<path id="Vector" d="M20.7878 15.2512V15.2684C20.9597 15.1824 21.1316 15.1137 21.312 15.0449C21.1316 15.0965 20.9597 15.1824 20.7878 15.2512ZM23.5034 26.4056C23.8901 26.4056 24.2682 26.3454 24.6377 26.2509C24.2768 26.3282 23.9073 26.3884 23.5034 26.4056ZM23.5034 40.9716C23.8901 40.9716 24.2682 40.9114 24.6377 40.8169C24.2768 40.9028 23.9073 40.9544 23.5034 40.9716ZM20.7878 29.8172V29.8344C20.848 29.8086 20.9167 29.7742 20.9855 29.7313C20.9167 29.757 20.848 29.7914 20.7878 29.8172Z" fill="black"/>
<path id="Vector_2" d="M60 25.2799C60 22.2378 58.436 19.548 56.047 17.9926C58.436 16.4457 60 13.7645 60 10.7052C60 5.91005 56.0985 2 51.2948 2C48.2526 2 45.5629 3.58121 44.0074 5.95302C42.4606 3.58121 39.7708 2 36.7201 2C33.678 2 30.9883 3.58121 29.4328 5.95302C27.886 3.58121 25.2048 2 22.1627 2C18.5362 2 15.4168 4.23432 14.1278 7.37955C11.1114 7.63735 8.52478 9.44199 7.167 11.9857C3.10226 12.7075 0 16.2824 0 20.5534C0 23.5955 1.58121 26.2853 3.97021 27.8407C1.58121 29.379 0 32.0687 0 35.128C0 38.1701 1.58121 40.8599 3.97021 42.4153C1.58121 43.9536 0 46.6434 0 49.7027C0 54.4978 3.91005 58.4079 8.70524 58.4079C11.7645 58.4079 14.4543 56.8267 15.9926 54.4377C17.5394 56.8267 20.2292 58.4079 23.2799 58.4079C26.3392 58.4079 29.0289 56.8267 30.5672 54.4377C32.114 56.8267 34.8038 58.4079 37.8545 58.4079C41.1974 58.4079 44.1106 56.5001 45.5629 53.7244C48.5105 53.2088 50.9424 51.2065 52.051 48.5168C56.5024 48.1472 60 44.3919 60 39.8545C60 36.8124 58.436 34.1226 56.047 32.5672C58.436 31.0117 60 28.3392 60 25.2799ZM51.2948 4.85305C54.5259 4.85305 57.1555 7.48267 57.1555 10.7138C57.1555 13.4638 55.265 15.7668 52.7041 16.3942C52.7213 16.2824 52.7213 16.1707 52.7213 16.0504C52.7213 12.0372 50.0057 8.65139 46.3019 7.65454C47.3331 5.97021 49.1893 4.85305 51.2948 4.85305ZM42.5981 10.3529C42.6153 10.3529 42.6239 10.3529 42.6411 10.3357C42.8301 10.2928 43.0106 10.267 43.1997 10.2326C43.2254 10.2154 43.2598 10.2154 43.3028 10.2154C43.5004 10.1896 43.6981 10.1724 43.9043 10.1724H43.9903C44.0074 10.1724 44.0074 10.1724 44.016 10.1724C44.0246 10.1724 44.0332 10.1724 44.0418 10.1724C44.3426 10.1724 44.609 10.1896 44.8926 10.2412C45.0644 10.2584 45.2191 10.3013 45.391 10.3443C45.4082 10.3443 45.4082 10.3443 45.4168 10.3443C45.4254 10.3443 45.4426 10.3443 45.4426 10.3615C45.5972 10.4045 45.7519 10.4474 45.9152 10.5076C46.0699 10.5677 46.216 10.6193 46.3707 10.6795C46.8089 10.8771 47.2214 11.1177 47.5909 11.4185C47.7027 11.5044 47.8058 11.5904 47.9003 11.6763C47.9433 11.7021 47.9691 11.7365 48.0034 11.7622C48.1151 11.8654 48.2183 11.9599 48.3042 12.063C48.4159 12.1747 48.519 12.2864 48.6136 12.4154C48.8972 12.7849 49.155 13.1974 49.3526 13.6356C49.3956 13.7388 49.4386 13.8247 49.4643 13.9192C49.5073 14.0309 49.5503 14.1598 49.5932 14.2887C49.6362 14.4348 49.6792 14.5723 49.705 14.7184C49.7307 14.8215 49.7479 14.9161 49.7737 15.0192V15.0879C49.7995 15.234 49.8339 15.3715 49.8339 15.5262C49.851 15.6981 49.8596 15.87 49.8596 16.0418C49.8596 16.1535 49.8596 16.2653 49.8424 16.3856C49.8424 16.4973 49.8253 16.609 49.8167 16.7121C49.7995 16.8668 49.7737 17.0129 49.7479 17.1676C49.7307 17.2535 49.7221 17.3223 49.6878 17.4082C49.662 17.5371 49.6276 17.666 49.5846 17.7949C49.5417 17.9496 49.4815 18.0957 49.43 18.2332C49.3182 18.5339 49.1636 18.8175 49.0003 19.0839V19.1011C48.3901 20.0722 47.5308 20.8198 46.5082 21.3096C46.5253 21.0518 46.5339 20.8112 46.5339 20.5534C46.5339 20.2956 46.5168 20.0378 46.5082 19.7886V19.7714C46.448 19.23 46.3535 18.7058 46.2074 18.2074C46.1644 18.0183 46.1043 17.8379 46.0355 17.6488V17.6316C45.9324 17.3652 45.8379 17.1074 45.709 16.8668C45.5972 16.6262 45.4683 16.3856 45.3394 16.1535C45.3394 16.1363 45.3394 16.1363 45.3394 16.1363C45.1933 15.8957 45.0387 15.6809 44.884 15.4661C44.7293 15.2512 44.5746 15.0536 44.4027 14.8559C44.3856 14.8387 44.3856 14.8387 44.377 14.8301C44.1879 14.6153 43.9903 14.4176 43.7926 14.2286C43.6379 14.0739 43.4661 13.9278 43.2942 13.7903C43.2254 13.7216 43.1481 13.6614 43.0793 13.6013C42.77 13.3778 42.452 13.163 42.1083 12.9739C42.0825 12.9567 42.0653 12.9482 42.0395 12.931C41.8934 12.8622 41.7559 12.7763 41.6098 12.7161C41.0083 12.4154 40.3724 12.1919 39.6935 12.0458C40.4497 11.238 41.4466 10.6193 42.5551 10.3529C42.5809 10.3529 42.5809 10.3529 42.5981 10.3529ZM46.5253 34.3546V34.3374C46.5253 34.2945 46.5082 34.2343 46.4996 34.1913C46.4824 33.9765 46.4566 33.7617 46.4136 33.5468C46.3535 33.2804 46.3019 33.0226 46.2246 32.7648C46.1644 32.5672 46.1129 32.3781 46.0355 32.1976C45.9925 32.043 45.9238 31.8883 45.8636 31.7422C45.8465 31.7164 45.8465 31.6992 45.8379 31.6734C45.7261 31.4156 45.5972 31.1578 45.4512 30.9086C45.2793 30.5993 45.0988 30.2985 44.884 30.0149C44.7293 29.8001 44.5574 29.6024 44.3856 29.4048C44.2309 29.2157 44.059 29.0352 43.8699 28.8634C43.6809 28.6743 43.5004 28.5196 43.3028 28.3649C43.234 28.3048 43.1567 28.2532 43.0879 28.1931C42.9161 28.0642 42.7442 27.9524 42.5723 27.8407C42.684 27.772 42.7958 27.686 42.8989 27.6001C43.2254 27.3767 43.5348 27.1189 43.8356 26.8181C43.9215 26.7493 44.0246 26.6634 44.102 26.5603L44.1621 26.5001C44.377 26.2767 44.5918 26.0275 44.7895 25.7783C44.7895 25.7611 44.7895 25.7611 44.7895 25.7611C45.0043 25.4947 45.1848 25.2025 45.3566 24.9103C45.3738 24.9103 45.3824 24.9103 45.3996 24.9275C45.4168 24.9275 45.4168 24.9275 45.4254 24.9275C45.4512 24.9447 45.4941 24.9447 45.5285 24.9533C45.7261 25.0135 45.9238 25.065 46.13 25.151C46.2332 25.1767 46.3277 25.2369 46.4308 25.2799C46.5339 25.3228 46.6457 25.383 46.7316 25.4259C46.7746 25.4431 46.8175 25.4689 46.8433 25.4947C47.0324 25.5806 47.1956 25.6923 47.3675 25.8212C47.5136 25.9244 47.6511 26.0189 47.7972 26.1478C47.9433 26.2595 48.0636 26.3712 48.1925 26.5173C48.4503 26.7751 48.6737 27.0587 48.8714 27.3595C49.0003 27.5485 49.112 27.729 49.1979 27.9267C49.3268 28.1501 49.4214 28.3993 49.5073 28.6399C49.619 28.9493 49.7049 29.2673 49.7651 29.5938C49.8253 29.9204 49.851 30.2641 49.851 30.6078C49.851 30.7196 49.851 30.8313 49.8339 30.9602C49.8339 31.0719 49.8167 31.175 49.8081 31.2867C49.7909 31.4328 49.7651 31.5703 49.7393 31.7164C49.7221 31.7852 49.7221 31.8453 49.7135 31.9055C49.6878 32.0172 49.6534 32.1289 49.6276 32.2492C49.6104 32.2922 49.6018 32.3351 49.5846 32.3781C49.5417 32.5328 49.4815 32.6789 49.43 32.8164C49.3182 33.1172 49.1636 33.4007 49.0003 33.6671V33.6843C48.9745 33.7273 48.9401 33.7874 48.8972 33.8304C48.7511 34.0453 48.5964 34.2601 48.4245 34.4406C48.2269 34.664 48.012 34.8788 47.7714 35.0851C47.6167 35.2312 47.4449 35.3515 47.2558 35.4718C47.23 35.489 47.2128 35.4976 47.187 35.5147C46.9722 35.6608 46.7488 35.7811 46.5082 35.9015C46.5253 35.6437 46.5339 35.403 46.5339 35.1452C46.5511 34.8702 46.5425 34.6124 46.5253 34.3546ZM29.1406 20.5534C29.1406 20.7425 29.1235 20.8972 29.1149 21.069V21.0862C29.1149 21.1292 29.0977 21.1893 29.0977 21.2323C29.0719 21.4471 29.0375 21.662 28.986 21.8768C28.986 21.894 28.986 21.9198 28.9688 21.937C28.943 22.0917 28.9 22.2378 28.8399 22.3924V22.4096C28.8141 22.5127 28.7797 22.5987 28.7367 22.6932C28.6766 22.8479 28.6078 22.994 28.5391 23.1315C28.5219 23.1744 28.4961 23.2174 28.4789 23.2604C28.4532 23.3205 28.4188 23.3721 28.393 23.4151C28.3071 23.5612 28.2211 23.6729 28.1524 23.8018V23.819C28.1266 23.8447 28.1094 23.8791 28.0922 23.9049C28.0321 23.9908 27.9805 24.0768 27.9032 24.1455L27.886 24.1627C27.7829 24.3088 27.6883 24.4205 27.5594 24.5494C27.4305 24.6955 27.293 24.833 27.1469 24.9619C27.0009 25.0736 26.8805 25.1853 26.7173 25.3056C26.5884 25.4088 26.4509 25.5033 26.2876 25.5892C26.0985 25.7181 25.8923 25.8127 25.6775 25.9158C25.5314 25.9759 25.3939 26.0275 25.2478 26.0877C25.0501 26.1736 24.8353 26.2337 24.6205 26.2767C24.2509 26.3798 23.8642 26.4314 23.4861 26.4314C23.4174 26.4486 23.3314 26.4486 23.2627 26.4486C22.9963 26.4486 22.7213 26.4314 22.4635 26.3884H22.4463C22.2916 26.3626 22.1197 26.3283 21.9651 26.3025C21.9479 26.3025 21.9221 26.2853 21.9049 26.2853C21.776 26.2595 21.6471 26.2166 21.5182 26.1736C21.3721 26.1478 21.2518 26.0877 21.1229 26.0447C20.8823 25.9416 20.6416 25.8298 20.4268 25.7181C20.2807 25.6322 20.1432 25.5463 20.0143 25.4775C19.9971 25.4603 19.9971 25.4517 19.9885 25.4517C19.9714 25.4345 19.9714 25.4345 19.9628 25.4259C19.9456 25.4259 19.9456 25.4088 19.937 25.4088C19.6534 25.2111 19.3698 24.9705 19.1292 24.7299L19.112 24.7127C18.88 24.4893 18.6737 24.24 18.4847 23.9736C18.3558 23.7846 18.2269 23.5869 18.1152 23.3721C18.0034 23.1573 17.9003 22.9424 17.8144 22.719C17.7714 22.6159 17.7284 22.5213 17.7027 22.4096C17.6339 22.2378 17.5909 22.0573 17.548 21.8682C17.5308 21.8253 17.5308 21.7823 17.5222 21.7221C17.505 21.6362 17.4964 21.5503 17.4792 21.4557C17.462 21.4128 17.462 21.3526 17.4535 21.3096C17.4277 21.069 17.4105 20.8284 17.4105 20.5878C17.4105 20.3644 17.4277 20.1495 17.4535 19.9347C17.4535 19.8659 17.4706 19.8058 17.4792 19.737C17.4964 19.6253 17.505 19.5136 17.5222 19.4105C17.5652 19.2558 17.6081 19.0839 17.6511 18.9292C17.7199 18.7144 17.78 18.5168 17.8659 18.3191C17.8917 18.2589 17.9089 18.216 17.9347 18.1644C18.0378 17.941 18.1495 17.7347 18.2612 17.5371H18.2784C18.2956 17.5113 18.3042 17.4769 18.3214 17.4512C18.3644 17.4082 18.3901 17.3652 18.4073 17.3223C18.4675 17.2363 18.519 17.1676 18.5964 17.0988C18.6565 16.9957 18.7253 16.9012 18.8112 16.8152C18.9831 16.6176 19.155 16.4285 19.3526 16.2567C19.3526 16.2395 19.3698 16.2395 19.3784 16.2309C19.4643 16.1621 19.5503 16.0762 19.6362 16.0332C19.9628 15.7496 20.3151 15.5348 20.7018 15.3543C20.7276 15.3286 20.762 15.3114 20.7877 15.3114V15.2942C20.9596 15.2254 21.1315 15.1395 21.3119 15.0793C21.5526 14.9934 21.7932 14.9247 22.051 14.8645C22.1197 14.8473 22.2057 14.8387 22.283 14.8215C22.4119 14.7958 22.5494 14.7786 22.6783 14.7614C22.876 14.7442 23.0736 14.7356 23.2799 14.7356C23.3486 14.7356 23.4088 14.7356 23.4775 14.7528C23.5634 14.7356 23.6666 14.7528 23.7439 14.77C24.0705 14.7958 24.397 14.8559 24.715 14.9247C24.9728 14.9848 25.2134 15.0708 25.4368 15.1481C25.5657 15.2082 25.6946 15.2598 25.8235 15.3372C25.8407 15.3372 25.8493 15.3543 25.8665 15.3543C26.0384 15.4403 26.2103 15.5262 26.3649 15.6207C26.511 15.7067 26.6485 15.8098 26.7774 15.9043C26.8805 15.9731 26.9751 16.059 27.061 16.1278C27.104 16.1535 27.1298 16.1965 27.1727 16.2309C27.3446 16.3856 27.4993 16.5402 27.654 16.7121C27.7399 16.8152 27.8258 16.9098 27.9118 17.0215C27.9547 17.0644 27.9977 17.1246 28.0149 17.1762C28.1868 17.3738 28.3157 17.5887 28.4274 17.8035C28.5133 17.9496 28.5821 18.0871 28.6594 18.2418C28.7711 18.5082 28.8742 18.8089 28.943 19.1097C29.0289 19.3933 29.0891 19.6941 29.1149 19.9948V20.098C29.1235 20.2269 29.1406 20.3815 29.1406 20.5534ZM18.5362 27.8407C18.1409 28.0985 17.7714 28.3821 17.4105 28.7087C17.0581 29.018 16.7144 29.379 16.4308 29.7657C16.2761 29.9633 16.13 30.161 15.9926 30.3758C15.4512 29.5508 14.7723 28.8118 13.9903 28.2274C13.8184 28.0814 13.6465 27.961 13.4661 27.8407C13.5778 27.772 13.6981 27.6946 13.7926 27.6001C14.2309 27.2993 14.6434 26.947 15.0043 26.5603C15.391 26.1736 15.7176 25.7525 16.0011 25.297C16.1043 25.4517 16.216 25.6236 16.3449 25.7697C16.9292 26.5861 17.6683 27.2822 18.5362 27.8407ZM17.462 34.4749C17.462 34.4062 17.4792 34.346 17.4878 34.2773C17.505 34.1656 17.5136 34.0538 17.5308 33.9507C17.5738 33.796 17.6167 33.6242 17.6597 33.4695C17.7198 33.2718 17.7886 33.0828 17.8573 32.9109C17.8745 32.8937 17.8745 32.8679 17.8831 32.8508C17.9519 32.6789 18.0378 32.5242 18.1066 32.3695C18.1495 32.2664 18.2097 32.1719 18.2612 32.0687C18.3214 32 18.3644 31.9227 18.4073 31.8539C18.4675 31.768 18.519 31.6992 18.5964 31.6305C18.6565 31.5274 18.7253 31.4328 18.8112 31.3469C19.0003 31.1235 19.2065 30.9086 19.4386 30.7196C19.5073 30.6594 19.5675 30.6078 19.6362 30.5649C19.7479 30.4618 19.8768 30.3672 20.0057 30.2641C20.1174 30.1954 20.2206 30.118 20.3495 30.0665C20.4612 29.9977 20.5729 29.9204 20.7018 29.8774C20.7276 29.8516 20.762 29.8344 20.7877 29.8344V29.8172C20.8479 29.7915 20.9166 29.7571 20.9854 29.7313C21.0541 29.7055 21.1315 29.6712 21.2174 29.6454C21.4838 29.5337 21.776 29.4477 22.0596 29.3876C22.1283 29.3704 22.2143 29.3618 22.2916 29.3446C22.4205 29.3188 22.558 29.3016 22.6869 29.2844C22.8846 29.2673 23.0822 29.2587 23.2885 29.2587C23.3572 29.2587 23.4174 29.2587 23.4861 29.2758C23.572 29.2587 23.658 29.2758 23.7439 29.293C24.0962 29.3102 24.44 29.3618 24.7665 29.4649C24.9814 29.5079 25.1962 29.5766 25.3939 29.6626C25.4626 29.7055 25.5485 29.7313 25.6345 29.7657C25.7032 29.7915 25.7806 29.8258 25.8321 29.8688C25.8493 29.8688 25.8493 29.886 25.8579 29.886C26.0126 29.9547 26.1673 30.0407 26.3306 30.1438C26.4852 30.2297 26.6313 30.3329 26.7688 30.4446C26.872 30.5133 26.9665 30.5907 27.0524 30.6852C27.0954 30.711 27.1384 30.7453 27.1813 30.7883C27.3274 30.8914 27.4477 31.0117 27.568 31.1578C27.6969 31.2867 27.8086 31.4242 27.9204 31.5703C27.9633 31.6133 27.9891 31.6734 28.0321 31.7164C28.0493 31.7422 28.0579 31.7594 28.075 31.7852C28.1352 31.8539 28.1782 31.9312 28.2211 32C28.3758 32.2406 28.5219 32.5156 28.6508 32.782C28.6766 32.8422 28.711 32.9109 28.7196 32.9711C28.8227 33.1945 28.8914 33.4265 28.943 33.6671C28.986 33.8132 29.0289 33.9679 29.0461 34.1054C29.0719 34.1913 29.0891 34.2773 29.0891 34.3632C29.1063 34.4492 29.1149 34.5351 29.1149 34.621C29.1149 34.6382 29.1149 34.6382 29.1149 34.6468C29.1321 34.8015 29.1406 34.9905 29.1406 35.1452C29.1406 35.3343 29.1235 35.4976 29.1149 35.6694C29.1149 35.6866 29.1149 35.6866 29.1149 35.6952C29.1149 35.7382 29.0977 35.764 29.0977 35.8069C29.0805 35.91 29.0719 36.0218 29.0547 36.1163C29.0375 36.228 29.0117 36.3397 28.986 36.4428C28.986 36.46 28.986 36.4858 28.9688 36.503C28.9516 36.6319 28.9086 36.7608 28.8657 36.8725C28.8657 36.8983 28.8485 36.9327 28.8399 36.9585C28.8399 36.9756 28.8399 36.9756 28.8399 36.9756C28.8141 37.0788 28.7797 37.1647 28.7367 37.242C28.7367 37.2592 28.7367 37.2678 28.7196 37.285C28.6594 37.4311 28.6078 37.5686 28.5305 37.6975C28.5133 37.7405 28.4875 37.7834 28.4704 37.8264C28.4446 37.8866 28.4102 37.9381 28.3844 37.9811C28.3157 38.11 28.2383 38.2389 28.161 38.3506C28.161 38.3506 28.161 38.3678 28.1438 38.3678V38.385C28.075 38.4967 27.9891 38.6084 27.9032 38.7115L27.886 38.7287C27.7829 38.8748 27.6883 38.9865 27.5594 39.1154C27.4305 39.2701 27.2759 39.4162 27.1212 39.5451C27.061 39.6053 26.9923 39.6568 26.9235 39.717C26.8634 39.7771 26.7946 39.8287 26.7259 39.8717C26.597 39.9748 26.4595 40.0693 26.2962 40.1553C25.7978 40.4646 25.2306 40.7138 24.629 40.8341C24.2595 40.9373 23.8728 40.9888 23.4947 40.9888C23.426 41.006 23.34 41.006 23.2713 41.006C23.0049 41.006 22.7299 40.9888 22.4721 40.9459H22.4549C22.3002 40.9201 22.1283 40.8857 21.9736 40.8599C21.9565 40.8599 21.9307 40.8427 21.9135 40.8427C21.6471 40.774 21.3721 40.688 21.1143 40.5849C20.9424 40.5162 20.7706 40.4388 20.6159 40.3615C20.5471 40.3357 20.487 40.3013 20.4268 40.2756C20.2807 40.1896 20.1432 40.1037 20.0143 40.0349C19.9971 40.0178 19.9971 40.0092 19.9885 40.0092C19.9714 39.992 19.9456 39.9834 19.9284 39.9662C19.6276 39.7685 19.3612 39.5365 19.1206 39.2873L19.1034 39.2701C18.8714 39.0467 18.6651 38.7975 18.4761 38.5311C18.3472 38.342 18.2183 38.1444 18.1066 37.9295C17.9948 37.7147 17.8917 37.4999 17.8058 37.2764C17.7628 37.1733 17.7198 37.0788 17.6941 36.9671C17.6253 36.7952 17.5824 36.6147 17.5394 36.4257C17.5222 36.3827 17.5222 36.3397 17.5136 36.2796C17.4964 36.1936 17.4878 36.1077 17.4706 36.0132C17.4534 35.9702 17.4534 35.91 17.4449 35.8671C17.4191 35.6265 17.4019 35.3858 17.4019 35.1452C17.4191 34.896 17.4277 34.6812 17.462 34.4749ZM28.7367 28.3649C28.7196 28.3477 28.711 28.3392 28.6938 28.322C28.6508 28.2962 28.6078 28.2532 28.5649 28.2188C28.5477 28.2188 28.5477 28.2188 28.5391 28.2017H28.5219C28.4961 28.1759 28.4618 28.1587 28.436 28.1329C28.3071 28.0212 28.1696 27.9181 28.0235 27.8321C28.1352 27.7634 28.2383 27.686 28.3329 27.6087C28.4016 27.5657 28.4875 27.5056 28.5735 27.4368C28.6594 27.3767 28.7453 27.3079 28.8141 27.2478L28.8571 27.2048C28.8828 27.1876 28.9172 27.1618 28.9258 27.1447C29.0375 27.0587 29.1492 26.9556 29.2524 26.8439C29.3555 26.7579 29.45 26.6548 29.5359 26.5603L29.5531 26.5431C29.682 26.4142 29.7938 26.2853 29.8969 26.1564C29.9141 26.1392 29.9227 26.1134 29.9398 26.0962C30 26.0361 30.043 25.9845 30.0859 25.9244C30.1031 25.9072 30.1117 25.8814 30.1289 25.8642C30.2836 25.6752 30.4297 25.4775 30.5586 25.2627C30.6445 25.4088 30.7476 25.5291 30.8422 25.658C30.8422 25.6838 30.8593 25.6838 30.8679 25.6838V25.7009H30.8851V25.7181C31.014 25.8728 31.1257 26.0447 31.2718 26.1994C31.289 26.2251 31.3148 26.2423 31.332 26.2681C31.3492 26.2853 31.3492 26.2853 31.3578 26.2939C31.4867 26.4486 31.6242 26.5947 31.7703 26.7322C31.8992 26.8611 32.0281 26.9728 32.1656 27.1017C32.2687 27.1876 32.3546 27.2564 32.4492 27.3251C32.664 27.497 32.8788 27.6517 33.1023 27.7978C32.9046 27.9267 32.707 28.0642 32.5007 28.2274C32.3546 28.3392 32.2171 28.4509 32.071 28.5798C32.0453 28.597 32.0281 28.6227 32.0023 28.6399C31.9851 28.6571 31.9851 28.6571 31.9765 28.6657C31.9593 28.6829 31.9593 28.6829 31.9507 28.6915C31.839 28.7946 31.7273 28.9063 31.607 29.018C31.4523 29.1641 31.3234 29.3016 31.1945 29.4563L30.9797 29.7141C30.8336 29.9118 30.6961 30.1094 30.55 30.3243C30.4211 30.1352 30.2922 29.9547 30.1547 29.7657C30.1375 29.7485 30.1289 29.7399 30.1289 29.7227C30.0602 29.6196 29.9828 29.5337 29.8969 29.4563L29.8797 29.4391C29.8539 29.4133 29.8367 29.379 29.8109 29.3532C29.493 29.018 29.1406 28.6829 28.7367 28.3649ZM43.7067 20.5534C43.7067 20.7253 43.6895 20.8972 43.6809 21.069V21.0862C43.6809 21.1292 43.6637 21.1893 43.6637 21.2323C43.6379 21.4471 43.6035 21.662 43.552 21.8768C43.552 21.894 43.552 21.9198 43.5348 21.937C43.509 22.0917 43.466 22.2378 43.4059 22.3924V22.4096C43.3801 22.5127 43.3457 22.5987 43.3028 22.6932C43.2426 22.8479 43.1739 22.994 43.1051 23.1315C43.0879 23.1744 43.0622 23.2174 43.045 23.2604C43.0192 23.3205 42.9848 23.3721 42.959 23.4151C42.8731 23.5612 42.7872 23.6729 42.7184 23.8018V23.819C42.6926 23.8447 42.6754 23.8791 42.6583 23.9049C42.5981 23.9908 42.5465 24.0768 42.4692 24.1455L42.452 24.1627C42.3489 24.3088 42.2544 24.4205 42.1255 24.5494C41.9966 24.6955 41.8591 24.833 41.713 24.9619C41.5669 25.0736 41.4294 25.1853 41.2833 25.3056C41.1286 25.4174 40.9739 25.5205 40.8021 25.615C40.6474 25.7181 40.4755 25.8041 40.3036 25.8814C40.1318 25.9673 39.9513 26.0361 39.7622 26.0962C39.5904 26.165 39.4099 26.2251 39.2037 26.2681C39.0318 26.3111 38.8599 26.3369 38.6881 26.3712C38.6623 26.3884 38.6193 26.3884 38.5849 26.3884C38.3959 26.4142 38.2326 26.4314 38.0435 26.4314H38.0263C37.9576 26.4486 37.8803 26.4486 37.8115 26.4486C37.5451 26.4486 37.2701 26.4314 37.0037 26.3884C36.8147 26.3626 36.6342 26.3283 36.4451 26.2767C36.2475 26.2337 36.0584 26.1736 35.878 26.1048C35.7233 26.0619 35.5514 25.9931 35.3967 25.9158C35.1733 25.8127 34.9671 25.7009 34.7694 25.572C34.6577 25.5119 34.5546 25.4431 34.46 25.3744C34.4343 25.3572 34.4171 25.3486 34.3999 25.3314C34.1421 25.1424 33.9015 24.9447 33.678 24.7213C33.446 24.4978 33.2398 24.24 33.0421 23.965C32.9132 23.776 32.7843 23.5783 32.6726 23.3635C32.5609 23.1487 32.4577 22.9338 32.3718 22.7104C32.3288 22.6073 32.2859 22.5127 32.2601 22.4096C32.2601 22.4096 32.2601 22.4096 32.2601 22.3924C32.1913 22.2206 32.1484 22.0229 32.1054 21.8339C32.0882 21.7909 32.0796 21.7479 32.0796 21.6878C32.0538 21.619 32.0538 21.5331 32.0367 21.4471C32.0195 21.387 32.0195 21.344 32.0109 21.2925C31.9851 21.0518 31.9679 20.8112 31.9679 20.5706C31.9679 20.3472 31.9851 20.1323 32.0109 19.9175C32.0109 19.8488 32.0281 19.7714 32.0367 19.7027C32.0538 19.5995 32.0624 19.4878 32.0796 19.3933C32.1226 19.2386 32.1656 19.0667 32.2085 18.9121C32.2515 18.7402 32.3117 18.5855 32.3804 18.4394C32.3976 18.3964 32.4062 18.3363 32.4406 18.2933C32.4577 18.2332 32.4663 18.1902 32.5007 18.1472C32.5609 18.0011 32.6296 17.8808 32.6984 17.7519C32.7413 17.666 32.8015 17.5972 32.8273 17.5113C32.8445 17.5113 32.8445 17.4941 32.8445 17.4941C32.8616 17.4769 32.8702 17.4512 32.8874 17.434C32.8874 17.4168 32.8874 17.4168 32.9046 17.4168C32.9905 17.2879 33.0593 17.1762 33.1624 17.0644C33.1796 17.0387 33.1882 17.0043 33.2226 16.9957C33.3085 16.884 33.3773 16.7809 33.4804 16.6863C33.6093 16.5317 33.764 16.377 33.9186 16.2309C33.9186 16.2137 33.9358 16.2137 33.9444 16.2051C34.0304 16.1363 34.0991 16.059 34.185 16.0074C34.2108 15.9645 34.2538 15.9387 34.2968 15.9215C34.4085 15.8184 34.5374 15.7325 34.6663 15.6551C34.8553 15.5262 35.053 15.4317 35.2506 15.3286C35.2764 15.3114 35.3108 15.3028 35.3366 15.2856C35.4913 15.2168 35.6459 15.1395 35.8092 15.0879C35.9123 15.045 36.0069 15.0192 36.11 14.9848C36.2647 14.9247 36.4365 14.8817 36.6084 14.8387H36.6256L36.8404 14.7786C36.9865 14.7528 37.1068 14.7356 37.2529 14.7184C37.4506 14.7012 37.6482 14.6926 37.8545 14.6926C37.9146 14.6926 37.9834 14.6926 38.0435 14.7098C38.1295 14.6926 38.2326 14.7098 38.3099 14.727C38.6623 14.7528 39.006 14.8129 39.3326 14.8989C39.5474 14.9418 39.7622 15.0106 39.9599 15.0965C40.106 15.1653 40.2607 15.2082 40.3982 15.2942C40.4153 15.2942 40.4154 15.3114 40.4239 15.3114C40.5786 15.3801 40.7333 15.4661 40.8966 15.5692C41.0513 15.6551 41.1974 15.7668 41.3349 15.8699C41.438 15.9387 41.5325 16.016 41.6184 16.0934C41.6614 16.1192 41.7044 16.1621 41.7473 16.2051C41.8934 16.3082 42.0137 16.4285 42.1341 16.5746C42.263 16.7035 42.3747 16.841 42.4864 16.9871C42.5122 17.0301 42.5551 17.073 42.5895 17.1332C42.6583 17.2191 42.7356 17.3223 42.7872 17.4168C42.8903 17.5629 42.9762 17.7176 43.0536 17.8894C43.1395 18.0441 43.2254 18.216 43.2856 18.3879C43.3887 18.6113 43.4575 18.8433 43.509 19.0839C43.595 19.3675 43.6551 19.6683 43.6809 19.9691V20.0722C43.6895 20.2269 43.7067 20.3815 43.7067 20.5534ZM32.0281 34.4749C32.0281 34.4062 32.0453 34.3288 32.0538 34.2601C32.071 34.157 32.0796 34.0453 32.0968 33.9507C32.1398 33.796 32.1828 33.6242 32.2257 33.4695C32.2687 33.2976 32.3288 33.1429 32.3976 32.9968C32.4148 32.9539 32.4234 32.8937 32.4577 32.8508C32.4749 32.7906 32.4835 32.7476 32.5179 32.7047C32.5781 32.5758 32.6296 32.4469 32.707 32.3351C32.7671 32.232 32.8187 32.1375 32.8788 32.0516C32.896 32.0258 32.9046 32.0086 32.9218 31.9828C33.0077 31.8539 33.0765 31.7422 33.1796 31.6305C33.1968 31.6047 33.2054 31.5703 33.2398 31.5617C33.3085 31.45 33.3944 31.3469 33.4976 31.2524C33.6265 31.0977 33.7812 30.943 33.9358 30.7969C34.0218 30.711 34.1077 30.6422 34.2022 30.5735C34.3311 30.4703 34.46 30.3758 34.5889 30.2727C34.8038 30.1266 35.0272 30.0063 35.2678 29.886C35.2936 29.8688 35.328 29.8602 35.3538 29.843C35.4999 29.7743 35.6374 29.6969 35.792 29.654C36.0498 29.5422 36.3334 29.4649 36.617 29.3962H36.6342L36.849 29.3532C37.1756 29.293 37.5193 29.2673 37.8631 29.2673C37.9232 29.2673 37.992 29.2673 38.0521 29.2844H38.0693C38.1553 29.2673 38.2412 29.2844 38.3271 29.3016C38.6795 29.3188 39.0232 29.3704 39.3498 29.4735C39.5646 29.5165 39.7794 29.5852 39.9771 29.6712C40.0458 29.7141 40.1318 29.7399 40.2177 29.7743C40.2864 29.8001 40.3638 29.8344 40.4153 29.8774C40.4325 29.8774 40.4325 29.8946 40.4411 29.8946C40.5958 29.9633 40.7505 30.0493 40.9138 30.1524C41.0685 30.2383 41.2145 30.3414 41.352 30.4532C41.4552 30.5219 41.5497 30.5993 41.6356 30.6938C41.6786 30.7196 41.7216 30.7539 41.7645 30.7969C41.9106 30.9 42.0309 31.0203 42.1512 31.1664C42.2801 31.2953 42.3919 31.4328 42.5036 31.5789C42.5465 31.6219 42.5723 31.682 42.6067 31.725C42.6325 31.7508 42.6497 31.768 42.6669 31.7938C42.727 31.8625 42.77 31.9398 42.8129 32.0086C42.9676 32.2492 43.1137 32.5242 43.2426 32.7906C43.2684 32.8508 43.3028 32.9195 43.3114 32.9797C43.4145 33.2031 43.4832 33.4351 43.5348 33.6757C43.5778 33.8218 43.6207 33.9765 43.6379 34.114C43.6637 34.1999 43.6809 34.2859 43.6809 34.3718C43.6981 34.4577 43.7067 34.5437 43.7067 34.6296C43.7067 34.6468 43.7067 34.6468 43.7067 34.6554C43.7239 34.8101 43.7325 34.9991 43.7325 35.1538C43.7325 35.3429 43.7153 35.5062 43.7067 35.678C43.7067 35.6952 43.7067 35.6952 43.7067 35.7038C43.7067 35.7468 43.6895 35.7726 43.6895 35.8155C43.6723 35.9186 43.6637 36.0304 43.6465 36.1249C43.6293 36.2366 43.6035 36.3483 43.5778 36.4514C43.5778 36.4686 43.5778 36.4944 43.5606 36.5116C43.5348 36.6663 43.4918 36.8382 43.4317 36.9842C43.4059 37.096 43.3629 37.1991 43.32 37.2936C43.2598 37.4397 43.2082 37.5772 43.1309 37.7061C43.1137 37.7491 43.0879 37.792 43.0707 37.835C43.045 37.8952 43.0106 37.9467 42.9848 37.9897C42.9161 38.1186 42.8387 38.2475 42.7528 38.3592C42.7528 38.3592 42.7528 38.3764 42.7356 38.3764V38.3936C42.6669 38.5053 42.5809 38.617 42.495 38.7201L42.4778 38.7373C42.3747 38.8834 42.2801 38.9951 42.1684 39.124H42.1512C42.0223 39.2787 41.8677 39.4248 41.713 39.5537C41.5841 39.6654 41.4466 39.7771 41.3177 39.8803C41.163 39.992 41.0083 40.0951 40.8364 40.1896C40.6817 40.2927 40.5099 40.3787 40.338 40.456C40.1661 40.542 39.9857 40.6107 39.7966 40.6709C39.6247 40.7396 39.4443 40.7998 39.238 40.8427C39.0662 40.8857 38.8943 40.9115 38.7224 40.9459C38.6966 40.963 38.6537 40.963 38.6193 40.963C38.4302 40.9888 38.267 41.006 38.0779 41.006H38.0607C37.992 41.0232 37.9146 41.0232 37.8459 41.0232C37.5795 41.0232 37.3045 41.006 37.0381 40.963C36.849 40.9373 36.6686 40.9029 36.4795 40.8513C36.2819 40.8084 36.0928 40.7482 35.9123 40.6795C35.8264 40.6623 35.7405 40.6365 35.6717 40.5935C35.5858 40.5677 35.4999 40.5248 35.4311 40.4904C35.2077 40.3873 35.0014 40.2756 34.8038 40.1467C34.6921 40.0865 34.5889 40.0178 34.4944 39.949C34.4686 39.9318 34.4514 39.9232 34.4343 39.906C34.3054 39.8029 34.1764 39.717 34.0647 39.6225C33.9358 39.5193 33.8241 39.4076 33.7124 39.2959C33.4804 39.0725 33.2741 38.8147 33.0765 38.5397C32.9476 38.3506 32.8187 38.153 32.707 37.9381C32.5952 37.7233 32.4921 37.5084 32.4062 37.285C32.3632 37.1819 32.3202 37.0874 32.2945 36.9842C32.2773 36.9585 32.2687 36.9241 32.2687 36.8811C32.1999 36.6835 32.157 36.4858 32.114 36.271C32.0968 36.1679 32.071 36.0561 32.0538 35.9616C32.0538 35.9358 32.0367 35.9015 32.0367 35.8757C32.0109 35.6351 31.9937 35.3944 31.9937 35.1538C31.9851 34.896 32.0023 34.6812 32.0281 34.4749ZM36.7201 4.85305C38.8427 4.85305 40.6903 5.9788 41.713 7.65454C39.6333 8.21312 37.8717 9.51933 36.7201 11.281C35.5686 9.51933 33.8069 8.20452 31.7273 7.65454C32.7671 5.97021 34.6147 4.85305 36.7201 4.85305ZM28.0321 10.3529C28.4703 10.2412 28.943 10.181 29.4156 10.181C29.4328 10.181 29.4328 10.181 29.4414 10.181C29.4586 10.181 29.4586 10.181 29.4672 10.181C29.9398 10.181 30.4039 10.2412 30.8508 10.3529C30.8508 10.3529 30.8679 10.3529 30.8765 10.3529C32.2429 10.7052 33.4202 11.5302 34.2194 12.656C33.3944 13.0255 32.6382 13.5411 31.9851 14.1512C31.6328 14.4606 31.3062 14.8215 31.0054 15.2082C30.8508 15.4059 30.7047 15.6035 30.5672 15.8184C30.3437 15.4746 30.0945 15.1395 29.8281 14.8387C29.5016 14.452 29.1492 14.0997 28.7453 13.7989C28.6766 13.7302 28.5993 13.67 28.5305 13.627C28.2297 13.3864 27.9032 13.1544 27.5594 12.9739C26.8204 12.5443 26.0126 12.2349 25.1532 12.0458C25.9095 11.238 26.8891 10.6365 27.9977 10.3701C28.0149 10.3529 28.0149 10.3529 28.0321 10.3529ZM22.1713 4.85305C24.2767 4.85305 26.1243 5.9788 27.1469 7.65454C25.0673 8.21312 23.3056 9.53652 22.1713 11.2982C21.0198 9.53652 19.2581 8.21312 17.1785 7.65454C18.2011 5.97021 20.0487 4.85305 22.1713 4.85305ZM13.4746 10.3529C13.9301 10.2412 14.4027 10.181 14.884 10.181C14.9012 10.181 14.9012 10.181 14.9098 10.181C15.391 10.181 15.8636 10.2412 16.3191 10.3529C17.6855 10.7052 18.8628 11.5302 19.662 12.6474C18.837 13.0169 18.0722 13.5325 17.4105 14.1427C17.0581 14.4692 16.723 14.8215 16.4308 15.2082C16.2761 15.4059 16.13 15.6035 15.9926 15.8184C15.4512 14.9762 14.7809 14.2372 13.9903 13.6442C13.0106 12.8794 11.8591 12.3208 10.5872 12.0544C11.352 11.2209 12.3489 10.6279 13.4746 10.3529ZM2.84446 20.5534C2.84446 18.216 4.22801 16.1879 6.21312 15.2598C6.68576 15.0364 7.18419 14.8645 7.70839 14.7786C8.03495 14.7184 8.3615 14.6926 8.70524 14.6926C8.85992 14.6926 9.01461 14.6926 9.17789 14.7184C12.1942 14.9418 14.566 17.4769 14.566 20.5534C14.566 20.7425 14.5488 20.9229 14.5402 21.112C14.5145 21.3698 14.4715 21.6104 14.4113 21.8682C14.4113 21.8854 14.4113 21.9112 14.3942 21.9284C14.291 22.401 14.1278 22.8393 13.9129 23.2518C13.8871 23.3119 13.8528 23.3635 13.827 23.4065C13.7582 23.5354 13.6809 23.6471 13.595 23.7588C13.4231 24.0424 13.2254 24.3002 12.9934 24.5236C11.9794 25.6322 10.5357 26.3455 8.92008 26.4056C8.85133 26.4228 8.7654 26.4228 8.69665 26.4228C8.224 26.4228 7.78573 26.3626 7.34746 26.2681C4.76941 25.6494 2.84446 23.3205 2.84446 20.5534ZM2.84446 35.128C2.84446 32.7906 4.22801 30.7625 6.21312 29.8344C6.68576 29.611 7.18419 29.4391 7.70839 29.3532C8.03495 29.293 8.3615 29.2673 8.70524 29.2673C8.85992 29.2673 9.01461 29.2673 9.17789 29.293C12.1942 29.5165 14.566 32.0516 14.566 35.128C14.566 35.3171 14.5488 35.4976 14.5402 35.6866C14.5145 35.9444 14.4715 36.185 14.4113 36.4428C14.4113 36.46 14.4113 36.4858 14.3942 36.503C14.291 36.9756 14.1278 37.4139 13.9129 37.8264C13.8871 37.8866 13.8528 37.9381 13.827 37.9811C13.7582 38.11 13.6809 38.2217 13.595 38.3334C13.4231 38.617 13.2254 38.8748 12.9934 39.0982C11.9794 40.2068 10.5357 40.9201 8.92008 40.9802C8.85133 40.9974 8.7654 40.9974 8.69665 40.9974C8.224 40.9974 7.78573 40.9373 7.34746 40.8427C4.76941 40.2154 2.84446 37.8866 2.84446 35.128ZM14.4113 51.0003C14.3082 51.4815 14.1449 51.9542 13.9129 52.3838C13.6723 52.8565 13.3543 53.2776 13.002 53.6643C11.9364 54.833 10.3982 55.5548 8.70524 55.5548C5.47407 55.5548 2.84446 52.9252 2.84446 49.6941C2.84446 47.3566 4.22801 45.3286 6.21312 44.4005C6.68576 44.177 7.18419 44.0051 7.70839 43.9192C8.03495 43.8591 8.3615 43.8333 8.70524 43.8333C8.85992 43.8333 9.01461 43.8333 9.17789 43.8591C12.1942 44.0825 14.566 46.6176 14.566 49.6941C14.5746 50.1495 14.5145 50.5792 14.4113 51.0003ZM16.4308 44.3317C16.2761 44.5294 16.13 44.727 15.9926 44.9418C15.4512 44.1169 14.7723 43.3778 13.9903 42.7935C13.8184 42.6474 13.6465 42.5271 13.4661 42.4068C13.5778 42.338 13.6981 42.2607 13.7926 42.1661C14.2309 41.8654 14.6434 41.513 15.0043 41.1263C15.391 40.7396 15.7176 40.3185 16.0011 39.8631C16.1043 40.0178 16.216 40.1896 16.3449 40.3357C16.9464 41.1607 17.6855 41.8568 18.5534 42.4153C18.1581 42.6732 17.7886 42.9567 17.4277 43.2833C17.0581 43.5927 16.7144 43.945 16.4308 44.3317ZM28.986 51.0003C28.8828 51.4815 28.7196 51.9542 28.4875 52.3838C28.2469 52.8565 27.929 53.2776 27.5766 53.6643C26.511 54.833 24.9728 55.5548 23.2799 55.5548C21.3205 55.5548 19.5675 54.5752 18.5019 53.0799C18.2355 52.6932 18.0034 52.2807 17.8316 51.8253C17.6425 51.387 17.5222 50.9143 17.462 50.4159C17.4363 50.1753 17.4191 49.9347 17.4191 49.6941C17.4191 48.8863 17.5738 48.1129 17.8745 47.4168C18.0636 46.9785 18.3042 46.5746 18.5964 46.1965C18.88 45.8012 19.2323 45.4317 19.6362 45.1309C19.9628 44.8645 20.3151 44.6325 20.7018 44.452C20.7276 44.4262 20.762 44.409 20.7877 44.409C21.183 44.2114 21.6127 44.0653 22.051 43.9708C22.1197 43.9536 22.2057 43.945 22.283 43.9278C22.6096 43.8677 22.9361 43.8419 23.2799 43.8419C23.3486 43.8419 23.4088 43.8419 23.4775 43.8591C23.5634 43.8419 23.6494 43.8591 23.7353 43.8762C24.4744 43.9364 25.1876 44.1341 25.8235 44.4434C26.2618 44.6583 26.6743 44.9247 27.0438 45.2512C27.4133 45.5348 27.7399 45.8957 28.0149 46.2738C28.7282 47.2277 29.1406 48.4222 29.1406 49.7027C29.1406 50.1495 29.0805 50.5792 28.986 51.0003ZM31.6156 43.6356C31.4609 43.7817 31.332 43.9192 31.2031 44.0739L30.9883 44.3317C30.8422 44.5294 30.7047 44.727 30.5586 44.9418C30.4469 44.7528 30.318 44.5723 30.1633 44.4005C30.0602 44.2544 29.9312 44.1169 29.8109 43.9708C29.5016 43.5841 29.1406 43.2489 28.7453 42.931C28.7282 42.9138 28.7196 42.9052 28.7024 42.888C28.6594 42.8622 28.6164 42.8192 28.5735 42.7849C28.5563 42.7849 28.5477 42.7677 28.5305 42.7677C28.5047 42.7419 28.4703 42.7247 28.4446 42.6989C28.3157 42.5872 28.1782 42.4841 28.0321 42.3982C28.1438 42.3294 28.2469 42.2521 28.3414 42.1747C28.4102 42.1318 28.4961 42.0716 28.5821 42.0029C28.668 41.9427 28.7539 41.874 28.8227 41.8138L28.8657 41.7708C28.8914 41.7536 28.9258 41.7279 28.9344 41.7107C29.0461 41.6247 29.1578 41.5216 29.261 41.4099C29.3641 41.324 29.4586 41.2208 29.5445 41.1263L29.5617 41.1091C29.6906 40.9802 29.8023 40.8513 29.9055 40.7224C29.9227 40.7052 29.9312 40.6795 29.9484 40.6623C30.0086 40.6021 30.0516 40.5506 30.0945 40.4904C30.1117 40.4732 30.1203 40.4474 30.1375 40.4302C30.2922 40.2412 30.4383 40.0435 30.5672 39.8287C30.6531 39.9748 30.7562 40.0951 30.8508 40.224C30.8508 40.2498 30.8679 40.267 30.8937 40.2842C31.0226 40.4388 31.1343 40.6107 31.2804 40.7654C31.2976 40.7912 31.3234 40.8084 31.3406 40.8341C31.3578 40.8513 31.3578 40.8513 31.3664 40.8599C31.4953 41.0146 31.6328 41.1607 31.7789 41.2982C31.9078 41.4271 32.0367 41.5388 32.1742 41.6677C32.2773 41.7536 32.3632 41.8224 32.4577 41.8911C32.6726 42.063 32.8874 42.2177 33.1109 42.3638C32.9132 42.4927 32.7155 42.6302 32.5093 42.7935C32.3632 42.9052 32.2257 43.0169 32.0796 43.1458C32.0538 43.163 32.0367 43.1888 32.0109 43.206C31.9937 43.2231 31.9937 43.2231 31.9851 43.2317C31.9679 43.2489 31.9679 43.2489 31.9593 43.2575C31.839 43.4036 31.7273 43.5153 31.6156 43.6356ZM43.552 51.0003C43.4489 51.4815 43.2856 51.9542 43.0536 52.3838C42.8129 52.8565 42.495 53.2776 42.1426 53.6643C41.077 54.833 39.5388 55.5548 37.8459 55.5548C35.8866 55.5548 34.1335 54.5752 33.0679 53.0799C32.8015 52.6932 32.5695 52.2807 32.3976 51.8253C32.2085 51.387 32.0882 50.9143 32.0281 50.4159C32.0023 50.1753 31.9851 49.9347 31.9851 49.6941C31.9851 48.8863 32.1398 48.1129 32.4577 47.4168C32.6296 46.9785 32.8702 46.5746 33.171 46.2051C33.4546 45.7926 33.8069 45.4231 34.2108 45.1223C34.5374 44.8559 34.8897 44.6239 35.2678 44.4434C35.2936 44.4262 35.328 44.4176 35.3538 44.4005C35.7491 44.2028 36.1787 44.0567 36.617 43.9622C36.6858 43.945 36.7717 43.9364 36.849 43.9192C37.1756 43.8591 37.5193 43.8333 37.8631 43.8333C37.9232 43.8333 37.992 43.8333 38.0521 43.8505C38.1381 43.8333 38.2412 43.8505 38.3185 43.8677C39.0576 43.9278 39.7708 44.1255 40.4068 44.4348C40.845 44.6497 41.2575 44.9161 41.627 45.2426C41.9966 45.5262 42.3231 45.8871 42.5981 46.2652C43.3114 47.2191 43.7239 48.4136 43.7239 49.6941C43.7067 50.1495 43.6551 50.5792 43.552 51.0003ZM49.851 45.5262C49.8253 46.0074 49.7393 46.4973 49.5932 46.9355C49.4471 47.4082 49.2495 47.8293 48.9917 48.2332C48.4073 49.2042 47.5394 49.9862 46.4996 50.4675C46.5253 50.2097 46.5425 49.9519 46.5425 49.7027C46.5425 48.68 46.3535 47.7004 46.0269 46.7895C45.6574 45.7324 45.0988 44.7872 44.377 43.9708C44.0504 43.6013 43.6981 43.2575 43.2942 42.9481C43.2254 42.888 43.1481 42.8364 43.0793 42.7763C42.9075 42.6474 42.7356 42.5357 42.5637 42.4239C42.6754 42.3552 42.7872 42.2693 42.8903 42.1833C43.2168 41.9599 43.5262 41.7021 43.827 41.4013C43.9129 41.3326 44.016 41.2466 44.0934 41.1435C44.5746 40.6451 45.0043 40.0865 45.348 39.4935C45.3652 39.4935 45.3738 39.4935 45.391 39.5107C45.4082 39.5107 45.4082 39.5107 45.4168 39.5107C47.9605 40.1553 49.8424 42.4583 49.8424 45.1911C49.8682 45.2856 49.8682 45.3973 49.851 45.5262ZM57.1555 39.8459C57.1555 42.5958 55.265 44.8989 52.7041 45.5262C52.7213 45.4145 52.7213 45.2856 52.7213 45.1739C52.7213 42.1318 51.1573 39.442 48.7683 37.8866C50.2034 36.9499 51.3463 35.6093 52.008 34.0281C54.904 34.389 57.1555 36.8639 57.1555 39.8459ZM52.6955 30.9602C52.7127 30.8485 52.7127 30.7196 52.7127 30.6078C52.7127 27.5657 51.1487 24.876 48.7597 23.3205C50.1948 22.3924 51.3377 21.0604 51.9994 19.462C54.904 19.8144 57.1469 22.2893 57.1469 25.2799C57.1555 28.0298 55.265 30.3329 52.6955 30.9602Z" fill="black"/>
</g>
</g>
</g>
</svg>
