<svg width="30" height="30" viewBox="0 0 30 30" fill="none" xmlns="http://www.w3.org/2000/svg">
<g clip-path="url(#clip0_116_17587)">
<path d="M15 30C6.72894 30 0 23.2711 0 15C0 6.72894 6.72894 0 15 0C23.2711 0 30 6.72894 30 15C30 23.2711 23.2711 30 15 30ZM15 0.644268C7.08426 0.644268 0.644268 7.08426 0.644268 15C0.644268 22.916 7.08426 29.3557 15 29.3557C22.916 29.3557 29.3557 22.9157 29.3557 15C29.3557 7.08426 22.916 0.644268 15 0.644268Z" fill="black"/>
<path d="M18.9619 11.5105L18.4899 11.0383L15.0003 14.5283L11.5107 11.0383L11.0386 11.5105L14.5285 15.0001L11.0386 18.4897L11.5107 18.9618L15.0003 15.4719L18.4899 18.9618L18.9619 18.4897L15.472 15.0001L18.9619 11.5105Z" fill="black"/>
</g>
<defs>
<clipPath id="clip0_116_17587">
<rect width="30" height="30" fill="white"/>
</clipPath>
</defs>
</svg>
