<svg width="26" height="26" viewBox="0 0 26 26" fill="none" xmlns="http://www.w3.org/2000/svg">
<g id="mail 1">
<g id="Group">
<g id="Group_2">
<path id="Vector" d="M23.7149 3.09766H2.28516C1.9334 3.09766 1.60409 3.18414 1.30615 3.32668L12.9492 14.9698L15.5588 12.4618C15.5588 12.4618 15.559 12.4616 15.5591 12.4615C15.5591 12.4614 15.5593 12.4613 15.5593 12.4613L24.6942 3.32688C24.3962 3.18424 24.0667 3.09766 23.7149 3.09766Z" fill="#FF0000"/>
</g>
</g>
<g id="Group_3">
<g id="Group_4">
<path id="Vector_2" d="M25.7712 4.4043L17.1748 13.0002L25.7709 21.5963C25.9134 21.2984 25.9999 20.9691 25.9999 20.6173V5.38295C25.9999 5.03139 25.9136 4.70213 25.7712 4.4043Z" fill="#FF0000"/>
</g>
</g>
<g id="Group_5">
<g id="Group_6">
<path id="Vector_3" d="M0.229023 4.40381C0.0864805 4.70174 0 5.03106 0 5.38282V20.6172C0 20.9688 0.0863789 21.2981 0.22882 21.596L8.82522 13L0.229023 4.40381Z" fill="#FF0000"/>
</g>
</g>
<g id="Group_7">
<g id="Group_8">
<path id="Vector_4" d="M16.0979 14.0773L13.4879 16.5855C13.3391 16.7343 13.1442 16.8087 12.9494 16.8087C12.7545 16.8087 12.5596 16.7343 12.4109 16.5855L9.90246 14.0771L1.30591 22.6731C1.60389 22.8158 1.93341 22.9024 2.28528 22.9024H23.715C24.0667 22.9024 24.396 22.8159 24.694 22.6733L16.0979 14.0773Z" fill="#FF0000"/>
</g>
</g>
</g>
</svg>
