<svg width="26" height="26" viewBox="0 0 26 26" fill="none" xmlns="http://www.w3.org/2000/svg">
<g id="location1 1">
<g id="Group">
<g id="Group_2">
<path id="Vector" d="M13 0C7.80783 0 3.58374 4.22409 3.58374 9.41616C3.58374 15.8597 12.0103 25.3192 12.3691 25.7187C12.7061 26.094 13.2944 26.0934 13.6308 25.7187C13.9896 25.3192 22.4162 15.8597 22.4162 9.41616C22.4161 4.22409 18.192 0 13 0ZM13 14.1537C10.3877 14.1537 8.26247 12.0285 8.26247 9.41616C8.26247 6.80387 10.3877 4.67868 13 4.67868C15.6122 4.67868 17.7374 6.80393 17.7374 9.41621C17.7374 12.0285 15.6122 14.1537 13 14.1537Z" fill="#FF0000"/>
</g>
</g>
</g>
</svg>
