<svg width="76" height="12" viewBox="0 0 76 12" fill="none" xmlns="http://www.w3.org/2000/svg">
<path fill-rule="evenodd" clip-rule="evenodd" d="M0 11.7819C2.25919 8.17773 4.50051 4.56371 6.76776 0.963745C9.01442 4.57704 11.2574 8.19268 13.5023 11.8075C12.7364 11.8091 11.9714 11.81 11.2063 11.8066C9.72017 9.40998 8.23227 7.01415 6.74533 4.61824C5.26549 7.01819 3.77671 9.4133 2.29064 11.8099C1.52654 11.8174 0.763315 11.7943 0 11.7819Z" fill="black"/>
<path fill-rule="evenodd" clip-rule="evenodd" d="M16.6809 1.07873C20.5607 1.07711 24.4396 1.078 28.3186 1.078C28.3186 1.64282 28.3186 2.20764 28.3186 2.77327C26.697 2.77416 25.0755 2.77255 23.4531 2.77417C23.4531 5.78531 23.4539 8.79726 23.4531 11.8084C22.8028 11.8093 22.1526 11.8077 21.5033 11.8093C21.5033 8.79896 21.4997 5.7879 21.5052 2.77756C19.897 2.76681 18.2889 2.77667 16.6809 2.77263C16.6817 2.20773 16.6817 1.64355 16.6809 1.07873Z" fill="black"/>
<path fill-rule="evenodd" clip-rule="evenodd" d="M47.219 1.07947C50.2468 1.10839 53.2773 1.10669 56.3051 1.0844C57.5849 1.08189 58.8863 1.56237 59.7473 2.44818C60.7302 3.42739 61.1204 4.86138 60.8101 6.1598C60.5132 7.60542 59.289 8.82272 57.7652 9.24123C58.6881 10.098 59.6262 10.9415 60.5384 11.8091C59.6621 11.8074 58.7867 11.81 57.9114 11.8082C57.7912 11.8289 57.7274 11.723 57.6575 11.6577C56.3823 10.3643 55.0817 9.09144 53.8108 7.79383C54.9471 7.78478 56.1346 8.0329 57.2252 7.63257C58.0468 7.36304 58.7203 6.72624 58.9536 5.94715C59.1993 5.24587 59.0548 4.44941 58.5841 3.85486C58.1159 3.22298 57.3106 2.83348 56.4863 2.79623C54.0298 2.83348 51.5714 2.80617 49.1141 2.81449C48.4917 2.22729 47.8298 1.67733 47.219 1.07947Z" fill="black"/>
<path fill-rule="evenodd" clip-rule="evenodd" d="M66.3008 1.07788C66.9582 1.07788 67.6155 1.07788 68.2739 1.07788C68.2729 4.65458 68.2747 8.23151 68.2729 11.8091C67.6147 11.8066 66.9572 11.8108 66.2998 11.8066C66.3025 8.23063 66.2998 4.65385 66.3008 1.07788Z" fill="black"/>
<path fill-rule="evenodd" clip-rule="evenodd" d="M37.4234 1.05547C38.9185 0.810746 40.5158 1.10677 41.7759 1.8924C42.8288 2.5284 43.645 3.48612 44.0782 4.5752C44.6173 5.9183 44.5624 7.45733 43.9194 8.76148C43.2782 10.0749 42.0593 11.1424 40.5939 11.6461C39.6575 11.9828 38.6288 12.0654 37.636 11.9521C36.1733 11.7735 34.8001 11.0664 33.863 10.0169C32.9653 9.02867 32.4621 7.74099 32.4872 6.45081C32.4836 5.24675 32.9356 4.04674 33.7418 3.09977C34.637 2.02878 35.9767 1.28209 37.4234 1.05547Z" fill="#FF0000"/>
<path d="M73.9434 0C74.2888 0 74.6258 0.0815989 74.9555 0.245527C75.2841 0.408729 75.541 0.64303 75.7244 0.946972C75.9078 1.25172 76 1.5694 76 1.89903C76 2.22616 75.9096 2.54125 75.7282 2.84253C75.5475 3.14478 75.2943 3.37916 74.9675 3.54567C74.6408 3.71307 74.2991 3.79637 73.9434 3.79637C73.5868 3.79637 73.2451 3.71307 72.9183 3.54567C72.5916 3.37908 72.3374 3.14478 72.1559 2.84253C71.9744 2.54125 71.8831 2.22616 71.8831 1.89903C71.8831 1.5694 71.9752 1.25172 72.1596 0.946972C72.3448 0.64303 72.6018 0.408648 72.9305 0.245527C73.26 0.0815989 73.597 0 73.9434 0ZM73.9434 0.314204C73.654 0.314204 73.3717 0.382876 73.098 0.519415C72.8243 0.655874 72.6101 0.851636 72.4556 1.10573C72.3012 1.35982 72.2237 1.62426 72.2237 1.89903C72.2237 2.17292 72.3001 2.43477 72.4519 2.68547C72.6037 2.93617 72.8159 3.13185 73.0888 3.27178C73.3616 3.41172 73.6464 3.48217 73.9434 3.48217C74.2395 3.48217 74.5244 3.41172 74.7973 3.27178C75.07 3.13185 75.2823 2.93617 75.4331 2.68547C75.584 2.43477 75.6593 2.17292 75.6593 1.89903C75.6593 1.62434 75.582 1.3599 75.4285 1.10573C75.2748 0.851636 75.0606 0.655794 74.786 0.519415C74.5113 0.382795 74.2302 0.314204 73.9434 0.314204ZM73.0394 2.94643V0.906576H73.8011C74.0617 0.906576 74.2498 0.925481 74.3662 0.963211C74.4835 1.00102 74.5757 1.06622 74.6454 1.16067C74.7143 1.25423 74.7487 1.35393 74.7487 1.45944C74.7487 1.60802 74.691 1.7385 74.5746 1.84846C74.4592 1.95914 74.3057 2.02103 74.1138 2.03468C74.1919 2.06474 74.2553 2.10077 74.3018 2.14286C74.3912 2.22277 74.5001 2.35753 74.6296 2.54724L74.8996 2.94643H74.4656L74.2682 2.62536C74.1138 2.37208 73.988 2.21324 73.8931 2.14973C73.8279 2.10344 73.7329 2.08017 73.6073 2.08098H73.3968V2.94635L73.0394 2.94643ZM73.3969 1.79772H73.8308C74.0384 1.79772 74.1799 1.76944 74.2553 1.71273C74.3307 1.65609 74.3688 1.58055 74.3688 1.4878C74.3688 1.42769 74.3502 1.37364 74.3139 1.32646C74.2776 1.2783 74.2273 1.24316 74.1631 1.21997C74.0979 1.1967 73.9788 1.18483 73.8038 1.18483H73.3969V1.79772Z" fill="black"/>
</svg>
