<svg width="485" height="110" viewBox="0 0 485 110" fill="none" xmlns="http://www.w3.org/2000/svg">
<path fill-rule="evenodd" clip-rule="evenodd" d="M0 81.4915C14.4172 56.5627 28.7203 31.5658 43.189 6.66602C57.5262 31.658 71.84 56.6661 86.166 81.6687C81.2781 81.6799 76.3963 81.686 71.514 81.6626C62.03 65.0858 52.5349 48.5147 43.0458 31.943C33.6021 48.5426 24.1014 65.1088 14.6179 81.6855C9.74175 81.7369 4.87115 81.577 0 81.4915Z" fill="black"/>
<path fill-rule="evenodd" clip-rule="evenodd" d="M106.45 7.46131C131.21 7.45013 155.963 7.45628 180.717 7.45628C180.717 11.363 180.717 15.2696 180.717 19.1819C170.369 19.1881 160.021 19.1769 149.668 19.1881C149.668 40.0152 149.673 60.8478 149.668 81.6749C145.518 81.6811 141.369 81.6699 137.225 81.6811C137.225 60.8596 137.202 40.033 137.237 19.2115C126.974 19.1372 116.712 19.2054 106.45 19.1775C106.455 15.2702 106.455 11.368 106.45 7.46131Z" fill="black"/>
<path fill-rule="evenodd" clip-rule="evenodd" d="M301.332 7.4668C320.654 7.66685 339.994 7.65512 359.316 7.50088C367.483 7.48356 375.788 10.8068 381.282 16.9337C387.555 23.7066 390.045 33.625 388.064 42.6057C386.17 52.6047 378.358 61.0243 368.634 63.919C374.523 69.8452 380.509 75.6793 386.331 81.6798C380.739 81.6687 375.152 81.686 369.566 81.6737C368.8 81.8168 368.393 81.0847 367.946 80.6327C359.808 71.6866 351.508 62.883 343.398 53.9078C350.65 53.8452 358.228 55.5613 365.188 52.7924C370.431 50.9282 374.729 46.5236 376.217 41.1349C377.785 36.2844 376.863 30.7756 373.859 26.6633C370.871 22.2928 365.732 19.5987 360.472 19.3411C344.796 19.5987 329.107 19.4098 313.425 19.4674C309.454 15.4059 305.23 11.602 301.332 7.4668Z" fill="black"/>
<path fill-rule="evenodd" clip-rule="evenodd" d="M423.104 7.45557C427.299 7.45557 431.494 7.45557 435.695 7.45557C435.689 32.1944 435.7 56.9348 435.689 81.6798C431.488 81.6625 427.293 81.6916 423.097 81.6625C423.115 56.9287 423.097 32.1893 423.104 7.45557Z" fill="black"/>
<path fill-rule="evenodd" clip-rule="evenodd" d="M238.821 7.30086C248.362 5.6082 258.555 7.65571 266.596 13.0896C273.316 17.4886 278.524 24.1128 281.289 31.6457C284.729 40.9355 284.379 51.5804 280.276 60.6008C276.184 69.6849 268.405 77.0691 259.053 80.5528C253.078 82.8813 246.513 83.453 240.178 82.669C230.843 81.434 222.08 76.5433 216.1 69.2843C210.371 62.4488 207.16 53.5424 207.32 44.6186C207.297 36.2906 210.181 27.9905 215.326 21.4406C221.039 14.0329 229.589 8.86834 238.821 7.30086Z" fill="#FF0000"/>
<path d="M471.876 0C474.08 0 476.231 0.564393 478.335 1.69823C480.431 2.82704 482.071 4.44762 483.242 6.54989C484.412 8.65774 485 10.855 485 13.135C485 15.3976 484.424 17.577 483.266 19.6608C482.113 21.7514 480.497 23.3725 478.411 24.5242C476.326 25.6821 474.146 26.2582 471.876 26.2582C469.6 26.2582 467.42 25.6821 465.334 24.5242C463.249 23.3719 461.627 21.7514 460.469 19.6608C459.31 17.577 458.728 15.3976 458.728 13.135C458.728 10.855 459.316 8.65774 460.492 6.54989C461.674 4.44762 463.314 2.82648 465.412 1.69823C467.515 0.564393 469.665 0 471.876 0ZM471.876 2.17324C470.029 2.17324 468.228 2.64822 466.481 3.59262C464.734 4.53646 463.367 5.89048 462.381 7.64796C461.396 9.40544 460.901 11.2344 460.901 13.135C460.901 15.0294 461.389 16.8405 462.358 18.5745C463.326 20.3085 464.681 21.662 466.422 22.6298C468.163 23.5977 469.981 24.085 471.876 24.085C473.765 24.085 475.584 23.5977 477.325 22.6298C479.065 21.662 480.42 20.3085 481.382 18.5745C482.345 16.8405 482.826 15.0294 482.826 13.135C482.826 11.235 482.333 9.40599 481.353 7.64796C480.372 5.89048 479.006 4.53591 477.253 3.59262C475.5 2.64766 473.706 2.17324 471.876 2.17324ZM466.107 20.3795V6.27048H470.967C472.631 6.27048 473.831 6.40124 474.574 6.66221C475.323 6.92374 475.911 7.3747 476.356 8.02796C476.795 8.67507 477.015 9.36465 477.015 10.0945C477.015 11.1221 476.647 12.0246 475.904 12.7852C475.167 13.5507 474.188 13.9788 472.963 14.0732C473.462 14.2811 473.866 14.5303 474.163 14.8215C474.733 15.3741 475.428 16.3063 476.255 17.6184L477.978 20.3795H475.208L473.949 18.1587C472.963 16.4069 472.161 15.3082 471.555 14.869C471.139 14.5488 470.532 14.3878 469.731 14.3934H468.388V20.3789L466.107 20.3795ZM468.388 12.4342H471.157C472.482 12.4342 473.385 12.2386 473.866 11.8464C474.347 11.4546 474.591 10.9321 474.591 10.2906C474.591 9.87484 474.472 9.501 474.24 9.17465C474.009 8.84159 473.688 8.5985 473.278 8.43812C472.862 8.27718 472.101 8.19504 470.985 8.19504H468.388V12.4342Z" fill="black"/>
<path d="M6.645 99.555C7.255 99.735 7.73 100.055 8.07 100.515C8.41 100.965 8.58 101.51 8.58 102.15C8.58 102.7 8.455 103.19 8.205 103.62C7.955 104.05 7.59 104.39 7.11 104.64C6.64 104.88 6.085 105 5.445 105H1.365V95.1H4.77C5.63 95.1 6.315 95.335 6.825 95.805C7.335 96.275 7.59 96.875 7.59 97.605C7.59 98.015 7.505 98.385 7.335 98.715C7.175 99.045 6.945 99.325 6.645 99.555ZM2.535 96.15V99.225H4.65C5.21 99.225 5.64 99.085 5.94 98.805C6.24 98.525 6.39 98.15 6.39 97.68C6.39 97.21 6.24 96.84 5.94 96.57C5.65 96.29 5.22 96.15 4.65 96.15H2.535ZM5.325 103.95C5.975 103.95 6.48 103.785 6.84 103.455C7.2 103.115 7.38 102.67 7.38 102.12C7.38 101.57 7.2 101.13 6.84 100.8C6.48 100.46 5.975 100.29 5.325 100.29H2.535V103.95H5.325ZM22.5932 105.165C21.6532 105.165 20.7882 104.94 19.9982 104.49C19.2182 104.04 18.5982 103.425 18.1382 102.645C17.6882 101.855 17.4632 100.99 17.4632 100.05C17.4632 99.1 17.6882 98.235 18.1382 97.455C18.5982 96.675 19.2182 96.06 19.9982 95.61C20.7882 95.16 21.6532 94.935 22.5932 94.935C23.5232 94.935 24.3832 95.16 25.1732 95.61C25.9632 96.06 26.5882 96.675 27.0482 97.455C27.5082 98.235 27.7382 99.1 27.7382 100.05C27.7382 101 27.5082 101.865 27.0482 102.645C26.5882 103.425 25.9632 104.04 25.1732 104.49C24.3832 104.94 23.5232 105.165 22.5932 105.165ZM22.6082 104.085C23.3382 104.085 24.0032 103.91 24.6032 103.56C25.2032 103.2 25.6732 102.715 26.0132 102.105C26.3532 101.485 26.5232 100.795 26.5232 100.035C26.5232 99.285 26.3532 98.605 26.0132 97.995C25.6732 97.375 25.2032 96.89 24.6032 96.54C24.0032 96.19 23.3382 96.015 22.6082 96.015C21.8682 96.015 21.1982 96.19 20.5982 96.54C19.9982 96.89 19.5282 97.37 19.1882 97.98C18.8482 98.59 18.6782 99.275 18.6782 100.035C18.6782 100.795 18.8482 101.485 19.1882 102.105C19.5282 102.715 19.9982 103.2 20.5982 103.56C21.1982 103.91 21.8682 104.085 22.6082 104.085ZM41.8269 105.165C40.8869 105.165 40.0219 104.94 39.2319 104.49C38.4419 104.04 37.8169 103.425 37.3569 102.645C36.9069 101.865 36.6819 101 36.6819 100.05C36.6819 99.1 36.9069 98.235 37.3569 97.455C37.8169 96.675 38.4419 96.06 39.2319 95.61C40.0219 95.16 40.8869 94.935 41.8269 94.935C42.7069 94.935 43.5069 95.13 44.2269 95.52C44.9469 95.9 45.5169 96.415 45.9369 97.065L45.0669 97.755C44.6869 97.205 44.2219 96.78 43.6719 96.48C43.1319 96.17 42.5219 96.015 41.8419 96.015C41.1019 96.015 40.4319 96.19 39.8319 96.54C39.2319 96.89 38.7569 97.375 38.4069 97.995C38.0669 98.605 37.8969 99.29 37.8969 100.05C37.8969 100.81 38.0669 101.5 38.4069 102.12C38.7569 102.73 39.2319 103.21 39.8319 103.56C40.4319 103.91 41.1019 104.085 41.8419 104.085C42.5219 104.085 43.1319 103.935 43.6719 103.635C44.2219 103.325 44.6869 102.895 45.0669 102.345L45.9369 103.035C45.5269 103.685 44.9569 104.205 44.2269 104.595C43.5069 104.975 42.7069 105.165 41.8269 105.165ZM57.9496 96.15H54.4696V95.1H62.6146V96.15H59.1196V105H57.9496V96.15ZM75.9867 105.165C75.0467 105.165 74.1817 104.94 73.3917 104.49C72.6117 104.04 71.9917 103.425 71.5317 102.645C71.0817 101.855 70.8567 100.99 70.8567 100.05C70.8567 99.1 71.0817 98.235 71.5317 97.455C71.9917 96.675 72.6117 96.06 73.3917 95.61C74.1817 95.16 75.0467 94.935 75.9867 94.935C76.9167 94.935 77.7767 95.16 78.5667 95.61C79.3567 96.06 79.9817 96.675 80.4417 97.455C80.9017 98.235 81.1317 99.1 81.1317 100.05C81.1317 101 80.9017 101.865 80.4417 102.645C79.9817 103.425 79.3567 104.04 78.5667 104.49C77.7767 104.94 76.9167 105.165 75.9867 105.165ZM76.0017 104.085C76.7317 104.085 77.3967 103.91 77.9967 103.56C78.5967 103.2 79.0667 102.715 79.4067 102.105C79.7467 101.485 79.9167 100.795 79.9167 100.035C79.9167 99.285 79.7467 98.605 79.4067 97.995C79.0667 97.375 78.5967 96.89 77.9967 96.54C77.3967 96.19 76.7317 96.015 76.0017 96.015C75.2617 96.015 74.5917 96.19 73.9917 96.54C73.3917 96.89 72.9217 97.37 72.5817 97.98C72.2417 98.59 72.0717 99.275 72.0717 100.035C72.0717 100.795 72.2417 101.485 72.5817 102.105C72.9217 102.715 73.3917 103.2 73.9917 103.56C74.5917 103.91 75.2617 104.085 76.0017 104.085ZM97.5643 95.1V105H96.3943V101.01C96.0643 101.16 95.6843 101.27 95.2543 101.34C94.8343 101.4 94.4193 101.43 94.0093 101.43C92.7693 101.43 91.8093 101.115 91.1293 100.485C90.4493 99.855 90.1093 98.91 90.1093 97.65V95.1H91.2793V97.575C91.2793 98.545 91.5143 99.255 91.9843 99.705C92.4543 100.155 93.1393 100.38 94.0393 100.38C94.4393 100.38 94.8493 100.345 95.2693 100.275C95.6993 100.205 96.0743 100.095 96.3943 99.945V95.1H97.5643ZM107.786 95.1H108.956V99.18H114.506V95.1H115.676V105H114.506V100.23H108.956V105H107.786V95.1ZM130.391 105.165C129.451 105.165 128.586 104.94 127.796 104.49C127.016 104.04 126.396 103.425 125.936 102.645C125.486 101.855 125.261 100.99 125.261 100.05C125.261 99.1 125.486 98.235 125.936 97.455C126.396 96.675 127.016 96.06 127.796 95.61C128.586 95.16 129.451 94.935 130.391 94.935C131.321 94.935 132.181 95.16 132.971 95.61C133.761 96.06 134.386 96.675 134.846 97.455C135.306 98.235 135.536 99.1 135.536 100.05C135.536 101 135.306 101.865 134.846 102.645C134.386 103.425 133.761 104.04 132.971 104.49C132.181 104.94 131.321 105.165 130.391 105.165ZM130.406 104.085C131.136 104.085 131.801 103.91 132.401 103.56C133.001 103.2 133.471 102.715 133.811 102.105C134.151 101.485 134.321 100.795 134.321 100.035C134.321 99.285 134.151 98.605 133.811 97.995C133.471 97.375 133.001 96.89 132.401 96.54C131.801 96.19 131.136 96.015 130.406 96.015C129.666 96.015 128.996 96.19 128.396 96.54C127.796 96.89 127.326 97.37 126.986 97.98C126.646 98.59 126.476 99.275 126.476 100.035C126.476 100.795 126.646 101.485 126.986 102.105C127.326 102.715 127.796 103.2 128.396 103.56C128.996 103.91 129.666 104.085 130.406 104.085ZM145.125 95.1H151.47V96.15H146.295V99.18H150.255V100.23H146.295V103.95H151.65V105H145.125V95.1ZM180.865 94.935V105H179.695V97.32L173.245 105.165H172.825V95.1H173.995V102.78L180.445 94.935H180.865ZM195.592 105.165C194.652 105.165 193.787 104.94 192.997 104.49C192.207 104.04 191.582 103.425 191.122 102.645C190.672 101.865 190.447 101 190.447 100.05C190.447 99.1 190.672 98.235 191.122 97.455C191.582 96.675 192.207 96.06 192.997 95.61C193.787 95.16 194.652 94.935 195.592 94.935C196.472 94.935 197.272 95.13 197.992 95.52C198.712 95.9 199.282 96.415 199.702 97.065L198.832 97.755C198.452 97.205 197.987 96.78 197.437 96.48C196.897 96.17 196.287 96.015 195.607 96.015C194.867 96.015 194.197 96.19 193.597 96.54C192.997 96.89 192.522 97.375 192.172 97.995C191.832 98.605 191.662 99.29 191.662 100.05C191.662 100.81 191.832 101.5 192.172 102.12C192.522 102.73 192.997 103.21 193.597 103.56C194.197 103.91 194.867 104.085 195.607 104.085C196.287 104.085 196.897 103.935 197.437 103.635C197.987 103.325 198.452 102.895 198.832 102.345L199.702 103.035C199.292 103.685 198.722 104.205 197.992 104.595C197.272 104.975 196.472 105.165 195.592 105.165ZM209.314 95.1H210.484V105H209.314V95.1ZM216.979 105H215.494L210.619 99.69L215.074 95.1H216.574L212.149 99.69L216.979 105ZM234.376 95.1L230.821 102.675C230.401 103.565 229.991 104.2 229.591 104.58C229.191 104.96 228.661 105.15 228.001 105.15C227.731 105.15 227.461 105.1 227.191 105V103.98C227.461 104.04 227.721 104.07 227.971 104.07C228.301 104.07 228.581 103.99 228.811 103.83C229.051 103.67 229.276 103.385 229.486 102.975L225.541 95.1H226.861L230.131 101.625L233.191 95.1H234.376ZM247.901 105.165C246.961 105.165 246.096 104.94 245.306 104.49C244.516 104.04 243.891 103.425 243.431 102.645C242.981 101.865 242.756 101 242.756 100.05C242.756 99.1 242.981 98.235 243.431 97.455C243.891 96.675 244.516 96.06 245.306 95.61C246.096 95.16 246.961 94.935 247.901 94.935C248.781 94.935 249.581 95.13 250.301 95.52C251.021 95.9 251.591 96.415 252.011 97.065L251.141 97.755C250.761 97.205 250.296 96.78 249.746 96.48C249.206 96.17 248.596 96.015 247.916 96.015C247.176 96.015 246.506 96.19 245.906 96.54C245.306 96.89 244.831 97.375 244.481 97.995C244.141 98.605 243.971 99.29 243.971 100.05C243.971 100.81 244.141 101.5 244.481 102.12C244.831 102.73 245.306 103.21 245.906 103.56C246.506 103.91 247.176 104.085 247.916 104.085C248.596 104.085 249.206 103.935 249.746 103.635C250.296 103.325 250.761 102.895 251.141 102.345L252.011 103.035C251.601 103.685 251.031 104.205 250.301 104.595C249.581 104.975 248.781 105.165 247.901 105.165ZM266.051 105.165C265.111 105.165 264.246 104.94 263.456 104.49C262.666 104.04 262.041 103.425 261.581 102.645C261.131 101.865 260.906 101 260.906 100.05C260.906 99.1 261.131 98.235 261.581 97.455C262.041 96.675 262.666 96.06 263.456 95.61C264.246 95.16 265.111 94.935 266.051 94.935C266.931 94.935 267.731 95.13 268.451 95.52C269.171 95.9 269.741 96.415 270.161 97.065L269.291 97.755C268.911 97.205 268.446 96.78 267.896 96.48C267.356 96.17 266.746 96.015 266.066 96.015C265.326 96.015 264.656 96.19 264.056 96.54C263.456 96.89 262.981 97.375 262.631 97.995C262.291 98.605 262.121 99.29 262.121 100.05C262.121 100.81 262.291 101.5 262.631 102.12C262.981 102.73 263.456 103.21 264.056 103.56C264.656 103.91 265.326 104.085 266.066 104.085C266.746 104.085 267.356 103.935 267.896 103.635C268.446 103.325 268.911 102.895 269.291 102.345L270.161 103.035C269.751 103.685 269.181 104.205 268.451 104.595C267.731 104.975 266.931 105.165 266.051 105.165ZM282.173 96.15H278.693V95.1H286.838V96.15H283.343V105H282.173V96.15ZM301.269 99.555C301.879 99.735 302.354 100.055 302.694 100.515C303.034 100.965 303.204 101.51 303.204 102.15C303.204 102.7 303.079 103.19 302.829 103.62C302.579 104.05 302.214 104.39 301.734 104.64C301.264 104.88 300.709 105 300.069 105H295.989V95.1H299.394C300.254 95.1 300.939 95.335 301.449 95.805C301.959 96.275 302.214 96.875 302.214 97.605C302.214 98.015 302.129 98.385 301.959 98.715C301.799 99.045 301.569 99.325 301.269 99.555ZM297.159 96.15V99.225H299.274C299.834 99.225 300.264 99.085 300.564 98.805C300.864 98.525 301.014 98.15 301.014 97.68C301.014 97.21 300.864 96.84 300.564 96.57C300.274 96.29 299.844 96.15 299.274 96.15H297.159ZM299.949 103.95C300.599 103.95 301.104 103.785 301.464 103.455C301.824 103.115 302.004 102.67 302.004 102.12C302.004 101.57 301.824 101.13 301.464 100.8C301.104 100.46 300.599 100.29 299.949 100.29H297.159V103.95H299.949ZM317.217 105.165C316.277 105.165 315.412 104.94 314.622 104.49C313.842 104.04 313.222 103.425 312.762 102.645C312.312 101.855 312.087 100.99 312.087 100.05C312.087 99.1 312.312 98.235 312.762 97.455C313.222 96.675 313.842 96.06 314.622 95.61C315.412 95.16 316.277 94.935 317.217 94.935C318.147 94.935 319.007 95.16 319.797 95.61C320.587 96.06 321.212 96.675 321.672 97.455C322.132 98.235 322.362 99.1 322.362 100.05C322.362 101 322.132 101.865 321.672 102.645C321.212 103.425 320.587 104.04 319.797 104.49C319.007 104.94 318.147 105.165 317.217 105.165ZM317.232 104.085C317.962 104.085 318.627 103.91 319.227 103.56C319.827 103.2 320.297 102.715 320.637 102.105C320.977 101.485 321.147 100.795 321.147 100.035C321.147 99.285 320.977 98.605 320.637 97.995C320.297 97.375 319.827 96.89 319.227 96.54C318.627 96.19 317.962 96.015 317.232 96.015C316.492 96.015 315.822 96.19 315.222 96.54C314.622 96.89 314.152 97.37 313.812 97.98C313.472 98.59 313.302 99.275 313.302 100.035C313.302 100.795 313.472 101.485 313.812 102.105C314.152 102.715 314.622 103.2 315.222 103.56C315.822 103.91 316.492 104.085 317.232 104.085ZM350.66 95.1V105H349.49V101.01C349.16 101.16 348.78 101.27 348.35 101.34C347.93 101.4 347.515 101.43 347.105 101.43C345.865 101.43 344.905 101.115 344.225 100.485C343.545 99.855 343.205 98.91 343.205 97.65V95.1H344.375V97.575C344.375 98.545 344.61 99.255 345.08 99.705C345.55 100.155 346.235 100.38 347.135 100.38C347.535 100.38 347.945 100.345 348.365 100.275C348.795 100.205 349.17 100.095 349.49 99.945V95.1H350.66ZM368.922 94.935V105H367.752V97.32L361.302 105.165H360.882V95.1H362.052V102.78L368.502 94.935H368.922ZM383.648 105.165C382.708 105.165 381.843 104.94 381.053 104.49C380.263 104.04 379.638 103.425 379.178 102.645C378.728 101.865 378.503 101 378.503 100.05C378.503 99.1 378.728 98.235 379.178 97.455C379.638 96.675 380.263 96.06 381.053 95.61C381.843 95.16 382.708 94.935 383.648 94.935C384.528 94.935 385.328 95.13 386.048 95.52C386.768 95.9 387.338 96.415 387.758 97.065L386.888 97.755C386.508 97.205 386.043 96.78 385.493 96.48C384.953 96.17 384.343 96.015 383.663 96.015C382.923 96.015 382.253 96.19 381.653 96.54C381.053 96.89 380.578 97.375 380.228 97.995C379.888 98.605 379.718 99.29 379.718 100.05C379.718 100.81 379.888 101.5 380.228 102.12C380.578 102.73 381.053 103.21 381.653 103.56C382.253 103.91 382.923 104.085 383.663 104.085C384.343 104.085 384.953 103.935 385.493 103.635C386.043 103.325 386.508 102.895 386.888 102.345L387.758 103.035C387.348 103.685 386.778 104.205 386.048 104.595C385.328 104.975 384.528 105.165 383.648 105.165ZM399.771 96.15H396.291V95.1H404.436V96.15H400.941V105H399.771V96.15ZM417.808 105.165C416.868 105.165 416.003 104.94 415.213 104.49C414.433 104.04 413.813 103.425 413.353 102.645C412.903 101.855 412.678 100.99 412.678 100.05C412.678 99.1 412.903 98.235 413.353 97.455C413.813 96.675 414.433 96.06 415.213 95.61C416.003 95.16 416.868 94.935 417.808 94.935C418.738 94.935 419.598 95.16 420.388 95.61C421.178 96.06 421.803 96.675 422.263 97.455C422.723 98.235 422.953 99.1 422.953 100.05C422.953 101 422.723 101.865 422.263 102.645C421.803 103.425 421.178 104.04 420.388 104.49C419.598 104.94 418.738 105.165 417.808 105.165ZM417.823 104.085C418.553 104.085 419.218 103.91 419.818 103.56C420.418 103.2 420.888 102.715 421.228 102.105C421.568 101.485 421.738 100.795 421.738 100.035C421.738 99.285 421.568 98.605 421.228 97.995C420.888 97.375 420.418 96.89 419.818 96.54C419.218 96.19 418.553 96.015 417.823 96.015C417.083 96.015 416.413 96.19 415.813 96.54C415.213 96.89 414.743 97.37 414.403 97.98C414.063 98.59 413.893 99.275 413.893 100.035C413.893 100.795 414.063 101.485 414.403 102.105C414.743 102.715 415.213 103.2 415.813 103.56C416.413 103.91 417.083 104.085 417.823 104.085ZM434.678 96.15H431.198V95.1H439.343V96.15H435.848V105H434.678V96.15ZM448.494 95.1H449.664V99H451.839C452.509 99 453.094 99.13 453.594 99.39C454.094 99.64 454.474 99.995 454.734 100.455C455.004 100.905 455.139 101.42 455.139 102C455.139 102.58 455.004 103.1 454.734 103.56C454.474 104.01 454.094 104.365 453.594 104.625C453.094 104.875 452.509 105 451.839 105H448.494V95.1ZM451.824 103.95C452.494 103.95 453.014 103.77 453.384 103.41C453.754 103.05 453.939 102.585 453.939 102.015C453.939 101.435 453.754 100.965 453.384 100.605C453.014 100.245 452.494 100.065 451.824 100.065H449.664V103.95H451.824ZM457.104 95.1H458.274V105H457.104V95.1Z" fill="black"/>
</svg>
