<svg width="965" height="165" viewBox="0 0 965 165" fill="none" xmlns="http://www.w3.org/2000/svg">
<mask id="mask0_102_3948" style="mask-type:alpha" maskUnits="userSpaceOnUse" x="0" y="0" width="965" height="165">
<path fill-rule="evenodd" clip-rule="evenodd" d="M0 162.001C28.6858 112.444 57.1446 62.7514 85.9327 13.252C114.459 62.9347 142.939 112.65 171.444 162.354C161.718 162.376 152.005 162.388 142.291 162.341C123.421 129.388 104.528 96.4451 85.6479 63.5013C66.8578 96.5006 47.9542 129.433 29.0852 162.387C19.3831 162.489 9.69209 162.171 0 162.001Z" fill="black"/>
<path fill-rule="evenodd" clip-rule="evenodd" d="M211.803 14.8329C261.067 14.8107 310.318 14.8229 359.571 14.8229C359.571 22.5892 359.571 30.3555 359.571 38.1329C338.982 38.1451 318.393 38.1229 297.792 38.1452C297.792 79.5484 297.802 120.963 297.792 162.366C289.535 162.378 281.28 162.356 273.035 162.378C273.035 120.986 272.989 79.584 273.058 38.1918C252.639 38.0441 232.221 38.1796 211.803 38.1241C211.813 30.3566 211.813 22.5992 211.803 14.8329Z" fill="black"/>
<path fill-rule="evenodd" clip-rule="evenodd" d="M599.558 14.844C638.002 15.2417 676.482 15.2184 714.927 14.9118C731.177 14.8773 747.701 21.4838 758.634 33.6637C771.115 47.1279 776.069 66.8452 772.128 84.6985C768.359 104.576 752.815 121.314 733.467 127.068C745.185 138.849 757.096 150.447 768.679 162.376C757.552 162.354 746.438 162.388 735.323 162.364C733.797 162.648 732.987 161.193 732.1 160.294C715.907 142.51 699.393 125.009 683.256 107.166C697.684 107.042 712.762 110.454 726.611 104.949C737.042 101.243 745.594 92.4871 748.556 81.7747C751.676 72.132 749.842 61.1808 743.864 53.0056C737.919 44.3173 727.694 38.9616 717.228 38.4495C686.037 38.9616 654.822 38.5861 623.62 38.7006C615.718 30.6265 607.313 23.0647 599.558 14.844Z" fill="black"/>
<path fill-rule="evenodd" clip-rule="evenodd" d="M841.845 14.8215C850.192 14.8215 858.539 14.8215 866.899 14.8215C866.887 64.0011 866.909 113.184 866.886 162.376C858.528 162.341 850.18 162.399 841.833 162.341C841.867 113.172 841.833 63.9911 841.845 14.8215Z" fill="black"/>
<path fill-rule="evenodd" clip-rule="evenodd" d="M475.179 14.5139C494.163 11.149 514.445 15.2194 530.445 26.0218C543.814 34.7668 554.178 47.9354 559.678 62.9103C566.523 81.3779 565.827 102.539 557.662 120.472C549.521 138.53 534.044 153.21 515.436 160.135C503.547 164.764 490.485 165.901 477.879 164.342C459.306 161.887 441.871 152.165 429.972 137.734C418.573 124.145 412.184 106.44 412.503 88.6999C412.458 72.1441 418.196 55.6439 428.433 42.623C439.8 27.897 456.811 17.63 475.179 14.5139Z" fill="#FF0000"/>
<path d="M938.887 0C943.273 0 947.552 1.12199 951.738 3.376C955.91 5.62002 959.173 8.84166 961.501 13.0209C963.83 17.2112 965 21.5792 965 26.1117C965 30.6097 963.853 34.9422 961.549 39.0848C959.255 43.2407 956.04 46.4634 951.89 48.753C947.742 51.0547 943.403 52.2001 938.887 52.2001C934.359 52.2001 930.021 51.0547 925.871 48.753C921.723 46.4623 918.495 43.2407 916.19 39.0848C913.885 34.9422 912.726 30.6097 912.726 26.1117C912.726 21.5792 913.896 17.2112 916.237 13.0209C918.589 8.84166 921.852 5.61891 926.026 3.376C930.21 1.12199 934.489 0 938.887 0ZM938.887 4.3203C935.212 4.3203 931.628 5.26454 928.153 7.14196C924.677 9.01827 921.957 11.71 919.996 15.2038C918.035 18.6976 917.051 22.3335 917.051 26.1117C917.051 29.8776 918.021 33.4781 919.949 36.9252C921.876 40.3723 924.571 43.0629 928.035 44.987C931.499 46.9111 935.116 47.8798 938.887 47.8798C942.646 47.8798 946.264 46.9111 949.729 44.987C953.192 43.0629 955.887 40.3723 957.802 36.9252C959.718 33.4781 960.675 29.8776 960.675 26.1117C960.675 22.3346 959.693 18.6987 957.743 15.2038C955.792 11.71 953.073 9.01716 949.585 7.14196C946.097 5.26343 942.529 4.3203 938.887 4.3203ZM927.409 40.5134V12.4654H937.08C940.389 12.4654 942.777 12.7254 944.255 13.2442C945.745 13.7641 946.915 14.6605 947.801 15.9592C948.675 17.2456 949.112 18.6165 949.112 20.0673C949.112 22.1103 948.379 23.9043 946.902 25.4163C945.436 26.9382 943.486 27.7892 941.05 27.9769C942.042 28.3902 942.847 28.8856 943.438 29.4644C944.572 30.5631 945.955 32.4161 947.599 35.0245L951.028 40.5134H945.518L943.011 36.0987C941.05 32.616 939.454 30.432 938.248 29.5588C937.42 28.9223 936.214 28.6023 934.619 28.6134H931.947V40.5123L927.409 40.5134ZM931.948 24.7187H937.457C940.093 24.7187 941.89 24.3298 942.847 23.55C943.805 22.7712 944.289 21.7325 944.289 20.4572C944.289 19.6307 944.052 18.8875 943.591 18.2388C943.13 17.5767 942.492 17.0934 941.676 16.7746C940.849 16.4546 939.336 16.2913 937.114 16.2913H931.948V24.7187Z" fill="black"/>
</mask>
<g mask="url(#mask0_102_3948)">
<rect x="-11" y="-14" width="1001" height="199" fill="#EBEBEB"/>
</g>
</svg>
