<svg width="26" height="26" viewBox="0 0 26 26" fill="none" xmlns="http://www.w3.org/2000/svg">
<g id="mail">
<path id="Vector" d="M23.8408 4.38676C23.147 3.74109 22.262 3.3385 21.3194 3.23955V0.361114C21.3194 0.265393 21.2814 0.173505 21.2137 0.105796C21.1459 0.0380872 21.0541 0 20.9583 0H4.08348C3.88418 0 3.72236 0.161614 3.72236 0.361114V3.23997C2.77325 3.33952 1.88275 3.74698 1.18693 4.40007C0.436896 5.09207 0.00727387 6.06398 0 7.08444V22.1259C0 24.2619 1.89889 26 4.23262 26H20.8093C23.143 26 25.0419 24.262 25.0419 22.1259V7.08444C25.0347 6.05733 24.5994 5.07958 23.8409 4.38676H23.8408ZM23.2231 4.81196L21.3194 6.71565V3.967C22.0221 4.0593 22.6833 4.3527 23.2231 4.81196ZM20.5972 0.722238V7.43793L12.5212 15.5135L4.44511 7.43793V0.722238H20.5972ZM3.72236 6.7157L1.80939 4.80272C2.35245 4.34388 3.01706 4.0529 3.72236 3.96484V6.7157ZM0.722228 7.08427C0.724445 6.45072 0.932809 5.83528 1.31569 5.33049L10.4158 14.4306L1.17589 23.6725C0.881076 23.2106 0.723894 22.6742 0.722481 22.1261L0.722228 7.08427ZM20.8095 25.2777H4.23277C3.2621 25.287 2.32686 24.9132 1.62981 24.2377L10.9275 14.9416L12.2655 16.28H12.2657C12.4068 16.4209 12.6353 16.4209 12.7764 16.28L14.1145 14.9416L23.4121 24.2377C22.7151 24.9132 21.7798 25.287 20.8092 25.2777H20.8095ZM24.3198 22.1258C24.3184 22.6739 24.1612 23.2102 23.8664 23.672L14.6255 14.4311L23.7179 5.33828C24.1036 5.83904 24.3147 6.45206 24.3198 7.08401L24.3198 22.1258ZM6.10474 2.66898C6.10474 2.46948 6.26635 2.30786 6.46585 2.30786H18.5761C18.7756 2.30786 18.9372 2.46948 18.9372 2.66898C18.9372 2.86848 18.7756 3.03009 18.5761 3.03009H6.46585C6.26635 3.03009 6.10474 2.86848 6.10474 2.66898ZM6.10474 4.95112C6.10474 4.75182 6.26635 4.59 6.46585 4.59H18.5761C18.7756 4.59 18.9372 4.75182 18.9372 4.95112C18.9372 5.15062 18.7756 5.31223 18.5761 5.31223H6.46585C6.26655 5.31223 6.10494 5.15102 6.10474 4.95172V4.95112ZM6.10474 7.23325V7.23345C6.10474 7.03395 6.26635 6.87234 6.46585 6.87234H18.5761C18.7756 6.87234 18.9372 7.03395 18.9372 7.23345C18.9372 7.43295 18.7756 7.59457 18.5761 7.59457H6.46585C6.26695 7.59457 6.10554 7.43376 6.10474 7.23486V7.23325ZM16.5549 9.51539L16.5547 9.51559C16.5547 9.61151 16.5168 9.7032 16.4489 9.77091C16.3812 9.83882 16.2895 9.87671 16.1935 9.87671H8.84848C8.64898 9.87671 8.48737 9.71509 8.48737 9.51559C8.48737 9.31629 8.64898 9.15448 8.84848 9.15448H16.1935C16.2899 9.15448 16.3822 9.19277 16.4499 9.26108C16.5176 9.32919 16.5555 9.42169 16.5547 9.51801L16.5549 9.51539ZM14.6193 11.7975L14.6191 11.7979C14.6191 11.8937 14.581 11.9855 14.5133 12.0532C14.4456 12.121 14.3539 12.159 14.258 12.159H10.7838C10.5843 12.159 10.4227 11.9972 10.4227 11.7979C10.4227 11.5984 10.5843 11.4368 10.7838 11.4368H14.258C14.3543 11.4368 14.4466 11.4753 14.5143 11.5436C14.5822 11.6119 14.6199 11.7044 14.6191 11.8008L14.6193 11.7975Z" fill="white"/>
</g>
</svg>
