<svg width="90" height="110" viewBox="0 0 90 110" fill="none" xmlns="http://www.w3.org/2000/svg">
<path d="M77.6637 23.2373V4.21661C77.6637 1.89149 75.7733 0 73.4471 0H4.21662C1.89149 0 0 1.89045 0 4.21661V96.0444C0 98.3686 1.89045 100.261 4.21662 100.261H11.4225V105.783C11.4225 108.108 13.3147 110 15.6398 110H84.8681C87.1924 110 89.0847 108.11 89.0847 105.783L89.0839 38.4395V34.8587L77.6637 23.2373ZM4.21662 96.9083C3.73946 96.9083 3.35236 96.5195 3.35236 96.0441V4.2163C3.35236 3.73915 3.73946 3.35205 4.21662 3.35205H73.4449C73.9221 3.35205 74.3092 3.73915 74.3092 4.2163V19.8258L64.3961 9.73781H64.0471L15.6381 9.73694C13.313 9.73694 11.4208 11.6291 11.4208 13.9536V96.9091L4.21662 96.9083ZM85.7334 105.781C85.7334 106.258 85.3446 106.645 84.8691 106.645H15.6408C15.1628 106.645 14.7757 106.257 14.7757 105.781V13.9512C14.7757 13.474 15.1646 13.0869 15.6408 13.0869L60.6957 13.0878V34.2232C60.6957 36.5501 62.5879 38.4405 64.9123 38.4405H85.7351L85.7334 105.781ZM75.9875 35.0875H64.9106C64.4352 35.0875 64.0481 34.6986 64.0481 34.2224V14.16L74.7916 25.0948L75.144 25.455L77.6614 28.0176L84.6084 35.0876L75.9875 35.0875Z" fill="white"/>
<path d="M23.544 30.0988H38.0113C38.3628 30.0988 38.6478 29.8148 38.6478 29.4623V27.4013C38.6478 27.0497 38.3637 26.7656 38.0113 26.7656H23.544C23.1941 26.7656 22.9075 27.0497 22.9075 27.4013V29.4632C22.9066 29.8139 23.1933 30.0988 23.544 30.0988Z" fill="white"/>
<path d="M59.2566 49.9869H69.4891C69.8416 49.9869 70.1274 49.7029 70.1274 49.3504V47.2885C70.1274 46.9369 69.8433 46.6528 69.4891 46.6528H59.2566C58.905 46.6528 58.6201 46.9369 58.6201 47.2885V49.3504C58.6201 49.7011 58.9041 49.9869 59.2566 49.9869Z" fill="white"/>
<path d="M73.4272 47.289V49.3509C73.4272 49.7025 73.7113 49.9874 74.0629 49.9874H77.4065C77.7589 49.9874 78.0447 49.7034 78.0447 49.3509V47.289C78.0447 46.9374 77.7607 46.6533 77.4065 46.6533H74.0629C73.7104 46.6533 73.4272 46.9365 73.4272 47.289Z" fill="white"/>
<path d="M74.0612 59.5261H77.4048C77.7572 59.5261 78.043 59.242 78.043 58.8896V56.8285C78.043 56.4769 77.759 56.1929 77.4048 56.1929H74.0612C73.7096 56.1929 73.4255 56.4769 73.4255 56.8285V58.8896C73.4264 59.242 73.7096 59.5261 74.0612 59.5261Z" fill="white"/>
<path d="M59.2566 59.5261H69.4891C69.8416 59.5261 70.1274 59.242 70.1274 58.8896V56.8285C70.1274 56.4769 69.8433 56.1929 69.4891 56.1929H59.2566C58.905 56.1929 58.6201 56.4769 58.6201 56.8285V58.8896C58.6201 59.242 58.9041 59.5261 59.2566 59.5261Z" fill="white"/>
<path d="M23.544 72.1208H77.4067C77.7591 72.1208 78.0449 71.8368 78.0449 71.4843V69.4232C78.0449 69.0717 77.7609 68.7876 77.4067 68.7876H23.544C23.1941 68.7876 22.9075 69.0716 22.9075 69.4232V71.4843C22.9066 71.8367 23.1933 72.1208 23.544 72.1208Z" fill="white"/>
<path d="M23.544 82.709H77.4067C77.7591 82.709 78.0449 82.4249 78.0449 82.0725V80.0105C78.0449 79.6589 77.7609 79.3749 77.4067 79.3749L23.544 79.374C23.1941 79.374 22.9075 79.6581 22.9075 80.0097V82.0716C22.9066 82.4249 23.1933 82.709 23.544 82.709Z" fill="white"/>
<path d="M58.3011 89.9648H23.544C23.1941 89.9648 22.9075 90.2489 22.9075 90.6005V92.6615C22.9075 93.0131 23.1933 93.2981 23.544 93.2981H58.3011C58.6536 93.2981 58.9394 93.014 58.9394 92.6615V90.6005C58.9394 90.2489 58.6536 89.9648 58.3011 89.9648Z" fill="white"/>
<path d="M63.4488 89.9648C63.0989 89.9648 62.8123 90.2489 62.8123 90.6005V92.6615C62.8123 93.0131 63.098 93.2981 63.4488 93.2981H77.7238C78.0763 93.2981 78.3603 93.014 78.3603 92.6615V90.6005C78.3603 90.2489 78.0763 89.9648 77.7238 89.9648H63.4488Z" fill="white"/>
<path d="M23.544 39.8379H52.4772C52.8297 39.8379 53.1137 39.5538 53.1137 39.2014V37.1394C53.1137 36.7879 52.8297 36.5038 52.4772 36.5038L23.544 36.5029C23.1941 36.5029 22.9075 36.787 22.9075 37.1386V39.2005C22.9066 39.5521 23.1933 39.8379 23.544 39.8379Z" fill="white"/>
<path d="M23.5262 62.4103H52.1712C52.5124 62.4103 52.7922 62.1323 52.7922 61.7894V47.1531C52.7922 46.8102 52.5124 46.5322 52.1712 46.5322H23.5262C23.185 46.5322 22.9053 46.8102 22.9053 47.1531V61.7894C22.9053 62.1314 23.185 62.4103 23.5262 62.4103ZM26.2583 49.8846H49.4386V59.0581H26.2583V49.8846Z" fill="white"/>
</svg>
