<svg width="110" height="110" viewBox="0 0 110 110" fill="none" xmlns="http://www.w3.org/2000/svg">
<path d="M55 110C40.309 110 26.4967 104.279 16.1086 93.8914C5.72098 83.5029 0 69.6917 0 55C0 40.3084 5.72098 26.4967 16.1086 16.1086C26.4971 5.72098 40.3084 0 55 0C69.6916 0 83.5033 5.72098 93.8914 16.1086C104.279 26.4971 110 40.3084 110 55C110 69.6917 104.279 83.5033 93.8914 93.8914C83.5029 104.279 69.6916 110 55 110ZM55 4.58559C27.2007 4.58559 4.58496 27.2013 4.58496 55.0006C4.58496 82.7999 27.2007 105.416 55 105.416C82.7993 105.416 105.415 82.7999 105.415 55.0006C105.415 27.2013 82.7993 4.58559 55 4.58559Z" fill="black"/>
<path d="M54.9999 93.9588C33.5177 93.9588 16.0415 76.4826 16.0415 55.0004C16.0415 33.5182 33.5177 16.042 54.9999 16.042C76.4821 16.042 93.9583 33.5182 93.9583 55.0004C93.9583 76.4826 76.4821 93.9588 54.9999 93.9588ZM54.9999 20.6263C36.0456 20.6263 20.6258 36.0467 20.6258 55.0004C20.6258 73.9541 36.0462 89.3745 54.9999 89.3745C73.9536 89.3745 89.374 73.9541 89.374 55.0004C89.374 36.0467 73.9536 20.6263 54.9999 20.6263Z" fill="black"/>
<path d="M55 20.6263C53.7347 20.6263 52.7083 19.6 52.7083 18.3346V2.29321C52.7083 1.02789 53.7346 0.00146484 55 0.00146484C56.2654 0.00146484 57.2917 1.02778 57.2917 2.29321V18.3346C57.2917 19.5999 56.2654 20.6263 55 20.6263Z" fill="black"/>
<path d="M55 110C53.7347 110 52.7083 108.974 52.7083 107.708V91.6667C52.7083 90.4014 53.7346 89.375 55 89.375C56.2654 89.375 57.2917 90.4013 57.2917 91.6667V107.708C57.2917 108.973 56.2654 110 55 110Z" fill="black"/>
<path d="M80.9262 31.3664C80.3394 31.3664 79.7534 31.143 79.3057 30.6953C78.4111 29.8007 78.4111 28.3497 79.3057 27.4542L90.6485 16.1113C91.5439 15.2168 92.995 15.2168 93.8896 16.1113C94.7843 17.0059 94.7842 18.4569 93.8896 19.3524L82.5468 30.6953C82.0991 31.1422 81.513 31.3664 80.9262 31.3664Z" fill="black"/>
<path d="M17.7304 94.5627C17.1436 94.5627 16.5576 94.3385 16.1099 93.8916C15.2153 92.997 15.2153 91.546 16.1099 90.6505L27.4527 79.3076C28.3481 78.4131 29.7983 78.4131 30.6938 79.3076C31.5884 80.2022 31.5884 81.6532 30.6938 82.5487L19.351 93.8916C18.9033 94.3385 18.3172 94.5627 17.7304 94.5627Z" fill="black"/>
<path d="M29.0738 31.3667C28.4869 31.3667 27.9009 31.1433 27.4532 30.6956L16.1104 19.3527C15.2158 18.4582 15.2158 17.0071 16.1104 16.1116C17.0057 15.2171 18.456 15.2163 19.3515 16.1116L30.6943 27.4545C31.5889 28.3491 31.5889 29.8001 30.6943 30.6956C30.2466 31.1425 29.6598 31.3667 29.0738 31.3667Z" fill="black"/>
<path d="M92.2698 94.5627C91.683 94.5627 91.097 94.3385 90.6493 93.8916L79.3064 82.5487C78.4119 81.6542 78.4119 80.2031 79.3064 79.3076C80.2018 78.4131 81.652 78.4131 82.5475 79.3076L93.8904 90.6505C94.7849 91.545 94.7849 92.9961 93.8904 93.8916C93.4427 94.3385 92.8558 94.5627 92.2698 94.5627Z" fill="black"/>
<path d="M107.707 57.293H91.6658C90.4004 57.293 89.374 56.2666 89.374 55.0012C89.374 53.7358 90.4003 52.7095 91.6658 52.7095H107.707C108.972 52.7095 109.999 53.7358 109.999 55.0012C109.999 56.2666 108.973 57.293 107.707 57.293Z" fill="black"/>
<path d="M18.3339 57.293H2.29248C1.02716 57.293 0.000732422 56.2666 0.000732422 55.0012C0.000732422 53.7358 1.02705 52.7095 2.29248 52.7095H18.3339C19.5992 52.7095 20.6256 53.7358 20.6256 55.0012C20.6256 56.2666 19.5993 57.293 18.3339 57.293Z" fill="black"/>
<path d="M61.8744 59.5849H43.5413C42.2759 59.5849 41.2495 58.5586 41.2495 57.2932V34.3757C41.2495 33.1104 42.2758 32.084 43.5413 32.084H61.8744C69.4565 32.084 75.6242 38.2519 75.6242 45.8338C75.6242 53.4158 69.4563 59.5837 61.8744 59.5837V59.5849ZM45.833 55.0016H61.8744C66.9291 55.0016 71.0409 50.8898 71.0409 45.8351C71.0409 40.7804 66.9291 36.6685 61.8744 36.6685H45.833V55.0016Z" fill="black"/>
<path d="M43.5413 80.2084C42.2759 80.2084 41.2495 79.182 41.2495 77.9166V57.2917C41.2495 56.0264 42.2758 55 43.5413 55C44.8067 55 45.833 56.0263 45.833 57.2917V77.9166C45.833 79.1819 44.8067 80.2084 43.5413 80.2084Z" fill="black"/>
<path d="M50.4156 59.585H36.6658C35.4004 59.585 34.374 58.5586 34.374 57.2932C34.374 56.0278 35.4003 55.0015 36.6658 55.0015H50.4156C51.6809 55.0015 52.7074 56.0278 52.7074 57.2932C52.7074 58.5586 51.681 59.585 50.4156 59.585Z" fill="black"/>
<path d="M59.5844 71.0415H36.667C35.4017 71.0415 34.3752 70.0152 34.3752 68.7498C34.3752 67.4843 35.4016 66.458 36.667 66.458H59.5844C60.8498 66.458 61.8762 67.4843 61.8762 68.7498C61.8762 70.0152 60.8499 71.0415 59.5844 71.0415Z" fill="black"/>
</svg>
