<svg width="109" height="110" viewBox="0 0 109 110" fill="none" xmlns="http://www.w3.org/2000/svg">
<path d="M59.2002 53.3377H75.2456C76.1197 53.3126 76.8154 52.5974 76.8154 51.7237C76.8154 50.8491 76.1197 50.1338 75.2456 50.1087H59.2002C58.8883 48.6808 58.1727 47.3715 57.1383 46.3376C56.1039 45.3036 54.795 44.5884 53.3662 44.2758V26.805C53.3662 25.9131 52.6429 25.1909 51.7514 25.1909C50.86 25.1909 50.1366 25.9131 50.1366 26.805V44.2758C48.3433 44.6637 46.75 45.6846 45.6491 47.1525C44.548 48.6194 44.0134 50.4344 44.1442 52.2641C44.2742 54.0938 45.06 55.8154 46.3569 57.1124C47.6546 58.4096 49.376 59.195 51.2065 59.3257C53.0371 59.4565 54.8528 58.9222 56.3213 57.8225C57.7897 56.7228 58.8119 55.1302 59.2 53.338L59.2002 53.3377ZM51.7479 56.1156H51.7488C50.5827 56.1164 49.4642 55.6532 48.6387 54.8288C47.814 54.0053 47.3505 52.8874 47.3505 51.7218C47.3505 50.5563 47.814 49.4383 48.6387 48.6139C49.4635 47.7895 50.5819 47.3263 51.7481 47.3263C52.9142 47.3263 54.0327 47.7895 54.8575 48.6139C55.6813 49.4383 56.1448 50.557 56.144 51.7225C56.1422 52.8863 55.6796 54.0024 54.8557 54.8259C54.0327 55.6494 52.916 56.1127 51.7517 56.1153L51.7479 56.1156ZM104.226 60.7336H102.98V58.8597C104.478 48.1257 102.564 37.1917 97.509 27.6033C92.4531 18.0149 84.5115 10.2571 74.8053 5.42452C65.0997 0.592631 54.1198 -1.06994 43.4166 0.6731C32.7148 2.41621 22.8309 7.47658 15.1618 15.1384C7.49302 22.8009 2.42577 32.6777 0.677471 43.3756C-1.07165 54.0724 0.586504 65.0471 5.41626 74.7517C10.2469 84.456 18.0059 92.3976 27.5966 97.4536C37.1868 102.511 48.1251 104.429 58.8655 102.936V106.08C58.8655 107.119 59.2787 108.117 60.0142 108.852C60.7497 109.587 61.7477 110 62.7874 110H104.229C105.27 110 106.267 109.587 107.003 108.852C107.738 108.117 108.151 107.119 108.151 106.08V64.6574C108.152 63.6175 107.739 62.6199 107.003 61.8847C106.268 61.1487 105.27 60.7356 104.229 60.7356L104.226 60.7336ZM104.226 63.9625H104.227C104.606 63.9677 104.912 64.2733 104.917 64.6526V70.845H62.0933V64.6526C62.0985 64.2734 62.4052 63.9677 62.7838 63.9625H64.0287V66.1342C64.0296 67.0261 64.753 67.7483 65.6445 67.7483H71.564C72.4555 67.7483 73.1788 67.0253 73.1788 66.1342V63.9625H78.9314V66.1342C78.9314 67.0261 79.6548 67.7483 80.5471 67.7483H86.4651C87.3557 67.7457 88.0756 67.0244 88.0756 66.1342V63.9625H93.8282V66.1342C93.829 67.0261 94.5524 67.7483 95.4439 67.7483H101.363C101.792 67.7492 102.202 67.5795 102.506 67.2764C102.81 66.9733 102.98 66.5628 102.98 66.1342V63.9625H104.226ZM51.7479 85.1317H51.7488C51.3199 85.1309 50.9093 85.3015 50.6069 85.6037C50.3037 85.9067 50.1339 86.3172 50.1339 86.7449V90.3144C40.4552 89.8979 31.2852 85.8678 24.434 79.0211C17.5829 72.1741 13.5521 63.0076 13.1353 53.3332H16.708C17.5821 53.3089 18.2778 52.5928 18.2778 51.7191C18.2778 50.8454 17.5821 50.1292 16.708 50.105H13.1378C13.5545 40.4299 17.5856 31.2643 24.4364 24.4171C31.2865 17.5702 40.4565 13.5403 50.1364 13.1238V16.6957C50.1364 17.5867 50.8597 18.3089 51.7512 18.3089C52.6426 18.3089 53.366 17.5867 53.366 16.6957V13.1289C63.0448 13.5454 72.2147 17.5755 79.066 24.4222C85.9161 31.2691 89.9479 40.4357 90.3646 50.1101H86.7911C86.3553 50.0971 85.9325 50.2617 85.6189 50.5665C85.3062 50.8704 85.1294 51.2878 85.1294 51.7242C85.1294 52.1606 85.3062 52.578 85.6189 52.8828C85.9325 53.1868 86.3553 53.3513 86.7911 53.3383H90.3518C90.2487 55.8313 89.9047 58.3087 89.3234 60.735H88.0776V58.5632C88.0785 58.1346 87.9087 57.7242 87.6055 57.4211C87.3023 57.118 86.8916 56.9474 86.4637 56.9474H80.5492C79.6569 56.9474 78.9335 57.6713 78.9335 58.5633V60.7341H73.181V58.5633C73.181 58.1346 73.0112 57.7242 72.7079 57.4211C72.4056 57.118 71.995 56.9475 71.5661 56.9475H65.6466C64.7543 56.9475 64.0309 57.6714 64.0309 58.5633V60.7342H62.7859V60.7333C61.7463 60.7333 60.7483 61.1464 60.0128 61.8815C59.2772 62.6167 58.864 63.6142 58.864 64.6534V89.6918C57.0482 90.0286 55.2097 90.2355 53.3636 90.3126V86.7458C53.3645 86.3189 53.1947 85.9085 52.8924 85.6054C52.59 85.3032 52.1802 85.1326 51.7523 85.1326L51.7479 85.1317ZM84.8487 60.1731L84.8496 64.5191H82.1622V60.1765L84.8487 60.1731ZM69.9452 60.1731V64.5191H67.2606V60.1765L69.9452 60.1731ZM97.0646 64.5191V60.1765H99.7537V64.5191H97.0646ZM51.7503 100.194C38.8862 100.194 26.5494 95.0863 17.4541 85.9941C8.35757 76.9026 3.24796 64.5719 3.24796 51.714C3.24796 38.8567 8.35757 26.5271 17.4541 17.4339C26.5498 8.34247 38.8864 3.23438 51.7503 3.23438C64.6136 3.23438 76.9491 8.34247 86.0465 17.4339C95.1422 26.5262 100.253 38.8569 100.253 51.714C100.242 53.4605 100.138 55.2054 99.9426 56.9407H95.4488C95.0183 56.9398 94.605 57.1104 94.3001 57.4152C93.996 57.72 93.8262 58.133 93.8279 58.5643V60.7351H92.6359V60.7343C94.5643 51.9763 93.6261 42.8312 89.9607 34.6451C86.2963 26.4604 80.0966 19.6689 72.2773 15.2717C64.4586 10.8745 55.4332 9.10555 46.5307 10.2235C37.6282 11.3414 29.3219 15.2883 22.8334 21.4822C16.3454 27.6761 12.0207 35.789 10.4951 44.6275C8.96948 53.4642 10.3253 62.5573 14.3607 70.5659C18.3969 78.5739 24.9004 85.0753 32.9131 89.1105C40.925 93.1447 50.0224 94.4999 58.8637 92.9767V99.6693C56.5082 100.018 54.13 100.196 51.7494 100.198L51.7503 100.194ZM104.228 106.763H62.7862C62.4076 106.758 62.1009 106.453 62.0957 106.074V74.0751H104.919V106.081C104.914 106.459 104.608 106.765 104.229 106.769L104.228 106.763ZM74.0859 77.4679H65.7188C65.2899 77.4679 64.8793 77.6376 64.5761 77.9407C64.2737 78.2438 64.1031 78.6543 64.1039 79.0829V87.4461C64.1048 88.3362 64.8273 89.0584 65.7188 89.0584H74.0859C74.5139 89.0584 74.9245 88.8878 75.2277 88.5856C75.5301 88.2825 75.7007 87.8712 75.6999 87.4435V79.0803C75.699 78.1892 74.9765 77.4679 74.0859 77.4679ZM72.4711 85.8311H67.3319V80.6962H72.4675L72.4711 85.8311ZM87.6899 77.4679H79.3228C78.8939 77.4679 78.4833 77.6376 78.1801 77.9407C77.8777 78.2438 77.7079 78.6543 77.7079 79.0829V87.4461C77.7079 87.8738 77.8777 88.2851 78.1801 88.5882C78.4833 88.8904 78.8939 89.061 79.3228 89.061H87.6899C88.1179 89.061 88.5294 88.8904 88.8317 88.5882C89.1349 88.2851 89.3047 87.8738 89.3039 87.4461V79.0829C89.3047 78.6534 89.1332 78.2412 88.8291 77.9381C88.5242 77.635 88.1118 77.4653 87.6821 77.4679L87.6899 77.4679ZM80.9411 80.6969H86.0749V85.83L80.9367 85.8291L80.9411 80.6969ZM101.296 77.4679H92.9292C92.5004 77.4679 92.0897 77.6376 91.7874 77.9407C91.4842 78.2438 91.3144 78.6543 91.3144 79.0829V87.4461C91.3144 87.8738 91.4842 88.2851 91.7874 88.5882C92.0898 88.8904 92.5004 89.061 92.9292 89.061H101.296C102.189 89.061 102.912 88.338 102.912 87.446V79.0828C102.912 78.6533 102.741 78.242 102.437 77.9389C102.133 77.6359 101.722 77.4662 101.292 77.4679L101.296 77.4679ZM99.6815 85.8311H94.5442V80.768L94.5927 80.6962H99.6782L99.6815 85.8311ZM74.0858 90.8042H65.7187C65.2898 90.8042 64.8792 90.9739 64.576 91.2761C64.2736 91.5792 64.103 91.9897 64.1038 92.4183V100.781C64.1056 101.672 64.8272 102.392 65.7187 102.392H74.0858C74.5138 102.392 74.9244 102.222 75.2276 101.919C75.53 101.616 75.7006 101.206 75.6998 100.777V92.414C75.6989 91.5238 74.9755 90.8034 74.0858 90.8042ZM72.471 99.1674H67.3319V94.0316H72.4674L72.471 99.1674ZM87.6898 90.8042H79.3227C78.8938 90.8042 78.4832 90.9739 78.1808 91.2761C77.8776 91.5792 77.7078 91.9897 77.7078 92.4183V100.781C77.7078 101.209 77.8776 101.621 78.18 101.923C78.4832 102.226 78.8939 102.396 79.3227 102.396H87.6898C88.1178 102.396 88.5293 102.226 88.8316 101.923C89.1348 101.621 89.3046 101.209 89.3038 100.781V92.4183C89.3046 91.9888 89.1331 91.5766 88.829 91.2735C88.5241 90.9705 88.1117 90.8016 87.682 90.8042L87.6898 90.8042ZM86.075 99.1674H80.9367V94.4031C81.1161 94.2802 81.2945 94.1572 81.4739 94.0317H86.0707L86.075 99.1674ZM101.296 90.8042H92.9293C92.5014 90.8042 92.0898 90.9739 91.7875 91.2761C91.4843 91.5792 91.3145 91.9897 91.3145 92.4183V100.781C91.3145 101.209 91.4843 101.621 91.7875 101.923C92.0899 102.226 92.5005 102.396 92.9293 102.396H101.296C102.189 102.396 102.912 101.673 102.912 100.781V92.4183C102.912 91.9888 102.742 91.5774 102.437 91.2753C102.133 90.9722 101.722 90.8025 101.292 90.8042L101.296 90.8042ZM99.6816 99.1674H94.5443V94.0316H99.6781L99.6816 99.1674Z" fill="white"/>
</svg>
