<svg width="110" height="110" viewBox="0 0 110 110" fill="none" xmlns="http://www.w3.org/2000/svg">
<path d="M39.1821 33.6391V30.0981C31.3722 30.0981 25.0183 36.452 25.0183 44.2619H28.5593C28.5593 38.4036 33.3238 33.6391 39.1821 33.6391Z" fill="black"/>
<path d="M104.69 0H62.1982C59.2698 0 56.8868 2.38296 56.8868 5.31142V9.7202C54.0454 8.69901 50.9012 8.94326 48.2526 10.407C46.3738 7.28899 42.9673 5.31132 39.0935 5.31132C35.3668 5.31132 31.9847 7.28887 30.11 10.4085C26.9247 8.64114 23.0107 8.62219 19.7844 10.4843L19.6287 10.5744C16.4032 12.4366 14.4643 15.8399 14.3986 19.4782C10.7605 19.5438 7.35776 21.4826 5.49482 24.7083L5.40472 24.864C3.54256 28.0895 3.56707 32.006 5.32884 35.1896C2.20916 37.0668 0.231697 40.4464 0.231697 44.1717V44.3503C0.231697 48.077 2.20925 51.4591 5.32884 53.3338C3.56549 56.5174 3.54256 60.4314 5.40472 63.6594L5.49482 63.8151C7.35934 67.0406 10.7619 68.9794 14.3986 69.0452C14.4183 70.1288 14.6231 71.1839 14.9582 72.1909L0 96.6012L16.6479 92.4391L20.7999 109.043L36.4527 82.848C37.3514 83.0867 38.2951 83.2124 39.2705 83.2124C40.1803 83.2124 41.0694 83.0898 41.923 82.867L57.5649 109.046L61.7169 92.4419L78.3648 96.604L63.4058 72.1937C63.7425 71.186 63.9457 70.1309 63.9654 69.048C67.6051 68.9824 71.0087 67.0435 72.8692 63.8179L72.9593 63.6622C74.8238 60.4367 74.7985 56.5202 73.0351 53.3366C75.6593 51.7574 77.4581 49.1 77.9696 46.0349H104.689C107.617 46.0349 110 43.652 110 40.7235V5.31202C110 2.38355 107.617 0.000596845 104.689 0.000596845L104.69 0ZM85.2144 7.08189V10.6228H81.6734V7.08189H78.1325V10.6228H74.5916V3.54095H92.2963V10.6228H88.7553V7.08189H85.2144ZM56.8868 32.5423C53.0788 26.808 46.5683 23.0158 39.1821 23.0158C27.467 23.0158 17.9364 32.5464 17.9364 44.2614C17.9364 55.9765 27.467 65.5071 39.1821 65.5071C50.4174 65.5071 59.6184 56.7361 60.3549 45.6833C60.9319 45.8975 61.5484 46.0318 62.1981 46.0318H63.8785C62.9648 58.8733 52.2518 69.048 39.1829 69.048C25.5147 69.048 14.3963 57.9296 14.3963 44.2614C14.3963 30.5931 25.5147 19.4747 39.1829 19.4747C45.8364 19.4747 52.2417 22.2047 56.8876 26.9518L56.8868 32.5423ZM56.8868 44.2614C56.8868 54.0235 48.9442 61.9662 39.1821 61.9662C29.42 61.9662 21.4773 54.0235 21.4773 44.2614C21.4773 34.4993 29.42 26.5567 39.1821 26.5567C48.9442 26.5567 56.8868 34.4993 56.8868 44.2614ZM22.1552 99.8705L19.2253 88.1467L7.54564 91.0665L16.9577 75.7077C17.7085 76.5803 18.5954 77.3509 19.6308 77.9492L19.7865 78.0393C23.012 79.8999 26.9301 79.8769 30.1137 78.1152C30.9017 79.4233 31.9711 80.5155 33.2192 81.3605L22.1552 99.8705ZM70.8179 91.0679L59.1383 88.1481L56.2084 99.8719L45.1531 81.3736C46.3925 80.5271 47.4618 79.4316 48.253 78.1155C51.4366 79.8773 55.3507 79.9002 58.5786 78.0396L58.7343 77.9495C59.7697 77.3512 60.6573 76.5806 61.4074 75.708L70.8179 91.0679ZM69.8133 50.9419L67.2887 51.7915L69.0505 53.7904C71.0439 56.051 71.3807 59.3058 69.8915 61.8873L69.8014 62.043C68.3107 64.6228 65.3365 65.9625 62.3686 65.3626L59.7572 64.837L60.2828 67.4483C60.878 70.4035 59.5446 73.3897 56.9633 74.8811L56.8075 74.9712C54.2277 76.4603 50.9705 76.122 48.7107 74.1302L46.7118 72.3685L45.8622 74.8931C44.8995 77.7519 42.2508 79.6709 39.0925 79.6709C36.1096 79.6709 33.461 77.7518 32.499 74.8939L31.6494 72.3693L29.6505 74.1311C27.3916 76.1244 24.1375 76.4642 21.5536 74.972L21.3979 74.8819C18.8165 73.3912 17.4831 70.4043 18.0783 67.4492L18.604 64.8378L15.9926 65.3634C13.0325 65.9617 10.0513 64.6252 8.55982 62.0438L8.46971 61.8881C6.97903 59.3066 7.31733 56.0526 9.31068 53.7913L11.0724 51.7924L8.54786 50.9427C5.69062 49.98 3.77162 47.3313 3.77162 44.3501V44.1714C3.77162 41.1902 5.6907 38.5415 8.54867 37.5796L11.0733 36.7299L9.31149 34.731C7.31969 32.4705 6.98134 29.2157 8.47052 26.6342L8.56063 26.4785C10.0513 23.8971 13.0453 22.5606 15.9934 23.1589L18.6048 23.6845L18.0792 21.0731C17.4824 18.1163 18.8174 15.1294 21.3987 13.6404L21.5544 13.5503C24.1375 12.058 27.3899 12.3979 29.6513 14.3912L31.6502 16.153L32.4998 13.6284C33.4625 10.7712 36.1112 8.8522 39.2695 8.8522C42.2524 8.8522 44.901 10.7713 45.863 13.6292L46.7126 16.1538L48.7115 14.3921C50.9759 12.4019 54.2299 12.0619 56.8084 13.5511L56.8858 13.5969V22.1996C51.8898 18.2002 45.6418 15.9342 39.1811 15.9342C23.5623 15.9342 10.8535 28.6429 10.8535 44.2617C10.8535 59.8806 23.5623 72.5893 39.1811 72.5893C54.2032 72.5893 66.497 60.8259 67.4176 46.0322H74.3597C73.7898 48.2895 72.1165 50.1682 69.8125 50.9422L69.8133 50.9419ZM106.459 40.7205C106.459 41.6974 105.666 42.491 104.689 42.491H62.1973C61.2204 42.491 60.4268 41.6974 60.4268 40.7205V5.31102C60.4268 4.3341 61.2204 3.54054 62.1973 3.54054H71.0496V14.1634H95.8363V3.54054H104.689C105.666 3.54054 106.459 4.3341 106.459 5.31102V40.7205Z" fill="black"/>
<path d="M92.2964 35.4097H95.8373V38.9506H92.2964V35.4097Z" fill="black"/>
<path d="M99.3782 35.4097H102.919V38.9506H99.3782V35.4097Z" fill="black"/>
<path d="M85.2144 35.4097H88.7553V38.9506H85.2144V35.4097Z" fill="black"/>
<path d="M85.2144 28.3276H102.919V31.8686H85.2144V28.3276Z" fill="black"/>
<path d="M35.6412 52.3817L31.5818 48.3216L29.0779 50.8255L35.6414 57.3882L52.8277 40.2027L50.3238 37.6987L35.6412 52.3817Z" fill="black"/>
</svg>
