<svg width="150" height="150" viewBox="0 0 150 150" fill="none" xmlns="http://www.w3.org/2000/svg">
<g id="qrcode 1">
<path id="Vector" d="M8.69556 8.69531H10.8695H13.0434H15.2173H17.3912H19.5651H21.739H23.9129V10.8692V13.0431V15.2171V17.391V19.5649V21.7388V23.9127H21.739H19.5651H17.3912H15.2173H13.0434H10.8695H8.69556V21.7388V19.5649V17.391V15.2171V13.0431V10.8692V8.69531ZM10.8695 10.8692V13.0431V15.2171V17.391V19.5649V21.7388H13.0434H15.2173H17.3912H19.5651H21.739V19.5649V17.391V15.2171V13.0431V10.8692H19.5651H17.3912H15.2173H13.0434H10.8695Z" fill="black"/>
<path id="Vector_2" d="M8.69556 26.0869H10.8695V28.2608V30.4347H13.0434V32.6087V34.7826H10.8695V32.6087H8.69556V30.4347V28.2608V26.0869Z" fill="black"/>
<path id="Vector_3" d="M8.69556 43.4785H10.8695H13.0434V45.6524V47.8263H10.8695H8.69556V45.6524V43.4785Z" fill="black"/>
<path id="Vector_4" d="M8.69556 52.1738H10.8695H13.0434V54.3477V56.5217V58.6956H15.2173V60.8695H13.0434H10.8695V58.6956H8.69556V56.5217V54.3477V52.1738Z" fill="black"/>
<path id="Vector_5" d="M8.69556 60.8693H10.8695V63.0432V65.2171H13.0434H15.2173V67.391H17.3912V69.565H15.2173V71.7389H17.3912V69.565H19.5651V67.391V65.2171H17.3912V63.0432H15.2173V60.8693H17.3912V58.6954H19.5651V56.5215H21.739H23.9129V58.6954H21.739V60.8693H19.5651V63.0432H21.739V65.2171H23.9129H26.0869H28.2608V67.391H30.4347H32.6086V69.565H30.4347H28.2608V71.7389H30.4347V73.9128H28.2608V76.0867H30.4347V73.9128H32.6086V71.7389V69.565H34.7825V67.391V65.2171V63.0432H36.9564H39.1303V65.2171V67.391H36.9564V69.565V71.7389V73.9128H34.7825V76.0867H32.6086V78.2606H30.4347H28.2608V80.4345H30.4347V82.6084H28.2608H26.0869H23.9129V80.4345H21.739H19.5651H17.3912V82.6084V84.7824H15.2173V82.6084H13.0434H10.8695V80.4345H8.69556V78.2606V76.0867H10.8695V78.2606H13.0434V76.0867V73.9128H10.8695H8.69556V71.7389H10.8695V69.565V67.391H8.69556V65.2171V63.0432V60.8693ZM15.2173 73.9128V76.0867H17.3912V73.9128H15.2173ZM19.5651 71.7389V73.9128V76.0867V78.2606H21.739H23.9129H26.0869V76.0867V73.9128V71.7389H23.9129H21.739H19.5651ZM21.739 67.391V69.565H23.9129H26.0869V67.391H23.9129H21.739Z" fill="black"/>
<path id="Vector_6" d="M8.69556 84.7822H10.8695V86.9561H8.69556V84.7822Z" fill="black"/>
<path id="Vector_7" d="M8.69556 91.3039H10.8695V93.4778H13.0434H15.2173V91.3039H13.0434H10.8695V89.13H13.0434V86.9561H15.2173H17.3912V89.13V91.3039V93.4778H19.5651V95.6517H21.739H23.9129V97.8256H21.739H19.5651V99.9995H21.739H23.9129V102.173H21.739H19.5651H17.3912H15.2173V99.9995H17.3912V97.8256V95.6517H15.2173H13.0434V97.8256H10.8695V99.9995V102.173H8.69556V99.9995V97.8256V95.6517V93.4778V91.3039Z" fill="black"/>
<path id="Vector_8" d="M8.69556 104.348H10.8695H13.0434V106.522H10.8695H8.69556V104.348Z" fill="black"/>
<path id="Vector_9" d="M8.69556 110.869H10.8695V108.695H13.0434V106.522H15.2173V104.348H17.3912H19.5651V106.522H17.3912V108.695H19.5651V106.522H21.739V108.695H23.9129V110.869H21.739H19.5651V113.043H21.739H23.9129V115.217H21.739V117.391H23.9129H26.0869V115.217V113.043H28.2608H30.4347V115.217H28.2608V117.391H30.4347V119.565H28.2608V121.739H26.0869V119.565H23.9129H21.739H19.5651V121.739H17.3912V119.565H15.2173V121.739H17.3912V123.913H15.2173H13.0434H10.8695H8.69556V121.739V119.565H10.8695H13.0434V117.391H10.8695H8.69556V115.217H10.8695V113.043H8.69556V110.869ZM13.0434 110.869V113.043V115.217H15.2173V117.391H17.3912H19.5651V115.217H17.3912V113.043H15.2173V110.869H13.0434Z" fill="black"/>
<path id="Vector_10" d="M8.69556 126.087H10.8695H13.0434H15.2173H17.3912H19.5651H21.739H23.9129V128.261V130.435V132.609V134.783V136.956V139.13V141.304H21.739H19.5651H17.3912H15.2173H13.0434H10.8695H8.69556V139.13V136.956V134.783V132.609V130.435V128.261V126.087ZM10.8695 128.261V130.435V132.609V134.783V136.956V139.13H13.0434H15.2173H17.3912H19.5651H21.739V136.956V134.783V132.609V130.435V128.261H19.5651H17.3912H15.2173H13.0434H10.8695Z" fill="black"/>
<path id="Vector_11" d="M10.8696 39.1309H13.0435H15.2175H17.3914V41.3048H19.5653V43.4787H21.7392H23.9131V41.3048H26.087V43.4787H28.2609H30.4348V45.6526V47.8265H32.6088V50.0004H30.4348H28.2609V52.1743H26.087V54.3483H23.9131H21.7392H19.5653V52.1743H21.7392H23.9131V50.0004H26.087V47.8265H28.2609V45.6526H26.087V47.8265H23.9131V45.6526H21.7392H19.5653V47.8265V50.0004V52.1743H17.3914V54.3483H15.2175V52.1743H13.0435V50.0004V47.8265H15.2175V50.0004H17.3914V47.8265V45.6526H15.2175V43.4787V41.3048H13.0435H10.8696V39.1309Z" fill="black"/>
<path id="Vector_12" d="M13.0435 13.0439H15.2174H17.3913H19.5652V15.2179V17.3918V19.5657H17.3913H15.2174H13.0435V17.3918V15.2179V13.0439Z" fill="black"/>
<path id="Vector_13" d="M13.0435 26.0869H15.2174H17.3913H19.5652H21.7391H23.913V28.2608H21.7391V30.4347H23.913H26.0869V28.2608H28.2608V26.0869H30.4348H32.6087V28.2608H34.7826H36.9565V30.4347H34.7826V32.6087H32.6087V30.4347H30.4348V32.6087H32.6087V34.7826V36.9565H30.4348V34.7826H28.2608V32.6087H26.0869H23.913H21.7391V34.7826H23.913V36.9565H21.7391H19.5652V34.7826V32.6087V30.4347H17.3913V28.2608H15.2174H13.0435V26.0869Z" fill="black"/>
<path id="Vector_14" d="M13.0435 34.7824H15.2174V32.6085V30.4346H17.3913V32.6085V34.7824V36.9563H15.2174H13.0435V34.7824Z" fill="black"/>
<path id="Vector_15" d="M13.0435 97.8262H15.2174V100H13.0435V97.8262Z" fill="black"/>
<path id="Vector_16" d="M13.0435 102.174H15.2174V104.348H13.0435V102.174Z" fill="black"/>
<path id="Vector_17" d="M13.0435 130.435H15.2174H17.3913H19.5652V132.608V134.782V136.956H17.3913H15.2174H13.0435V134.782V132.608V130.435Z" fill="black"/>
<path id="Vector_18" d="M17.3914 36.9561H19.5653V39.13H17.3914V36.9561Z" fill="black"/>
<path id="Vector_19" d="M17.3914 54.3477H19.5653V56.5216H17.3914V54.3477Z" fill="black"/>
<path id="Vector_20" d="M17.3914 84.7823H19.5653V82.6084H21.7392H23.9131V84.7823H21.7392V86.9562H23.9131V89.1301H21.7392V91.3041H23.9131H26.087V93.478H23.9131H21.7392H19.5653V91.3041V89.1301V86.9562H17.3914V84.7823Z" fill="black"/>
<path id="Vector_21" d="M21.739 39.1309H23.9129V41.3048H21.739V39.1309Z" fill="black"/>
<path id="Vector_22" d="M21.739 47.8262H23.9129V50.0001H21.739V47.8262Z" fill="black"/>
<path id="Vector_23" d="M21.739 60.8691H23.9129V63.0431H21.739V60.8691Z" fill="black"/>
<path id="Vector_24" d="M21.739 73.9131H23.9129V76.087H21.739V73.9131Z" fill="black"/>
<path id="Vector_25" d="M21.739 104.348H23.9129V106.522H21.739V104.348Z" fill="black"/>
<path id="Vector_26" d="M21.739 121.739H23.9129V123.913H21.739V121.739Z" fill="black"/>
<path id="Vector_27" d="M23.9131 36.9561H26.087V39.13H23.9131V36.9561Z" fill="black"/>
<path id="Vector_28" d="M23.9131 102.174H26.087V100V97.8263V95.6523H28.2609V97.8263V100V102.174H30.4348H32.6087V104.348H30.4348H28.2609H26.087H23.9131V102.174Z" fill="black"/>
<path id="Vector_29" d="M26.0869 13.0439H28.2608V15.2179V17.3918H30.4347V19.5657V21.7396H28.2608V23.9135V26.0874H26.0869V23.9135V21.7396V19.5657V17.3918V15.2179V13.0439Z" fill="black"/>
<path id="Vector_30" d="M26.0869 39.1309H28.2608V41.3048H26.0869V39.1309Z" fill="black"/>
<path id="Vector_31" d="M26.0869 54.3477H28.2608V56.5216H26.0869V54.3477Z" fill="black"/>
<path id="Vector_32" d="M26.0869 58.6953H28.2608V60.8692H26.0869V58.6953Z" fill="black"/>
<path id="Vector_33" d="M26.0869 106.521H28.2608V108.695H26.0869V106.521Z" fill="black"/>
<path id="Vector_34" d="M26.0869 123.913H28.2608V126.087H26.0869V123.913Z" fill="black"/>
<path id="Vector_35" d="M26.0869 128.261H28.2608V126.087H30.4347H32.6087V128.261H30.4347V130.435H32.6087V128.261H34.7826H36.9565V126.087V123.913V121.739H39.1304V123.913V126.087V128.261V130.435V132.609H41.3043H43.4782H45.6521V134.783H43.4782H41.3043H39.1304V136.957H36.9565V134.783V132.609H34.7826V134.783V136.957H36.9565V139.131H34.7826H32.6087H30.4347H28.2608V136.957H30.4347V134.783H32.6087V132.609H30.4347V134.783H28.2608V136.957H26.0869V134.783V132.609V130.435V128.261Z" fill="black"/>
<path id="Vector_36" d="M26.0869 139.131H28.2608V141.305H26.0869V139.131Z" fill="black"/>
<path id="Vector_37" d="M28.261 8.69531H30.4349V10.8692V13.0431H28.261V10.8692V8.69531Z" fill="black"/>
<path id="Vector_38" d="M28.261 36.9561H30.4349V39.13H28.261V36.9561Z" fill="black"/>
<path id="Vector_39" d="M28.261 56.5215H30.4349V58.6954H28.261V56.5215Z" fill="black"/>
<path id="Vector_40" d="M28.261 60.8691H30.4349V63.0431V65.217H28.261V63.0431V60.8691Z" fill="black"/>
<path id="Vector_41" d="M28.261 84.7822H30.4349V86.9561H32.6088H34.7827V84.7822V82.6083H32.6088V80.4344H34.7827H36.9566V78.2604H39.1306V76.0865H36.9566V73.9126H39.1306V71.7387H41.3045H43.4784H45.6523V69.5648H47.8262V67.3909H50.0001V65.217V63.0431H47.8262H45.6523V65.217H43.4784V63.0431H41.3045V60.8691H43.4784H45.6523H47.8262H50.0001H52.174V63.0431H54.3479V65.217H52.174V67.3909V69.5648H50.0001V71.7387H52.174H54.3479V73.9126H52.174H50.0001V76.0865H52.174V78.2604V80.4344H50.0001V78.2604H47.8262H45.6523V76.0865V73.9126H43.4784H41.3045V76.0865H43.4784V78.2604H45.6523V80.4344V82.6083H47.8262V84.7822H45.6523V86.9561H43.4784V89.13V91.3039H41.3045V89.13V86.9561V84.7822H39.1306V86.9561H36.9566V89.13V91.3039H39.1306H41.3045V93.4778V95.6517H39.1306H36.9566H34.7827V93.4778V91.3039V89.13H32.6088V91.3039V93.4778H30.4349H28.261V91.3039H30.4349V89.13H28.261V86.9561V84.7822Z" fill="black"/>
<path id="Vector_42" d="M28.261 121.739H30.4349H32.6088V123.913H30.4349H28.261V121.739Z" fill="black"/>
<path id="Vector_43" d="M30.4348 13.0439H32.6087V15.2179H30.4348V13.0439Z" fill="black"/>
<path id="Vector_44" d="M30.4348 21.7393H32.6087V23.9132H30.4348V21.7393Z" fill="black"/>
<path id="Vector_45" d="M30.4348 39.1309H32.6087V41.3048H34.7826V43.4787H32.6087H30.4348V41.3048V39.1309Z" fill="black"/>
<path id="Vector_46" d="M30.4348 52.1739H32.6087V50H34.7826V52.1739H36.9566V54.3478H34.7826V56.5217V58.6957H32.6087V56.5217H30.4348V54.3478V52.1739Z" fill="black"/>
<path id="Vector_47" d="M30.4348 82.6084H32.6087V84.7823H30.4348V82.6084Z" fill="black"/>
<path id="Vector_48" d="M30.4348 95.6523H32.6087H34.7826V97.8263H36.9566H39.1305V100V102.174V104.348H41.3044H43.4783V102.174H45.6522H47.8261V104.348H45.6522V106.522H43.4783V108.696H41.3044V106.522H39.1305V108.696H36.9566V106.522V104.348H34.7826V102.174V100H32.6087H30.4348V97.8263V95.6523Z" fill="black"/>
<path id="Vector_49" d="M30.4348 106.522H32.6087V104.348H34.7826V106.522V108.695V110.869V113.043H32.6087H30.4348V110.869H32.6087V108.695H30.4348V106.522Z" fill="black"/>
<path id="Vector_50" d="M30.4348 115.218H32.6087H34.7826V117.392H32.6087H30.4348V115.218Z" fill="black"/>
<path id="Vector_51" d="M32.6086 8.69531H34.7826V10.8692H32.6086V8.69531Z" fill="black"/>
<path id="Vector_52" d="M32.6086 15.2178H34.7826V17.3917H32.6086V15.2178Z" fill="black"/>
<path id="Vector_53" d="M32.6086 23.9132H34.7826V21.7393H36.9565V23.9132H39.1304V26.0871H41.3043V23.9132H43.4782V26.0871H45.6521V23.9132H47.826V21.7393H49.9999V23.9132V26.0871H47.826V28.261V30.4349H45.6521V32.6088H43.4782H41.3043H39.1304V30.4349H41.3043V28.261H39.1304H36.9565V26.0871H34.7826H32.6086V23.9132Z" fill="black"/>
<path id="Vector_54" d="M32.6086 36.9562H34.7826V34.7823V32.6084H36.9565V34.7823H39.1304V36.9562H41.3043V39.1301H39.1304V41.3041V43.478H36.9565V41.3041V39.1301H34.7826H32.6086V36.9562Z" fill="black"/>
<path id="Vector_55" d="M32.6086 45.6523H34.7826V47.8263H32.6086V45.6523Z" fill="black"/>
<path id="Vector_56" d="M32.6086 60.8691H34.7826V63.0431H32.6086V60.8691Z" fill="black"/>
<path id="Vector_57" d="M32.6086 123.913H34.7826V126.087H32.6086V123.913Z" fill="black"/>
<path id="Vector_58" d="M34.7827 10.8692H36.9566V8.69531H39.1305V10.8692H41.3045H43.4784H45.6523V13.0431H47.8262V15.2171H50.0001H52.174H54.3479V13.0431H56.5218H58.6958V15.2171H56.5218V17.391H58.6958V19.5649H60.8697H63.0436V21.7388V23.9127H60.8697V21.7388H58.6958V23.9127V26.0866H60.8697V28.2605H58.6958V30.4344H60.8697V32.6084H58.6958V34.7823H56.5218V36.9562H54.3479V39.1301H52.174H50.0001V41.304H47.8262V39.1301V36.9562H50.0001V34.7823H52.174V32.6084H50.0001H47.8262V30.4344H50.0001H52.174V28.2605H50.0001V26.0866H52.174V23.9127V21.7388H50.0001V19.5649H52.174H54.3479V21.7388V23.9127H56.5218V21.7388V19.5649H54.3479V17.391H52.174H50.0001H47.8262V19.5649H45.6523V17.391H43.4784V19.5649H45.6523V21.7388V23.9127H43.4784V21.7388H41.3045V23.9127H39.1305V21.7388V19.5649H36.9566H34.7827V17.391H36.9566V15.2171H34.7827V13.0431V10.8692ZM39.1305 13.0431V15.2171H41.3045V13.0431H39.1305ZM54.3479 26.0866V28.2605V30.4344V32.6084H56.5218V30.4344V28.2605V26.0866H54.3479Z" fill="black"/>
<path id="Vector_59" d="M34.7827 47.8262H36.9566V50.0001H34.7827V47.8262Z" fill="black"/>
<path id="Vector_60" d="M34.7827 58.6953H36.9566V60.8692H34.7827V58.6953Z" fill="black"/>
<path id="Vector_61" d="M34.7827 76.0869H36.9566V78.2608H34.7827V76.0869Z" fill="black"/>
<path id="Vector_62" d="M34.7827 119.565H36.9566V121.739H34.7827V119.565Z" fill="black"/>
<path id="Vector_63" d="M36.9565 45.6525H39.1305H41.3044H43.4783V47.8264H45.6522H47.8261H50H52.1739V45.6525H50V43.4786H52.1739H54.3478V41.3047H56.5218H58.6957V43.4786H60.8696H63.0435V45.6525H65.2174V43.4786H67.3913V45.6525V47.8264H69.5652V50.0003H71.7392V47.8264H73.9131V45.6525H76.087H78.2609V43.4786V41.3047H80.4348V43.4786V45.6525V47.8264H78.2609H76.087V50.0003H73.9131V52.1743H76.087V50.0003H78.2609V52.1743V54.3482V56.5221H80.4348V58.696H78.2609H76.087V60.8699V63.0438H78.2609V65.2177V67.3916V69.5656H80.4348V67.3916H82.6087V69.5656H84.7826H86.9565V67.3916H84.7826V65.2177V63.0438H86.9565V60.8699H89.1305V63.0438V65.2177V67.3916H91.3044V65.2177H93.4783V67.3916H95.6522H97.8261V69.5656H95.6522V71.7395H93.4783V73.9134H91.3044V76.0873V78.2612V80.4351V82.609H89.1305V84.7829H91.3044V86.9569H89.1305V89.1308H91.3044V91.3047H93.4783V93.4786H91.3044H89.1305V95.6525H86.9565V97.8264H84.7826V100H82.6087V97.8264H80.4348V100H78.2609V97.8264H76.087H73.9131V95.6525H76.087H78.2609H80.4348V93.4786H82.6087V95.6525H84.7826V93.4786V91.3047V89.1308H82.6087V86.9569V84.7829H84.7826V86.9569H86.9565V84.7829V82.609V80.4351H89.1305V78.2612H86.9565H84.7826V76.0873H86.9565H89.1305V73.9134H86.9565H84.7826V76.0873H82.6087H80.4348V78.2612H82.6087V80.4351H80.4348H78.2609H76.087V82.609H73.9131H71.7392V80.4351H69.5652V78.2612H67.3913H65.2174H63.0435H60.8696V76.0873H58.6957H56.5218H54.3478V73.9134H56.5218V71.7395V69.5656H58.6957V71.7395V73.9134H60.8696H63.0435V76.0873H65.2174H67.3913V73.9134V71.7395V69.5656H65.2174V67.3916H63.0435V65.2177V63.0438H65.2174V60.8699H67.3913H69.5652V58.696H71.7392V60.8699V63.0438V65.2177V67.3916H73.9131V69.5656H76.087V67.3916V65.2177H73.9131V63.0438V60.8699V58.696V56.5221H71.7392V54.3482V52.1743H69.5652H67.3913V54.3482H65.2174H63.0435V56.5221V58.696V60.8699V63.0438H60.8696V60.8699H58.6957V58.696H56.5218V56.5221H54.3478V54.3482H52.1739V52.1743H54.3478H56.5218V54.3482H58.6957H60.8696V52.1743V50.0003H58.6957V52.1743H56.5218V50.0003V47.8264H58.6957V45.6525H56.5218H54.3478V47.8264V50.0003H52.1739V52.1743H50V50.0003H47.8261V52.1743H50V54.3482H47.8261H45.6522V52.1743H43.4783V50.0003H41.3044H39.1305V47.8264H36.9565V45.6525ZM63.0435 50.0003V52.1743H65.2174V50.0003H63.0435ZM67.3913 63.0438V65.2177V67.3916H69.5652V65.2177V63.0438H67.3913ZM71.7392 71.7395V73.9134V76.0873V78.2612H73.9131H76.087H78.2609V76.0873V73.9134V71.7395H76.087H73.9131H71.7392ZM89.1305 69.5656V71.7395H91.3044V69.5656H89.1305Z" fill="black"/>
<path id="Vector_64" d="M36.9565 50H39.1305V52.1739H36.9565V50Z" fill="black"/>
<path id="Vector_65" d="M36.9565 110.869H39.1305V113.043H36.9565V110.869Z" fill="black"/>
<path id="Vector_66" d="M36.9565 115.218H39.1305V117.392H36.9565V115.218Z" fill="black"/>
<path id="Vector_67" d="M36.9565 139.131H39.1305V141.305H36.9565V139.131Z" fill="black"/>
<path id="Vector_68" d="M39.1304 54.3477H41.3043V52.1738H43.4782V54.3477H45.6521V56.5217H43.4782H41.3043V58.6956H39.1304V56.5217V54.3477Z" fill="black"/>
<path id="Vector_69" d="M39.1304 67.3917H41.3043V65.2178H43.4782V67.3917V69.5656H41.3043H39.1304V67.3917Z" fill="black"/>
<path id="Vector_70" d="M39.1304 113.044H41.3043V115.218H39.1304V113.044Z" fill="black"/>
<path id="Vector_71" d="M39.1304 119.565H41.3043V121.739H39.1304V119.565Z" fill="black"/>
<path id="Vector_72" d="M39.1304 136.956H41.3043V139.13H39.1304V136.956Z" fill="black"/>
<path id="Vector_73" d="M41.3044 34.7822H43.4784H45.6523H47.8262V36.9561H45.6523V39.1301V41.304H43.4784V39.1301V36.9561H41.3044V34.7822Z" fill="black"/>
<path id="Vector_74" d="M41.3044 41.3047H43.4784V43.4786H41.3044V41.3047Z" fill="black"/>
<path id="Vector_75" d="M41.3044 100H43.4784V102.174H41.3044V100Z" fill="black"/>
<path id="Vector_76" d="M41.3044 110.869H43.4784V113.043H41.3044V110.869Z" fill="black"/>
<path id="Vector_77" d="M41.3044 115.218H43.4784H45.6523H47.8262H50.0001H52.174V113.044H50.0001V110.87H52.174V108.696H50.0001H47.8262V106.522H50.0001V104.348H52.174V106.522H54.3479H56.5218H58.6957V104.348H60.8697V102.174H58.6957H56.5218H54.3479V100V97.8263H56.5218V100H58.6957H60.8697V97.8263H58.6957H56.5218V95.6523H58.6957H60.8697H63.0436V97.8263H65.2175V100H63.0436V102.174V104.348H65.2175H67.3914V106.522H65.2175H63.0436H60.8697V108.696H58.6957H56.5218V110.87V113.044V115.218H58.6957V117.391H56.5218V119.565H54.3479H52.174H50.0001V117.391H47.8262V119.565H45.6523V121.739H47.8262V123.913H45.6523H43.4784V126.087H41.3044V123.913V121.739H43.4784V119.565V117.391H41.3044V115.218Z" fill="black"/>
<path id="Vector_78" d="M43.4783 97.8262H45.6522V100H43.4783V97.8262Z" fill="black"/>
<path id="Vector_79" d="M43.4783 108.695H45.6522H47.8261V110.869H45.6522H43.4783V108.695Z" fill="black"/>
<path id="Vector_80" d="M43.4783 136.956H45.6522V134.782H47.8261V136.956H50V139.13H47.8261H45.6522V141.304H43.4783V139.13V136.956Z" fill="black"/>
<path id="Vector_81" d="M45.6521 8.69531H47.826V10.8692H45.6521V8.69531Z" fill="black"/>
<path id="Vector_82" d="M45.6521 41.3047H47.826V43.4786V45.6525H45.6521V43.4786V41.3047Z" fill="black"/>
<path id="Vector_83" d="M45.6521 56.5215H47.826H49.9999H52.1738H54.3478V58.6954H52.1738H49.9999H47.826H45.6521V56.5215Z" fill="black"/>
<path id="Vector_84" d="M45.6521 86.9561H47.826V89.1301H49.9999V86.9561H52.1738H54.3478V84.7822H56.5217V86.9561V89.1301H54.3478H52.1738V91.304H49.9999H47.826V93.4779H49.9999H52.1738V95.6518H54.3478V97.8257H52.1738V99.9996V102.174H49.9999H47.826V99.9996H49.9999V97.8257V95.6518H47.826V97.8257H45.6521V95.6518V93.4779V91.304V89.1301V86.9561Z" fill="black"/>
<path id="Vector_85" d="M45.6521 128.261H47.826V130.435H45.6521V128.261Z" fill="black"/>
<path id="Vector_86" d="M47.8262 10.8691H50.0001V13.0431H47.8262V10.8691Z" fill="black"/>
<path id="Vector_87" d="M47.8262 80.4346H50.0001V82.6085H47.8262V80.4346Z" fill="black"/>
<path id="Vector_88" d="M47.8262 119.565H50.0001V121.739H47.8262V119.565Z" fill="black"/>
<path id="Vector_89" d="M47.8262 123.913H50.0001V126.087H47.8262V123.913Z" fill="black"/>
<path id="Vector_90" d="M47.8262 132.609H50.0001V130.435V128.261V126.087H52.174H54.3479V128.261H56.5218V130.435H54.3479V132.609V134.783H52.174H50.0001H47.8262V132.609Z" fill="black"/>
<path id="Vector_91" d="M50 8.69531H52.1739V10.8692H50V8.69531Z" fill="black"/>
<path id="Vector_92" d="M50 82.6084H52.1739V84.7823H50V82.6084Z" fill="black"/>
<path id="Vector_93" d="M50 139.13H52.1739V136.956H54.3478H56.5217V139.13H54.3478V141.304H52.1739H50V139.13Z" fill="black"/>
<path id="Vector_94" d="M52.1738 10.8691H54.3477V13.0431H52.1738V10.8691Z" fill="black"/>
<path id="Vector_95" d="M52.1738 80.4347H54.3477V78.2607H56.5217V80.4347H58.6956V82.6086H56.5217H54.3477H52.1738V80.4347Z" fill="black"/>
<path id="Vector_96" d="M52.1738 102.174H54.3477V104.348H52.1738V102.174Z" fill="black"/>
<path id="Vector_97" d="M52.1738 121.739H54.3477H56.5217V123.913V126.087H54.3477V123.913H52.1738V121.739Z" fill="black"/>
<path id="Vector_98" d="M54.3479 67.3916H56.5218V69.5655H54.3479V67.3916Z" fill="black"/>
<path id="Vector_99" d="M54.3479 91.3047H56.5218V93.4786V95.6525H54.3479V93.4786V91.3047Z" fill="black"/>
<path id="Vector_100" d="M56.5217 36.9561H58.6956H60.8696V39.13H58.6956H56.5217V36.9561Z" fill="black"/>
<path id="Vector_101" d="M56.5217 60.8691H58.6956V63.0431H60.8696V65.217H58.6956V67.3909H56.5217V65.217V63.0431V60.8691Z" fill="black"/>
<path id="Vector_102" d="M56.5217 89.1309H58.6956H60.8696H63.0435V91.3048H60.8696H58.6956H56.5217V89.1309Z" fill="black"/>
<path id="Vector_103" d="M56.5217 126.087H58.6956V128.261H56.5217V126.087Z" fill="black"/>
<path id="Vector_104" d="M56.5217 130.435H58.6956V128.261H60.8696V126.087V123.913H63.0435V126.087H65.2174V123.913H67.3913V121.74H69.5652H71.7391H73.913V119.566V117.392V115.218H76.0869V117.392V119.566H78.2609V121.74H80.4348V123.913V126.087V128.261H82.6087V130.435H84.7826H86.9565V128.261H89.1304V130.435H91.3043V132.609V134.783H93.4783V136.957H91.3043H89.1304V134.783V132.609H86.9565H84.7826H82.6087H80.4348V134.783H78.2609H76.0869V132.609H73.913H71.7391H69.5652V134.783V136.957H67.3913V139.131V141.305H65.2174H63.0435H60.8696V139.131V136.957H63.0435V139.131H65.2174V136.957H63.0435V134.783H65.2174V132.609H67.3913V130.435V128.261H69.5652V126.087H67.3913V128.261H65.2174H63.0435V130.435H60.8696V132.609H58.6956H56.5217V130.435ZM71.7391 123.913V126.087V128.261V130.435H73.913H76.0869H78.2609V128.261V126.087V123.913H76.0869H73.913H71.7391Z" fill="black"/>
<path id="Vector_105" d="M56.5217 134.782H58.6956V136.956H56.5217V134.782Z" fill="black"/>
<path id="Vector_106" d="M58.6956 8.69531H60.8695V10.8692H58.6956V8.69531Z" fill="black"/>
<path id="Vector_107" d="M58.6956 67.3916H60.8695V69.5655H58.6956V67.3916Z" fill="black"/>
<path id="Vector_108" d="M58.6956 78.2607H60.8695V80.4347H58.6956V78.2607Z" fill="black"/>
<path id="Vector_109" d="M58.6956 113.044H60.8695V115.218H58.6956V113.044Z" fill="black"/>
<path id="Vector_110" d="M58.6956 121.739H60.8695V123.913H58.6956V121.739Z" fill="black"/>
<path id="Vector_111" d="M60.8696 13.0439H63.0435V15.2179H60.8696V13.0439Z" fill="black"/>
<path id="Vector_112" d="M60.8696 28.2607H63.0435V30.4347H60.8696V28.2607Z" fill="black"/>
<path id="Vector_113" d="M60.8696 32.6084H63.0435V34.7823V36.9562H60.8696V34.7823V32.6084Z" fill="black"/>
<path id="Vector_114" d="M60.8696 39.1309H63.0435V41.3048H60.8696V39.1309Z" fill="black"/>
<path id="Vector_115" d="M60.8696 69.5654H63.0435H65.2175V71.7393H63.0435H60.8696V69.5654Z" fill="black"/>
<path id="Vector_116" d="M60.8696 80.4346H63.0435V82.6085H60.8696V80.4346Z" fill="black"/>
<path id="Vector_117" d="M60.8696 84.7822H63.0435V86.9561H60.8696V84.7822Z" fill="black"/>
<path id="Vector_118" d="M60.8696 108.695H63.0435H65.2175V110.869V113.043V115.217V117.391H63.0435V119.565H65.2175V121.739H63.0435H60.8696V119.565V117.391V115.217H63.0435V113.043H60.8696V110.869V108.695Z" fill="black"/>
<path id="Vector_119" d="M63.0435 8.69531H65.2174V10.8692H63.0435V8.69531Z" fill="black"/>
<path id="Vector_120" d="M63.0435 15.2178H65.2174H67.3913V17.3917H65.2174V19.5656H63.0435V17.3917V15.2178Z" fill="black"/>
<path id="Vector_121" d="M63.0435 26.0869H65.2174V28.2608H63.0435V26.0869Z" fill="black"/>
<path id="Vector_122" d="M63.0435 36.9561H65.2174H67.3913V39.13H65.2174H63.0435V36.9561Z" fill="black"/>
<path id="Vector_123" d="M63.0435 93.4785H65.2174V95.6524H63.0435V93.4785Z" fill="black"/>
<path id="Vector_124" d="M65.2173 21.7395H67.3912V23.9134H69.5651V21.7395V19.5656V17.3917H71.739H73.9129V15.2178H76.0869V17.3917H78.2608H80.4347V15.2178H82.6086V17.3917V19.5656H80.4347V21.7395V23.9134H82.6086V26.0873V28.2613H80.4347H78.2608H76.0869H73.9129V30.4352H76.0869V32.6091H78.2608V34.783H76.0869V36.9569H73.9129V34.783H71.739V32.6091H69.5651V30.4352V28.2613V26.0873H67.3912H65.2173V23.9134V21.7395ZM71.739 19.5656V21.7395V23.9134V26.0873H73.9129H76.0869H78.2608V23.9134V21.7395V19.5656H76.0869H73.9129H71.739Z" fill="black"/>
<path id="Vector_125" d="M65.2173 32.6084H67.3912H69.5651V34.7823V36.9562H67.3912V34.7823H65.2173V32.6084Z" fill="black"/>
<path id="Vector_126" d="M65.2173 80.4346H67.3912V82.6085H69.5651V84.7824V86.9563H67.3912H65.2173V84.7824V82.6085V80.4346Z" fill="black"/>
<path id="Vector_127" d="M65.2173 89.1301H67.3912H69.5651H71.739V91.3041H69.5651V93.478H71.739V91.3041H73.9129V89.1301H71.739V86.9562V84.7823H73.9129H76.0869V82.6084H78.2608V84.7823H80.4347V86.9562V89.1301V91.3041V93.478H78.2608H76.0869H73.9129V95.6519H71.739V97.8258V99.9997H69.5651H67.3912V97.8258V95.6519V93.478V91.3041H65.2173V89.1301ZM76.0869 86.9562V89.1301H78.2608V86.9562H76.0869Z" fill="black"/>
<path id="Vector_128" d="M65.2173 100H67.3912V102.174H65.2173V100Z" fill="black"/>
<path id="Vector_129" d="M65.2173 117.392H67.3912V119.566H65.2173V117.392Z" fill="black"/>
<path id="Vector_130" d="M67.3914 8.69531H69.5653V10.8692H67.3914V8.69531Z" fill="black"/>
<path id="Vector_131" d="M67.3914 13.0439H69.5653V15.2179H67.3914V13.0439Z" fill="black"/>
<path id="Vector_132" d="M67.3914 54.3477H69.5653V56.5216V58.6955H67.3914V56.5216V54.3477Z" fill="black"/>
<path id="Vector_133" d="M67.3914 106.521H69.5653V108.695H71.7392H73.9131V110.869H71.7392H69.5653V113.043H71.7392H73.9131V115.217H71.7392V117.391H69.5653H67.3914V115.217V113.043V110.869V108.695V106.521Z" fill="black"/>
<path id="Vector_134" d="M69.5652 102.174H71.7391H73.913V100H76.0869V102.174H78.2608V104.348H76.0869H73.913H71.7391V106.522H69.5652V104.348V102.174Z" fill="black"/>
<path id="Vector_135" d="M71.739 10.8692H73.9129V8.69531H76.0868V10.8692H78.2608V13.0431H76.0868H73.9129H71.739V10.8692Z" fill="black"/>
<path id="Vector_136" d="M71.739 39.1309H73.9129V41.3048H71.739V39.1309Z" fill="black"/>
<path id="Vector_137" d="M71.739 43.4785H73.9129V45.6524H71.739V43.4785Z" fill="black"/>
<path id="Vector_138" d="M71.739 134.782H73.9129V136.956V139.13H71.739V136.956V134.782Z" fill="black"/>
<path id="Vector_139" d="M73.9131 21.7393H76.087V23.9132H73.9131V21.7393Z" fill="black"/>
<path id="Vector_140" d="M73.9131 41.3047H76.087V43.4786H73.9131V41.3047Z" fill="black"/>
<path id="Vector_141" d="M73.9131 73.9131H76.087V76.087H73.9131V73.9131Z" fill="black"/>
<path id="Vector_142" d="M73.9131 106.521H76.087V108.695H73.9131V106.521Z" fill="black"/>
<path id="Vector_143" d="M73.9131 126.087H76.087V128.261H73.9131V126.087Z" fill="black"/>
<path id="Vector_144" d="M76.0869 108.695H78.2608V110.869H76.0869V108.695Z" fill="black"/>
<path id="Vector_145" d="M76.0869 136.956H78.2608H80.4347V134.782H82.6087V136.956V139.13V141.304H80.4347H78.2608V139.13H76.0869V136.956Z" fill="black"/>
<path id="Vector_146" d="M78.261 13.0439H80.4349V15.2179H78.261V13.0439Z" fill="black"/>
<path id="Vector_147" d="M78.261 30.4346H80.4349H82.6088V32.6085H84.7827V34.7824V36.9563H82.6088V34.7824H80.4349V32.6085H78.261V30.4346Z" fill="black"/>
<path id="Vector_148" d="M78.261 36.9561H80.4349V39.13H78.261V36.9561Z" fill="black"/>
<path id="Vector_149" d="M78.261 110.869H80.4349V108.695H82.6088V110.869H84.7827V113.043H86.9566V110.869V108.695V106.522H84.7827H82.6088H80.4349V104.348H82.6088H84.7827H86.9566H89.1306V106.522V108.695V110.869V113.043V115.217V117.391H91.3045V119.565H93.4784V121.739H91.3045V123.913V126.087H89.1306V123.913V121.739H86.9566V123.913H84.7827V121.739H82.6088H80.4349V119.565H82.6088H84.7827H86.9566V117.391H84.7827H82.6088V115.217V113.043H80.4349H78.261V110.869Z" fill="black"/>
<path id="Vector_150" d="M80.4348 47.8262H82.6087V50.0001V52.174V54.3479H84.7826V56.5218V58.6957H86.9566V60.8696H84.7826V63.0436H82.6087H80.4348V60.8696V58.6957H82.6087V56.5218H80.4348V54.3479V52.174V50.0001V47.8262Z" fill="black"/>
<path id="Vector_151" d="M82.6086 8.69531H84.7826V10.8692H82.6086V8.69531Z" fill="black"/>
<path id="Vector_152" d="M82.6086 19.5657H84.7826V17.3918V15.2179V13.0439H86.9565H89.1304V15.2179V17.3918V19.5657H86.9565V21.7396H84.7826V23.9135H82.6086V21.7396V19.5657Z" fill="black"/>
<path id="Vector_153" d="M82.6086 28.2607H84.7826V30.4347H82.6086V28.2607Z" fill="black"/>
<path id="Vector_154" d="M82.6086 43.4786H84.7826H86.9565V41.3047H89.1304V43.4786H91.3043V41.3047H93.4782V43.4786H95.6521V45.6525V47.8264V50.0003H93.4782H91.3043H89.1304V47.8264V45.6525H86.9565H84.7826H82.6086V43.4786ZM91.3043 45.6525V47.8264H93.4782V45.6525H91.3043Z" fill="black"/>
<path id="Vector_155" d="M84.7827 23.9131H86.9566V26.087H84.7827V23.9131Z" fill="black"/>
<path id="Vector_156" d="M84.7827 30.4346H86.9566V32.6085H84.7827V30.4346Z" fill="black"/>
<path id="Vector_157" d="M84.7827 39.1309H86.9566V41.3048H84.7827V39.1309Z" fill="black"/>
<path id="Vector_158" d="M84.7827 47.8262H86.9566V50.0001V52.174H84.7827V50.0001V47.8262Z" fill="black"/>
<path id="Vector_159" d="M84.7827 100H86.9566V97.8263H89.1305H91.3045H93.4784H95.6523V95.6523H97.8262V97.8263H100V100H102.174V102.174V104.348H104.348V106.522H102.174H100H97.8262V104.348H100V102.174H97.8262V100H95.6523V102.174V104.348H93.4784V106.522H91.3045V104.348H89.1305V102.174H86.9566H84.7827V100ZM91.3045 100V102.174H93.4784V100H91.3045Z" fill="black"/>
<path id="Vector_160" d="M84.7827 126.087H86.9566V128.261H84.7827V126.087Z" fill="black"/>
<path id="Vector_161" d="M84.7827 136.956H86.9566V139.13H84.7827V136.956Z" fill="black"/>
<path id="Vector_162" d="M86.9565 8.69531H89.1305H91.3044H93.4783V10.8692H91.3044V13.0431H89.1305V10.8692H86.9565V8.69531Z" fill="black"/>
<path id="Vector_163" d="M86.9565 21.7393H89.1305V23.9132H86.9565V21.7393Z" fill="black"/>
<path id="Vector_164" d="M86.9565 26.0869H89.1305V28.2608V30.4347H86.9565V28.2608V26.0869Z" fill="black"/>
<path id="Vector_165" d="M86.9565 34.7822H89.1305V36.9561H86.9565V34.7822Z" fill="black"/>
<path id="Vector_166" d="M86.9565 54.348H89.1305V56.5219H91.3044V54.348H93.4783V52.1741H95.6522V50.0002H97.8261V47.8263V45.6523H100H102.174V47.8263H100V50.0002V52.1741H97.8261V54.348H95.6522V56.5219V58.6958V60.8697H93.4783V58.6958H91.3044V60.8697H89.1305V58.6958H86.9565V56.5219V54.348Z" fill="black"/>
<path id="Vector_167" d="M89.1304 19.5654H91.3043H93.4782V21.7393V23.9133H91.3043V21.7393H89.1304V19.5654Z" fill="black"/>
<path id="Vector_168" d="M89.1304 30.4346H91.3043V32.6085H89.1304V30.4346Z" fill="black"/>
<path id="Vector_169" d="M89.1304 36.9561H91.3043V39.13H89.1304V36.9561Z" fill="black"/>
<path id="Vector_170" d="M91.3044 15.2178H93.4784H95.6523V17.3917V19.5656H93.4784V17.3917H91.3044V15.2178Z" fill="black"/>
<path id="Vector_171" d="M91.3044 28.2609H93.4784V26.087V23.9131H95.6523V26.087V28.2609V30.4348V32.6087H93.4784V30.4348H91.3044V28.2609Z" fill="black"/>
<path id="Vector_172" d="M91.3044 32.6084H93.4784V34.7823V36.9562H91.3044V34.7823V32.6084Z" fill="black"/>
<path id="Vector_173" d="M91.3044 60.8691H93.4784V63.0431H91.3044V60.8691Z" fill="black"/>
<path id="Vector_174" d="M91.3044 115.217H93.4784V113.043H95.6523V110.869H97.8262V113.043V115.217H100H102.174V117.391V119.565H100V117.391H97.8262H95.6523V119.565H93.4784V117.391H91.3044V115.217Z" fill="black"/>
<path id="Vector_175" d="M91.3044 128.261H93.4784H95.6523V126.087H93.4784V123.913V121.739H95.6523V123.913H97.8262H100V126.087H97.8262V128.261V130.435H95.6523V132.609H93.4784V130.435H91.3044V128.261Z" fill="black"/>
<path id="Vector_176" d="M93.4783 10.8692H95.6522V8.69531H97.8261V10.8692V13.0431V15.2171H95.6522V13.0431H93.4783V10.8692Z" fill="black"/>
<path id="Vector_177" d="M93.4783 39.1301H95.6522V36.9561V34.7822H97.8261V36.9561H100V39.1301H102.174V41.304H104.348V43.4779H106.522V45.6518V47.8257V49.9996V52.1735V54.3474H104.348V52.1735H102.174V49.9996H104.348V47.8257V45.6518H102.174V43.4779H100V41.304H97.8261V43.4779H95.6522V41.304H93.4783V39.1301Z" fill="black"/>
<path id="Vector_178" d="M93.4783 73.9132H95.6522V71.7393H97.8261V73.9132V76.0871V78.261H95.6522V76.0871H93.4783V73.9132Z" fill="black"/>
<path id="Vector_179" d="M93.4783 78.2613H95.6522V80.4352H97.8261V82.6092H100V84.7831H102.174H104.348V82.6092V80.4352H106.522H108.696H110.87V78.2613V76.0874H113.043H115.217H117.391H119.565V73.9135H121.739V71.7396V69.5657H123.913H126.087V67.3918H123.913V65.2179H121.739V63.0439H123.913H126.087H128.261V65.2179H130.435V67.3918H132.609V69.5657H134.783V71.7396V73.9135V76.0874V78.2613H132.609V80.4352H130.435H128.261V82.6092H126.087V80.4352H123.913H121.739H119.565H117.391V78.2613H115.217V80.4352V82.6092V84.7831H113.043V86.957H110.87V84.7831V82.6092H108.696V84.7831H106.522V86.957H108.696V89.1309H106.522H104.348V86.957H102.174V89.1309V91.3048V93.4787H104.348V95.6526H106.522V93.4787V91.3048H108.696H110.87V93.4787H108.696V95.6526H110.87V97.8265H108.696H106.522V100H108.696V102.174V104.348H106.522H104.348V102.174V100V97.8265H102.174H100V95.6526V93.4787V91.3048V89.1309H97.8261V86.957H95.6522V89.1309V91.3048H93.4783V89.1309V86.957V84.7831V82.6092V80.4352V78.2613ZM123.913 71.7396V73.9135V76.0874V78.2613H126.087H128.261H130.435V76.0874V73.9135V71.7396H128.261H126.087H123.913Z" fill="black"/>
<path id="Vector_180" d="M93.4783 106.521H95.6522V108.695H93.4783V106.521Z" fill="black"/>
<path id="Vector_181" d="M93.4783 139.131H95.6522H97.8261V141.305H95.6522H93.4783V139.131Z" fill="black"/>
<path id="Vector_182" d="M95.6521 19.5654H97.826H99.9999V21.7393H97.826V23.9133H95.6521V21.7393V19.5654Z" fill="black"/>
<path id="Vector_183" d="M95.6521 91.3047H97.826V93.4786H95.6521V91.3047Z" fill="black"/>
<path id="Vector_184" d="M95.6521 119.565H97.826V121.739H95.6521V119.565Z" fill="black"/>
<path id="Vector_185" d="M95.6521 132.609H97.826H99.9999H102.174V130.435V128.261H99.9999V126.087H102.174H104.348V123.913H106.522V126.087V128.261H104.348V130.435H106.522V132.609H104.348V134.783H102.174V136.957H104.348H106.522H108.696V134.783H110.869H113.043V132.609H115.217V130.435H113.043V132.609H110.869H108.696V130.435V128.261H110.869V126.087H113.043H115.217V128.261H117.391V130.435V132.609V134.783V136.957H115.217V139.13V141.304H113.043H110.869H108.696V139.13H106.522H104.348H102.174V141.304H99.9999V139.13V136.957H97.826H95.6521V134.783V132.609ZM110.869 136.957V139.13H113.043V136.957H110.869Z" fill="black"/>
<path id="Vector_186" d="M97.8262 23.9131H100V26.087H97.8262V23.9131Z" fill="black"/>
<path id="Vector_187" d="M97.8262 30.4346H100V32.6085H97.8262V30.4346Z" fill="black"/>
<path id="Vector_188" d="M97.8262 63.0439H100V65.2179H102.174V67.3918H104.348V69.5657H106.522V71.7396V73.9135H108.696V76.0874V78.2613H106.522H104.348H102.174V80.4352H100V78.2613V76.0874V73.9135V71.7396V69.5657V67.3918H97.8262V65.2179V63.0439ZM102.174 71.7396V73.9135H104.348V71.7396H102.174Z" fill="black"/>
<path id="Vector_189" d="M100 8.69531H102.174H104.348H106.522V10.8692H104.348H102.174H100V8.69531Z" fill="black"/>
<path id="Vector_190" d="M100 13.0431H102.174H104.348H106.522V10.8691H108.696V13.0431V15.217V17.3909H110.87V19.5648V21.7387V23.9126H108.696V21.7387V19.5648H106.522V21.7387V23.9126H104.348V21.7387H102.174V19.5648H104.348V17.3909H106.522V15.217H104.348V17.3909H102.174H100V15.217V13.0431Z" fill="black"/>
<path id="Vector_191" d="M100 21.7393H102.174V23.9132H100V21.7393Z" fill="black"/>
<path id="Vector_192" d="M100 28.2607H102.174H104.348V30.4347H102.174H100V28.2607Z" fill="black"/>
<path id="Vector_193" d="M100 32.6084H102.174V34.7823V36.9562H100V34.7823V32.6084Z" fill="black"/>
<path id="Vector_194" d="M100 54.3477H102.174V56.5216H100V54.3477Z" fill="black"/>
<path id="Vector_195" d="M100 58.6953H102.174V60.8692V63.0431H100V60.8692V58.6953Z" fill="black"/>
<path id="Vector_196" d="M100 108.695H102.174V110.869H100V108.695Z" fill="black"/>
<path id="Vector_197" d="M100 121.739H102.174V123.913H100V121.739Z" fill="black"/>
<path id="Vector_198" d="M102.174 36.9561H104.348H106.522V39.13H104.348H102.174V36.9561Z" fill="black"/>
<path id="Vector_199" d="M102.174 63.0439H104.348V65.2179H102.174V63.0439Z" fill="black"/>
<path id="Vector_200" d="M102.174 110.869H104.348H106.522V113.043V115.217H104.348V113.043H102.174V110.869Z" fill="black"/>
<path id="Vector_201" d="M102.174 119.566H104.348H106.522V117.392H108.696V119.566V121.74H110.869H113.043V119.566V117.392H115.217V115.218H117.391V117.392V119.566H115.217V121.74V123.913H113.043H110.869V126.087H108.696V123.913H106.522V121.74H104.348H102.174V119.566Z" fill="black"/>
<path id="Vector_202" d="M104.348 26.0869H106.522V28.2608H104.348V26.0869Z" fill="black"/>
<path id="Vector_203" d="M104.348 32.6085H106.522V30.4346H108.696V32.6085V34.7824V36.9563H106.522V34.7824H104.348V32.6085Z" fill="black"/>
<path id="Vector_204" d="M104.348 58.6953H106.522V60.8692H104.348V58.6953Z" fill="black"/>
<path id="Vector_205" d="M104.348 65.2178H106.522V67.3917H104.348V65.2178Z" fill="black"/>
<path id="Vector_206" d="M104.348 106.521H106.522H108.696H110.87V108.695H108.696V110.869H106.522V108.695H104.348V106.521Z" fill="black"/>
<path id="Vector_207" d="M106.522 23.9131H108.696V26.087H106.522V23.9131Z" fill="black"/>
<path id="Vector_208" d="M106.522 41.3047H108.696V43.4786H106.522V41.3047Z" fill="black"/>
<path id="Vector_209" d="M106.522 67.3914H108.696H110.87V65.2175H113.043V67.3914H115.217V65.2175H113.043V63.0436V60.8696H115.217V63.0436H117.391V60.8696H115.217V58.6957V56.5218H113.043V58.6957V60.8696H110.87H108.696V58.6957H110.87V56.5218V54.3479H108.696V52.174V50.0001V47.8262H110.87V50.0001H113.043H115.217H117.391V52.174H115.217V54.3479H117.391V56.5218V58.6957H119.565H121.739V60.8696H119.565V63.0436V65.2175H117.391V67.3914V69.5653H115.217H113.043V71.7392V73.9131H110.87V71.7392V69.5653H108.696H106.522V67.3914Z" fill="black"/>
<path id="Vector_210" d="M108.696 26.0869H110.869V28.2608H108.696V26.0869Z" fill="black"/>
<path id="Vector_211" d="M108.696 36.9561H110.869V39.13H108.696V36.9561Z" fill="black"/>
<path id="Vector_212" d="M108.696 63.0439H110.869V65.2179H108.696V63.0439Z" fill="black"/>
<path id="Vector_213" d="M108.696 110.869H110.869V113.043V115.217H108.696V113.043V110.869Z" fill="black"/>
<path id="Vector_214" d="M110.87 8.69531H113.044V10.8692H115.217V13.0431H113.044H110.87V10.8692V8.69531Z" fill="black"/>
<path id="Vector_215" d="M110.87 15.2178H113.044H115.217V17.3917H113.044H110.87V15.2178Z" fill="black"/>
<path id="Vector_216" d="M110.87 23.9132H113.044V21.7393H115.217V23.9132V26.0871H113.044H110.87V23.9132Z" fill="black"/>
<path id="Vector_217" d="M110.87 32.6086H113.044V30.4347V28.2607H115.217H117.391V30.4347H115.217V32.6086V34.7825V36.9564H113.044H110.87V34.7825V32.6086Z" fill="black"/>
<path id="Vector_218" d="M110.87 41.3048H113.044V39.1309H115.217H117.391V41.3048V43.4787V45.6526H115.217V43.4787H113.044V45.6526H110.87V43.4787V41.3048Z" fill="black"/>
<path id="Vector_219" d="M110.87 93.4785H113.044V95.6524H110.87V93.4785Z" fill="black"/>
<path id="Vector_220" d="M110.87 97.8263H113.044V95.6523H115.217H117.391V97.8263V100V102.174H115.217V104.348V106.522H113.044H110.87V104.348H113.044V102.174H110.87V100V97.8263Z" fill="black"/>
<path id="Vector_221" d="M113.043 45.6523H115.217V47.8263H113.043V45.6523Z" fill="black"/>
<path id="Vector_222" d="M113.043 89.1309H115.217H117.391V91.3048V93.4787H115.217H113.043V91.3048V89.1309Z" fill="black"/>
<path id="Vector_223" d="M113.043 108.695H115.217H117.391V106.521H119.565V108.695H121.739V110.869V113.043H119.565V115.217H117.391V113.043V110.869H115.217H113.043V108.695Z" fill="black"/>
<path id="Vector_224" d="M115.217 13.0431H117.391H119.565V10.8692V8.69531H121.739H123.913V10.8692V13.0431V15.2171V17.391H121.739V15.2171H119.565V17.391H121.739V19.5649H119.565V21.7388V23.9127H117.391V21.7388H115.217V19.5649V17.391H117.391V15.2171H115.217V13.0431Z" fill="black"/>
<path id="Vector_225" d="M115.217 123.913H117.391H119.565V121.739V119.565V117.391V115.217H121.739V117.391H123.913H126.087H128.261V115.217H126.087H123.913H121.739V113.043H123.913V110.869V108.695H126.087V110.869H128.261V113.043H130.435H132.609H134.783H136.956V115.217H134.783V117.391H136.956H139.13H141.304V119.565V121.739H139.13H136.956V119.565H134.783V121.739H132.609V119.565V117.391V115.217H130.435V117.391V119.565H128.261V121.739H130.435H132.609V123.913H134.783V126.087V128.261H132.609V130.434V132.608H130.435H128.261H126.087V134.782H123.913H121.739V136.956H119.565V134.782V132.608V130.434H121.739V128.261H119.565V126.087H117.391H115.217V123.913ZM123.913 119.565V121.739H126.087V119.565H123.913ZM123.913 123.913V126.087V128.261V130.434H126.087H128.261H130.435V128.261V126.087V123.913H128.261H126.087H123.913Z" fill="black"/>
<path id="Vector_226" d="M117.391 26.0869H119.565V28.2608H117.391V26.0869Z" fill="black"/>
<path id="Vector_227" d="M117.391 36.9561H119.565V39.13H117.391V36.9561Z" fill="black"/>
<path id="Vector_228" d="M117.391 82.6086H119.565H121.739H123.913V84.7825H126.087H128.261H130.435V82.6086H132.609H134.783V80.4347V78.2607H136.957H139.13V80.4347V82.6086H136.957V84.7825H134.783V86.9564H136.957V89.1303H134.783H132.609V86.9564H130.435H128.261V89.1303H126.087V86.9564H123.913H121.739V84.7825H119.565V86.9564H121.739V89.1303H119.565H117.391V86.9564V84.7825V82.6086Z" fill="black"/>
<path id="Vector_229" d="M117.391 93.4785H119.565H121.739V95.6524H119.565H117.391V93.4785Z" fill="black"/>
<path id="Vector_230" d="M119.565 23.9131H121.739V26.087H119.565V23.9131Z" fill="black"/>
<path id="Vector_231" d="M119.565 32.6086H121.739V30.4347H123.913V28.2607H126.087V30.4347H128.261V32.6086H126.087V34.7825V36.9564H128.261V39.1303H126.087V41.3042H123.913H121.739V43.4781H119.565V41.3042V39.1303H121.739H123.913V36.9564H121.739V34.7825H119.565V32.6086Z" fill="black"/>
<path id="Vector_232" d="M119.565 47.826H121.739V45.6521H123.913H126.087H128.261V43.4782V41.3043V39.1304H130.435V36.9565H132.609V34.7826H130.435H128.261V32.6087H130.435V30.4347V28.2608H128.261H126.087V26.0869H128.261H130.435H132.609H134.783H136.956V28.2608H134.783V30.4347V32.6087V34.7826H136.956H139.13H141.304V36.9565H139.13V39.1304H136.956V41.3043H134.783V39.1304H132.609V41.3043H130.435V43.4782H132.609V41.3043H134.783V43.4782H136.956V45.6521H134.783V47.826H136.956H139.13V45.6521H141.304V47.826V50H139.13H136.956H134.783H132.609V47.826V45.6521H130.435V47.826H128.261V50V52.1739V54.3478H126.087V52.1739V50V47.826H123.913V50V52.1739H121.739V50H119.565V47.826Z" fill="black"/>
<path id="Vector_233" d="M119.565 65.2178H121.739V67.3917V69.5656H119.565V67.3917V65.2178Z" fill="black"/>
<path id="Vector_234" d="M119.565 97.8262H121.739V100V102.174H123.913V104.348H126.087V106.522H123.913H121.739H119.565V104.348V102.174V100V97.8262Z" fill="black"/>
<path id="Vector_235" d="M119.565 139.13H121.739H123.913V136.956H126.087V139.13H128.261H130.435V141.304H128.261H126.087H123.913H121.739H119.565V139.13Z" fill="black"/>
<path id="Vector_236" d="M121.739 21.7393H123.913V23.9132H121.739V21.7393Z" fill="black"/>
<path id="Vector_237" d="M121.739 89.1309H123.913V91.3048H126.087H128.261V89.1309H130.435V91.3048V93.4787H128.261H126.087H123.913H121.739V91.3048V89.1309Z" fill="black"/>
<path id="Vector_238" d="M123.913 56.5215H126.087V58.6954H123.913V56.5215Z" fill="black"/>
<path id="Vector_239" d="M123.913 97.8263H126.087V95.6523H128.261H130.435V97.8263H128.261V100V102.174V104.348H126.087V102.174H123.913V100V97.8263Z" fill="black"/>
<path id="Vector_240" d="M126.087 8.69531H128.261H130.435H132.609H134.783H136.956H139.13H141.304V10.8692V13.0431V15.2171V17.391V19.5649V21.7388V23.9127H139.13H136.956H134.783H132.609H130.435H128.261H126.087V21.7388V19.5649V17.391V15.2171V13.0431V10.8692V8.69531ZM128.261 10.8692V13.0431V15.2171V17.391V19.5649V21.7388H130.435H132.609H134.783H136.956H139.13V19.5649V17.391V15.2171V13.0431V10.8692H136.956H134.783H132.609H130.435H128.261Z" fill="black"/>
<path id="Vector_241" d="M126.087 73.9131H128.261V76.087H126.087V73.9131Z" fill="black"/>
<path id="Vector_242" d="M126.087 126.087H128.261V128.261H126.087V126.087Z" fill="black"/>
<path id="Vector_243" d="M128.261 60.8691H130.435V63.0431H128.261V60.8691Z" fill="black"/>
<path id="Vector_244" d="M128.261 104.348H130.435H132.609H134.782V106.522V108.695V110.869H132.609V108.695V106.522H130.435H128.261V104.348Z" fill="black"/>
<path id="Vector_245" d="M128.261 108.695H130.435V110.869H128.261V108.695Z" fill="black"/>
<path id="Vector_246" d="M128.261 134.782H130.435V136.956H128.261V134.782Z" fill="black"/>
<path id="Vector_247" d="M130.435 13.0439H132.609H134.783H136.957V15.2179V17.3918V19.5657H134.783H132.609H130.435V17.3918V15.2179V13.0439Z" fill="black"/>
<path id="Vector_248" d="M130.435 58.6953H132.609H134.783V60.8692V63.0431H132.609V60.8692H130.435V58.6953Z" fill="black"/>
<path id="Vector_249" d="M130.435 93.4785H132.609V95.6524H130.435V93.4785Z" fill="black"/>
<path id="Vector_250" d="M130.435 97.8263H132.609V95.6524H134.783V97.8263H136.957H139.13V95.6524V93.4785H141.304V95.6524V97.8263V100H139.13V102.174V104.348H136.957V102.174H134.783H132.609V100H130.435V97.8263Z" fill="black"/>
<path id="Vector_251" d="M130.435 136.956H132.609V139.13H130.435V136.956Z" fill="black"/>
<path id="Vector_252" d="M132.609 52.1738H134.783V54.3477H136.956H139.13V56.5217H136.956V58.6956H134.783V56.5217H132.609V54.3477V52.1738Z" fill="black"/>
<path id="Vector_253" d="M132.609 139.131H134.783V141.305H132.609V139.131Z" fill="black"/>
<path id="Vector_254" d="M134.783 63.0439H136.957H139.131V65.2179H136.957V67.3918H134.783V65.2179V63.0439Z" fill="black"/>
<path id="Vector_255" d="M134.783 121.739H136.957V123.913H134.783V121.739Z" fill="black"/>
<path id="Vector_256" d="M134.783 128.261H136.957H139.131V130.435H136.957H134.783V128.261Z" fill="black"/>
<path id="Vector_257" d="M134.783 134.782H136.957V136.956H134.783V134.782Z" fill="black"/>
<path id="Vector_258" d="M136.957 30.4346H139.13H141.304V32.6085H139.13H136.957V30.4346Z" fill="black"/>
<path id="Vector_259" d="M136.957 41.3047H139.13V43.4786H136.957V41.3047Z" fill="black"/>
<path id="Vector_260" d="M136.957 73.9131H139.13H141.304V76.087H139.13H136.957V73.9131Z" fill="black"/>
<path id="Vector_261" d="M136.957 84.7822H139.13V86.9561H136.957V84.7822Z" fill="black"/>
<path id="Vector_262" d="M136.957 89.1309H139.13V91.3048V93.4787H136.957V91.3048V89.1309Z" fill="black"/>
<path id="Vector_263" d="M136.957 106.521H139.13V108.695H136.957V106.521Z" fill="black"/>
<path id="Vector_264" d="M136.957 123.913H139.13V126.087H136.957V123.913Z" fill="black"/>
<path id="Vector_265" d="M136.957 139.13H139.13V136.956V134.782V132.608H141.304V134.782V136.956V139.13V141.304H139.13H136.957V139.13Z" fill="black"/>
<path id="Vector_266" d="M139.13 39.1309H141.304V41.3048H139.13V39.1309Z" fill="black"/>
<path id="Vector_267" d="M139.13 52.1738H141.304V54.3477H139.13V52.1738Z" fill="black"/>
<path id="Vector_268" d="M139.13 58.6953H141.304V60.8692V63.0431H139.13V60.8692V58.6953Z" fill="black"/>
<path id="Vector_269" d="M139.13 65.2178H141.304V67.3917V69.5656V71.7395H139.13V69.5656V67.3917V65.2178Z" fill="black"/>
<path id="Vector_270" d="M139.13 82.6084H141.304V84.7823H139.13V82.6084Z" fill="black"/>
<path id="Vector_271" d="M139.13 104.348H141.304V106.522H139.13V104.348Z" fill="black"/>
<path id="Vector_272" d="M139.13 108.695H141.304V110.869V113.043V115.217H139.13V113.043V110.869V108.695Z" fill="black"/>
<path id="Vector_273" d="M139.13 126.087H141.304V128.261H139.13V126.087Z" fill="black"/>
</g>
</svg>
