<svg width="215" height="61" viewBox="0 0 215 61" fill="none" xmlns="http://www.w3.org/2000/svg">
<g clip-path="url(#clip0_102_4241)">
<path d="M10.1878 -0.000183951C7.51885 -0.0280441 4.94776 1.00648 3.03807 2.87661C1.12837 4.74673 0.0358669 7.29992 0 9.97655V60.9998H204.788C207.457 61.0277 210.028 59.9932 211.938 58.1231C213.848 56.2529 214.94 53.6997 214.976 51.0231V-0.000183951H10.1878Z" fill="white"/>
<path d="M213.399 1.60508V51.0231C213.383 52.1401 213.147 53.2427 212.705 54.2681C212.263 55.2935 211.624 56.2215 210.824 56.999C210.024 57.7764 209.08 58.3882 208.044 58.7993C207.008 59.2103 205.902 59.4126 204.788 59.3946H1.6006V9.97655C1.63432 7.72498 2.55752 5.57882 4.16752 4.00927C5.77751 2.43973 7.94271 1.57506 10.1878 1.60508H213.399ZM215 -0.000183951H10.1878C7.51885 -0.0280441 4.94776 1.00648 3.03807 2.87661C1.12837 4.74673 0.0358669 7.29992 0 9.97655V60.9998H204.788C207.457 61.0277 210.028 59.9932 211.938 58.1231C213.848 56.2529 214.94 53.6997 214.976 51.0231V-0.000183951H215Z" fill="#96257B"/>
<path d="M96.324 18.1075L97.0522 15.5792L99.5812 14.913L97.0682 14.2067L96.42 11.6624L95.6837 14.1906L93.1548 14.8247L95.6677 15.5631L96.324 18.1075Z" fill="#96257B"/>
<path d="M40.1028 34.7218V29.6572C40.1028 27.0406 40.1588 26.0052 40.1748 25.5076C40.1748 25.315 40.1748 25.1946 40.1748 25.1224L40.3429 23.8381L38.8784 23.8863H37.5258L35.253 23.8381L35.4371 25.5237L35.5491 28.5095C35.5491 31.4551 33.3003 31.4551 31.8277 31.4551C28.8586 31.4551 28.1944 28.9429 28.1624 26.848L28.2184 25.0902L28.3224 23.8381L25.9215 23.9023L23.2485 23.8381L23.5366 28.2606C23.5961 29.1121 23.8801 29.9324 24.3597 30.6376C24.8392 31.3427 25.497 31.9074 26.2656 32.2738C27.6181 32.9687 29.1157 33.3318 30.6353 33.3333C32.2868 33.3264 33.9267 33.0555 35.4931 32.5306L35.4451 34.6817L35.341 37.2902L35.245 38.8233L37.934 38.7831L40.3349 38.8233L40.1108 37.2983L40.1028 34.7218Z" fill="#96257B"/>
<path d="M63.8238 23.8461L63.1995 25.1384L59.086 32.4664L58.6378 33.1807L53.588 25.0822L52.9077 23.8461L50.4508 23.9103L47.3376 23.8381L55.8368 36.4715L55.9889 36.6882L53.5159 40.0593L55.5567 39.9309L57.2933 40.0593L59.9263 35.3157L66.2407 25.3792L67.3611 23.8301L65.4804 23.9103L63.8238 23.8461Z" fill="#96257B"/>
<path d="M86.8002 35.8134C86.4801 35.2435 86.1599 34.6656 85.8398 34.0717L83.0788 28.7502L81.3982 25.3551L80.6939 23.8462L79.0933 23.8863L77.7648 23.8381L75.3159 28.7743C74.1235 31.1019 73.2752 32.6912 72.4749 34.0717L70.8342 36.8889L68.1772 36.6562L68.4894 37.836L69.0016 42.0579H71.0183V41.8331C70.8903 40.5168 70.8903 39.6099 71.2984 39.1684C71.4281 39.049 71.5812 38.958 71.748 38.9013C71.9147 38.8446 72.0914 38.8235 72.2668 38.8393H76.7404H80.0217C80.5899 38.8393 81.1821 38.8393 81.5262 38.8393H82.1745H82.1265C83.7271 38.8393 84.8875 38.8393 85.9839 38.8393C86.1605 38.8224 86.3388 38.8429 86.507 38.8996C86.6752 38.9563 86.8296 39.0479 86.9602 39.1684C87.3684 39.6099 87.3684 40.5088 87.2484 41.8331V42.0579H89.2651L89.7693 37.8681L90.0894 36.6642L87.4324 36.8969L86.8002 35.8134ZM82.2785 37.0735H77.1646C76.2843 37.0735 75.2599 37.0735 73.8674 37.0173C74.4356 35.6448 75.468 33.542 77.3567 29.9141L78.117 28.4854L78.8532 29.9141C80.2217 32.5547 81.3742 34.9225 82.2785 37.0735Z" fill="#96257B"/>
<path d="M142.909 35.9418C142.565 35.3318 142.221 34.7058 141.877 34.0717L139.108 28.7502L137.427 25.3551L136.763 23.8462L135.162 23.8863L133.834 23.8381L131.385 28.7743C130.217 31.0538 129.344 32.6831 128.544 34.0717L126.903 36.8889L124.246 36.6562L124.558 37.836L125.071 42.0579H127.087V41.8331C126.959 40.5168 126.959 39.6098 127.368 39.1764C127.498 39.0559 127.653 38.9644 127.821 38.9077C127.989 38.851 128.167 38.8304 128.344 38.8474H132.818H136.099C136.667 38.8474 137.259 38.8474 137.603 38.8474H138.212C139.812 38.8474 141.005 38.8474 142.101 38.8474C142.278 38.8304 142.456 38.851 142.624 38.9077C142.792 38.9644 142.947 39.0559 143.077 39.1764C143.486 39.6179 143.486 40.5168 143.357 41.8331V42.0579H145.374L145.878 37.8681L146.199 36.6562L143.542 36.8889L142.909 35.9418ZM138.308 37.0655H133.194C132.313 37.0655 131.297 37.0655 129.896 37.0093C130.465 35.6368 131.497 33.4777 133.386 29.906L134.146 28.4773L134.882 29.906C136.243 32.5146 137.395 34.9225 138.316 37.0735L138.308 37.0655Z" fill="#96257B"/>
<path d="M162.869 23.8541C162.068 23.8541 160.684 23.9103 158.723 23.9103C157.339 23.9103 156.442 23.9103 155.938 23.9103L153.273 23.7819L153.433 25.0902L153.513 26.9121V33.0362V35.709C153.513 36.5116 153.513 37.1457 153.433 37.7156L153.265 39.0238L155.922 38.8714H159.387L162.637 38.9516L164.717 39.0399L164.645 37.8921L164.717 36.6962L162.533 36.8086C161.532 36.8648 160.5 36.8889 159.475 36.8889H158.107V32.1132H159.523L161.332 32.1613H162.581L164.533 32.2737L164.429 31.134L164.533 29.9381L162.661 30.0263C161.756 30.0825 160.78 30.1066 159.587 30.1066H158.107V25.9008L162.773 25.9971L164.717 26.0935L164.645 24.9055L164.717 23.7498L162.869 23.8541Z" fill="#96257B"/>
<path d="M183.092 22.554C184.616 22.5327 186.134 22.3742 187.63 22.0805L188.814 21.7193L188.406 20.5555L188.246 19.1509H187.446L187.39 19.2632C187.159 19.7395 186.783 20.1301 186.317 20.3789L186.245 20.4271C185.254 20.8463 184.184 21.0462 183.108 21.013C182.119 21.0641 181.133 20.8624 180.243 20.4271C179.771 20.1635 179.396 19.7558 179.171 19.2632L179.115 19.1509H178.314L178.162 20.5314L178.122 20.7C178.06 20.9795 177.96 21.2495 177.826 21.5026L177.722 21.7193L179.123 22.1286C180.417 22.4686 181.755 22.612 183.092 22.554Z" fill="#96257B"/>
<path d="M191.679 38.6147C191.458 36.2672 191.376 33.9088 191.431 31.5515V30.5242C191.394 28.381 191.474 26.2374 191.671 24.1031V23.8704L188.95 23.9346L188.886 23.9988C185.482 27.5064 181.852 30.7855 178.018 33.815V30.7409C177.967 28.5282 178.048 26.3143 178.258 24.1111V23.8784L175.745 23.9426L173.145 23.8784V24.1111C173.375 26.5467 173.474 28.9929 173.441 31.4392L173.161 38.8876H175.978L176.042 38.8314C178.947 36.0543 182.772 32.4505 186.774 29.0473C186.774 29.7215 186.83 30.6044 186.83 31.4552V32.4987C186.878 34.5559 186.806 36.6141 186.614 38.6629V38.9117H186.862C187.518 38.8635 188.118 38.8715 188.758 38.9117H189.767C190.327 38.9117 190.767 38.9117 191.439 38.9518H191.695L191.679 38.6147Z" fill="#96257B"/>
<path d="M104.143 26.6394H104.215C104.911 26.6394 105.591 25.9813 105.943 24.9298C106.295 23.8784 106.287 22.7547 105.575 22.2892C105.439 22.2017 105.278 22.1608 105.116 22.1723C104.955 22.1839 104.802 22.2474 104.679 22.3534C104.207 22.8306 103.852 23.4108 103.641 24.0485C103.43 24.6861 103.369 25.3641 103.462 26.0295C103.492 26.1924 103.575 26.3408 103.698 26.4513C103.822 26.5617 103.978 26.6279 104.143 26.6394Z" fill="#96257B"/>
<path d="M102.622 28.1322L102.71 28.092V27.9957C101.91 23.501 96.1318 19.6644 96.0678 19.6243L94.5952 18.6531L95.8997 19.8249C97.3602 21.3367 98.6167 23.034 99.6371 24.8735C100.806 26.7677 101.686 28.1883 102.398 28.1883C102.476 28.1864 102.553 28.1672 102.622 28.1322Z" fill="#96257B"/>
<path d="M105.871 26.9685L104.951 27.7711C103.797 28.7466 102.891 29.9829 102.307 31.3783C101.722 32.7737 101.477 34.2883 101.59 35.7975C101.87 39.8909 104.535 44.209 108.368 46.7935L108.977 47.2028L108.544 46.6089C102.942 38.8073 101.782 32.5227 105.143 27.9236L105.871 26.9685Z" fill="#96257B"/>
<path d="M106.16 35.8215L106.088 35.7573L105.999 35.8055C105.199 36.263 105.255 36.7767 105.415 37.1218C105.975 38.3177 109.017 39.5297 111.682 40.2601C113.641 40.8291 115.662 41.1606 117.7 41.2473C118.216 41.2626 118.731 41.2004 119.228 41.0627L119.813 40.8701L119.204 40.8059C110.545 39.9069 107.472 37.0496 106.16 35.8215Z" fill="#96257B"/>
<path d="M101.382 20.1942C103.095 19.1654 105.095 18.7231 107.08 18.934C109.506 19.2858 111.721 20.5095 113.314 22.3773C107.2 25.331 105.703 29.5528 105.687 29.601C105.583 30.1388 105.615 30.4036 105.799 30.4759H105.904C106.248 30.4759 106.808 29.8177 108.152 28.2044C109.756 26.1791 111.534 24.2991 113.466 22.586C113.818 22.9873 114.115 23.3886 114.347 23.6936C116.401 26.7154 117.469 30.3024 117.404 33.9593C117.398 35.1774 117.296 36.3932 117.1 37.5952V37.6755L117.9 38.2373L117.948 38.0607C118.466 36.2738 118.735 34.4236 118.748 32.5627C118.803 28.8956 117.757 25.2967 115.747 22.2328C114.906 20.9078 113.795 19.7754 112.488 18.9097C111.18 18.044 109.706 17.4643 108.16 17.2084C106.859 17.0726 105.544 17.2016 104.294 17.5878C103.044 17.974 101.885 18.6093 100.886 19.4557L100.798 19.528L101.278 20.2744L101.382 20.1942Z" fill="#96257B"/>
<path d="M114.731 43.5588C114.571 43.7835 114.402 44.0163 114.218 44.225C113.216 45.4042 111.945 46.3235 110.513 46.9048C109.08 47.4861 107.529 47.7122 105.991 47.5639C102.23 47.1385 99.741 44.3052 98.5966 42.6518C96.5304 39.5211 95.5025 35.8162 95.6595 32.0651C95.6672 29.6271 96.1682 27.216 97.132 24.9779V24.9137L96.8039 24.3518L96.6919 24.5605C95.9471 25.927 95.3642 27.3763 94.9552 28.8787C93.968 32.5756 94.0793 36.4812 95.2753 40.1155C96.2338 43.359 98.3173 46.1519 101.15 47.9893C102.597 48.8703 104.258 49.3367 105.951 49.3378C107.246 49.3273 108.526 49.0543 109.713 48.5351C111.955 47.4911 113.848 45.8185 115.163 43.7193L115.235 43.615L114.835 43.318L114.731 43.5588Z" fill="#96257B"/>
</g>
<defs>
<clipPath id="clip0_102_4241">
<rect width="215" height="61" fill="white"/>
</clipPath>
</defs>
</svg>
