<svg width="244" height="28" viewBox="0 0 244 28" fill="none" xmlns="http://www.w3.org/2000/svg">
<g clip-path="url(#clip0_102_4287)">
<path d="M7.52835 27.6763L0.104248 0.273438H5.02021L10.7388 21.314L16.8586 0.273438H21.4235L27.5433 21.4142L33.2619 0.273438H38.1277L30.7036 27.6763H25.0352L19.0658 7.23687L13.1466 27.6763H7.52835Z" fill="#BE11A5"/>
<path d="M41.5388 0.273438H46.204V27.6763H41.5388V0.273438Z" fill="#BE11A5"/>
<path d="M56.0861 23.3679H67.3727V27.6763H51.5212V0.323486H56.0861V23.3679Z" fill="#BE11A5"/>
<path d="M81.7192 0.323709C85.2808 0.223516 88.742 1.67632 91.2 4.28135C96.2664 9.74188 96.2664 18.2583 91.2 23.7188C88.742 26.3239 85.2808 27.7767 81.7192 27.6765H70.7837V0.323709H81.7192ZM81.7192 23.3682C84.3277 23.3682 86.4847 22.4664 88.0899 20.713C89.7954 18.9096 90.6984 16.4548 90.598 14.0001C90.6984 11.4953 89.7954 9.09063 88.0899 7.28715C86.4345 5.53376 84.127 4.53183 81.7192 4.63202H75.3485V23.3682H81.7192Z" fill="#BE11A5"/>
<path d="M119.492 19.8614C119.542 21.9655 118.639 24.0195 117.084 25.4222C115.479 26.9251 113.372 27.7266 111.165 27.6765H99.2761V0.32375H110.312C112.419 0.273653 114.475 1.0752 116.081 2.47791C117.636 3.83052 118.488 5.83438 118.438 7.88835C118.539 10.0926 117.435 12.1967 115.629 13.4491C118.037 14.6514 119.542 17.1562 119.492 19.8614ZM103.841 4.53187V11.7458H110.312C112.318 11.7458 113.924 10.1427 113.924 8.13883C113.924 6.13496 112.318 4.53187 110.312 4.53187H103.841ZM111.165 23.4183C113.272 23.3181 114.927 21.5647 114.827 19.4607C114.776 17.4568 113.121 15.8537 111.165 15.8036H103.841V23.4684L111.165 23.4183Z" fill="#BE11A5"/>
<path d="M128.421 23.3679H140.711V27.6763H123.856V0.323486H140.51V4.6318H128.421V11.7455H139.557V16.0037H128.421V23.3679Z" fill="#BE11A5"/>
<path d="M160.625 27.6765L154.706 17.7072H149.339V27.6765H144.774V0.273611H155.91C158.268 0.223514 160.575 1.17535 162.231 2.87863C163.936 4.48173 164.889 6.73607 164.839 9.09062C164.789 12.5974 162.632 15.7535 159.321 17.0059L165.642 27.6765H160.625ZM149.339 4.53183V13.6995H155.86C158.368 13.5993 160.324 11.4452 160.224 8.89023C160.124 6.53569 158.218 4.63202 155.86 4.53183H149.339Z" fill="#BE11A5"/>
<path d="M184.954 27.6765L179.085 17.7072H173.718V27.6765H169.153V0.273611H180.289C182.647 0.223514 184.954 1.17535 186.61 2.87863C188.315 4.48173 189.268 6.73607 189.218 9.09062C189.168 12.5974 187.011 15.7535 183.7 17.0059L190.021 27.6765H184.954ZM173.718 4.53183V13.6995H180.239C182.797 13.5492 184.704 11.3951 184.553 8.84013C184.403 6.53569 182.547 4.63202 180.239 4.53183H173.718Z" fill="#BE11A5"/>
<path d="M193.332 0.273438H197.896V27.6763H193.332V0.273438Z" fill="#BE11A5"/>
<path d="M207.829 23.3679H220.119V27.6763H203.264V0.323486H219.918V4.6318H207.829V11.7455H218.965V16.0037H207.829V23.3679Z" fill="#BE11A5"/>
<path d="M223.329 21.4643L227.292 19.21C228.396 22.316 230.703 23.8189 234.164 23.8189C237.626 23.8189 239.331 22.3661 239.331 20.2119C239.381 19.21 238.829 18.2081 237.926 17.7071C237.024 17.1059 235.368 16.4547 233.011 15.7533C230.352 14.9518 229.048 14.4508 227.192 13.2485C225.336 12.0462 224.483 10.1926 224.483 7.73785C224.383 5.5336 225.386 3.37944 227.091 1.97674C228.847 0.523934 231.104 -0.227517 233.412 -0.177421C237.575 -0.327711 241.388 2.07693 243.093 5.83418L239.281 7.98833C238.127 5.4835 236.171 4.18099 233.462 4.18099C230.753 4.18099 229.098 5.4835 229.098 7.58756C229.098 9.69162 230.452 10.5433 234.716 11.8458C235.769 12.1964 236.522 12.4469 237.024 12.6473C237.525 12.8477 238.227 13.0982 239.08 13.4489C239.783 13.6994 240.485 14.1001 241.087 14.551C242.541 15.7032 244.147 17.5568 243.946 20.1618C244.046 22.4663 243.043 24.6204 241.237 26.0732C239.431 27.526 237.074 28.2274 234.114 28.2274C228.646 28.1773 224.734 25.6224 223.329 21.4643Z" fill="#BE11A5"/>
</g>
<defs>
<clipPath id="clip0_102_4287">
<rect width="244" height="28" fill="white"/>
</clipPath>
</defs>
</svg>
