<svg width="170" height="74" viewBox="0 0 170 74" fill="none" xmlns="http://www.w3.org/2000/svg">
<g clip-path="url(#clip0_102_4261)">
<path d="M15.1129 0.0549409C14.7262 0.0732176 14.5608 0.111471 14.5311 0.187978C14.5026 0.263635 14.3738 0.295938 14.1057 0.295938C13.8944 0.295938 13.6896 0.32739 13.6509 0.365644C13.6122 0.404322 13.4223 0.443851 13.2293 0.453627C12.9973 0.465953 12.8774 0.505056 12.8774 0.569237C12.8774 0.635118 12.7703 0.666146 12.5451 0.666146C12.3615 0.666146 12.2119 0.699724 12.2119 0.740102C12.2119 0.781331 12.0776 0.814909 11.9135 0.814909C11.7167 0.814909 11.6007 0.852313 11.5727 0.925844C11.5463 0.994275 11.4337 1.03678 11.279 1.03678C11.1409 1.03678 11.0278 1.06993 11.0278 1.11074C11.0278 1.15196 10.9471 1.18512 10.848 1.18512C10.749 1.18512 10.6185 1.23485 10.5569 1.29605C10.4957 1.35726 10.3601 1.40741 10.2556 1.40741C10.1515 1.40741 10.0656 1.44057 10.0656 1.48137C10.0656 1.5226 9.98232 1.55533 9.88032 1.55533C9.76514 1.55533 9.69502 1.59783 9.69502 1.66669C9.69502 1.73597 9.62532 1.77762 9.50972 1.77762C9.40857 1.77762 9.32484 1.8112 9.32484 1.852C9.32484 1.89238 9.24494 1.92596 9.14762 1.92596C9.05029 1.92596 8.95127 1.97569 8.92747 2.03732C8.90409 2.09852 8.81909 2.14825 8.73919 2.14825C8.65887 2.14825 8.57217 2.18141 8.54752 2.22221C8.52287 2.26301 8.43702 2.29617 8.35839 2.29617C8.27977 2.29617 8.21517 2.34462 8.21517 2.40583C8.21517 2.47341 8.14589 2.51676 8.03624 2.51676C7.93807 2.51676 7.84542 2.55162 7.83182 2.59454C7.81737 2.6379 7.74512 2.68168 7.67117 2.6923C7.59722 2.70293 7.51519 2.74586 7.48757 2.78666C7.46079 2.82789 7.32947 2.90865 7.19729 2.96645C7.06469 3.02383 6.95674 3.11267 6.95674 3.16367C6.95674 3.2151 6.89724 3.25718 6.82414 3.25718C6.75147 3.25718 6.57127 3.37066 6.42507 3.5088C6.27802 3.64736 6.08804 3.78253 6.00219 3.80973C5.91677 3.83651 5.84664 3.89006 5.84664 3.92789C5.84664 3.96614 5.79522 3.99717 5.73147 3.99717C5.66772 3.99717 5.63669 4.03032 5.66177 4.07155C5.68684 4.11193 5.65539 4.14551 5.59207 4.14551C5.52874 4.14551 5.47689 4.19524 5.47689 4.25644C5.47689 4.31765 5.44119 4.36738 5.39742 4.36738C5.29499 4.36738 5.10672 4.55567 5.10672 4.65853C5.10672 4.70231 5.06422 4.73801 5.01279 4.73801C4.96137 4.73801 4.85724 4.82132 4.78032 4.92333C4.70382 5.02491 4.59544 5.10864 4.53934 5.10864C4.48239 5.10864 4.40717 5.18345 4.37147 5.27483C4.33577 5.36707 4.23717 5.49118 4.15132 5.55026C4.06589 5.61019 3.99619 5.702 3.99619 5.75385C3.99619 5.80571 3.96049 5.84864 3.91629 5.84864C3.81429 5.84864 3.62559 6.0365 3.62559 6.13936C3.62559 6.18357 3.57927 6.21927 3.52317 6.21927C3.46664 6.21927 3.36507 6.33531 3.29792 6.47769C3.23034 6.62008 3.14322 6.73697 3.10454 6.73697C3.06502 6.73697 3.03399 6.77182 3.03399 6.8139C3.03399 6.85683 2.95069 6.98179 2.84827 7.09102C2.74669 7.20068 2.66339 7.33244 2.66339 7.38387C2.66339 7.43445 2.63747 7.47696 2.60687 7.47696C2.54992 7.47696 2.41689 7.69628 2.32509 7.93982C2.29789 8.01081 2.24647 8.06904 2.21034 8.06904C2.17422 8.06904 2.14617 8.15107 2.14617 8.25308C2.14617 8.35424 2.11429 8.43797 2.07392 8.43797C2.03439 8.43797 1.93367 8.57951 1.85122 8.7525C1.76792 8.92549 1.67229 9.11676 1.63872 9.17796C1.45384 9.51247 1.40667 9.63445 1.40667 9.76919C1.40667 9.8525 1.35737 9.9188 1.29489 9.9188C1.22647 9.9188 1.18397 9.98851 1.18397 10.1037C1.18397 10.2057 1.15082 10.289 1.11002 10.289C1.06922 10.289 1.03607 10.4021 1.03607 10.5402C1.03607 10.6953 0.993145 10.808 0.925145 10.8335C0.855445 10.8603 0.813795 10.9737 0.813795 11.1382C0.813795 11.2819 0.78022 11.3992 0.73942 11.3992C0.699045 11.3992 0.66547 11.5118 0.66547 11.6491C0.66547 11.7864 0.61872 11.9382 0.56177 11.9853C0.46062 12.0691 0.430445 12.22 0.329295 13.1389C0.298695 13.416 0.23452 13.6188 0.158445 13.6787C-0.0366303 13.8317 -0.0285553 59.3261 0.16652 59.4685C0.259595 59.5361 0.296145 59.6661 0.296145 59.9288C0.296145 60.1298 0.327595 60.3262 0.365845 60.3645C0.404095 60.4027 0.44362 60.5931 0.45382 60.7865C0.46572 61.0182 0.50482 61.138 0.568995 61.138C0.63487 61.138 0.66632 61.2456 0.66632 61.4708C0.66632 61.654 0.699895 61.8036 0.74027 61.8036C0.78107 61.8036 0.814645 61.938 0.814645 62.102C0.814645 62.2988 0.852045 62.4148 0.925995 62.4433C0.993995 62.4697 1.03692 62.5819 1.03692 62.7366C1.03692 62.8747 1.07007 62.9878 1.11087 62.9878C1.15167 62.9878 1.18482 63.0677 1.18482 63.1638C1.18482 63.2611 1.23497 63.3818 1.29574 63.432C1.35737 63.4825 1.40752 63.622 1.40752 63.7418C1.40752 63.868 1.43812 63.9399 1.48147 63.9135C1.52439 63.8868 1.55542 63.9616 1.55542 64.0942C1.55542 64.2459 1.59197 64.3207 1.66634 64.3207C1.73477 64.3207 1.77769 64.3896 1.77769 64.5014C1.77769 64.6004 1.80829 64.7011 1.84569 64.7236C1.88394 64.7475 1.93622 64.866 1.96257 64.988C1.98977 65.11 2.04247 65.1912 2.07944 65.1678C2.11642 65.1444 2.14702 65.1929 2.14702 65.2737C2.14702 65.3553 2.18017 65.4424 2.22139 65.4675C2.26219 65.493 2.29534 65.5784 2.29534 65.657C2.29534 65.7357 2.34549 65.8007 2.40669 65.8007C2.47554 65.8007 2.51762 65.8704 2.51762 65.986C2.51762 66.0872 2.55077 66.1709 2.59199 66.1709C2.63279 66.1709 2.66594 66.2389 2.66594 66.3214C2.66594 66.4038 2.71014 66.4888 2.76412 66.5092C2.81809 66.5301 2.90734 66.6623 2.96302 66.8029C3.01827 66.9436 3.10752 67.0588 3.16064 67.0588C3.21419 67.0588 3.25797 67.117 3.25839 67.1889C3.25882 67.2599 3.36677 67.4358 3.49894 67.5803C3.76797 67.874 3.90864 68.0751 3.96857 68.2527C3.99152 68.3186 4.09012 68.4164 4.18914 68.4691C4.28689 68.5214 4.36764 68.5945 4.36764 68.6315C4.36764 68.7237 4.56187 68.9099 4.65834 68.9099C4.70254 68.9099 4.73824 68.9515 4.73824 69.0029C4.73824 69.0544 4.82112 69.1589 4.92312 69.2354C5.02512 69.3119 5.10884 69.4212 5.10884 69.4769C5.10884 69.5334 5.18364 69.6086 5.27502 69.6443C5.36682 69.68 5.49092 69.7791 5.55042 69.8649C5.61034 69.9499 5.70172 70.0201 5.75399 70.0201C5.80627 70.0201 5.84877 70.0558 5.84877 70.0995C5.84877 70.202 6.03704 70.3903 6.13989 70.3903C6.18367 70.3903 6.21937 70.4366 6.21937 70.4931C6.21937 70.5492 6.33582 70.6508 6.47819 70.7184C6.62057 70.786 6.73744 70.8731 6.73744 70.9118C6.73744 70.9509 6.78674 70.9823 6.84837 70.9823C6.90957 70.9823 6.95929 71.01 6.95929 71.0444C6.95929 71.0788 7.07574 71.1698 7.21854 71.2467C7.36092 71.3236 7.47694 71.4121 7.47694 71.4435C7.47694 71.4745 7.52794 71.5005 7.59084 71.5005C7.65289 71.5005 7.72344 71.5506 7.74682 71.6118C7.77019 71.673 7.85222 71.7228 7.92957 71.7228C8.00649 71.7228 8.06939 71.7559 8.06939 71.7971C8.06939 71.8379 8.15269 71.8711 8.25469 71.8711C8.36987 71.8711 8.43999 71.9132 8.43999 71.982C8.43999 72.0437 8.49057 72.0934 8.55219 72.0934C8.67502 72.0934 8.93299 72.226 9.08982 72.3709C9.14592 72.4215 9.25344 72.4632 9.32909 72.4632C9.40474 72.4632 9.48804 72.4968 9.51312 72.5371C9.53862 72.5784 9.64062 72.6119 9.73964 72.6119C9.85057 72.6119 9.92027 72.6544 9.92027 72.7229C9.92027 72.7917 9.98997 72.8338 10.1056 72.8338C10.2076 72.8338 10.2904 72.8602 10.2904 72.892C10.2904 72.9239 10.3984 72.9583 10.5297 72.969C10.661 72.9787 10.7958 73.0361 10.8293 73.0956C10.8646 73.1581 10.9976 73.2044 11.1451 73.2044C11.2854 73.2044 11.401 73.2376 11.401 73.2784C11.401 73.3196 11.5132 73.3524 11.6509 73.3524C11.7881 73.3524 11.9394 73.3991 11.987 73.4561C12.0699 73.5564 12.3143 73.6061 13.1745 73.6958C13.4252 73.7217 13.6131 73.7842 13.6683 73.8598C13.8107 74.0545 155.314 74.0469 155.456 73.8518C155.525 73.7574 155.654 73.7221 155.927 73.7221C156.133 73.7221 156.323 73.6886 156.348 73.6478C156.374 73.6074 156.523 73.5738 156.68 73.5738C156.838 73.5738 157.012 73.5279 157.068 73.4722C157.125 73.4161 157.31 73.3494 157.481 73.3239C157.652 73.2984 157.927 73.2576 158.093 73.2325C158.259 73.2074 158.412 73.1411 158.434 73.0842C158.456 73.0276 158.567 72.9817 158.683 72.9817C158.799 72.9817 158.913 72.9486 158.939 72.9073C158.964 72.8665 159.063 72.8334 159.16 72.8334C159.257 72.8334 159.385 72.7832 159.446 72.7224C159.508 72.6608 159.643 72.6115 159.748 72.6115C159.852 72.6115 159.938 72.5779 159.938 72.5367C159.938 72.4963 160.021 72.4628 160.123 72.4628C160.238 72.4628 160.309 72.4211 160.309 72.3518C160.309 72.2906 160.374 72.2409 160.454 72.2409C160.535 72.2409 160.717 72.1746 160.861 72.0938C161.005 72.0135 161.123 71.9718 161.124 72.0012C161.124 72.0309 161.149 72.022 161.179 71.9812C161.259 71.8724 161.548 71.7223 161.677 71.7223C161.739 71.7223 161.789 71.6726 161.789 71.6114C161.789 71.5421 161.859 71.5 161.974 71.5C162.076 71.5 162.159 71.4669 162.159 71.4261C162.159 71.3849 162.227 71.3521 162.31 71.3521C162.392 71.3521 162.477 71.3079 162.497 71.2539C162.518 71.1995 162.65 71.1103 162.791 71.055C162.932 70.9998 163.047 70.9109 163.047 70.8574C163.047 70.8038 163.107 70.76 163.18 70.76C163.253 70.76 163.43 70.6517 163.575 70.5199C163.845 70.2717 164.039 70.1306 164.232 70.0426C164.388 69.9707 164.528 69.8228 164.528 69.7293C164.528 69.6855 164.563 69.6498 164.607 69.6498C164.709 69.6498 164.898 69.462 164.898 69.3591C164.898 69.3153 164.94 69.2796 164.991 69.2796C165.043 69.2796 165.147 69.1963 165.224 69.0943C165.301 68.9923 165.409 68.9094 165.465 68.9094C165.521 68.9094 165.597 68.8338 165.633 68.7424C165.669 68.6506 165.767 68.5269 165.853 68.4674C165.939 68.407 166.008 68.3157 166.008 68.2638C166.008 68.2115 166.044 68.169 166.088 68.169C166.19 68.169 166.379 67.9807 166.379 67.8779C166.379 67.8341 166.425 67.7984 166.481 67.7984C166.538 67.7984 166.639 67.6819 166.707 67.5395C166.774 67.3971 166.861 67.2807 166.9 67.2807C166.939 67.2807 166.971 67.2463 166.971 67.2033C166.971 67.1608 167.054 67.0363 167.156 66.9266C167.257 66.817 167.341 66.6852 167.341 66.6338C167.341 66.5828 167.374 66.5407 167.415 66.5407C167.456 66.5407 167.489 66.4905 167.489 66.4298C167.489 66.3681 167.522 66.3184 167.562 66.3184C167.602 66.3184 167.656 66.2355 167.681 66.1331C167.707 66.0315 167.757 65.9478 167.794 65.9478C167.83 65.9478 167.859 65.8649 167.859 65.7629C167.859 65.6477 167.902 65.5776 167.971 65.5776C168.032 65.5776 168.081 65.5274 168.081 65.4653C168.081 65.3421 168.214 65.0845 168.359 64.9272C168.41 64.872 168.452 64.764 168.452 64.688C168.452 64.6119 168.485 64.529 168.526 64.5039C168.566 64.4788 168.6 64.3768 168.6 64.2774C168.6 64.1664 168.643 64.0967 168.711 64.0967C168.78 64.0967 168.822 64.027 168.822 63.9118C168.822 63.8102 168.855 63.7265 168.896 63.7265C168.937 63.7265 168.97 63.6135 168.97 63.4753C168.97 63.3202 169.013 63.208 169.081 63.1816C169.151 63.1553 169.192 63.0418 169.192 62.8777C169.192 62.7336 169.226 62.6163 169.267 62.6163C169.307 62.6163 169.341 62.5037 169.341 62.366C169.341 62.2291 169.39 62.0748 169.452 62.0238C169.519 61.9677 169.563 61.8058 169.563 61.6077C169.563 61.4296 169.596 61.2838 169.637 61.2838C169.678 61.2838 169.711 61.0964 169.711 60.8669C169.711 60.5549 169.744 60.4257 169.841 60.3547C169.963 60.265 169.97 59.0885 169.97 37.4506C169.97 15.8137 169.963 14.6367 169.841 14.547C169.747 14.479 169.711 14.3494 169.711 14.0867C169.711 13.8857 169.679 13.6893 169.641 13.6511C169.603 13.612 169.563 13.4224 169.553 13.2294C169.542 13.0131 169.501 12.8775 169.446 12.8775C169.396 12.8775 169.337 12.7372 169.314 12.563C169.206 11.7567 169.169 11.6058 169.074 11.5688C169.013 11.5458 168.971 11.4243 168.971 11.2785C168.971 11.1404 168.938 11.0269 168.897 11.0269C168.856 11.0269 168.823 10.9478 168.823 10.8509C168.823 10.754 168.773 10.6333 168.712 10.5827C168.651 10.5321 168.6 10.3931 168.6 10.2733C168.6 10.147 168.569 10.0752 168.526 10.1016C168.483 10.1283 168.452 10.0531 168.452 9.92093C168.452 9.76919 168.416 9.69438 168.341 9.69438C168.273 9.69438 168.23 9.6251 168.23 9.51374C168.23 9.41471 168.199 9.3144 168.162 9.29102C168.124 9.26764 168.072 9.14906 168.045 9.02707C168.018 8.90551 167.965 8.8239 167.928 8.84728C167.891 8.87066 167.86 8.82263 167.86 8.74102C167.86 8.66026 167.827 8.57271 167.786 8.5472C167.746 8.52213 167.713 8.43669 167.713 8.35849C167.713 8.27901 167.662 8.21482 167.601 8.21482C167.54 8.21482 167.49 8.14979 167.49 8.07074C167.49 7.99168 167.457 7.90625 167.416 7.88159C167.375 7.85609 167.342 7.77023 167.342 7.6899C167.342 7.60957 167.298 7.52669 167.244 7.50629C167.189 7.48503 167.1 7.35327 167.045 7.21216C166.99 7.07147 166.9 6.95629 166.847 6.95629C166.794 6.95629 166.75 6.89763 166.749 6.82622C166.749 6.75524 166.637 6.57885 166.5 6.43476C166.364 6.29068 166.228 6.09898 166.2 6.0093C166.172 5.91919 166.117 5.84566 166.079 5.84566C166.041 5.84566 166.01 5.80996 166.01 5.76575C166.01 5.66374 165.822 5.47503 165.719 5.47503C165.676 5.47503 165.64 5.43932 165.64 5.39555C165.64 5.29354 165.452 5.10482 165.349 5.10482C165.305 5.10482 165.269 5.06189 165.269 5.01004C165.269 4.95776 165.2 4.86637 165.114 4.80644C165.029 4.74651 164.93 4.62283 164.894 4.53144C164.858 4.44006 164.783 4.3644 164.726 4.3644C164.67 4.3644 164.561 4.28152 164.485 4.17951C164.408 4.0775 164.304 3.99419 164.253 3.99419C164.201 3.99419 164.159 3.95849 164.159 3.91471C164.159 3.81228 163.971 3.62356 163.868 3.62356C163.824 3.62356 163.788 3.57766 163.788 3.52155C163.788 3.46502 163.672 3.36344 163.53 3.29586C163.387 3.22828 163.27 3.14114 163.27 3.10246C163.27 3.06336 163.221 3.03191 163.16 3.03191C163.098 3.03191 163.049 2.99833 163.049 2.95795C163.049 2.91715 163.002 2.88357 162.945 2.88357C162.889 2.88357 162.823 2.83384 162.8 2.77221C162.776 2.71143 162.706 2.66128 162.644 2.66128C162.582 2.66128 162.53 2.62812 162.53 2.58732C162.53 2.54651 162.484 2.51336 162.427 2.51336C162.37 2.51336 162.305 2.46321 162.281 2.40243C162.258 2.3408 162.171 2.29064 162.088 2.29064C162.006 2.29064 161.938 2.25749 161.938 2.21669C161.938 2.17588 161.855 2.14273 161.753 2.14273C161.638 2.14273 161.567 2.10065 161.567 2.03179C161.567 1.97016 161.517 1.92043 161.455 1.92043C161.332 1.92043 161.074 1.78782 160.917 1.64331C160.862 1.5923 160.754 1.55023 160.678 1.55023C160.603 1.55023 160.519 1.5175 160.494 1.47627C160.469 1.43546 160.367 1.40231 160.268 1.40231C160.156 1.40231 160.087 1.35938 160.087 1.29095C160.087 1.2221 160.018 1.18002 159.902 1.18002C159.8 1.18002 159.717 1.15366 159.717 1.12136C159.717 1.08948 159.609 1.05548 159.478 1.04485C159.346 1.03508 159.212 0.977699 159.178 0.918194C159.143 0.855288 159.01 0.809809 158.862 0.809809C158.722 0.809809 158.607 0.776231 158.607 0.735002C158.607 0.694623 158.494 0.661045 158.357 0.661045C158.219 0.661045 158.068 0.614716 158.02 0.557336C157.938 0.457452 157.693 0.407723 156.833 0.318465C156.582 0.292112 156.394 0.229632 156.339 0.1544C156.254 0.0472902 17.402 -0.0547189 15.1129 0.0549409ZM22.3507 17.3094C23.519 17.4603 24.6928 18.114 24.8386 18.695C24.8633 18.7936 24.9096 18.8744 24.9415 18.8744C25.1361 18.8744 25.2755 53.5056 25.0847 54.4025C24.7659 55.8982 23.0872 56.7937 20.9724 56.5961C19.898 56.4966 19.609 56.4537 19.5699 56.3916C19.5478 56.3559 19.4547 56.327 19.3638 56.327C19.042 56.327 18.0441 55.6448 17.9026 55.3278C17.8661 55.2462 17.8083 55.1297 17.7738 55.0685C17.7394 55.0077 17.6727 54.8832 17.6255 54.7926C17.5125 54.5733 17.5014 19.1298 17.614 19.0601C17.6548 19.0346 17.6884 18.9662 17.6884 18.9071C17.6884 18.6164 18.6272 17.6915 18.9222 17.6915C18.9762 17.6915 19.0199 17.6579 19.0199 17.6167C19.0199 17.5763 19.0824 17.5427 19.1589 17.5427C19.2358 17.5427 19.4173 17.493 19.5635 17.4318C19.7097 17.3701 19.9885 17.317 20.1832 17.3132C20.3778 17.3094 20.6205 17.2775 20.7221 17.2431C20.9231 17.1738 21.4777 17.1967 22.3507 17.3094ZM49.8418 17.6256C49.8805 17.6609 50.0802 17.6915 50.2859 17.6932C50.4912 17.6949 50.7925 17.7446 50.9557 17.8033C51.1185 17.8619 51.3739 17.9104 51.5248 17.9108C51.6748 17.9116 51.8185 17.9452 51.8435 17.986C51.8686 18.0273 51.9791 18.0604 52.0883 18.0604C52.198 18.0608 52.3824 18.1106 52.4997 18.1718C52.6162 18.233 52.8057 18.2827 52.9209 18.2827C53.0361 18.2827 53.1508 18.3159 53.1759 18.3567C53.2014 18.3975 53.2779 18.4306 53.3468 18.431C53.4156 18.4315 53.5673 18.4812 53.6838 18.5424C53.7998 18.6032 53.9422 18.6529 53.9996 18.6529C54.1041 18.6529 54.1598 18.6759 54.6065 18.8994C54.742 18.9674 54.9142 19.0231 54.989 19.0231C55.0638 19.0231 55.136 19.0482 55.1492 19.0788C55.1755 19.1375 55.4879 19.2956 56.0068 19.5123C56.1798 19.5846 56.3213 19.6705 56.3213 19.7036C56.3213 19.7363 56.3719 19.7635 56.4335 19.7635C56.4956 19.7635 56.6779 19.8464 56.8394 19.9489C57.0005 20.0504 57.1548 20.1337 57.1824 20.1337C57.21 20.1337 57.3413 20.2171 57.4748 20.3191C57.6078 20.4211 57.7379 20.5044 57.7625 20.5044C57.7876 20.5044 57.8479 20.5375 57.8972 20.5788C57.9461 20.6191 58.3027 20.8746 58.6894 21.147C59.0758 21.4191 59.409 21.6605 59.4294 21.6839C59.4493 21.7068 59.6325 21.8594 59.8344 22.0222C60.4868 22.5463 61.9352 24.0305 62.4758 24.7284C62.5841 24.8682 62.7422 25.0629 62.8272 25.1607C62.9122 25.2584 62.9815 25.3609 62.9815 25.3872C62.9815 25.414 63.0397 25.502 63.1111 25.5823C63.3326 25.8322 63.8698 26.6368 63.8698 26.7184C63.8698 26.7618 63.9008 26.7966 63.9386 26.7966C63.9769 26.7966 64.0313 26.8715 64.0597 26.9633C64.0878 27.0546 64.135 27.1465 64.1639 27.1669C64.1919 27.1873 64.3245 27.4206 64.4571 27.685C64.5901 27.9498 64.7584 28.283 64.8307 28.4254C65.1928 29.1365 65.35 29.4837 65.35 29.573C65.35 29.627 65.3964 29.7655 65.4542 29.8811C65.6335 30.2416 65.8711 30.9042 65.9221 31.183C65.9425 31.2957 65.9884 31.4058 66.0245 31.4279C66.0606 31.45 66.0895 31.5762 66.0895 31.7084C66.0895 31.8401 66.124 31.9825 66.1665 32.0246C66.2464 32.1045 66.359 32.618 66.4482 33.3095C66.4763 33.5335 66.526 33.7575 66.557 33.8064C66.8528 34.2765 66.8528 39.7446 66.557 40.2142C66.526 40.2636 66.4767 40.4875 66.4482 40.7111C66.359 41.4031 66.2459 41.9165 66.1665 41.9964C66.124 42.0385 66.0895 42.1809 66.0895 42.3131C66.0895 42.4449 66.0606 42.5707 66.0245 42.5932C65.9884 42.6157 65.9425 42.7258 65.9221 42.8376C65.8715 43.1168 65.6335 43.7799 65.4542 44.1399C65.3964 44.2551 65.35 44.3937 65.35 44.4476C65.35 44.5016 65.2706 44.7073 65.1741 44.9041C65.0772 45.1013 64.8944 45.4796 64.7674 45.7444C64.5077 46.2855 64.2255 46.7985 64.1566 46.8542C64.132 46.8746 64.0878 46.9664 64.0593 47.0578C64.0308 47.1492 63.9764 47.224 63.9382 47.224C63.9004 47.224 63.8693 47.258 63.8693 47.2992C63.8693 47.3876 63.2697 48.2862 63.1868 48.3223C63.1553 48.3355 63.1294 48.3941 63.1294 48.4515C63.1294 48.5097 63.0984 48.5565 63.0601 48.5565C63.0223 48.5565 62.9722 48.6151 62.9492 48.6865C62.9263 48.7575 62.7992 48.9343 62.667 49.0788C62.5348 49.2234 62.3266 49.4733 62.205 49.6339C61.9058 50.0284 60.2955 51.6384 59.8357 52.0018C59.6321 52.1629 59.4489 52.3142 59.4289 52.3385C59.3682 52.4099 58.0779 53.3309 57.737 53.5468C56.9954 54.0152 55.3995 54.8483 55.2444 54.8483C55.1853 54.8483 55.1364 54.881 55.1364 54.9223C55.1364 54.9631 55.0765 54.9962 55.0026 54.9962C54.929 54.9962 54.8041 55.0451 54.7255 55.105C54.646 55.1645 54.5227 55.2147 54.4509 55.216C54.3791 55.2173 54.2631 55.2474 54.1925 55.2831C53.8806 55.4412 53.4947 55.5883 53.3944 55.5883C53.3336 55.5883 53.2265 55.6172 53.1559 55.6521C52.9226 55.7673 52.2702 55.9585 52.1096 55.9585C52.0233 55.9585 51.8945 55.9883 51.8236 56.0244C50.77 56.5633 44.6496 56.6841 43.4196 56.1902C43.3053 56.1447 43.0992 56.1069 42.9615 56.1069C42.8246 56.1069 42.6912 56.0737 42.6665 56.0325C42.641 55.9917 42.5352 55.9585 42.4311 55.9585C42.2449 55.9585 41.6053 55.7766 41.3537 55.6521C41.2831 55.6172 41.176 55.5883 41.1153 55.5883C41.0145 55.5883 40.6291 55.4412 40.3171 55.2831C40.2466 55.2474 40.1471 55.2185 40.0961 55.2185C40.0451 55.2185 39.8369 55.1386 39.6324 55.04C38.1857 54.3438 37.8037 54.1517 37.411 53.9217C37.1666 53.7785 36.892 53.6234 36.7998 53.5766C36.7084 53.5303 36.6332 53.464 36.6332 53.43C36.6332 53.396 36.5996 53.3679 36.5584 53.3679C36.4615 53.3679 35.5822 52.7333 34.8202 52.1145C33.977 51.4302 32.6382 50.0747 32.0322 49.2926C31.9238 49.1524 31.7657 48.9581 31.6807 48.8595C31.5961 48.7622 31.5268 48.6598 31.5268 48.6334C31.5268 48.6066 31.4673 48.5199 31.3951 48.4413C31.2102 48.2394 30.6386 47.3693 30.6386 47.2903C30.6386 47.2542 30.6093 47.2244 30.5731 47.2244C30.5374 47.2244 30.4886 47.1662 30.4652 47.0952C30.4082 46.9222 30.0721 46.3327 29.9756 46.2358C29.9331 46.1933 29.8987 46.0993 29.8987 46.0254C29.8987 45.9523 29.8651 45.8928 29.8243 45.8928C29.7835 45.8928 29.7499 45.8303 29.7499 45.7538C29.7499 45.6773 29.7006 45.5731 29.639 45.5225C29.5778 45.472 29.5281 45.3865 29.5281 45.3326C29.5281 45.2786 29.4448 45.078 29.3428 44.8863C29.2412 44.695 29.1575 44.4765 29.1575 44.4013C29.1575 44.3256 29.1281 44.2644 29.092 44.2644C29.0563 44.2644 29.01 44.1896 28.9887 44.0978C28.9675 44.006 28.9088 43.8147 28.8578 43.6724C28.8068 43.5291 28.7427 43.3459 28.7133 43.2652C28.6849 43.1836 28.6194 43.0004 28.568 42.858C28.5166 42.7152 28.4596 42.4988 28.4405 42.3764C28.4222 42.2544 28.3806 42.0878 28.3478 42.0066C28.2361 41.7261 28.0962 41.1175 28.0678 40.7855C28.0525 40.6019 28.01 40.386 27.9743 40.3039C27.9386 40.2232 27.891 39.9231 27.8684 39.6383C27.8459 39.3535 27.7953 38.9536 27.7567 38.75C27.6644 38.2671 27.6649 35.7484 27.7575 35.2711C27.797 35.0675 27.8493 34.6424 27.8735 34.3258C27.8978 34.0091 27.9471 33.7324 27.9828 33.7107C28.018 33.6886 28.0465 33.522 28.0465 33.3397C28.0465 33.1578 28.0967 32.8891 28.1579 32.7429C28.2191 32.5967 28.2692 32.3833 28.2692 32.269C28.2692 32.1538 28.2985 32.042 28.3351 32.0195C28.3716 31.9966 28.4167 31.8529 28.4358 31.7007C28.4694 31.4308 28.5909 31.0394 28.7227 30.7754C28.758 30.7049 28.7869 30.5867 28.7869 30.5119C28.7869 30.4379 28.8357 30.3126 28.8952 30.2339C28.9556 30.1544 29.0049 30.015 29.0062 29.9236C29.0079 29.8323 29.0419 29.757 29.0831 29.757C29.1239 29.757 29.157 29.695 29.157 29.6202C29.157 29.5454 29.2403 29.3265 29.3423 29.1352C29.4439 28.9439 29.5276 28.7429 29.5276 28.6885C29.5276 28.6349 29.5774 28.5495 29.6386 28.4989C29.7002 28.4483 29.7495 28.3472 29.7495 28.2741C29.7495 28.201 29.775 28.13 29.8056 28.1164C29.8358 28.1028 29.948 27.9251 30.0542 27.7215C30.4235 27.0121 30.5272 26.8332 30.5821 26.809C30.6127 26.7958 30.6382 26.7575 30.6382 26.7252C30.6382 26.6504 31.2174 25.7736 31.3947 25.5802C31.4669 25.5007 31.5264 25.4148 31.5264 25.3881C31.5264 25.3617 31.5893 25.2661 31.6675 25.1764C31.7453 25.0867 31.92 24.875 32.056 24.7063C32.5447 24.0985 32.7589 23.8652 33.5333 23.0984C34.3777 22.2611 34.5125 22.1395 34.9676 21.7999C35.1304 21.6792 35.2804 21.5597 35.3008 21.5347C35.3212 21.5096 35.6043 21.3022 35.9294 21.0727C36.2554 20.8436 36.5554 20.6306 36.5954 20.6C36.6362 20.5686 36.7943 20.4772 36.9469 20.3964C37.0994 20.3157 37.2248 20.2243 37.2248 20.1928C37.2248 20.1614 37.2907 20.135 37.3727 20.135C37.4535 20.135 37.5206 20.1044 37.5206 20.0666C37.5206 20.0279 37.5954 19.9735 37.6876 19.9455C37.779 19.917 37.8708 19.8723 37.8912 19.8464C37.9299 19.7971 38.8296 19.3546 39.3345 19.137C39.833 18.922 40.142 18.7842 40.2767 18.7184C40.3477 18.6835 40.4518 18.6555 40.5088 18.6555C40.5657 18.6555 40.7081 18.6057 40.8246 18.545C40.9406 18.4837 41.0927 18.434 41.1616 18.4336C41.2304 18.4332 41.3074 18.4 41.332 18.3592C41.3575 18.3184 41.4718 18.2853 41.5874 18.2853C41.7026 18.2853 41.8922 18.2355 42.0086 18.1743C42.1251 18.1131 42.3104 18.0634 42.42 18.063C42.5292 18.063 42.6397 18.0298 42.6648 17.9886C42.6899 17.9478 42.8437 17.9146 43.0069 17.9146C43.1701 17.9146 43.3716 17.8781 43.4545 17.8343C43.9674 17.5576 49.5711 17.3769 49.8418 17.6256ZM90.8233 17.626C90.8917 17.6613 91.0749 17.6906 91.2304 17.6919C91.3855 17.6928 91.6465 17.7289 91.8088 17.7718C91.9716 17.8156 92.2547 17.8785 92.4374 17.9133C93.1765 18.0532 93.5084 18.139 93.5781 18.2087C93.6185 18.2491 93.7596 18.2823 93.8909 18.2823C94.0235 18.2823 94.1514 18.3154 94.1769 18.3562C94.2024 18.397 94.2789 18.4302 94.3474 18.4306C94.4162 18.431 94.5684 18.4808 94.6848 18.542C94.8013 18.6028 94.9432 18.6525 95.0002 18.6525C95.0571 18.6525 95.1617 18.6805 95.2322 18.7154C95.3032 18.7502 95.4774 18.8293 95.6198 18.8905C96.0695 19.0848 96.7614 19.4023 96.9152 19.4856C96.9964 19.5298 97.2463 19.6603 97.4707 19.7763C97.6938 19.8919 97.9424 20.0283 98.0228 20.0781C98.1027 20.1282 98.3857 20.3016 98.6518 20.4632C98.9178 20.6247 99.1465 20.7828 99.1601 20.8147C99.1737 20.8465 99.2319 20.8729 99.2897 20.8729C99.3475 20.8729 99.3942 20.9039 99.3942 20.9417C99.3942 20.9796 99.4554 21.0302 99.5294 21.0535C99.6038 21.0778 99.7283 21.1547 99.8065 21.2257C99.8851 21.2971 100.099 21.4713 100.282 21.6133C100.656 21.9028 100.92 22.131 101.564 22.7231C101.977 23.1031 102.125 23.2531 102.946 24.1295C103.117 24.3131 103.396 24.6455 103.565 24.8695C103.733 25.0935 103.914 25.3209 103.966 25.3762C104.017 25.431 104.106 25.5636 104.162 25.672C104.218 25.7804 104.334 25.9321 104.419 26.0095C104.504 26.0873 104.575 26.1965 104.575 26.253C104.575 26.3095 104.643 26.4286 104.725 26.5182C104.809 26.6075 104.919 26.7643 104.971 26.8668C105.023 26.9688 105.177 27.2523 105.315 27.4963C105.56 27.9328 106.012 28.8339 106.132 29.1246C106.326 29.5955 106.42 29.8195 106.527 30.0609C106.593 30.2101 106.647 30.3827 106.647 30.4452C106.647 30.5077 106.68 30.5795 106.721 30.605C106.762 30.6301 106.795 30.7486 106.795 30.8685C106.795 30.9875 106.825 31.0861 106.861 31.0861C106.897 31.0861 106.949 31.2353 106.976 31.4172C107.003 31.5996 107.057 31.7683 107.095 31.7917C107.133 31.8155 107.165 31.9596 107.165 32.1117C107.165 32.2643 107.195 32.4203 107.231 32.459C107.32 32.5546 107.468 33.3116 107.513 33.8986C107.532 34.1634 107.587 34.4265 107.634 34.4839C107.755 34.6309 107.755 39.3841 107.634 39.5312C107.587 39.5882 107.532 39.8513 107.513 40.1161C107.468 40.703 107.32 41.46 107.231 41.5557C107.195 41.5943 107.165 41.7508 107.165 41.9029C107.165 42.0547 107.133 42.1992 107.095 42.223C107.057 42.2468 107.003 42.4151 106.976 42.5974C106.949 42.7794 106.897 42.9285 106.861 42.9285C106.825 42.9285 106.795 43.0263 106.795 43.1462C106.795 43.266 106.762 43.3846 106.721 43.4097C106.68 43.4348 106.647 43.5117 106.646 43.5806C106.646 43.649 106.596 43.8011 106.535 43.918C106.474 44.0341 106.425 44.1582 106.425 44.193C106.425 44.3231 105.731 45.778 105.315 46.518C105.178 46.7624 105.03 47.0293 104.987 47.1113C104.943 47.1934 104.833 47.3647 104.741 47.4922C104.649 47.6205 104.575 47.7532 104.575 47.788C104.575 47.8229 104.491 47.941 104.389 48.0511C104.288 48.1608 104.204 48.2772 104.204 48.31C104.204 48.3423 104.121 48.4591 104.019 48.5688C103.918 48.6785 103.834 48.8 103.834 48.8396C103.834 48.8787 103.807 48.9216 103.777 48.9356C103.745 48.9492 103.643 49.0601 103.549 49.1821C102.853 50.0887 101.277 51.6486 100.319 52.3788C100.115 52.534 99.8847 52.7193 99.8052 52.7903C99.7257 52.8617 99.6365 52.9199 99.6059 52.9199C99.5761 52.9199 99.4992 52.9722 99.4363 53.0351C99.2548 53.2166 97.4159 54.3111 96.8404 54.5805C95.7316 55.0995 95.463 55.2143 95.3618 55.2143C95.304 55.2143 95.2365 55.2474 95.2114 55.2887C95.1863 55.329 95.0928 55.3635 95.0036 55.3647C94.9143 55.366 94.7775 55.4162 94.698 55.4761C94.6189 55.536 94.4791 55.5845 94.3882 55.5845C94.2959 55.5845 94.2012 55.6181 94.1757 55.6589C94.1502 55.6997 94.0405 55.7341 93.9309 55.7358C93.8212 55.7371 93.6487 55.786 93.5467 55.8442C93.4451 55.9024 93.2806 55.9509 93.182 55.9526C93.0834 55.9538 92.8998 55.9857 92.7749 56.0227C91.8679 56.2922 91.3116 56.3704 89.4947 56.4822C87.8699 56.582 84.764 56.412 84.4283 56.205C84.376 56.1727 84.1831 56.1222 83.9999 56.0924C83.3849 55.9938 82.9331 55.8803 82.8588 55.8064C82.8184 55.766 82.6939 55.7332 82.5829 55.7332C82.4712 55.7332 82.3594 55.6997 82.3343 55.6589C82.3088 55.6181 82.2085 55.5845 82.1103 55.5845C81.9514 55.5845 81.6084 55.4642 81.2438 55.2793C81.1728 55.2436 81.0823 55.2147 81.0423 55.2147C81.0019 55.2147 80.7933 55.1348 80.5786 55.0375C80.3636 54.9401 80.1379 54.8402 80.0767 54.816C80.0155 54.7918 79.9156 54.7412 79.8549 54.7034C79.7941 54.6656 79.6275 54.5797 79.4851 54.5121C78.7924 54.1827 77.6347 53.5014 77.6347 53.4232C77.6347 53.3909 77.5875 53.3645 77.5288 53.3645C77.4706 53.3645 77.3784 53.3199 77.3244 53.265C77.2696 53.2102 77.0758 53.0721 76.8935 52.9577C76.7107 52.8438 76.5454 52.7299 76.525 52.7053C76.5046 52.6802 76.366 52.5697 76.2164 52.4583C76.0673 52.3474 75.9011 52.2144 75.8463 52.1625C75.7919 52.1106 75.6308 51.9734 75.4884 51.8573C74.7561 51.261 73.516 49.9642 72.8241 49.0716C72.6821 48.888 72.541 48.7269 72.51 48.7133C72.4794 48.7001 72.4539 48.6568 72.4539 48.6177C72.4539 48.5509 72.3931 48.4647 72.1764 48.2228C72.1254 48.1654 72.0842 48.0838 72.0842 48.0396C72.0842 47.9963 72.0582 47.9606 72.0268 47.9606C71.9953 47.9606 71.904 47.8356 71.8236 47.683C71.7437 47.5309 71.6575 47.3893 71.6332 47.3685C71.6082 47.3481 71.4968 47.1649 71.3842 46.9613C71.2724 46.7577 71.1339 46.5392 71.0769 46.4742C71.02 46.41 70.9711 46.3101 70.9681 46.2523C70.9651 46.1945 70.8988 46.0475 70.8206 45.9251C70.7424 45.8027 70.6591 45.653 70.6345 45.5918C70.6103 45.5311 70.5066 45.2981 70.4037 45.0737C70.3013 44.8501 70.1848 44.5836 70.1445 44.4812C70.1045 44.38 70.025 44.2024 69.9672 44.0868C69.9103 43.9716 69.8635 43.8152 69.8635 43.7399C69.8635 43.6639 69.8304 43.5818 69.7892 43.5559C69.7484 43.5308 69.7152 43.4356 69.7152 43.3438C69.7152 43.2524 69.6663 43.1126 69.6064 43.034C69.5469 42.9545 69.4968 42.784 69.4955 42.654C69.4942 42.5239 69.4598 42.3972 69.419 42.3717C69.3782 42.3467 69.3446 42.237 69.3442 42.1273C69.3442 42.0173 69.294 41.8328 69.2333 41.7159C69.1725 41.599 69.1228 41.3763 69.1228 41.2203C69.1228 41.0652 69.0896 40.9168 69.0488 40.8918C69.0076 40.8663 68.9744 40.6877 68.9744 40.4931C68.9744 40.2993 68.9273 39.9932 68.8695 39.813C68.6111 39.0101 68.6111 35.0012 68.8695 34.1983C68.9273 34.018 68.9744 33.7116 68.9744 33.5178C68.9744 33.324 69.0076 33.1446 69.0488 33.1195C69.0896 33.0944 69.1228 32.9461 69.1228 32.7905C69.1228 32.635 69.1725 32.4118 69.2333 32.2954C69.294 32.1789 69.3442 31.9936 69.3442 31.8839C69.3446 31.7743 69.3782 31.6642 69.419 31.6391C69.4598 31.614 69.4942 31.4874 69.4955 31.3573C69.4968 31.2272 69.5469 31.0564 69.6064 30.9773C69.6663 30.8983 69.7152 30.7567 69.7152 30.6628C69.7152 30.5689 69.7484 30.4923 69.7892 30.4923C69.8304 30.4923 69.8635 30.4116 69.8635 30.313C69.8635 30.2144 69.9103 30.0393 69.9672 29.9245C70.0616 29.7362 70.1326 29.5704 70.263 29.2338C70.2873 29.1726 70.3361 29.0727 70.3723 29.0119C70.4084 28.9512 70.4794 28.8011 70.5295 28.6787C70.5797 28.5567 70.6494 28.4067 70.6846 28.3459C70.7199 28.2851 70.8202 28.0854 70.9078 27.9017C70.9949 27.7185 71.0871 27.5524 71.1122 27.5315C71.1381 27.5111 71.2571 27.3029 71.3774 27.0691C71.4977 26.8349 71.6188 26.6432 71.646 26.6432C71.6736 26.6432 71.7153 26.585 71.7399 26.514C71.7918 26.3589 71.9256 26.1497 72.1012 25.9495C72.1721 25.8696 72.2491 25.7425 72.2729 25.6682C72.2962 25.5938 72.3468 25.5334 72.3846 25.5334C72.4225 25.5334 72.4535 25.4837 72.4535 25.4221C72.4535 25.3609 72.4824 25.3111 72.5177 25.3111C72.5525 25.3111 72.6651 25.1862 72.7663 25.0336C73.0353 24.6294 73.4165 24.2056 74.4149 23.2038C75.3307 22.284 75.5849 22.0515 76.154 21.6103C76.3371 21.4684 76.4982 21.3273 76.5118 21.2962C76.5254 21.266 76.5807 21.2401 76.6351 21.2401C76.6895 21.2401 76.7447 21.215 76.7583 21.1849C76.7944 21.1041 77.4774 20.648 77.5624 20.648C77.6024 20.648 77.6342 20.6149 77.6342 20.5741C77.6342 20.5329 77.6814 20.4997 77.7392 20.4997C77.797 20.4997 77.8552 20.4717 77.8688 20.4372C77.8935 20.3747 78.4349 20.0598 79.1519 19.6913C79.3555 19.5863 79.5331 19.4758 79.5467 19.4452C79.5603 19.415 79.6096 19.3899 79.6568 19.3899C79.704 19.3899 79.9093 19.31 80.1128 19.2123C80.3173 19.1145 80.6177 18.9798 80.7801 18.9126C80.9424 18.8455 81.1341 18.7587 81.2047 18.7201C81.2752 18.6814 81.4087 18.6487 81.5009 18.6474C81.5927 18.6461 81.7329 18.596 81.8116 18.536C81.891 18.4761 82.0304 18.4272 82.1218 18.4272C82.2132 18.4272 82.3063 18.3979 82.3288 18.3618C82.3513 18.3256 82.478 18.2785 82.6101 18.2568C82.9416 18.2032 83.4907 18.0532 83.6463 17.975C83.7168 17.9388 83.9017 17.9095 84.0568 17.9095C84.212 17.9095 84.3718 17.8768 84.4117 17.8368C84.6871 17.5661 90.3396 17.3782 90.8233 17.626ZM45.2939 24.7624C45.1107 24.8202 44.8378 24.8678 44.6874 24.8682C44.5369 24.8691 44.3937 24.9027 44.3686 24.9435C44.3431 24.9843 44.2501 25.0174 44.1608 25.0174C43.9959 25.017 43.3639 25.204 43.1302 25.323C43.0592 25.3587 42.9687 25.3876 42.9279 25.3876C42.8624 25.3876 42.4315 25.5721 41.7409 25.8956C41.5985 25.9623 41.4706 26.0418 41.4574 26.0724C41.4442 26.103 41.3686 26.1276 41.2908 26.1276C41.2126 26.1276 41.1488 26.1604 41.1488 26.2003C41.1488 26.2403 41.0655 26.2938 40.964 26.3193C40.862 26.3448 40.7782 26.3958 40.7782 26.432C40.7782 26.4681 40.7285 26.4978 40.6673 26.4978C40.6057 26.4978 40.5564 26.5289 40.5564 26.5671C40.5564 26.605 40.4812 26.6594 40.3894 26.6878C40.298 26.7163 40.2062 26.7614 40.1858 26.7869C40.1535 26.8289 39.8033 27.1056 39.3371 27.4597C39.1054 27.6352 37.9567 28.7964 37.6515 29.1624C37.4994 29.346 37.3413 29.5356 37.3 29.5845C37.2588 29.6338 37.2257 29.7086 37.2257 29.7515C37.2257 29.794 37.1993 29.8284 37.1683 29.8284C37.1377 29.8284 36.9983 30.0201 36.8593 30.2543C36.7203 30.4885 36.5856 30.6964 36.5605 30.7168C36.5355 30.7372 36.4568 30.8706 36.3867 31.013C36.3162 31.1554 36.2303 31.322 36.195 31.3828C36.0089 31.7071 35.745 32.3268 35.745 32.4382C35.745 32.5092 35.7114 32.5674 35.671 32.5674C35.6298 32.5674 35.5966 32.6443 35.5966 32.7378C35.5966 32.8322 35.5478 32.9737 35.4878 33.0524C35.4279 33.131 35.3782 33.3023 35.3769 33.4323C35.3752 33.5624 35.3412 33.6891 35.3004 33.7141C35.2596 33.7396 35.2265 33.8616 35.2265 33.9853C35.2265 34.109 35.1784 34.3147 35.1198 34.4435C34.8261 35.0849 34.8384 39.1194 35.1355 39.6489C35.1852 39.7382 35.2265 39.9108 35.2265 40.0332C35.2265 40.1556 35.2596 40.2763 35.3004 40.3014C35.3412 40.3273 35.3752 40.4535 35.3769 40.5836C35.3782 40.7137 35.4279 40.8841 35.4878 40.9636C35.5478 41.0426 35.5966 41.1842 35.5966 41.2777C35.5966 41.3725 35.6298 41.449 35.671 41.449C35.7114 41.449 35.7458 41.5238 35.7471 41.6156C35.7484 41.7074 35.7985 41.8468 35.858 41.9255C35.9184 42.0049 35.9668 42.1295 35.9668 42.203C35.9668 42.2765 36 42.3365 36.0412 42.3365C36.082 42.3365 36.1151 42.4011 36.1151 42.4801C36.1151 42.5596 36.1487 42.645 36.1895 42.6697C36.2303 42.6952 36.331 42.8554 36.4131 43.0259C36.5737 43.36 36.7191 43.6095 36.7871 43.6694C36.8104 43.6898 36.8925 43.8143 36.9694 43.9465C37.0463 44.0787 37.1356 44.1871 37.1674 44.1871C37.1993 44.1871 37.2261 44.2228 37.2261 44.2661C37.2261 44.3103 37.2673 44.392 37.3183 44.4493C37.5202 44.6738 37.5954 44.7753 37.5954 44.8191C37.5954 44.916 39.2801 46.5422 39.7051 46.8559C39.9491 47.0365 40.1658 47.201 40.1862 47.221C40.2597 47.2958 40.5224 47.4488 40.6486 47.4913C40.72 47.516 40.7782 47.5644 40.7782 47.6001C40.7782 47.6367 40.8241 47.6656 40.8802 47.6656C40.9363 47.6656 41.0239 47.7157 41.0745 47.7765C41.125 47.8382 41.2258 47.8883 41.2993 47.8883C41.3724 47.8883 41.4434 47.913 41.4565 47.9436C41.4697 47.9742 41.5976 48.0528 41.74 48.1187C41.8824 48.1841 42.1829 48.3257 42.4073 48.4332C42.6317 48.5407 42.8709 48.6283 42.9394 48.6283C43.0078 48.6283 43.0839 48.661 43.1094 48.7023C43.1344 48.7431 43.2301 48.7762 43.3214 48.7762C43.4132 48.7762 43.5526 48.8251 43.6313 48.885C43.7107 48.945 43.8977 48.9947 44.0482 48.996C44.1982 48.9972 44.3414 49.0317 44.3669 49.0729C44.392 49.1137 44.5263 49.1469 44.6649 49.1469C44.803 49.1469 45.0669 49.1979 45.2514 49.2603C45.9114 49.4848 49.8826 49.3173 50.1461 49.0546C50.1763 49.024 50.2876 48.9977 50.3926 48.9964C50.5885 48.9938 51.3255 48.7626 51.4117 48.6768C51.4381 48.6504 51.5286 48.6279 51.6136 48.6266C51.6986 48.6253 51.8325 48.5752 51.9115 48.5152C51.9906 48.4557 52.1151 48.4069 52.1891 48.4069C52.2626 48.4069 52.3225 48.3733 52.3225 48.3329C52.3225 48.2921 52.4058 48.2585 52.5078 48.2585C52.6098 48.2585 52.6931 48.2317 52.6931 48.1982C52.6931 48.1646 52.8512 48.0656 53.0446 47.9763C53.4258 47.8003 53.5673 47.7179 53.9277 47.4633C54.0574 47.3715 54.1989 47.2962 54.2418 47.2962C54.2856 47.2962 54.3213 47.2627 54.3213 47.2219C54.3213 47.1815 54.3685 47.1479 54.4263 47.1479C54.4836 47.1479 54.5414 47.1228 54.5555 47.0918C54.5691 47.0612 54.7301 46.9218 54.9133 46.7819C55.3086 46.4806 56.9112 44.896 56.9129 44.8059C56.9134 44.7711 57.046 44.593 57.2075 44.4094C57.369 44.2262 57.502 44.0349 57.5024 43.9839C57.5033 43.9329 57.5326 43.8913 57.5687 43.8913C57.6044 43.8913 57.6537 43.833 57.6775 43.7616C57.72 43.6358 57.873 43.374 57.9478 43.2992C58.0337 43.2133 58.3001 42.6982 58.5598 42.115C58.93 41.2849 58.9835 41.1442 58.9835 41.0023C58.9835 40.9219 59.0167 40.8565 59.0575 40.8565C59.0987 40.8565 59.1319 40.777 59.1319 40.6805C59.1319 40.584 59.1816 40.3851 59.2428 40.2389C59.304 40.0927 59.3537 39.8576 59.3537 39.7161C59.3537 39.5746 59.3873 39.439 59.4281 39.4135C59.4689 39.388 59.5025 39.2282 59.5025 39.0573C59.5025 38.8869 59.5522 38.4639 59.6134 38.118C59.7541 37.3197 59.7541 36.6575 59.6134 35.9226C59.5518 35.6034 59.5025 35.186 59.5025 34.9952C59.5025 34.8044 59.4689 34.6275 59.4281 34.6025C59.3873 34.5765 59.3537 34.4461 59.3537 34.3105C59.3537 34.1749 59.304 33.9454 59.2428 33.7991C59.1816 33.6529 59.1319 33.4489 59.1319 33.3465C59.1319 33.2432 59.0987 33.159 59.0575 33.159C59.0167 33.159 58.9835 33.0936 58.9835 33.0133C58.9835 32.9329 58.9291 32.7417 58.8628 32.5878C58.6954 32.1985 57.9924 30.7614 57.9478 30.7163C57.873 30.6415 57.72 30.3797 57.6775 30.2539C57.6537 30.1825 57.6074 30.1243 57.5738 30.1243C57.5407 30.1243 57.4939 30.0631 57.471 29.9891C57.4467 29.9151 57.369 29.7902 57.2971 29.7116C57.2249 29.6333 57.0676 29.4366 56.9469 29.2733C56.6188 28.8292 55.3073 27.5422 54.8024 27.1686C54.558 26.9875 54.3472 26.8128 54.3336 26.7796C54.32 26.7469 54.2724 26.7197 54.2282 26.7197C54.184 26.7197 54.0952 26.6734 54.031 26.6164C53.8168 26.4269 52.5643 25.7574 52.4228 25.7574C52.368 25.7574 52.3229 25.7238 52.3229 25.6835C52.3229 25.6427 52.2741 25.6095 52.2146 25.6095C52.1546 25.6095 51.98 25.5547 51.8261 25.488C51.2507 25.2385 50.5528 25.0162 50.3475 25.017C50.2583 25.017 50.1644 24.9839 50.1397 24.9431C50.1142 24.9022 49.971 24.8687 49.821 24.8682C49.6705 24.8678 49.3841 24.8181 49.1843 24.7573C48.6845 24.6056 45.7809 24.609 45.2939 24.7624ZM86.4062 24.7305C86.2838 24.7713 86.0008 24.8338 85.7768 24.8695C85.1015 24.9771 84.4857 25.1466 84.1312 25.3235C84.0607 25.3587 83.9553 25.3872 83.8966 25.3872C83.8384 25.3872 83.6964 25.4348 83.5813 25.4926C83.4661 25.5509 83.1554 25.7009 82.8906 25.8263C81.8902 26.2998 81.0364 26.8536 80.0861 27.6446C79.7941 27.8869 79.0236 28.6779 78.7494 29.0145C78.6092 29.1875 78.4511 29.3724 78.398 29.4251C78.3448 29.4782 78.3015 29.5577 78.3015 29.601C78.3015 29.6444 78.276 29.6805 78.2445 29.6805C78.2131 29.6805 78.1247 29.7966 78.0478 29.9394C77.9704 30.0818 77.8837 30.1982 77.8544 30.1982C77.8251 30.1982 77.7804 30.2565 77.7558 30.3279C77.7311 30.3993 77.6113 30.6241 77.4893 30.8273C77.2781 31.1805 76.8731 31.9927 76.7511 32.3077C76.7201 32.3893 76.6393 32.5818 76.5726 32.7357C76.5063 32.89 76.4519 33.08 76.4519 33.1569C76.4519 33.2347 76.4183 33.3189 76.3775 33.3435C76.3367 33.369 76.3036 33.4744 76.3036 33.5777C76.3036 33.681 76.256 33.8701 76.1973 33.9985C75.797 34.8809 75.797 39.1338 76.1973 40.0162C76.256 40.145 76.3036 40.3341 76.3036 40.4374C76.3036 40.5407 76.3367 40.6461 76.3775 40.6712C76.4183 40.6967 76.4519 40.7804 76.4519 40.8582C76.4519 40.9355 76.5063 41.1251 76.5726 41.2794C76.6393 41.4328 76.7201 41.6254 76.7511 41.7074C76.8731 42.0224 77.2781 42.8342 77.4893 43.1874C77.6113 43.391 77.7311 43.6163 77.7558 43.6872C77.7809 43.7586 77.8302 43.8169 77.8663 43.8169C77.902 43.8169 77.9317 43.867 77.9317 43.9278C77.9317 43.9894 77.9628 44.0387 78.0006 44.0387C78.0384 44.0387 78.089 44.0999 78.1124 44.1739C78.1366 44.2483 78.2131 44.3732 78.2841 44.4515C78.3546 44.5301 78.5624 44.7762 78.7456 44.9985C79.1443 45.4826 79.7852 46.1248 80.2246 46.481C80.4001 46.6234 80.6471 46.8312 80.7733 46.9426C80.8995 47.054 81.0368 47.1458 81.0776 47.1462C81.1188 47.1466 81.237 47.2223 81.3402 47.3137C81.4439 47.4059 81.5931 47.5168 81.6722 47.561C82.713 48.1433 82.8435 48.2109 83.223 48.3661C83.3858 48.4328 83.5766 48.5182 83.6476 48.5573C83.7181 48.5964 83.8409 48.6279 83.9204 48.6279C84.0003 48.6279 84.0862 48.6606 84.1108 48.7018C84.1367 48.7426 84.2128 48.7762 84.2817 48.7762C84.3505 48.7766 84.5022 48.8268 84.6191 48.8876C84.7351 48.9488 84.9107 48.9981 85.0084 48.9981C85.1057 48.9981 85.2439 49.0283 85.3144 49.0648C85.7522 49.2922 89.8679 49.4916 90.1025 49.2965C90.1535 49.2544 90.4008 49.1991 90.6524 49.1724C90.904 49.146 91.1271 49.0958 91.1488 49.0614C91.1705 49.0266 91.2818 48.9981 91.397 48.9981C91.5122 48.9981 91.7017 48.9488 91.8182 48.8876C91.9346 48.8268 92.1029 48.7766 92.1922 48.7762C92.2819 48.7762 92.3754 48.7426 92.4 48.7018C92.4255 48.6606 92.5016 48.6279 92.57 48.6279C92.638 48.6279 92.8777 48.5403 93.1021 48.4328C93.3265 48.3253 93.6261 48.1837 93.7694 48.1183C93.9117 48.0524 94.0392 47.9737 94.0528 47.9431C94.066 47.9125 94.1085 47.8879 94.1463 47.8879C94.2437 47.8879 95.4766 47.1152 95.6717 46.9316C95.7618 46.8465 95.8548 46.7777 95.8786 46.7777C96.0355 46.7777 97.9879 44.7991 97.9879 44.6406C97.9879 44.6015 98.013 44.5586 98.044 44.5445C98.1299 44.5067 98.5451 43.9588 98.707 43.669C99.4703 42.3025 99.69 41.8574 99.69 41.6772C99.69 41.633 99.7232 41.596 99.764 41.596C99.8048 41.596 99.8379 41.5387 99.8379 41.469C99.8379 41.3538 99.9816 40.8981 100.137 40.5228C100.17 40.4412 100.217 40.2746 100.238 40.1526C100.337 39.6013 100.483 38.9583 100.531 38.8529C100.64 38.6136 100.538 35.2243 100.404 34.6386C100.334 34.3326 100.26 33.9832 100.237 33.8612C100.216 33.7392 100.17 33.5722 100.137 33.491C99.9816 33.1157 99.8379 32.6605 99.8379 32.5444C99.8379 32.4747 99.8048 32.4173 99.764 32.4173C99.7232 32.4173 99.69 32.3808 99.69 32.3366C99.69 32.0488 98.5132 29.9347 98.1282 29.5288C98.0708 29.4689 97.891 29.2542 97.7287 29.0502C97.3666 28.598 96.63 27.8635 96.1566 27.4827C95.9628 27.3271 95.7881 27.1783 95.7673 27.1528C95.6504 27.0036 94.4336 26.2585 93.8038 25.95C92.8178 25.4658 92.3499 25.2682 92.0668 25.2142C91.9657 25.1951 91.7821 25.1449 91.6601 25.1024C91.4149 25.0174 91.0702 24.9307 90.4017 24.7866C89.8517 24.6689 86.7246 24.6243 86.4062 24.7305ZM122.372 26.9331C122.697 26.9798 122.995 27.0508 123.035 27.0908C123.075 27.1311 123.232 27.1639 123.384 27.1639C123.536 27.1639 123.682 27.197 123.707 27.2383C123.733 27.2786 123.844 27.3122 123.956 27.3122C124.068 27.3122 124.224 27.3611 124.303 27.4206C124.383 27.4805 124.519 27.5307 124.607 27.532C124.694 27.5332 124.928 27.6136 125.125 27.7109C125.322 27.8082 125.6 27.943 125.742 28.0106C126.102 28.181 126.683 28.5197 126.836 28.6481C126.907 28.7076 127.113 28.8704 127.297 29.0111C127.723 29.3388 128.307 29.9224 128.632 30.347C128.772 30.5306 128.912 30.6917 128.942 30.7049C128.973 30.7185 128.998 30.7627 128.998 30.8022C128.998 30.8426 129.075 30.9811 129.169 31.1108C129.263 31.2408 129.405 31.4797 129.483 31.6425C129.563 31.8057 129.652 31.9502 129.683 31.9634C129.713 31.9766 129.739 32.0684 129.739 32.167C129.739 32.2656 129.769 32.3459 129.807 32.3459C129.844 32.3459 129.897 32.4454 129.923 32.5674C129.95 32.6885 130.003 32.8071 130.04 32.8301C130.078 32.8539 130.108 32.9542 130.108 33.0541C130.108 33.1539 130.139 33.2938 130.177 33.3643C130.418 33.8157 130.573 34.869 130.413 34.9676C130.377 34.9901 130.325 35.1253 130.298 35.2681C130.272 35.4109 130.218 35.5278 130.179 35.5278C130.14 35.5278 130.108 35.5737 130.108 35.6311C130.108 35.9532 129.313 36.5717 128.406 36.9542C127.736 37.2373 125.371 37.0919 125.371 36.768C125.371 36.7374 125.324 36.7124 125.266 36.7124C125.134 36.7124 124.261 35.8457 124.261 35.7127C124.261 35.6583 124.236 35.6026 124.206 35.589C124.176 35.5754 124.086 35.4313 124.006 35.2685C123.927 35.1057 123.786 34.8664 123.692 34.7368C123.598 34.6071 123.521 34.4809 123.521 34.4563C123.521 34.4129 123.444 34.3109 123.244 34.0869C123.193 34.0299 123.151 33.9581 123.151 33.9267C123.151 33.1871 120.284 32.4752 118.998 32.8955C118.804 32.9593 118.598 33.0111 118.539 33.0111C118.274 33.0111 117.562 33.5093 117.401 33.8068C117.33 33.939 117.249 34.0465 117.222 34.0465C117.085 34.0465 117.011 35.317 117.119 35.8232C117.173 36.0778 117.447 36.5075 117.672 36.6954C117.927 36.907 118.572 37.304 118.661 37.304C118.713 37.304 118.821 37.3529 118.9 37.4124C118.979 37.4728 119.117 37.5221 119.206 37.5238C119.295 37.5255 119.389 37.559 119.414 37.6003C119.439 37.6411 119.532 37.6746 119.621 37.6746C119.711 37.6751 119.879 37.7252 119.996 37.786C120.112 37.8472 120.319 37.8969 120.454 37.8969C120.589 37.8969 120.718 37.9254 120.74 37.9607C120.762 37.996 120.945 38.047 121.148 38.0742C121.351 38.1014 121.537 38.1549 121.561 38.1945C121.586 38.2344 121.719 38.2663 121.856 38.2663C121.994 38.2663 122.127 38.2999 122.152 38.3411C122.178 38.3815 122.271 38.4151 122.36 38.4155C122.449 38.4155 122.618 38.4656 122.734 38.5264C122.85 38.5872 123.043 38.6369 123.159 38.6369C123.277 38.6369 123.373 38.6705 123.373 38.7109C123.373 38.7521 123.451 38.7853 123.544 38.7853C123.638 38.7853 123.779 38.8342 123.859 38.8941C123.938 38.954 124.061 39.0037 124.133 39.005C124.204 39.0063 124.321 39.036 124.391 39.0705C124.462 39.1053 124.637 39.1844 124.779 39.2464C125.424 39.527 126.373 40.0026 126.395 40.057C126.409 40.0901 126.481 40.1178 126.556 40.1178C126.63 40.1178 126.702 40.1428 126.716 40.1734C126.729 40.2036 126.99 40.394 127.295 40.5964C127.842 40.9576 129.368 42.4045 129.368 42.5609C129.368 42.6047 129.451 42.73 129.553 42.8401C129.655 42.9502 129.738 43.0654 129.738 43.0973C129.738 43.1292 129.821 43.2868 129.923 43.4479C130.025 43.6095 130.109 43.8084 130.109 43.8908C130.109 43.9729 130.14 44.04 130.18 44.04C130.218 44.04 130.272 44.1573 130.299 44.3001C130.325 44.443 130.377 44.5781 130.413 44.6006C130.449 44.6227 130.479 44.7324 130.479 44.8438C130.479 44.9551 130.508 45.0784 130.543 45.1171C130.801 45.3959 130.881 47.5738 130.674 48.6666C130.605 49.0325 130.53 49.4495 130.508 49.5919C130.487 49.7343 130.442 49.9174 130.408 49.9991C130.374 50.0798 130.29 50.3136 130.221 50.5172C130.151 50.7208 130.048 50.9919 129.991 51.1203C129.933 51.2487 129.887 51.3902 129.887 51.4348C129.887 51.479 129.854 51.5164 129.813 51.5164C129.772 51.5164 129.739 51.5666 129.739 51.6287C129.739 51.6907 129.656 51.873 129.553 52.0346C129.452 52.1956 129.368 52.3533 129.368 52.3852C129.368 52.4167 129.285 52.5327 129.183 52.6419C129.081 52.752 128.998 52.8723 128.998 52.9101C128.998 53.2017 127.023 54.9346 126.259 55.3142C126.117 55.3847 125.95 55.4723 125.889 55.5084C125.65 55.6499 124.918 55.9568 124.819 55.9568C124.761 55.9568 124.693 55.99 124.668 56.0308C124.643 56.072 124.539 56.1052 124.437 56.1052C124.335 56.1052 124.179 56.1451 124.09 56.1936C123.925 56.2832 123.568 56.3559 122.707 56.4732C122.443 56.5102 122.009 56.574 121.745 56.6169C121.165 56.7104 120.156 56.7113 119.599 56.619C119.375 56.582 118.933 56.5298 118.616 56.503C118.299 56.4762 118.023 56.4252 118.001 56.3908C117.979 56.3559 117.822 56.3262 117.652 56.3249C117.482 56.3232 117.258 56.2743 117.157 56.2161C117.055 56.1583 116.882 56.1094 116.773 56.1077C116.663 56.1064 116.553 56.072 116.528 56.0308C116.503 55.99 116.414 55.9568 116.331 55.9568C116.248 55.9568 116.092 55.9113 115.985 55.8552C115.876 55.7987 115.688 55.7116 115.566 55.6614C115.01 55.4319 113.823 54.7527 113.56 54.5142C113.516 54.473 113.316 54.3072 113.116 54.1449C112.672 53.7836 112.234 53.3437 111.939 52.962C111.817 52.8039 111.684 52.6385 111.643 52.5948C111.386 52.3202 110.57 50.8585 110.57 50.674C110.57 50.6081 110.537 50.5542 110.496 50.5542C110.456 50.5542 110.422 50.4959 110.422 50.4245C110.421 50.3531 110.372 50.1997 110.311 50.0828C110.25 49.9663 110.2 49.8078 110.2 49.7304C110.2 49.6526 110.168 49.5315 110.128 49.461C109.73 48.746 109.814 47.2193 110.276 46.779C110.297 46.7586 110.374 46.6481 110.447 46.5337C110.6 46.2931 111.529 45.6683 111.734 45.6683C111.81 45.6683 111.914 45.6271 111.965 45.5761C112.03 45.5111 112.355 45.4834 113.049 45.4834C113.744 45.4834 114.069 45.5106 114.133 45.5761C114.184 45.6271 114.327 45.6709 114.452 45.6739C114.576 45.6768 114.778 45.7431 114.9 45.8209C115.022 45.8987 115.189 45.9926 115.27 46.0292C115.579 46.169 116.417 47.4407 116.417 47.7706C116.417 47.8237 116.498 48.0205 116.598 48.2079C117.184 49.3096 117.818 49.8796 119.044 50.4075C119.582 50.6387 121.467 50.6103 122.016 50.3629C122.144 50.3051 122.284 50.2575 122.327 50.2575C122.64 50.2575 123.743 49.3623 123.743 49.1094C123.743 49.0487 123.777 48.9994 123.818 48.9994C123.859 48.9994 123.892 48.9229 123.892 48.8293C123.892 48.7358 123.932 48.6185 123.982 48.5688C124.099 48.4519 124.109 46.8737 123.994 46.6251C123.949 46.5269 123.872 46.3633 123.825 46.2617C123.709 46.0139 123.338 45.5952 123.234 45.5952C123.189 45.5952 123.152 45.5689 123.152 45.5366C123.152 45.4822 122.348 45.0588 122.005 44.9322C121.447 44.726 121.312 44.6848 121.097 44.6529C120.965 44.6329 120.838 44.587 120.816 44.5509C120.793 44.5148 120.676 44.485 120.555 44.485C120.434 44.485 120.215 44.4357 120.069 44.3741C119.923 44.3129 119.726 44.2632 119.632 44.2632C119.538 44.2632 119.439 44.2296 119.414 44.1892C119.389 44.148 119.296 44.1152 119.206 44.1152C119.042 44.1157 118.41 43.9287 118.176 43.8096C118.105 43.7739 117.965 43.745 117.866 43.745C117.766 43.745 117.665 43.7144 117.642 43.6766C117.618 43.6392 117.493 43.5848 117.363 43.5563C117.231 43.5274 117.074 43.4798 117.012 43.4505C116.889 43.3918 116.489 43.2188 116.195 43.0964C115.795 42.9298 114.676 42.3811 114.641 42.3343C114.621 42.3071 114.529 42.2612 114.438 42.2328C114.346 42.2043 114.271 42.1499 114.271 42.1116C114.271 42.0738 114.234 42.0432 114.189 42.0432C113.915 42.0432 111.681 40.057 111.681 39.8147C111.681 39.7743 111.598 39.6523 111.496 39.5423C111.394 39.4322 111.31 39.2843 111.31 39.2129C111.31 39.141 111.284 39.0819 111.25 39.0819C111.187 39.0819 110.94 38.5677 110.94 38.4346C110.94 38.3904 110.915 38.3437 110.885 38.3301C110.804 38.2944 110.57 37.5769 110.57 37.3661C110.57 37.2679 110.528 37.1455 110.478 37.0945C110.409 37.0265 110.385 36.5793 110.385 35.3811C110.385 34.1834 110.409 33.7367 110.478 33.6682C110.528 33.6172 110.57 33.4506 110.57 33.2989C110.57 33.1463 110.601 33.0031 110.638 32.9801C110.675 32.9571 110.728 32.8054 110.755 32.6426C110.783 32.4798 110.835 32.3468 110.872 32.3468C110.91 32.3468 110.94 32.2796 110.94 32.1976C110.94 32.1151 111.023 31.9158 111.125 31.7547C111.227 31.5936 111.31 31.4436 111.31 31.4215C111.31 31.0241 113.441 28.6519 113.802 28.6473C113.849 28.6468 113.899 28.6209 113.913 28.589C113.95 28.5049 114.677 28.0539 114.777 28.0539C114.823 28.0539 114.863 28.0208 114.863 27.9795C114.863 27.9387 114.904 27.9056 114.954 27.9056C115.004 27.9056 115.212 27.8269 115.417 27.7305C116.09 27.4129 116.346 27.3139 116.489 27.3139C116.567 27.3139 116.651 27.2803 116.676 27.24C116.701 27.1987 116.811 27.1647 116.92 27.1643C117.03 27.1635 117.253 27.1154 117.416 27.0563C117.579 26.9977 117.845 26.948 118.008 26.9454C118.171 26.9429 118.354 26.908 118.415 26.8676C118.562 26.7699 121.594 26.8213 122.372 26.9331ZM145.867 27.3105C146.331 27.3488 146.745 27.4146 146.788 27.4572C146.83 27.4997 146.99 27.5341 147.142 27.5341C147.294 27.5341 147.439 27.5677 147.464 27.6085C147.49 27.6493 147.585 27.6824 147.677 27.6824C147.768 27.6824 147.908 27.7313 147.987 27.7912C148.065 27.8512 148.186 27.9009 148.254 27.9022C148.398 27.9051 149.325 28.3761 149.503 28.5363C149.568 28.5963 149.653 28.6447 149.691 28.6447C149.729 28.6447 149.85 28.728 149.96 28.8305C150.07 28.9316 150.177 29.0153 150.199 29.0153C150.321 29.0153 151.436 30.1022 151.762 30.5391C151.88 30.6985 151.997 30.8456 152.021 30.8655C152.045 30.8864 152.086 30.9527 152.113 31.0143C152.172 31.1456 152.333 31.4058 152.387 31.4585C152.492 31.5588 152.682 31.9099 152.682 32.0046C152.682 32.0637 152.707 32.1228 152.737 32.1368C152.828 32.1776 153.051 32.6435 153.051 32.7922C153.051 32.8683 153.084 32.9503 153.126 32.9758C153.167 33.0014 153.2 33.0961 153.2 33.1884C153.2 33.2798 153.249 33.4196 153.308 33.4982C153.368 33.5777 153.418 33.7647 153.419 33.9148C153.421 34.0648 153.455 34.2085 153.496 34.234C153.537 34.259 153.571 34.4023 153.571 34.5527C153.572 34.7032 153.621 35.0088 153.681 35.2332C153.747 35.4806 153.79 35.9741 153.79 36.4913C153.79 37.0086 153.747 37.5021 153.681 37.7495C153.621 37.9734 153.572 38.2965 153.571 38.4669C153.571 38.6369 153.541 38.795 153.504 38.8176C153.467 38.8405 153.422 38.9842 153.403 39.1372C153.363 39.4568 153.153 40.0719 152.934 40.5122C152.877 40.6274 152.83 40.7693 152.83 40.8267C152.83 40.8845 152.797 40.9321 152.756 40.9321C152.715 40.9321 152.682 40.9942 152.682 41.0707C152.682 41.1472 152.632 41.2513 152.571 41.3019C152.509 41.3525 152.46 41.4401 152.46 41.4962C152.46 41.5523 152.426 41.5977 152.386 41.5977C152.345 41.5977 152.311 41.6322 152.311 41.6751C152.311 41.9786 150.277 44.1148 149.988 44.1148C149.96 44.1148 149.872 44.1748 149.793 44.2479C149.545 44.4795 148.142 45.143 147.575 45.2973C147.392 45.347 147.107 45.4341 146.943 45.4911C146.779 45.5485 146.506 45.5944 146.337 45.5944C146.168 45.5944 146.009 45.628 145.984 45.6683C145.955 45.7159 144.861 45.7431 142.947 45.7431H139.956L139.935 50.1652L139.915 54.5873L139.711 54.9503C139.473 55.3745 139.046 55.7889 138.644 55.9836C138.488 56.0593 138.299 56.1528 138.224 56.1923C137.638 56.4958 135.574 56.5004 135.03 56.1991C134.948 56.154 134.756 56.0622 134.6 55.9951C134.275 55.8535 133.514 55.1101 133.51 54.9308C133.509 54.8645 133.459 54.745 133.399 54.666C133.233 54.4467 133.236 30.4907 133.402 30.1723C133.463 30.0558 133.513 29.9088 133.513 29.8454C133.513 29.6856 133.751 29.1628 133.823 29.1628C133.855 29.1628 133.883 29.1076 133.883 29.0396C133.883 28.6944 135.449 27.5345 135.915 27.5345C136.002 27.5345 136.111 27.4967 136.157 27.4512C136.35 27.2582 143.916 27.149 145.867 27.3105ZM140.711 33.5059L139.952 33.5344V36.5292V39.5244H142.427C143.997 39.5244 144.919 39.4976 144.948 39.4505C144.973 39.4097 145.059 39.3765 145.139 39.3765C145.505 39.3765 146.212 38.7287 146.456 38.169C147.223 36.4097 146.758 34.3496 145.45 33.709L145.026 33.502L143.248 33.4897C142.27 33.4829 141.128 33.4901 140.711 33.5059Z" fill="#E31B23"/>
</g>
<defs>
<clipPath id="clip0_102_4261">
<rect width="170" height="74" fill="white"/>
</clipPath>
</defs>
</svg>
