<svg width="260" height="42" viewBox="0 0 260 42" fill="none" xmlns="http://www.w3.org/2000/svg">
<g clip-path="url(#clip0_102_4233)">
<path d="M47.816 25.9491L47.018 30.0091C46.8255 31.2033 46.5837 32.3889 46.293 33.5631C46.873 32.5481 47.526 31.6781 48.323 30.6631L51.95 26.0211H53.11L51.37 34.9411H50.282L51.079 30.8081C51.297 29.5751 51.514 28.5601 51.804 27.5441H51.732C51.152 28.5601 50.354 29.5741 49.629 30.5901L46.221 34.9411H44.988L46.728 25.9491H47.816ZM56.736 28.4871L56.228 31.0971H59.129L59.637 28.4871H60.724L59.564 34.9411H58.476L59.056 31.9681H56.156L55.503 34.9411H54.415L55.648 28.4871H56.736ZM62.538 34.9411L63.408 30.3721C63.553 29.6471 63.626 28.9951 63.698 28.4871H64.641L64.496 29.7201H64.568C65.148 28.8501 65.946 28.3421 66.816 28.3421C67.832 28.3421 68.266 28.9951 68.339 29.7921C68.919 28.8501 69.717 28.3421 70.732 28.3421C71.457 28.3421 72.328 28.8501 72.328 30.0101C72.328 30.3001 72.255 30.7351 72.255 31.0981L71.53 34.9411H70.37L71.095 31.2431C71.167 31.0251 71.167 30.6631 71.167 30.3731C71.167 29.7201 70.95 29.2851 70.225 29.2851C69.427 29.2851 68.485 30.2271 68.195 31.6781L67.542 34.9411H66.454L67.179 31.1711C67.252 30.8811 67.252 30.6631 67.252 30.3731C67.252 29.7931 67.106 29.2851 66.309 29.2851C65.511 29.2851 64.496 30.3731 64.206 31.7501L63.626 34.9411H62.538ZM79.072 34.5781C78.564 34.8681 77.839 35.0861 76.969 35.0861C75.229 35.0861 74.504 33.9261 74.504 32.4751C74.504 30.5171 75.954 28.3421 78.057 28.3421C79.29 28.3421 79.942 29.0671 79.942 30.0101C79.942 31.6771 78.057 32.1851 75.664 32.1121C75.591 32.4021 75.664 32.9821 75.809 33.3451C76.026 33.9251 76.607 34.2151 77.259 34.2151C77.8656 34.21 78.4623 34.0609 79 33.7801L79.072 34.5781ZM77.839 29.2121C76.752 29.2121 76.026 30.2271 75.736 31.2421C77.476 31.2421 78.855 31.0251 78.855 30.0101C78.782 29.5021 78.419 29.2121 77.839 29.2121ZM80.957 37.6241L82.262 30.8081C82.407 30.0101 82.552 29.1401 82.625 28.4871H83.64L83.423 29.7201C84.003 28.8501 84.873 28.3421 85.743 28.3421C87.121 28.3421 87.701 29.5021 87.701 30.6621C87.701 32.9101 86.106 35.0861 83.931 35.0861C83.205 35.0861 82.77 34.9411 82.552 34.7961L82.045 37.5521H80.957V37.6241ZM82.77 33.8541C83.06 34.0711 83.495 34.2161 84.003 34.2161C85.453 34.2161 86.613 32.4761 86.613 30.7351C86.613 30.0821 86.323 29.2121 85.38 29.2121C84.51 29.2121 83.423 30.2271 83.06 32.0401L82.77 33.8541ZM91.906 28.4871L91.398 31.0971H94.3L94.808 28.4871H95.895L94.663 34.9411H93.575L94.155 31.9681H91.255L90.675 34.9411H89.586L90.819 28.4871H91.906ZM102.35 34.5781C101.842 34.8681 101.117 35.0861 100.247 35.0861C98.507 35.0861 97.781 33.9261 97.781 32.4751C97.781 30.5171 99.231 28.3421 101.335 28.3421C102.567 28.3421 103.22 29.0671 103.22 30.0101C103.22 31.6771 101.335 32.1851 98.941 32.1121C98.869 32.4021 98.941 32.9821 99.087 33.3451C99.304 33.9251 99.884 34.2151 100.537 34.2151C101.262 34.2151 101.842 33.9981 102.277 33.7801L102.35 34.5781ZM101.117 29.2121C100.029 29.2121 99.304 30.2271 99.014 31.2421C100.754 31.2421 102.132 31.0251 102.132 30.0101C102.132 29.5021 101.697 29.2121 101.117 29.2121ZM104.81 34.9411L105.681 30.3721C105.826 29.6471 105.898 28.9951 105.971 28.4871H106.913L106.768 29.7201H106.841C107.421 28.8501 108.219 28.3421 109.089 28.3421C110.104 28.3421 110.539 28.9951 110.612 29.7921C111.192 28.8501 111.99 28.3421 113.005 28.3421C113.73 28.3421 114.6 28.8501 114.6 30.0101C114.6 30.3001 114.528 30.7351 114.528 31.0981L113.803 34.9411H112.715L113.44 31.2431C113.512 31.0251 113.512 30.6631 113.512 30.3731C113.512 29.7201 113.295 29.2851 112.57 29.2851C111.772 29.2851 110.829 30.2271 110.539 31.6781L109.887 35.0141H108.799L109.524 31.2431C109.597 30.9531 109.597 30.7351 109.597 30.4451C109.597 29.8651 109.452 29.3571 108.654 29.3571C107.856 29.3571 106.841 30.4451 106.551 31.8231L105.898 34.9411H104.81ZM120.12 30.9531L119.975 31.8231H116.784L116.929 30.9531H120.12ZM122.72 28.7771C123.258 28.4965 123.854 28.3474 124.461 28.3421C125.621 28.3421 126.201 28.9951 126.201 29.9371C126.201 31.0251 125.259 31.5331 124.243 32.0401C123.446 32.4031 122.793 32.7651 122.793 33.4181C122.793 33.8531 123.083 34.2161 123.736 34.2161C124.316 34.2161 124.968 33.9981 125.259 33.7811L125.476 34.5781C125.041 34.8681 124.243 35.0861 123.518 35.0861C122.358 35.0861 121.633 34.5061 121.633 33.4181C121.633 32.1851 122.648 31.6781 123.663 31.2431C124.316 30.9531 125.186 30.5901 125.186 29.9371C125.186 29.5021 124.896 29.2121 124.316 29.2121C123.857 29.2207 123.408 29.3456 123.011 29.5751L122.72 28.7771ZM134.04 28.4881L133.17 33.0571C133.025 33.7821 132.952 34.4341 132.88 34.9421H131.865L132.01 33.7091C131.43 34.5791 130.559 35.0871 129.762 35.0871C128.964 35.0871 128.094 34.6521 128.094 33.2011C128.094 32.9111 128.166 32.5491 128.239 32.1141L128.964 28.4881H130.052L129.399 32.1141C129.327 32.4761 129.254 32.7661 129.254 33.0571C129.254 33.7091 129.544 34.1441 130.269 34.1441C131.067 34.1441 132.082 33.2021 132.372 31.7511L133.025 28.4151H134.04V28.4881ZM135.85 34.9411L136.72 30.3721C136.865 29.6471 136.937 28.9951 137.01 28.4871H138.025L137.88 29.7201C138.46 28.7771 139.33 28.3421 140.273 28.3421C141.071 28.3421 141.941 28.7771 141.941 30.1551C141.941 30.4451 141.868 30.8801 141.796 31.1701L141.071 34.9411H139.983L140.708 31.2431C140.781 31.0251 140.781 30.6631 140.781 30.4451C140.781 29.7921 140.563 29.2851 139.765 29.2851C138.968 29.2851 137.88 30.2271 137.59 31.8231L137.01 34.9411H135.85ZM148.69 34.5781C148.182 34.8681 147.457 35.0861 146.587 35.0861C144.846 35.0861 144.121 33.9261 144.121 32.4751C144.121 30.5171 145.571 28.3421 147.674 28.3421C148.907 28.3421 149.56 29.0671 149.56 30.0101C149.56 31.6771 147.674 32.1851 145.281 32.1121C145.209 32.4021 145.281 32.9821 145.426 33.3451C145.644 33.9251 146.224 34.2151 146.877 34.2151C147.602 34.2151 148.182 33.9981 148.617 33.7801L148.69 34.5781ZM147.457 29.2121C146.369 29.2121 145.644 30.2271 145.354 31.2421C147.094 31.2421 148.472 31.0251 148.472 30.0101C148.472 29.5021 148.037 29.2121 147.457 29.2121ZM150.57 37.6241L151.876 30.8081C152.021 30.0101 152.166 29.1401 152.238 28.4871H153.253L153.036 29.7201C153.616 28.8501 154.486 28.3421 155.356 28.3421C156.734 28.3421 157.314 29.5021 157.314 30.6621C157.314 32.9101 155.719 35.0861 153.543 35.0861C152.818 35.0861 152.383 34.9411 152.166 34.7961L151.658 37.5521H150.57V37.6241ZM152.383 33.8541C152.673 34.0711 153.108 34.2161 153.616 34.2161C155.066 34.2161 156.227 32.4761 156.227 30.7351C156.227 30.0821 155.936 29.2121 154.994 29.2121C154.124 29.2121 153.036 30.2271 152.673 32.0401L152.383 33.8541ZM162.17 28.4881L162.678 31.7511C162.751 32.2591 162.896 32.9841 162.896 33.4911C163.113 33.0561 163.621 32.1141 164.056 31.3161L165.651 28.4161H167.029L166.231 34.8691H165.216L165.651 31.8241C165.724 31.0991 165.869 30.3011 166.014 29.5761H165.941C165.796 30.0111 165.289 30.8811 164.854 31.6061L162.968 34.8691H162.098L161.59 31.6791C161.518 31.0991 161.373 30.1561 161.3 29.5761H161.228C161.083 30.3011 160.865 31.1711 160.72 31.8241L159.922 34.8691H158.907L160.648 28.4151H162.17V28.4881ZM173.49 34.9411C173.49 34.5781 173.563 33.9261 173.635 33.2731C172.91 34.5781 172.04 35.0861 171.097 35.0861C169.937 35.0861 169.212 34.2161 169.212 32.9831C169.212 30.7351 170.88 28.3421 173.708 28.3421C174.288 28.3421 175.013 28.4141 175.448 28.5591L174.796 31.8951C174.608 32.8751 174.511 33.8703 174.506 34.8681H173.49V34.9411ZM174.216 29.3571C174.071 29.2851 173.78 29.2851 173.418 29.2851C171.75 29.2851 170.372 31.0251 170.372 32.8381C170.372 33.5631 170.59 34.2881 171.46 34.2881C172.403 34.2881 173.49 33.0561 173.78 31.3881L174.216 29.3571ZM176.68 37.6241L177.985 30.8081C178.13 30.0101 178.275 29.1401 178.348 28.4871H179.363L179.145 29.7201C179.725 28.8501 180.596 28.3421 181.466 28.3421C182.844 28.3421 183.424 29.5021 183.424 30.6621C183.424 32.9101 181.828 35.0861 179.653 35.0861C178.928 35.0861 178.493 34.9411 178.275 34.7961L177.767 37.5521H176.68V37.6241ZM178.493 33.8541C178.783 34.0711 179.218 34.2161 179.725 34.2161C181.176 34.2161 182.336 32.4761 182.336 30.7351C182.336 30.0821 182.046 29.2121 181.103 29.2121C180.233 29.2121 179.145 30.2271 178.783 32.0401L178.493 33.8541ZM187.63 28.4871L187.05 31.3151H187.268L190.023 28.4871H191.329L188.211 31.4601C188.936 31.6051 189.298 32.2581 189.661 33.2731C189.878 33.9261 190.023 34.5781 190.241 34.9411H189.153C189.008 34.5781 188.863 33.9981 188.646 33.3461C188.283 32.3301 187.92 32.0401 187.123 32.0401H186.905L186.325 34.9411H185.237L186.47 28.4871H187.63ZM196.98 34.5781C196.472 34.8681 195.747 35.0861 194.877 35.0861C193.136 35.0861 192.411 33.9261 192.411 32.4751C192.411 30.5171 193.861 28.3421 195.964 28.3421C197.197 28.3421 197.85 29.0671 197.85 30.0101C197.85 31.6771 195.964 32.1851 193.571 32.1121C193.499 32.4021 193.571 32.9821 193.716 33.3451C193.934 33.9251 194.514 34.2151 195.167 34.2151C195.892 34.2151 196.472 33.9981 196.907 33.7801L196.98 34.5781ZM195.747 29.2121C194.659 29.2121 193.934 30.2271 193.644 31.2421C195.384 31.2421 196.762 31.0251 196.762 30.0101C196.762 29.5021 196.327 29.2121 195.747 29.2121ZM199.45 34.9411L200.32 30.3721C200.465 29.6471 200.538 28.9951 200.611 28.4871H201.553L201.408 29.7201H201.481C202.061 28.8501 202.859 28.3421 203.729 28.3421C204.744 28.3421 205.179 28.9951 205.252 29.7921C205.832 28.8501 206.629 28.3421 207.645 28.3421C208.37 28.3421 209.24 28.8501 209.24 30.0101C209.24 30.3001 209.167 30.7351 209.167 31.0981L208.442 34.9411H207.355L208.08 31.2431C208.152 31.0251 208.152 30.6631 208.152 30.3731C208.152 29.7201 207.935 29.2851 207.209 29.2851C206.412 29.2851 205.469 30.2271 205.179 31.6781L204.526 35.0141H203.439L204.164 31.2431C204.236 30.9531 204.236 30.7351 204.236 30.4451C204.236 29.8651 204.091 29.3571 203.294 29.3571C202.496 29.3571 201.481 30.4451 201.191 31.8231L200.611 35.0861H199.45V34.9411ZM50.208 10.6481H51.586C53.689 10.6481 55.719 9.85008 55.719 7.82008C55.719 6.44208 54.631 5.79008 53.326 5.79008C51.876 5.79008 50.426 6.37008 49.338 6.87708L48.468 3.83208C49.7 3.03408 51.803 2.23608 54.268 2.23608C57.242 2.23608 60.143 3.61408 60.143 7.02208C60.143 9.70508 58.04 11.4461 55.719 12.0261V12.0981C57.749 12.5331 59.273 14.1281 59.273 16.5221C59.273 20.8721 55.212 22.8311 51.151 22.8311C49.121 22.8311 46.872 22.2511 45.349 21.2351L46.655 18.0451C47.525 18.5521 49.265 19.2771 51.078 19.2771C52.964 19.2771 54.849 18.3351 54.849 16.3771C54.849 14.4911 52.746 13.8391 51.223 13.8391H49.628L50.208 10.6481ZM71.963 21.7441C70.295 22.6141 68.193 22.9041 66.597 22.9041C62.463 22.9041 60.36 20.5111 60.36 16.8131C60.36 12.3891 63.551 7.82108 68.772 7.82108C71.672 7.82108 73.776 9.41608 73.776 12.0991C73.776 15.7981 70.223 17.1031 64.421 16.9581C64.421 17.3931 64.566 18.0461 64.856 18.4081C65.436 19.1331 66.379 19.4961 67.612 19.4961C69.207 19.4961 70.512 19.1331 71.672 18.5531L71.963 21.7441ZM69.788 12.0991C69.788 11.3741 69.208 10.8661 68.192 10.8661C66.234 10.8661 65.074 12.4621 64.784 13.8401C68.12 13.9121 69.787 13.4771 69.787 12.1001L69.788 12.0991Z" fill="#00A84F"/>
<path d="M88.9311 8.10988L86.1751 22.5409H81.9701L84.0731 11.3729H80.8831L80.3751 14.1289C79.6501 17.7549 78.7071 19.8579 77.1851 21.1629C76.0971 22.1779 74.7911 22.7579 72.6881 22.7579L72.3981 19.4229C73.2681 19.3499 73.9941 19.0599 74.5011 18.5529C75.3711 17.7549 76.0241 16.1599 76.4591 14.0569L77.6191 8.10988H88.9311ZM100.82 21.7439C99.1521 22.6139 97.0501 22.9039 95.4541 22.9039C91.3211 22.9039 89.2181 20.5109 89.2181 16.8129C89.2181 12.3889 92.4081 7.82088 97.6301 7.82088C100.53 7.82088 102.633 9.41588 102.633 12.0989C102.633 15.7979 99.0801 17.1029 93.2791 16.9579C93.2791 17.3929 93.4241 18.0459 93.7141 18.4079C94.2941 19.1329 95.2371 19.4959 96.4691 19.4959C98.0651 19.4959 99.3701 19.1329 100.53 18.5529L100.82 21.7439ZM98.6451 12.0989C98.6451 11.3739 98.0651 10.8659 97.0491 10.8659C95.0911 10.8659 93.9311 12.4619 93.6411 13.8399C96.9771 13.9119 98.6451 13.4769 98.6451 12.0999V12.0989ZM109.45 8.10988L108.435 13.4769H112.858L113.873 8.10988H118.079L115.324 22.5409H111.118L112.205 16.7409H107.854L106.767 22.5409H102.488L105.171 8.11088H109.45V8.10988ZM124.9 8.10988L123.522 13.6939C124.465 12.8959 125.988 12.3889 127.293 12.3889C129.614 12.3889 131.281 13.8389 131.281 16.3769C131.281 19.4949 128.671 22.9039 123.377 22.9039C121.129 22.9039 118.519 22.3959 118.519 19.4229C118.519 18.6249 118.736 17.3199 118.881 16.5229L120.767 8.25488H124.9V8.10988ZM124.247 19.8579C125.625 19.8579 127.148 18.7709 127.148 17.1029C127.148 16.0149 126.495 15.4349 125.48 15.4349C124.175 15.4349 123.16 16.5949 122.87 17.4649C122.724 17.8279 122.724 18.1179 122.724 18.5529C122.724 19.2779 123.232 19.8579 124.247 19.8579ZM138.968 8.10988L136.213 22.5409H131.717L134.472 8.11088H138.968V8.10988ZM145.42 8.10988L143.969 15.8699C143.833 16.4893 143.761 17.1208 143.752 17.7549C143.752 18.6979 144.114 19.4229 145.202 19.4229C146.652 19.4229 148.103 17.6829 148.683 14.7819L149.916 8.10988H154.194L152.309 17.8279C151.946 19.6399 151.729 21.2359 151.511 22.5409H147.74L148.03 20.1479H147.958C146.507 22.0339 144.695 22.8309 142.954 22.8309C140.634 22.8309 139.256 21.5259 139.256 18.7709C139.256 17.9729 139.328 17.1019 139.546 16.0869L141.069 8.03688H145.42V8.10988ZM147.523 2.16388C147.378 3.32388 147.813 4.12188 148.61 4.12188C149.481 4.12188 149.988 3.25188 150.278 2.16388H152.961C152.454 4.70188 150.713 6.07988 148.32 6.07988C145.71 6.07988 144.622 4.48488 144.84 2.16388H147.523ZM162.54 16.8129C162.54 11.8089 166.021 7.67588 171.17 7.67588C175.085 7.67588 177.334 10.3589 177.334 13.6219C177.334 18.9159 173.708 22.7589 168.704 22.7589C165.006 22.7589 162.54 20.4389 162.54 16.8129ZM172.91 13.6949C172.91 12.3889 172.33 10.9389 170.662 10.9389C168.196 10.9389 166.964 14.4919 166.964 16.7399C166.964 18.4079 167.834 19.5689 169.284 19.5689C171.605 19.5689 172.91 16.0879 172.91 13.6949ZM188.64 21.9609C187.697 22.3959 186.247 22.7589 184.506 22.7589C180.953 22.7589 178.415 20.5829 178.415 16.8849C178.415 11.7359 182.331 7.74788 187.842 7.74788C189.075 7.74788 190.163 7.96488 190.815 8.25488L189.728 11.5189C189.22 11.3009 188.64 11.1559 187.77 11.1559C184.724 11.1559 182.838 13.6939 182.838 16.4499C182.838 18.4079 184.144 19.4229 185.667 19.4229C186.899 19.4229 187.77 19.1329 188.567 18.8429L188.64 21.9609ZM190.09 22.4689L191.903 12.7519C192.193 10.9389 192.483 9.34388 192.628 8.03788H196.254L195.964 10.3579H196.036C197.341 8.47288 199.154 7.67588 200.967 7.67588C203.288 7.67588 204.303 9.12588 204.376 10.4309C205.681 8.54588 207.494 7.67588 209.379 7.67588C211.627 7.67588 212.86 9.12588 212.86 11.5919C212.86 12.1719 212.715 13.3319 212.642 14.0569L211.047 22.4689H206.914L208.364 14.5649C208.509 13.9849 208.581 13.4049 208.581 12.8249C208.581 11.8089 208.146 11.0839 207.131 11.0839C205.681 11.0839 204.303 12.9689 203.723 15.8699L202.49 22.3969H198.357L199.88 14.4199C199.952 13.8399 200.025 13.2599 200.025 12.7519C200.025 11.7369 199.662 11.0119 198.647 11.0119C197.196 11.0119 195.674 13.0419 195.166 15.8699L194.006 22.3969H190.09V22.4689ZM211.7 31.4609L215.544 13.5489C215.906 11.8089 216.196 9.34288 216.341 7.81988H220.185L219.895 10.0679H219.967C221.127 8.47288 222.868 7.67488 224.608 7.67488C227.726 7.67488 229.249 10.2129 229.249 13.1859C229.249 18.1899 225.913 22.7589 220.837 22.7589C219.677 22.7589 218.662 22.4689 218.154 22.1789H218.082L215.906 31.4609H211.7ZM218.807 18.9159C219.314 19.3509 219.895 19.5689 220.765 19.5689C223.013 19.5689 224.826 16.3779 224.826 13.4769C224.826 12.3169 224.318 11.0839 222.94 11.0839C221.345 11.0839 219.822 12.8239 219.314 15.7249L218.807 18.9159ZM230.41 16.8129C230.41 11.8089 233.891 7.67588 239.04 7.67588C242.955 7.67588 245.203 10.3589 245.203 13.6219C245.203 18.9159 241.578 22.7589 236.574 22.7589C232.876 22.7589 230.41 20.4389 230.41 16.8129ZM240.78 13.6949C240.78 12.3889 240.2 10.9389 238.532 10.9389C236.066 10.9389 234.834 14.4919 234.834 16.7399C234.834 18.4079 235.704 19.5689 237.154 19.5689C239.475 19.5689 240.78 16.0879 240.78 13.6949ZM260 11.2289C260 13.1139 258.115 14.2749 256.664 14.6369V14.7099C258.187 14.8549 259.71 15.8699 259.71 17.7549C259.71 21.5989 255.214 22.7589 252.096 22.7589C248.397 22.7589 246.439 21.3089 246.439 18.3359C246.439 15.6519 247.6 10.9389 250.21 9.05288C251.516 8.18288 253.038 7.67588 254.924 7.67588C257.97 7.67588 260 8.83588 260 11.2289ZM250.79 16.7399C250.702 17.1942 250.654 17.6552 250.645 18.1179C250.645 19.1329 251.153 19.8579 252.531 19.8579C254.199 19.8579 255.359 19.0609 255.359 17.8999C255.359 16.6679 254.344 16.3049 253.184 16.3049C252.241 16.3049 251.298 16.5229 250.79 16.7399ZM251.298 13.9849C252.458 13.8399 253.691 13.6219 254.706 13.1869C255.359 12.8239 255.939 12.3889 255.939 11.7369C255.939 11.0109 255.359 10.5769 254.416 10.5769C252.531 10.5769 251.733 12.4619 251.298 13.9849ZM40.4921 20.0029C39.8391 8.83488 30.3401 0.278883 19.1721 0.858883C8.00407 1.51188 -0.551928 11.0109 0.0280725 22.1789C0.608072 33.3469 10.1801 41.9029 21.3481 41.3229C32.5161 40.6699 41.0721 31.1709 40.4921 20.0029Z" fill="#00A84F"/>
<path d="M6.40912 23.629C6.77212 23.412 7.06212 23.194 7.42412 22.976C11.3401 20.148 18.2291 16.45 24.8281 15.507C25.5531 15.435 26.2061 15.362 26.9311 15.29C27.5841 15.29 28.3091 15.217 29.1071 15.29C32.2251 15.362 34.4731 16.087 35.7781 17.393C35.6331 17.538 35.1981 17.32 34.9081 17.175C34.6911 17.102 34.5451 17.03 34.4001 17.03C32.5488 16.592 30.6406 16.4452 28.7441 16.595C22.3631 16.958 14.8211 20.003 6.98912 25.515C6.77212 25.66 6.62712 25.805 6.40912 25.95C5.75612 26.457 5.03112 26.965 4.23312 27.037C3.43612 25.442 4.95912 24.499 6.40912 23.629ZM18.0111 38.422C11.9921 38.06 8.22112 34.144 6.40812 31.678C7.78612 30.01 10.3241 29.068 12.9341 28.052L13.5871 27.835C16.1971 26.819 20.0411 25.587 23.9571 25.369C28.6711 25.151 32.1511 26.384 34.2541 29.139C31.2811 35.231 25.1181 38.785 18.0111 38.422Z" fill="#FFE40D"/>
<path d="M35.778 23.9201C35.705 24.4281 35.56 24.9351 35.56 25.5151C34.473 25.2251 33.6019 24.7901 32.7319 24.2831C31.7169 23.7751 30.774 23.1951 29.542 22.9771C27.729 22.6871 24.8279 22.6151 22.7249 22.9051C17.4309 23.6301 12.7179 26.0231 8.58395 28.1991C7.42395 28.7791 6.26395 29.4311 5.17595 29.9391C5.06192 29.8331 4.9642 29.7107 4.88595 29.5761C4.74095 29.3591 4.52295 29.1411 4.52295 28.8511C4.52295 28.4891 5.24795 27.6911 8.58395 25.7331C10.2519 24.7901 11.4839 24.1381 13.0799 23.4131L13.3699 23.2671C17.7209 21.1641 22.435 19.7871 26.423 19.5691C30.5569 19.3521 33.747 20.2941 36.068 22.3251C35.995 22.9051 35.85 23.4121 35.778 23.9201Z" fill="#FFE40D"/>
</g>
<defs>
<clipPath id="clip0_102_4233">
<rect width="260" height="42" fill="white"/>
</clipPath>
</defs>
</svg>
