<svg width="214" height="85" viewBox="0 0 214 85" fill="none" xmlns="http://www.w3.org/2000/svg">
<g id="Remi-logo-2017 1" clip-path="url(#clip0_102_4181)">
<g id="Page-1">
<g id="&#208;&#155;&#208;&#190;&#208;&#179;&#208;&#190;&#209;&#130;&#208;&#184;&#208;&#191;_&#208;&#189;&#208;&#190;&#208;&#178;&#209;&#139;&#208;&#184;&#204;&#134;_&#208;&#160;&#208;&#181;&#208;&#188;&#208;&#184;">
<path id="Fill-1" fill-rule="evenodd" clip-rule="evenodd" d="M18.8273 46.4405H12.6416V29.296H19.0589C24.8385 29.296 29.7498 32.0468 29.7498 37.745C29.7498 44.0297 25.1627 46.4405 18.8273 46.4405ZM19.6216 17.5527H0.901367V70.9582H12.6426L12.6416 58.0781H19.9357C48.618 58.0781 48.6143 17.5527 19.6216 17.5527Z" fill="#84BF41"/>
<path id="Fill-3" fill-rule="evenodd" clip-rule="evenodd" d="M163.731 71.0439H151.93L146.554 38.0272L136.125 71.1082L123.825 71.1294L113.447 38.1505L107.626 71.0439H95.8516L105.09 17.8089L118.352 17.7367L130.245 53.468L141.914 17.488L154.564 17.538L163.731 71.0439Z" fill="#84BF41"/>
<path id="Fill-5" fill-rule="evenodd" clip-rule="evenodd" d="M213.748 70.8682H202.453V38.0146L180.992 70.8682H171.321V17.7129H182.899V50.2705L204.289 17.7129H213.748V70.8682Z" fill="#84BF41"/>
<path id="Fill-7" fill-rule="evenodd" clip-rule="evenodd" d="M84.0437 37.9025C82.4504 31.4648 75.9261 28.1556 69.2974 28.1556C62.7316 28.1556 56.5341 31.4648 54.813 37.9025H84.0437ZM69.1957 17.3723C75.1233 17.3723 80.2551 18.982 84.5888 22.2008C88.9231 25.4197 91.9692 29.8684 93.768 35.5278C94.7719 38.6871 95.4768 42.893 95.4768 47.0777L53.9911 47.38C55.2027 54.5263 61.8271 60.3547 69.2208 60.3547C74.4483 60.3547 80.3578 57.8557 81.9522 54.1215L91.1142 59.391C89.3117 62.0042 87.1041 64.2397 84.493 66.0932C80.0954 69.2154 75.0919 70.7778 69.4827 70.7778C61.7696 70.7778 55.4747 68.282 50.5985 63.293C45.7223 58.3041 43.2842 51.9131 43.2842 44.1234C43.2842 36.8474 45.8011 30.5707 50.837 25.2917C55.8734 20.0116 61.9921 17.3723 69.1957 17.3723Z" fill="#DD3E3D"/>
<path id="Fill-9" fill-rule="evenodd" clip-rule="evenodd" d="M82.122 10.6462C82.764 11.4547 85.7994 7.08839 88.492 9.88489C90.6405 12.1156 93.3932 11.4314 93.9729 11.2019C91.7493 14.3692 90.3003 16.6748 86.7501 16.6992C85.0067 16.712 81.9096 14.6444 81.9623 12.2649C81.9719 11.8425 81.6456 11.6385 81.3214 11.748C79.8516 13.1723 78.3152 15.1177 76.8455 16.542C80.6267 10.2493 85.883 2.14777 86.2865 -0.0112305C87.1712 0.999207 88.2513 1.84496 89.4933 2.55258C86.913 5.00111 84.5457 6.76168 82.122 10.6462Z" fill="#84BF41"/>
<path id="Fill-11" fill-rule="evenodd" clip-rule="evenodd" d="M0.448486 80.5908H3.38167V81.316H1.32259V84.912H0.448486V80.5908Z" fill="#DD3E3D"/>
<path id="Fill-13" fill-rule="evenodd" clip-rule="evenodd" d="M5.17627 80.5908H5.99447V83.4681L7.74906 80.5908H8.6205V84.912H7.80229V82.0911L6.05037 84.912H5.17627V80.5908Z" fill="#DD3E3D"/>
<path id="Fill-15" fill-rule="evenodd" clip-rule="evenodd" d="M10.855 80.5908H14.2992V84.912H13.4246V81.316H11.7291V84.912H10.855V80.5908Z" fill="#DD3E3D"/>
<path id="Fill-17" fill-rule="evenodd" clip-rule="evenodd" d="M16.522 84.9122V80.5911H19.733V81.3221H17.3966V82.2799H19.5707V83.0082H17.3966V84.1839H19.8155V84.9122H16.522Z" fill="#DD3E3D"/>
<path id="Fill-19" fill-rule="evenodd" clip-rule="evenodd" d="M22.7623 81.3218V82.5479H23.2409C23.5853 82.5479 23.8158 82.5256 23.9319 82.4805C24.0485 82.4353 24.139 82.3641 24.205 82.268C24.271 82.1718 24.304 82.0597 24.304 81.9317C24.304 81.775 24.2582 81.6448 24.1656 81.5428C24.0729 81.4408 23.9558 81.3771 23.8137 81.351C23.7094 81.3319 23.4996 81.3218 23.1845 81.3218H22.7623ZM21.8877 84.912V80.5908H23.2909C23.8227 80.5908 24.1693 80.6126 24.3306 80.6556C24.5792 80.7204 24.7868 80.8612 24.954 81.0785C25.1217 81.2958 25.2052 81.5763 25.2052 81.92C25.2052 82.1851 25.1568 82.4082 25.0604 82.5894C24.9641 82.77 24.8411 82.9124 24.6926 83.0154C24.5441 83.1185 24.3929 83.1865 24.239 83.22C24.0304 83.2614 23.728 83.2821 23.3325 83.2821H22.7623V84.912H21.8877Z" fill="#DD3E3D"/>
<path id="Fill-21" fill-rule="evenodd" clip-rule="evenodd" d="M27.1621 84.9122V80.5911H28.4706L29.2563 83.5384L30.033 80.5911H31.3447V84.9122H30.5323V81.5107L29.6726 84.9122H28.831L27.9745 81.5107V84.9122H27.1621Z" fill="#DD3E3D"/>
<path id="Fill-23" fill-rule="evenodd" clip-rule="evenodd" d="M35.8392 83.2024L35.2424 81.5986L34.6574 83.2024H35.8392ZM37.449 84.912H36.4977L36.1197 83.9308H34.3885L34.0313 84.912H33.104L34.7905 80.5908H35.7151L37.449 84.912Z" fill="#DD3E3D"/>
<path id="Fill-25" fill-rule="evenodd" clip-rule="evenodd" d="M40.1178 81.3218V82.5479H40.5964C40.9408 82.5479 41.1713 82.5256 41.2873 82.4805C41.4039 82.4353 41.4944 82.3641 41.5604 82.268C41.6264 82.1718 41.6594 82.0597 41.6594 81.9317C41.6594 81.775 41.6137 81.6448 41.521 81.5428C41.4284 81.4408 41.3113 81.3771 41.1692 81.351C41.0648 81.3319 40.8551 81.3218 40.5399 81.3218H40.1178ZM39.2432 84.912V80.5908H40.6464C41.1782 80.5908 41.5248 80.6126 41.6861 80.6556C41.9347 80.7204 42.1423 80.8612 42.3094 81.0785C42.4771 81.2958 42.5607 81.5763 42.5607 81.92C42.5607 82.1851 42.5123 82.4082 42.4159 82.5894C42.3195 82.77 42.1966 82.9124 42.0481 83.0154C41.8995 83.1185 41.7483 83.1865 41.5945 83.22C41.3858 83.2614 41.0835 83.2821 40.6879 83.2821H40.1178V84.912H39.2432Z" fill="#DD3E3D"/>
<path id="Fill-27" fill-rule="evenodd" clip-rule="evenodd" d="M44.624 80.5908H45.4987V82.43C45.6935 82.4103 45.825 82.3604 45.8942 82.2796C45.9634 82.1994 46.0693 81.9752 46.2131 81.6076C46.3946 81.1401 46.5766 80.849 46.7598 80.7348C46.9408 80.6211 47.233 80.5642 47.6371 80.5642C47.6568 80.5642 47.6988 80.5632 47.7638 80.561V81.207L47.6403 81.2039C47.4609 81.2039 47.3299 81.2262 47.2469 81.2703C47.1643 81.3144 47.0973 81.3818 47.0462 81.4721C46.9951 81.5624 46.9195 81.7484 46.8189 82.0294C46.7656 82.1787 46.7081 82.3035 46.6458 82.4034C46.5841 82.5038 46.4744 82.5978 46.3169 82.6866C46.5117 82.7413 46.6725 82.8529 46.7997 83.0197C46.9264 83.1865 47.0659 83.4229 47.2176 83.7273L47.8079 84.912H46.7805L46.2636 83.7948C46.2556 83.7794 46.2386 83.7485 46.2131 83.7034C46.2035 83.688 46.1667 83.62 46.1039 83.5004C45.9916 83.2879 45.8995 83.1551 45.8276 83.1025C45.7558 83.0489 45.6461 83.0218 45.4987 83.0197V84.912H44.624V80.5908Z" fill="#DD3E3D"/>
<path id="Fill-29" fill-rule="evenodd" clip-rule="evenodd" d="M49.6323 84.9122V80.5911H52.8434V81.3221H50.507V82.2799H52.681V83.0082H50.507V84.1839H52.9259V84.9122H49.6323Z" fill="#DD3E3D"/>
<path id="Fill-31" fill-rule="evenodd" clip-rule="evenodd" d="M55.9728 84.9122V81.3221H54.6877V80.5911H58.1293V81.3221H56.8474V84.9122H55.9728Z" fill="#DD3E3D"/>
<path id="Fill-33" fill-rule="evenodd" clip-rule="evenodd" d="M64.1655 84.9118H65.0401V80.5906H64.1655V84.9118ZM60.9225 84.1871H61.7758C62.0478 84.1871 62.2374 84.1739 62.3449 84.1473C62.4519 84.1207 62.5477 84.0602 62.6313 83.9661C62.7149 83.8716 62.7569 83.7563 62.7569 83.6214C62.7569 83.4285 62.6882 83.284 62.5514 83.1879C62.4146 83.0917 62.1676 83.0434 61.8115 83.0434H60.9225V84.1871ZM60.0479 80.5906H60.9225V82.3182H62.092C62.3992 82.3182 62.6638 82.3602 62.8852 82.4436C63.1067 82.527 63.2914 82.6763 63.4388 82.8914C63.5868 83.1066 63.6603 83.3536 63.6603 83.633C63.6603 83.9258 63.5836 84.1776 63.4303 84.389C63.2765 84.5999 63.1056 84.7402 62.9177 84.8087C62.7298 84.8778 62.4546 84.9123 62.092 84.9123H60.0479V80.5906Z" fill="#DD3E3D"/>
<path id="Fill-35" fill-rule="evenodd" clip-rule="evenodd" d="M82.0948 83.3234L82.9423 83.5917C82.8124 84.0634 82.5963 84.4135 82.2945 84.6425C81.9921 84.8715 81.6083 84.9857 81.1435 84.9857C80.5686 84.9857 80.0959 84.7896 79.7259 84.3976C79.3554 84.0061 79.1702 83.4695 79.1702 82.79C79.1702 82.0707 79.3565 81.5118 79.7286 81.1139C80.1007 80.716 80.5899 80.5173 81.1968 80.5173C81.7265 80.5173 82.1566 80.6735 82.4877 80.9859C82.6841 81.1708 82.8321 81.4359 82.9306 81.7817L82.065 81.9878C82.0139 81.7636 81.9069 81.5873 81.7446 81.4576C81.5822 81.328 81.3847 81.2632 81.1521 81.2632C80.8316 81.2632 80.5713 81.378 80.3711 81.608C80.1715 81.838 80.0714 82.2099 80.0714 82.7252C80.0714 83.2713 80.1699 83.6602 80.3669 83.8924C80.5638 84.124 80.8194 84.2403 81.1345 84.2403C81.3671 84.2403 81.5668 84.1665 81.7344 84.0193C81.9016 83.8717 82.0219 83.64 82.0948 83.3234Z" fill="#DD3E3D"/>
<path id="Fill-36" fill-rule="evenodd" clip-rule="evenodd" d="M84.5835 80.5908H85.5609L86.5712 82.8338L87.4336 80.5908H88.3466L86.8843 83.8745C86.7251 84.2304 86.5627 84.5008 86.3972 84.6868C86.2316 84.8727 86.0181 84.9651 85.7562 84.9651C85.498 84.9651 85.2963 84.9487 85.1504 84.9152V84.2665C85.2745 84.2745 85.3868 84.2782 85.4874 84.2782C85.6902 84.2782 85.8356 84.2416 85.9234 84.1677C86.0107 84.0944 86.0948 83.9356 86.1757 83.6917L84.5835 80.5908Z" fill="#DD3E3D"/>
<path id="Fill-37" fill-rule="evenodd" clip-rule="evenodd" d="M90.1294 80.5908H93.5736V84.912H92.699V81.316H91.0035V84.912H90.1294V80.5908Z" fill="#DD3E3D"/>
<path id="Fill-38" fill-rule="evenodd" clip-rule="evenodd" d="M95.7964 84.9122V80.5911H99.0075V81.3221H96.671V82.2799H98.8451V83.0082H96.671V84.1839H99.09V84.9122H95.7964Z" fill="#DD3E3D"/>
<path id="Fill-39" fill-rule="evenodd" clip-rule="evenodd" d="M102.036 81.3218V82.5479H102.515C102.859 82.5479 103.09 82.5256 103.206 82.4805C103.323 82.4353 103.413 82.3641 103.479 82.268C103.545 82.1718 103.578 82.0597 103.578 81.9317C103.578 81.775 103.532 81.6448 103.44 81.5428C103.347 81.4408 103.23 81.3771 103.088 81.351C102.984 81.3319 102.774 81.3218 102.459 81.3218H102.036ZM101.162 84.912V80.5908H102.565C103.097 80.5908 103.443 80.6126 103.605 80.6556C103.853 80.7204 104.061 80.8612 104.228 81.0785C104.396 81.2958 104.479 81.5763 104.479 81.92C104.479 82.1851 104.431 82.4082 104.335 82.5894C104.238 82.77 104.115 82.9124 103.967 83.0154C103.818 83.1185 103.667 83.1865 103.513 83.22C103.305 83.2614 103.002 83.2821 102.607 83.2821H102.036V84.912H101.162Z" fill="#DD3E3D"/>
<path id="Fill-40" fill-rule="evenodd" clip-rule="evenodd" d="M106.436 84.9122V80.5911H107.745L108.53 83.5384L109.307 80.5911H110.619V84.9122H109.807V81.5107L108.947 84.9122H108.105L107.249 81.5107V84.9122H106.436Z" fill="#DD3E3D"/>
<path id="Fill-41" fill-rule="evenodd" clip-rule="evenodd" d="M115.113 83.2024L114.516 81.5986L113.931 83.2024H115.113ZM116.723 84.912H115.772L115.394 83.9308H113.662L113.305 84.912H112.378L114.064 80.5908H114.99L116.723 84.912Z" fill="#DD3E3D"/>
<path id="Fill-42" fill-rule="evenodd" clip-rule="evenodd" d="M119.392 81.3218V82.5479H119.87C120.215 82.5479 120.445 82.5256 120.561 82.4805C120.678 82.4353 120.769 82.3641 120.835 82.268C120.901 82.1718 120.934 82.0597 120.934 81.9317C120.934 81.775 120.888 81.6448 120.795 81.5428C120.703 81.4408 120.585 81.3771 120.444 81.351C120.339 81.3319 120.13 81.3218 119.815 81.3218H119.392ZM118.518 84.912V80.5908H119.921C120.452 80.5908 120.799 80.6126 120.961 80.6556C121.209 80.7204 121.416 80.8612 121.584 81.0785C121.751 81.2958 121.835 81.5763 121.835 81.92C121.835 82.1851 121.787 82.4082 121.69 82.5894C121.594 82.77 121.471 82.9124 121.323 83.0154C121.174 83.1185 121.022 83.1865 120.869 83.22C120.66 83.2614 120.358 83.2821 119.962 83.2821H119.392V84.912H118.518Z" fill="#DD3E3D"/>
<path id="Fill-43" fill-rule="evenodd" clip-rule="evenodd" d="M123.898 80.5908H124.773V82.43C124.968 82.4103 125.1 82.3604 125.168 82.2796C125.238 82.1994 125.343 81.9752 125.487 81.6076C125.668 81.1401 125.851 80.849 126.034 80.7348C126.215 80.6211 126.507 80.5642 126.911 80.5642C126.93 80.5642 126.973 80.5632 127.038 80.561V81.207L126.914 81.2039C126.735 81.2039 126.604 81.2262 126.522 81.2703C126.438 81.3144 126.371 81.3818 126.32 81.4721C126.269 81.5624 126.194 81.7484 126.093 82.0294C126.039 82.1787 125.982 82.3035 125.92 82.4034C125.858 82.5038 125.749 82.5978 125.591 82.6866C125.786 82.7413 125.947 82.8529 126.074 83.0197C126.201 83.1865 126.34 83.4229 126.492 83.7273L127.082 84.912H126.055L125.537 83.7948C125.529 83.7794 125.513 83.7485 125.487 83.7034C125.478 83.688 125.441 83.62 125.378 83.5004C125.266 83.2879 125.174 83.1551 125.102 83.1025C125.03 83.0489 124.92 83.0218 124.773 83.0197V84.912H123.898V80.5908Z" fill="#DD3E3D"/>
<path id="Fill-44" fill-rule="evenodd" clip-rule="evenodd" d="M128.907 84.9122V80.5911H132.118V81.3221H129.781V82.2799H131.955V83.0082H129.781V84.1839H132.201V84.9122H128.907Z" fill="#DD3E3D"/>
<path id="Fill-45" fill-rule="evenodd" clip-rule="evenodd" d="M135.247 84.9122V81.3221H133.962V80.5911H137.403V81.3221H136.121V84.9122H135.247Z" fill="#DD3E3D"/>
<path id="Fill-46" fill-rule="evenodd" clip-rule="evenodd" d="M143.44 84.9118H144.314V80.5906H143.44V84.9118ZM140.196 84.1871H141.05C141.322 84.1871 141.511 84.1739 141.619 84.1473C141.726 84.1207 141.821 84.0602 141.905 83.9661C141.989 83.8716 142.031 83.7563 142.031 83.6214C142.031 83.4285 141.962 83.284 141.825 83.1879C141.688 83.0917 141.442 83.0434 141.085 83.0434H140.196V84.1871ZM139.322 80.5906H140.196V82.3182H141.366C141.673 82.3182 141.937 82.3602 142.159 82.4436C142.381 82.527 142.566 82.6763 142.713 82.8914C142.86 83.1066 142.934 83.3536 142.934 83.633C142.934 83.9258 142.857 84.1776 142.704 84.389C142.55 84.5999 142.38 84.7402 142.191 84.8087C142.003 84.8778 141.728 84.9123 141.366 84.9123H139.322V80.5906Z" fill="#DD3E3D"/>
<path id="Fill-47" fill-rule="evenodd" clip-rule="evenodd" d="M158.158 80.5908H159.136L160.146 82.8338L161.008 80.5908H161.921L160.459 83.8745C160.299 84.2304 160.137 84.5008 159.972 84.6868C159.807 84.8727 159.592 84.9651 159.331 84.9651C159.073 84.9651 158.871 84.9487 158.725 84.9152V84.2665C158.85 84.2745 158.962 84.2782 159.062 84.2782C159.265 84.2782 159.41 84.2416 159.498 84.1677C159.585 84.0944 159.67 83.9356 159.75 83.6917L158.158 80.5908Z" fill="#DD3E3D"/>
<path id="Fill-48" fill-rule="evenodd" clip-rule="evenodd" d="M163.695 84.9122V80.5911H164.57V82.2916H166.283V80.5911H167.158V84.9122H166.283V83.0226H164.57V84.9122H163.695Z" fill="#DD3E3D"/>
<path id="Fill-49" fill-rule="evenodd" clip-rule="evenodd" d="M169.403 80.5908H170.222V83.4681L171.976 80.5908H172.848V84.912H172.03V82.0911L170.278 84.912H169.403V80.5908Z" fill="#DD3E3D"/>
<path id="Fill-50" fill-rule="evenodd" clip-rule="evenodd" d="M175.948 83.0287V84.1842H176.758C177.072 84.1842 177.272 84.1752 177.356 84.1576C177.487 84.1343 177.593 84.0764 177.674 83.985C177.756 83.8936 177.797 83.7714 177.797 83.6179C177.797 83.4883 177.765 83.3783 177.702 83.288C177.64 83.1977 177.549 83.1318 177.429 83.0904C177.31 83.0494 177.051 83.0287 176.654 83.0287H175.948ZM175.948 81.3101V82.3094H176.521C176.862 82.3094 177.073 82.3046 177.156 82.2945C177.306 82.277 177.423 82.2255 177.509 82.1399C177.595 82.0544 177.638 81.9418 177.638 81.8021C177.638 81.6687 177.6 81.5604 177.527 81.4764C177.453 81.393 177.343 81.3425 177.198 81.3245C177.111 81.3149 176.862 81.3101 176.45 81.3101H175.948ZM175.073 80.5908H176.804C177.147 80.5908 177.402 80.6052 177.571 80.6333C177.739 80.662 177.89 80.7215 178.023 80.8118C178.155 80.9021 178.266 81.0227 178.355 81.1731C178.443 81.3234 178.488 81.4918 178.488 81.6783C178.488 81.8807 178.433 82.0666 178.324 82.2356C178.215 82.4045 178.067 82.5315 177.88 82.616C178.144 82.6925 178.347 82.8231 178.488 83.008C178.63 83.1929 178.701 83.4096 178.701 83.6593C178.701 83.8559 178.655 84.0471 178.563 84.2331C178.472 84.4185 178.347 84.5672 178.188 84.6777C178.03 84.7888 177.834 84.8573 177.602 84.8828C177.457 84.8987 177.105 84.9083 176.548 84.912H175.073V80.5908Z" fill="#DD3E3D"/>
<path id="Fill-51" fill-rule="evenodd" clip-rule="evenodd" d="M180.771 84.9122V80.5911H183.981V81.3221H181.645V82.2799H183.819V83.0082H181.645V84.1839H184.064V84.9122H180.771Z" fill="#DD3E3D"/>
<path id="Fill-52" fill-rule="evenodd" clip-rule="evenodd" d="M187.01 81.3218V82.5479H187.488C187.833 82.5479 188.063 82.5256 188.179 82.4805C188.296 82.4353 188.387 82.3641 188.453 82.268C188.519 82.1718 188.551 82.0597 188.551 81.9317C188.551 81.775 188.506 81.6448 188.413 81.5428C188.32 81.4408 188.203 81.3771 188.062 81.351C187.957 81.3319 187.748 81.3218 187.433 81.3218H187.01ZM186.136 84.912V80.5908H187.539C188.07 80.5908 188.417 80.6126 188.579 80.6556C188.827 80.7204 189.034 80.8612 189.201 81.0785C189.369 81.2958 189.453 81.5763 189.453 81.92C189.453 82.1851 189.405 82.4082 189.308 82.5894C189.212 82.77 189.089 82.9124 188.941 83.0154C188.792 83.1185 188.64 83.1865 188.487 83.22C188.278 83.2614 187.976 83.2821 187.58 83.2821H187.01V84.912H186.136Z" fill="#DD3E3D"/>
<path id="Fill-53" fill-rule="evenodd" clip-rule="evenodd" d="M194.122 83.3234L194.97 83.5917C194.84 84.0634 194.623 84.4135 194.321 84.6425C194.019 84.8715 193.636 84.9857 193.171 84.9857C192.596 84.9857 192.123 84.7896 191.753 84.3976C191.382 84.0061 191.198 83.4695 191.198 82.79C191.198 82.0707 191.383 81.5118 191.756 81.1139C192.128 80.716 192.617 80.5173 193.224 80.5173C193.754 80.5173 194.184 80.6735 194.515 80.9859C194.711 81.1708 194.859 81.4359 194.957 81.7817L194.092 81.9878C194.041 81.7636 193.934 81.5873 193.772 81.4576C193.609 81.328 193.412 81.2632 193.179 81.2632C192.858 81.2632 192.598 81.378 192.398 81.608C192.198 81.838 192.098 82.2099 192.098 82.7252C192.098 83.2713 192.197 83.6602 192.394 83.8924C192.591 84.124 192.847 84.2403 193.162 84.2403C193.394 84.2403 193.594 84.1665 193.761 84.0193C193.929 83.8717 194.049 83.64 194.122 83.3234Z" fill="#DD3E3D"/>
<path id="Fill-54" fill-rule="evenodd" clip-rule="evenodd" d="M199.195 83.2024L198.599 81.5986L198.014 83.2024H199.195ZM200.805 84.912H199.854L199.475 83.9308H197.745L197.387 84.912H196.46L198.146 80.5908H199.071L200.805 84.912Z" fill="#DD3E3D"/>
<path id="Fill-55" fill-rule="evenodd" clip-rule="evenodd" d="M202.588 84.9122V80.5911H203.896L204.682 83.5384L205.459 80.5911H206.77V84.9122H205.958V81.5107L205.099 84.9122H204.257L203.399 81.5107V84.9122H202.588Z" fill="#DD3E3D"/>
<path id="Fill-56" fill-rule="evenodd" clip-rule="evenodd" d="M213.111 84.9118H213.986V80.5906H213.111V84.9118ZM209.868 84.1871H210.721C210.993 84.1871 211.182 84.1739 211.29 84.1473C211.397 84.1207 211.493 84.0602 211.576 83.9661C211.66 83.8716 211.702 83.7563 211.702 83.6214C211.702 83.4285 211.634 83.284 211.496 83.1879C211.36 83.0917 211.113 83.0434 210.757 83.0434H209.868V84.1871ZM208.993 80.5906H209.868V82.3182H211.038C211.345 82.3182 211.609 82.3602 211.831 82.4436C212.052 82.527 212.236 82.6763 212.384 82.8914C212.532 83.1066 212.606 83.3536 212.606 83.633C212.606 83.9258 212.529 84.1776 212.375 84.389C212.222 84.5999 212.051 84.7402 211.863 84.8087C211.675 84.8778 211.4 84.9123 211.038 84.9123H208.993V80.5906Z" fill="#DD3E3D"/>
<path id="Fill-57" fill-rule="evenodd" clip-rule="evenodd" d="M73.2894 82.5323C73.2894 82.961 72.9413 83.309 72.5111 83.309C72.0815 83.309 71.7334 82.961 71.7334 82.5323C71.7334 82.1036 72.0815 81.7556 72.5111 81.7556C72.9413 81.7556 73.2894 82.1036 73.2894 82.5323Z" fill="#DD3E3D"/>
<path id="Fill-58" fill-rule="evenodd" clip-rule="evenodd" d="M152.212 82.5323C152.212 82.961 151.863 83.309 151.433 83.309C151.004 83.309 150.656 82.961 150.656 82.5323C150.656 82.1036 151.004 81.7556 151.433 81.7556C151.863 81.7556 152.212 82.1036 152.212 82.5323Z" fill="#DD3E3D"/>
</g>
</g>
</g>
<defs>
<clipPath id="clip0_102_4181">
<rect width="214" height="85" fill="white"/>
</clipPath>
</defs>
</svg>
