<svg width="200" height="69" viewBox="0 0 200 69" fill="none" xmlns="http://www.w3.org/2000/svg">
<g clip-path="url(#clip0_102_4272)">
<path fill-rule="evenodd" clip-rule="evenodd" d="M96.0883 21.1338H94.1415L93.3606 26.5618H95.3086C98.6495 26.5618 99.4155 21.1338 96.0883 21.1338ZM90.6645 16.9793H96.7068C100.951 16.9793 104.014 19.5777 103.387 23.8823C102.758 28.1827 99.108 30.7388 94.6997 30.7388H92.7534L92.0107 35.8254C91.9283 36.3998 91.3976 36.8683 90.8328 36.8683H87.7642C87.1982 36.8683 86.8036 36.3998 86.8883 35.8254L89.4842 18.021C89.5689 17.449 90.0985 16.9793 90.6645 16.9793ZM114.746 29.659L115.537 24.1099C115.804 22.713 114.715 21.5121 113.353 21.5121C111.941 21.5121 110.623 22.6773 110.414 24.1111L109.623 29.659H114.746ZM193.798 29.659L194.59 24.1099C194.857 22.713 193.767 21.5121 192.407 21.5121C190.993 21.5121 189.675 22.6773 189.466 24.1111L188.676 29.659H193.798ZM184.362 24.0948C185.002 19.8059 188.864 16.9146 193.097 16.9146C197.34 16.9146 200.354 19.8204 199.728 24.122L197.904 36.6492C197.822 37.2217 197.29 37.6908 196.725 37.6908H193.655C193.091 37.6908 192.697 37.2242 192.78 36.6492L193.194 33.8147H188.071L187.657 36.6492C187.574 37.2242 187.043 37.6908 186.478 37.6908H183.408C182.844 37.6908 182.448 37.2242 182.533 36.6492L184.362 24.0948ZM129.853 16.9146C133.78 16.9146 136.704 19.0766 136.113 23.1264C135.882 24.7164 135.172 26.1684 133.795 27.2676C134.853 28.3686 135.383 29.8188 135.149 31.41C134.648 34.8394 131.297 37.6212 126.805 37.6224H122.039C121.587 37.6224 121.272 37.2478 121.338 36.7902L121.702 34.3013C121.768 33.8432 122.193 33.4679 122.646 33.4679H127.167C128.352 33.4679 129.829 32.7482 130.026 31.41C130.222 30.0681 128.909 29.3521 127.793 29.3521H124.575C124.122 29.3521 123.808 28.9762 123.875 28.5199L124.237 26.031C124.304 25.5734 124.729 25.1976 125.181 25.1976L128.371 25.1964C129.509 25.2133 130.795 24.4555 130.99 23.1264C131.186 21.7875 130.116 21.0685 129.001 21.0685H124.482C124.029 21.0685 123.715 20.6926 123.78 20.2362L124.143 17.748C124.211 17.2904 124.635 16.9146 125.088 16.9146H129.853ZM155.122 33.5369C155.568 30.47 156.057 27.1865 156.519 24.1232C156.743 22.719 155.735 21.5261 154.337 21.5261C152.923 21.5261 151.606 22.6894 151.398 24.1232C150.936 27.1865 150.445 30.47 149.998 33.5369H155.122ZM146.177 24.6764C146.9 19.7218 150.76 16.9146 154.993 16.9146C159.238 16.9146 162.17 20.4021 161.542 24.7037L160.244 33.5369H161.916C162.407 33.5369 162.745 33.9436 162.676 34.4387L162.342 36.7902C162.272 37.2877 161.81 37.6908 161.32 37.6908H142.606C142.115 37.6908 141.777 37.2877 141.848 36.7902L142.181 34.4387C142.251 33.9436 142.712 33.5369 143.202 33.5369H144.874L146.177 24.6764ZM172.033 21.0685L171.438 25.1837H172.944C176.021 25.1837 177.085 21.1877 173.886 21.0588L172.033 21.0685ZM170.221 33.5284L173.129 33.5393C175.981 33.4243 177.094 29.3521 173.639 29.3521H170.829L170.221 33.5284ZM172.395 37.6836C170.126 37.6721 167.788 37.7253 165.516 37.6908C164.953 37.6836 164.557 37.2242 164.641 36.6492L167.368 17.9562C167.451 17.3836 167.981 16.9146 168.548 16.9146H174.692C178.584 16.9146 180.848 19.1189 180.911 22.1997C180.939 23.705 180.309 25.3537 178.809 26.8917C180.46 28.0302 181.029 29.5422 180.848 31.0704C180.457 34.4339 177.961 37.9674 172.395 37.6836ZM105.305 24.0948C105.946 19.8059 109.807 16.9146 114.04 16.9146C118.284 16.9146 121.298 19.8204 120.672 24.122L118.847 36.6492C118.763 37.2217 118.232 37.6908 117.668 37.6908H114.6C114.033 37.6908 113.641 37.2242 113.724 36.6492L114.137 33.8147H109.014L108.599 36.6492C108.515 37.2242 107.984 37.6908 107.42 37.6908H104.352C103.787 37.6908 103.392 37.2242 103.477 36.6492L105.305 24.0948ZM195.41 52.0882H193.267L194.567 43.442H196.71L195.41 52.0882ZM190.826 49.3893C190.847 49.2465 190.852 49.1115 190.842 48.9826C190.83 48.8549 190.781 48.7369 190.694 48.6291C190.607 48.522 190.478 48.4379 190.308 48.3761C190.137 48.3162 189.893 48.2866 189.576 48.2866H188.614L188.284 50.4855H189.247C189.682 50.4855 190.04 50.3917 190.322 50.204C190.605 50.0158 190.773 49.744 190.826 49.3893ZM193.047 49.3258C192.983 49.7477 192.845 50.1344 192.633 50.4891C192.421 50.8432 192.161 51.1331 191.854 51.3564C191.485 51.6246 191.103 51.8128 190.706 51.9242C190.31 52.0325 189.838 52.0882 189.293 52.0882H185.906L187.207 43.442H189.343L188.854 46.6893H190.138C190.637 46.6893 191.086 46.725 191.48 46.7958C191.873 46.8678 192.215 47.0355 192.508 47.2994C192.769 47.5312 192.939 47.8229 193.019 48.1716C193.101 48.5226 193.11 48.9069 193.047 49.3258ZM178.88 52.0882L179.931 45.0914H177.411L177.66 43.442H184.843L184.595 45.0914H182.075L181.023 52.0882H178.88ZM168.546 52.0882L169.844 43.442H175.613L175.364 45.0914H171.728L171.499 46.6076H174.85L174.602 48.2569H171.252L170.923 50.4389H174.56L174.313 52.0882H168.546ZM166.372 52.0882H163.816L162.058 48.5983H161.518L160.993 52.0882H158.85L160.149 43.442H162.293L161.763 46.9671C162.1 46.9507 162.361 46.8763 162.547 46.7401C162.733 46.6045 162.975 46.3061 163.275 45.8467C163.362 45.7093 163.461 45.5495 163.575 45.3631C163.69 45.1797 163.791 45.0169 163.876 44.8747C164.203 44.3548 164.561 43.9825 164.953 43.7574C165.343 43.5352 165.83 43.4257 166.415 43.4257C166.605 43.4257 166.762 43.4269 166.888 43.4323C167.012 43.4384 167.11 43.442 167.179 43.442L166.901 45.2935H166.408C166.163 45.2935 165.938 45.371 165.734 45.5223C165.53 45.676 165.298 45.9823 165.044 46.4399C164.841 46.8018 164.659 47.0772 164.498 47.2649C164.338 47.4543 164.196 47.5796 164.072 47.6468L166.372 52.0882ZM154.905 46.2238C154.942 45.9799 154.918 45.7699 154.829 45.5925C154.741 45.4164 154.62 45.2953 154.47 45.2306C154.282 45.141 154.096 45.0902 153.913 45.0756C153.731 45.0617 153.479 45.0557 153.164 45.0557H152.861L152.471 47.6468H152.619C152.822 47.6468 153.013 47.6444 153.193 47.6395C153.373 47.6365 153.532 47.622 153.668 47.6008C153.786 47.5808 153.913 47.5427 154.048 47.4864C154.183 47.4307 154.293 47.3678 154.373 47.2969C154.539 47.1553 154.658 47.0064 154.734 46.8515C154.81 46.6953 154.865 46.4871 154.905 46.2238ZM157.113 46.1718C157.053 46.5737 156.933 46.9568 156.75 47.3205C156.571 47.6837 156.343 47.99 156.07 48.2333C155.901 48.3834 155.721 48.5226 155.53 48.6491C155.337 48.778 155.128 48.887 154.904 48.9747C154.682 49.0643 154.443 49.1351 154.189 49.1848C153.936 49.2344 153.656 49.2604 153.35 49.2604H152.228L151.803 52.0882H149.66L150.959 43.442H154.27C154.762 43.442 155.18 43.488 155.524 43.5794C155.867 43.6702 156.169 43.8131 156.427 44.0116C156.716 44.2283 156.921 44.5176 157.042 44.8795C157.164 45.2427 157.187 45.6724 157.113 46.1718ZM144.625 48.7544L144.183 45.9054L142.883 48.7544H144.625ZM139.232 52.0882L143.414 43.442H145.75L147.332 52.0882H145.127L144.857 50.3221H142.181L141.382 52.0882H139.232ZM136.905 52.0882H134.773L135.635 46.3582L133.526 50.0576H132.066L131.07 46.3582L130.21 52.0882H128.194L129.493 43.442H131.959L133.208 47.7109L135.735 43.442H138.205L136.905 52.0882ZM124.981 52.0882H122.874L123.73 46.3915L119.599 52.0882H117.617L118.916 43.442H121.024L120.249 48.5928L124.052 43.442H126.281L124.981 52.0882ZM114.373 52.0882H112.23L112.805 48.2569H109.89L109.313 52.0882H107.171L108.471 43.442H110.614L110.137 46.6076H113.053L113.529 43.442H115.671L114.373 52.0882ZM103.96 52.0882H101.853L102.709 46.3915L98.5773 52.0882H96.5952L97.8949 43.442H100.002L99.2286 48.5928L103.031 43.442H105.26L103.96 52.0882ZM93.351 52.0882H91.2197L92.08 46.3582L89.9719 50.0576H88.511L87.5158 46.3582L86.6537 52.0882H84.6382L85.9379 43.442H88.4048L89.6543 47.7109L92.1809 43.442H94.6489L93.351 52.0882Z" fill="#1A1918"/>
<path fill-rule="evenodd" clip-rule="evenodd" d="M55.3225 59.2127C51.5601 56.1162 45.8885 54.525 45.4413 54.732C44.9935 54.9365 44.6604 55.9358 43.5034 59.8404C42.3458 63.7425 41.8861 67.7427 41.8861 67.7427C41.8503 68.5102 43.9303 67.7457 46.4759 66.4069C45.9315 66.1006 45.5631 65.6697 45.5631 64.8392C45.5631 64.0064 46.3524 63.0495 47.3273 63.0495C48.301 63.0495 49.0903 64.3302 49.0903 64.8392V64.9222C52.7983 62.6748 56.3476 59.9251 55.3225 59.2127ZM46.3685 61.9146C46.3989 61.9207 46.4282 61.9267 46.4574 61.931L46.4085 61.9455L46.3685 61.9146ZM44.8306 61.0818C45.0885 61.3426 45.3906 61.5569 45.7273 61.7088C45.6652 61.9388 45.6037 62.1658 45.5464 62.3946C45.4276 62.4836 45.3135 62.5828 45.2097 62.6906C44.6652 63.2407 44.3303 64.0004 44.3303 64.8392C44.3303 65.2405 44.4073 65.6255 44.5506 65.979C44.0903 66.1956 43.6682 66.3772 43.2998 66.5182C43.5106 65.1552 43.9046 62.9551 44.5297 60.7259C44.621 60.853 44.7201 60.9716 44.8306 61.0818ZM48.7135 58.9349C48.7135 59.9227 47.9231 60.7235 46.9482 60.7235C45.9756 60.7235 45.184 59.9227 45.184 58.9349C45.184 57.9453 45.9756 57.1451 46.9482 57.1451C47.9231 57.1451 48.7135 57.9453 48.7135 58.9349ZM52.6783 59.9415C52.6783 60.5921 52.1583 61.1181 51.5177 61.1181C50.8777 61.1181 50.3577 60.5921 50.3577 59.9415C50.3577 59.2914 50.8777 58.7654 51.5177 58.7654C52.1583 58.7654 52.6783 59.2914 52.6783 59.9415ZM49.0903 64.9222C49.0903 64.9222 49.0891 64.9222 49.0891 64.9234C49.0903 64.8961 49.0903 65.275 49.0903 64.9222ZM26.0168 32.2059C26.0168 30.959 25.0186 29.9482 23.7888 29.9482C22.5595 29.9482 21.5625 30.959 21.5625 32.2059C21.5625 33.4515 22.5595 34.4629 23.7888 34.4629C25.0186 34.4629 26.0168 33.4515 26.0168 32.2059ZM24.7309 31.8766C24.6001 31.9275 24.4825 32.0073 24.384 32.1054C24.2037 32.2876 24.0915 32.5412 24.0915 32.8196C24.0915 32.9346 24.1118 33.0472 24.1464 33.1507C24.0365 33.1918 23.9153 33.2148 23.7888 33.2148C23.5147 33.2148 23.2664 33.1029 23.0855 32.9201C22.9046 32.7367 22.7935 32.4837 22.7935 32.2059C22.7935 31.9275 22.9046 31.6757 23.0855 31.4917C23.2664 31.3101 23.5147 31.1963 23.7888 31.1963C24.0682 31.1963 24.3153 31.3077 24.4938 31.4874V31.4917C24.6001 31.5994 24.6807 31.7295 24.7309 31.8766Z" fill="#F9C623"/>
<path fill-rule="evenodd" clip-rule="evenodd" d="M63.2903 24.6589C63.2903 24.0972 63.3871 23.7486 63.799 23.4357C64.3071 23.0453 64.445 23.0538 64.2336 22.3365C64.1453 22.0363 64.045 21.7343 63.9351 21.4371C63.5877 20.4971 63.71 20.7731 62.9035 20.8954C61.8873 21.0491 60.8312 19.7006 61.3817 18.4308C61.6569 17.7977 62.1268 17.8473 61.6593 17.1857C61.5017 16.9654 61.3429 16.7518 61.1847 16.5448C60.4999 15.6599 60.7065 16.1865 59.7632 16.1865C58.83 16.1865 58.0712 15.4184 58.0712 14.473C58.0712 13.8356 58.4163 13.8429 57.7447 13.5651C55.7345 12.7286 53.1763 12.8315 53.1763 15.0001C53.1763 16.2694 54.1751 19.723 55.7924 22.6955C57.599 26.0117 60.0694 28.8104 60.5488 29.0531C62.9309 31.4518 64.236 30.05 64.5859 27.454C64.7035 26.5867 64.7733 26.5141 64.1441 26.1491C63.633 25.8543 63.2903 25.2963 63.2903 24.6589ZM62.8521 28.9224C62.805 28.9847 62.7644 29.0259 62.7285 29.0404C62.6945 29.0537 62.6175 29.038 62.4891 28.986C62.199 28.8649 61.8444 28.6022 61.4139 28.1701L61.2778 28.0321L61.0969 27.9413C60.9339 27.8596 60.1644 26.9862 59.1542 25.637C58.4103 24.6414 57.5906 23.4157 56.8688 22.0938C56.1668 20.8046 55.5853 19.4083 55.1596 18.1566C54.6778 16.7391 54.4097 15.5642 54.4097 15.0001C54.4097 14.8579 54.4235 14.7538 54.4527 14.683C54.4915 14.5886 54.5703 14.5177 54.6766 14.4657C54.8784 14.3676 55.1572 14.3229 55.4766 14.3229V14.3271C55.9106 14.3271 56.3829 14.41 56.8408 14.5535C56.8456 14.686 56.8575 14.8149 56.8784 14.942C56.8432 14.942 56.8074 14.9408 56.7745 14.9408V14.9372C56.4551 14.9372 56.1775 14.9808 55.9745 15.0794C55.8682 15.1315 55.7906 15.2047 55.7518 15.2961C55.7226 15.3687 55.7076 15.4729 55.7076 15.6121C55.7076 16.1774 55.9757 17.3516 56.4575 18.7697C56.8832 20.0232 57.4647 21.4159 58.1679 22.7088C58.8885 24.0319 59.7082 25.2551 60.4533 26.2508C61.4617 27.5999 62.2306 28.4721 62.3972 28.5556L62.5757 28.6458L62.713 28.7844C62.7608 28.831 62.8062 28.877 62.8521 28.9224ZM33.7351 6.77522C34.8766 5.29717 34.2832 1.89499 31.2456 0.50288C28.9411 -0.553909 25.0456 2.44759 23.3011 3.95591C22.2599 2.54262 22.0181 1.61475 20.5703 1.4822C19.1208 1.34783 14.8414 4.48914 17.1942 9.36212C19.5465 14.2351 24.9674 14.0269 24.9674 14.0269C27.1441 13.6934 26.9602 11.2191 25.8885 8.55349C28.7405 8.40883 32.9106 7.84291 33.7351 6.77522ZM22.1942 12.2976C20.8247 11.8013 19.2575 10.8081 18.2951 8.81617C17.7494 7.68433 17.5769 6.68383 17.6545 5.83404C17.7184 5.11378 17.9644 4.49701 18.3082 4.00433C18.6497 3.51891 19.0778 3.15635 19.5184 2.93906C19.8563 2.77262 20.1853 2.69575 20.4587 2.71935C20.4981 2.72299 20.6665 2.8622 20.9291 3.10006C21.0265 3.18783 21.1262 3.28649 21.23 3.3918C21.0957 3.43054 20.9566 3.48441 20.8163 3.55401C20.3775 3.7713 19.9476 4.13264 19.6074 4.61806C19.2635 5.11075 19.0169 5.72812 18.9524 6.44899C18.876 7.29696 19.0485 8.29867 19.5942 9.4293C20.2599 10.8081 21.2151 11.7081 22.1942 12.2976ZM31.5787 2.14072C30.8629 2.08322 29.9029 2.45546 28.9441 2.97841C27.5584 3.73317 26.2253 4.80146 25.3996 5.51506L24.4008 6.37878L23.6157 5.31896L24.0999 4.90012C24.9274 4.18712 26.2593 3.12125 27.6456 2.36588C28.8294 1.71946 30.0085 1.30425 30.7405 1.64078C31.0587 1.78543 31.3387 1.95491 31.5787 2.14072Z" fill="#EB8B2D"/>
<path fill-rule="evenodd" clip-rule="evenodd" d="M50.8886 5.65304L50.885 5.64759L50.7847 5.71296L45.6223 9.0758C44.3912 9.87838 43.6402 10.4479 42.636 9.84206C40.0707 8.29138 40.1936 8.45298 37.3357 10.2228C33.8104 12.4054 29.4975 15.1278 29.3029 16.3099C28.8539 19.01 31.2969 22.9642 33.9053 23.6747C34.9871 23.9677 38.4342 21.7724 41.9889 19.3562C44.8844 17.3867 45.8963 17.4563 45.3626 14.6418C45.1196 13.352 45.7972 12.6099 47.2151 11.6875L52.3775 8.32467L52.4766 8.26051L52.473 8.25325C53.3465 7.52572 51.9901 5.11193 50.8886 5.65304ZM41.765 10.7651C41.2372 10.6707 40.8151 10.9358 39.8378 11.5465C39.5208 11.7456 39.328 11.8667 39.2724 11.9018C37.5327 12.9785 35.5984 14.1891 34.0748 15.2749C32.7793 16.201 31.8468 16.9242 31.8133 17.1282C31.6408 18.1699 32.0659 19.5184 32.8032 20.6993C33.2402 21.399 33.7757 22.0194 34.3465 22.463C34.2915 22.4745 34.2504 22.4769 34.2223 22.4703C33.2348 22.2015 32.2354 21.2519 31.5053 20.0855C30.768 18.9047 30.3417 17.558 30.5142 16.5157C30.5495 16.3111 31.4802 15.586 32.7769 14.6618C34.2993 13.5741 36.2336 12.3636 37.9745 11.2868C38.0307 11.2517 38.2217 11.1307 38.5399 10.9315C40.1363 9.93406 40.2527 9.86083 41.765 10.7651ZM51.4957 7.41677L46.5507 10.6392C45.8617 11.0865 45.3101 11.5144 44.8993 12.0004C44.4157 12.0228 43.9035 11.8848 43.3053 11.5235C43.1877 11.4521 43.0784 11.3867 42.9757 11.3274C44.0539 11.5822 44.9029 11.0254 46.0736 10.2579L46.0748 10.2627L46.288 10.1241L51.2241 6.91017C51.2683 6.9598 51.3107 7.0173 51.3501 7.08206C51.4139 7.18617 51.4653 7.30056 51.4957 7.41677Z" fill="#009949"/>
<path fill-rule="evenodd" clip-rule="evenodd" d="M52.9256 26.416C51.5369 24.4719 49.9381 25.4512 49.602 24.9833C49.1345 24.3309 50.6647 23.5579 49.2909 21.6084C48.202 20.0595 46.6927 19.6056 46.525 20.7937L46.0235 24.3781C45.6933 26.7374 41.8336 27.0225 37.6575 27.9413C36.4157 25.7472 33.2014 26.5945 31.045 27.9751C29.8342 28.7505 28.7441 29.6178 29.0336 30.3998C29.4856 31.6104 29.7309 31.9057 29.2187 32.7579C26.8826 35.5815 26.0999 38.9262 26.0873 40.978C26.0718 43.3743 26.0527 43.3482 28.3256 43.9995C30.1506 44.52 32.605 44.7452 35.7811 43.4971C36.9441 43.3797 38.4856 44.9836 40.2002 44.6544C41.9166 44.3257 43.5656 42.3586 42.6408 40.679C41.119 37.9269 43.1106 36.5221 45.0103 33.6707C46.7071 31.1225 47.5405 28.3655 49.6175 28.6633L52.8109 29.1233C53.9829 29.2408 53.996 27.9116 52.9256 26.416ZM36.5297 28.46C36.4235 28.4551 36.3154 28.4575 36.2032 28.4648C35.4766 28.5102 31.3232 30.1456 31.4814 30.5735C31.522 30.6813 31.5859 30.8453 31.645 30.9978C32.1429 32.2761 32.3279 32.7519 31.5656 34.0211L31.5142 34.1059L31.4605 34.1718C30.519 35.3091 29.8557 36.536 29.4067 37.7114C28.8432 39.1949 28.6181 40.5828 28.6121 41.5978L28.6115 41.6559C28.6073 42.1934 28.605 42.5674 28.6103 42.7865L28.6026 42.7823C27.7679 42.5438 27.3494 42.4246 27.3303 42.3949C27.3047 42.3623 27.307 41.9222 27.313 41.0416V40.9829C27.319 39.9678 27.5447 38.583 28.1088 37.0983C28.5578 35.921 29.2211 34.696 30.1608 33.5593L30.2163 33.4921L30.2665 33.4074C31.03 32.1381 30.8444 31.6624 30.347 30.3835C30.2879 30.2346 30.2241 30.0663 30.1835 29.9592C30.0259 29.5373 34.1638 27.8965 34.9059 27.8493C35.5948 27.8075 36.199 27.9685 36.5297 28.46ZM48.507 23.7135C48.2706 24.3321 48.079 24.832 48.4748 25.5111C47.8784 28.0532 44.8957 28.6397 41.2885 29.3497C40.639 29.4756 39.9638 29.6088 39.2151 29.774L38.3369 29.9677L37.8867 29.1754L37.8832 29.1669L37.9178 29.1603C38.6659 28.9956 39.3411 28.8637 39.9894 28.7354C43.7566 27.9939 46.8432 27.3886 47.2408 24.5475L47.6503 21.6253C47.8599 21.796 48.079 22.0309 48.2891 22.3299C48.7739 23.0174 48.6217 23.4181 48.507 23.7135ZM15.1148 60.3386C15.1148 59.0911 14.1172 58.0803 12.8873 58.0803C11.6569 58.0803 10.6587 59.0911 10.6587 60.3386C10.6587 61.5854 11.6569 62.5962 12.8873 62.5962C14.1172 62.5962 15.1148 61.5854 15.1148 60.3386ZM13.8294 60.0093C13.6975 60.0614 13.5793 60.1394 13.4808 60.2375C13.3011 60.4209 13.1906 60.6751 13.1906 60.9529C13.1906 61.0679 13.2085 61.1799 13.2426 61.2822C13.1327 61.3251 13.0121 61.3475 12.8873 61.3475C12.6133 61.3475 12.3626 61.235 12.1823 61.0534H12.1775C12.002 60.8724 11.8915 60.6218 11.8915 60.3386C11.8915 60.0602 12.0032 59.8078 12.1823 59.625C12.3626 59.4422 12.6133 59.3296 12.8873 59.3296C13.1626 59.3296 13.4109 59.4422 13.5924 59.625C13.6975 59.7327 13.7793 59.864 13.8294 60.0093Z" fill="#00A3DB"/>
<path fill-rule="evenodd" clip-rule="evenodd" d="M53.2019 33.6531C53.2019 32.4081 52.2037 31.3967 50.9744 31.3967C49.7446 31.3967 48.7464 32.4081 48.7464 33.6531C48.7464 34.9017 49.7446 35.9113 50.9744 35.9113C52.2037 35.9113 53.2019 34.9017 53.2019 33.6531ZM51.9153 33.3244C51.784 33.3753 51.667 33.4552 51.5691 33.5532C51.3876 33.736 51.2765 33.9902 51.2765 34.268C51.2765 34.3836 51.295 34.4956 51.3302 34.5979C51.2204 34.6403 51.1004 34.6627 50.9744 34.6627C50.6992 34.6627 50.4497 34.5495 50.27 34.3679H50.2658C50.0885 34.1875 49.9786 33.937 49.9786 33.6531C49.9786 33.3753 50.0897 33.1211 50.27 32.9401C50.4497 32.7567 50.6992 32.6435 50.9744 32.6435C51.2532 32.6435 51.5004 32.7555 51.6789 32.9346V32.9401C51.784 33.0472 51.8652 33.178 51.9153 33.3244ZM23.2461 19.9227C22.5302 18.4925 21.2556 17.633 19.6043 17.6306C18.9177 17.6293 18.9297 17.6705 18.7744 17.0035C18.7034 16.7009 18.5959 16.4031 18.4526 16.1156C17.4485 14.1122 14.9559 13.3084 12.6431 14.1297C11.8001 14.4299 11.9368 14.5316 11.2873 13.9996C9.88308 12.8496 7.85443 12.7418 5.94338 13.7278C4.02159 14.7162 2.91174 16.5417 3.01323 18.3775C3.04667 19.0021 3.08846 18.9767 2.59711 19.2684C0.323084 20.62 -0.585573 23.2637 0.474129 25.381C0.595323 25.6225 0.739203 25.8464 0.900397 26.0528C1.49025 26.8076 1.32428 26.672 0.930845 27.3238C0.131442 28.6457 0.004875 30.211 0.683084 31.5498C1.48547 33.1386 4.71055 34.5126 7.20129 33.2276C7.8789 32.8802 8.45502 32.4165 8.91234 31.8833C10.055 30.5475 13.5201 34.2196 14.0926 35.3599C16.3858 39.9357 18.6413 38.773 18.6413 38.773C18.6413 38.773 20.898 37.6091 18.6037 33.0351C17.4926 30.818 16.7398 27.52 19.707 26.6629C20.0562 26.5624 20.4031 26.425 20.7404 26.2519C23.2317 24.9676 24.3553 22.1325 23.2461 19.9227ZM10.5302 14.9807C10.372 14.948 10.2097 14.9281 10.0443 14.9196C9.33383 14.8839 8.56249 15.0594 7.8007 15.4516H7.79592C7.04189 15.8414 6.45144 16.3819 6.06219 16.9987C5.69025 17.5912 5.50279 18.2582 5.53741 18.9173L5.54577 19.0529C5.57323 19.4887 5.58637 19.7193 5.40965 20.0994C5.2001 20.5491 4.98279 20.6781 4.5207 20.9522L4.51711 20.9571L4.51055 20.9595L4.50935 20.9583C3.63711 21.4794 3.02876 22.2348 2.74458 23.0573V23.0622C2.47234 23.8424 2.49682 24.6855 2.86816 25.4276C2.91532 25.5214 2.9607 25.6013 3.00308 25.6678C3.05204 25.7447 3.10458 25.8204 3.16129 25.8906C4.21383 27.2355 4.15473 27.319 3.42995 28.3588C3.38279 28.4266 3.32368 28.5108 3.27771 28.5864C2.97861 29.0821 2.80786 29.6154 2.77622 30.1432C2.74816 30.6431 2.84189 31.1431 3.07353 31.5982C3.19473 31.8391 3.4198 32.0764 3.71592 32.2888C2.78458 32.011 2.03831 31.5062 1.77443 30.9845C1.54279 30.5281 1.44905 30.0312 1.47711 29.5288C1.50876 29.001 1.6795 28.4684 1.9798 27.9727C2.02577 27.8964 2.08308 27.8135 2.13204 27.7439C2.85682 26.7059 2.91532 26.6205 1.86219 25.2775C1.80607 25.2054 1.75413 25.131 1.70517 25.0541C1.66219 24.9881 1.61741 24.9076 1.57085 24.8144C1.1989 24.0718 1.17323 23.2286 1.44547 22.4485V22.4442C1.72965 21.6211 2.33801 20.8657 3.21144 20.3446L3.21264 20.347L3.21801 20.3433L3.22279 20.3373C3.68368 20.0643 3.90099 19.9342 4.10995 19.4863C4.28726 19.1062 4.27413 18.875 4.24726 18.438L4.2395 18.3036C4.20547 17.6433 4.39114 16.9775 4.76428 16.3843C5.15413 15.767 5.74279 15.2271 6.49741 14.8391H6.50159C7.26279 14.4451 8.03532 14.2707 8.74637 14.3065C9.40726 14.3397 10.0198 14.5625 10.5183 14.9692L10.5302 14.9807ZM16.615 15.7645C15.9064 15.6029 15.1159 15.6453 14.3446 15.9195C14.2198 15.9649 14.1207 16.0036 14.0389 16.0345C13.661 16.184 13.4485 16.2681 13.0532 16.2282C12.5505 16.1803 12.335 16.0097 11.8628 15.6223C12.1923 15.6362 12.3983 15.5557 12.7416 15.422C12.8228 15.3887 12.9213 15.3499 13.0479 15.3063C13.9511 14.9856 14.8801 14.9807 15.6723 15.2513C16.0192 15.3699 16.3386 15.5412 16.615 15.7645ZM18.0049 37.6829C17.6747 37.7453 16.6246 37.663 15.1888 34.8001C14.8723 34.1663 13.8729 32.9377 12.7822 31.9777C12.3983 31.6388 11.9947 31.3228 11.5965 31.065C11.818 31.1267 12.0419 31.2145 12.2682 31.3228C12.8634 31.6127 13.4932 32.0727 14.0807 32.5908C15.1714 33.5514 16.1691 34.7795 16.4867 35.4132C17.0616 36.5583 17.5738 37.2611 18.0049 37.6829ZM21.4335 19.5311C21.2628 19.5026 21.0867 19.4887 20.9016 19.4875H20.7882C20.2508 19.4887 19.9673 19.4899 19.5511 19.1764C19.4156 19.0735 19.3141 18.9767 19.2341 18.8726C19.3129 18.8738 19.3989 18.8738 19.4902 18.8738H19.6043C20.1786 18.875 20.6807 19.0178 21.0998 19.2829C21.2162 19.355 21.3267 19.4391 21.4335 19.5311Z" fill="#9EC83C"/>
<path fill-rule="evenodd" clip-rule="evenodd" d="M38.1893 49.8275C35.4269 45.8346 28.7254 48.7913 27.9499 53.0027C27.4657 55.6247 28.2621 55.3318 25.5087 54.8584C20.843 54.0559 16.2359 59.6098 18.9385 63.5167C21.4448 67.1386 27.0985 67.9836 33.8388 68.5931C37.0753 68.886 37.1427 68.3964 38.0221 65.2496C39.4562 60.126 40.9266 53.7841 38.1893 49.8275ZM36.572 49.8789L36.5045 49.865C35.8777 49.7446 35.1959 49.793 34.5194 49.9728C33.8162 50.161 33.1284 50.4897 32.5171 50.923C31.4645 51.6729 30.6639 52.7116 30.455 53.8452C30.3612 54.3537 30.3188 54.7568 30.2866 55.0606C30.203 55.8614 30.1565 56.2893 29.5929 56.7178C29 57.1693 28.5356 57.0761 27.5463 56.8794C27.2705 56.8237 26.932 56.7565 26.6054 56.7015C25.3135 56.4781 24.0132 56.8806 22.9559 57.6324L22.9582 57.6348C22.366 58.0554 21.8526 58.5826 21.4603 59.1709C21.0794 59.7423 20.8174 60.3609 20.7135 60.9819C20.575 61.8075 20.7171 62.656 21.2418 63.4138C21.8191 64.2485 22.6132 64.9161 23.5833 65.4578C22.0114 64.8277 20.7612 63.9816 19.9439 62.8001C19.4191 62.0423 19.2771 61.1925 19.4144 60.3669C19.5182 59.7465 19.7821 59.1274 20.1624 58.5566C20.5547 57.9689 21.0693 57.4405 21.6591 57.0204L21.658 57.0186C22.7159 56.2669 24.0156 55.865 25.3075 56.0871C25.6335 56.1434 25.9726 56.21 26.2472 56.2657C27.2377 56.463 27.7003 56.555 28.295 56.1041C28.8585 55.6755 28.9051 55.2482 28.9887 54.4469C29.0191 54.1442 29.0621 53.7411 29.1571 53.2315C29.3648 52.0997 30.1666 51.0592 31.2191 50.3111C31.8287 49.8771 32.5194 49.5473 33.2215 49.359C33.898 49.178 34.5785 49.1314 35.2048 49.2507C35.7009 49.3457 36.1672 49.5473 36.572 49.8789Z" fill="#BA187A"/>
<path fill-rule="evenodd" clip-rule="evenodd" d="M66.6145 32.9595C65.8706 33.2216 64.4981 33.2489 62.1333 33.1587C58.9727 33.0394 58.1763 35.6269 57.9196 37.4996C57.685 39.2198 56.427 37.4905 54.2079 37.6074C49.7596 37.8404 47.6235 41.1633 47.4599 45.6749C47.1357 54.6255 60.227 57.1979 63.1781 48.6928C64.1966 45.7603 64.2778 40.9811 60.5632 40.0714C59.2288 39.7464 56.9811 39.0019 59.713 38.6284C60.4838 38.5225 60.4838 38.4432 61.9542 38.5086C64.9859 38.6418 66.673 37.1159 67.2539 35.2148C67.8229 33.3578 68.0044 32.4699 66.6145 32.9595ZM57.3888 39.8359L57.3644 39.8269C56.8784 39.6538 56.2497 39.428 55.5673 39.4661C53.802 39.5569 52.4915 40.2203 51.602 41.2843C50.5853 42.4991 50.0605 44.2628 49.9859 46.334C49.8993 48.7061 50.9291 50.5412 52.4557 51.7154C52.6736 51.8831 52.9035 52.0393 53.1399 52.1809C52.4265 51.923 51.7524 51.5605 51.1566 51.1017C49.6312 49.9269 48.602 48.0923 48.6867 45.7197C48.7614 43.6485 49.2873 41.886 50.3029 40.6718C51.1936 39.6065 52.5047 38.9438 54.27 38.8512C54.9518 38.8149 55.5805 39.04 56.0653 39.2131C56.4163 39.3372 56.7172 39.4443 57.0402 39.4897C57.11 39.5 57.1805 39.5085 57.2467 39.5152C57.2629 39.5654 57.2826 39.6168 57.3053 39.6689C57.3297 39.7246 57.3578 39.7827 57.3888 39.8359ZM66.239 34.3244C66.1912 34.4842 66.1387 34.6609 66.082 34.8498C66.0587 34.92 66.0354 34.9902 66.0097 35.0574C65.3005 35.0731 64.4378 35.0556 63.3871 35.0162C62.2945 34.9751 61.6324 35.3739 61.2253 35.9326C60.9524 36.3121 60.7679 36.7751 60.639 37.2497C60.3602 37.266 60.1667 37.2981 59.9202 37.3368C59.8235 37.3532 59.7142 37.3725 59.5494 37.3925C59.4157 37.4125 59.2885 37.4324 59.1685 37.4548C59.285 36.7267 59.4957 35.9144 59.9285 35.3189C60.3333 34.7596 60.9966 34.3619 62.0891 34.4025C63.2999 34.4491 64.2617 34.4642 65.0241 34.4346C65.4885 34.4176 65.8891 34.3813 66.239 34.3244ZM43.7835 3.00568C43.7835 1.75823 42.7853 0.748047 41.5578 0.748047C40.3262 0.748047 39.3291 1.75823 39.3291 3.00568C39.3291 4.25131 40.3262 5.2627 41.5578 5.2627C42.7853 5.2627 43.7835 4.25131 43.7835 3.00568ZM42.4987 2.67581C42.3668 2.72605 42.2491 2.80655 42.1512 2.9052C41.9715 3.08739 41.8587 3.33978 41.8587 3.61942C41.8587 3.73684 41.8784 3.84699 41.9118 3.95049C41.8026 3.99165 41.6826 4.01526 41.5578 4.01526C41.2814 4.01526 41.0318 3.90268 40.8521 3.71807H40.8485C40.6712 3.54013 40.5608 3.28652 40.5608 3.00568C40.5608 2.72605 40.6724 2.47426 40.8521 2.29147C41.0318 2.10928 41.2814 1.99549 41.5578 1.99549C41.8348 1.99549 42.0844 2.10686 42.2605 2.28602V2.29147C42.3668 2.3986 42.4485 2.52934 42.4987 2.67581ZM26.3447 46.9799C26.4915 45.943 25.836 45.4122 25.0187 45.3257C24.2026 45.2415 23.4909 45.7064 23.4085 46.5344C23.3082 47.521 21.5662 46.854 20.9423 46.6942C15.6939 45.3511 11.5942 38.3972 6.78466 38.3972C1.97451 38.3972 1.37451 42.0821 1.37451 46.6264C1.37451 51.1713 3.7972 54.8537 6.78466 54.8537C12.7906 54.8537 17.0647 49.9124 21.119 49.0529C21.876 48.8925 23.2587 48.6123 23.1214 49.5534C23.0038 50.376 23.6396 50.974 24.4569 51.0581C25.2724 51.1441 26.0629 50.8796 26.0856 49.715C26.1112 48.5505 25.3011 48.6256 25.3459 48.2509C25.3918 47.8775 26.199 48.0179 26.3447 46.9799ZM10.6647 40.7239C9.87839 40.4315 9.02765 40.2614 8.08377 40.2614C7.02824 40.2614 6.03541 40.9696 5.28317 42.1166C4.43063 43.4082 3.90526 45.2204 3.90526 47.2407C3.90526 49.2587 4.43063 51.0708 5.28317 52.3643C5.60257 52.8515 5.96496 53.2583 6.356 53.5663C5.46347 53.4041 4.63362 52.7402 3.98526 51.7518C3.13272 50.4577 2.60556 48.6468 2.60556 46.6264C2.60556 44.6072 3.13272 42.7963 3.98526 41.4998C4.7363 40.3559 5.73033 39.6459 6.78466 39.6459C8.27302 39.6459 9.53272 40.0702 10.6647 40.7239Z" fill="#D9222A"/>
</g>
<defs>
<clipPath id="clip0_102_4272">
<rect width="200" height="69" fill="white"/>
</clipPath>
</defs>
</svg>
